%TF.GenerationSoftware,KiCad,Pcbnew,7.0.7*%
%TF.CreationDate,2023-09-27T12:22:37+02:00*%
%TF.ProjectId,EEE4022S Receiver Circuit,45454534-3032-4325-9320-526563656976,rev?*%
%TF.SameCoordinates,Original*%
%TF.FileFunction,Legend,Top*%
%TF.FilePolarity,Positive*%
%FSLAX46Y46*%
G04 Gerber Fmt 4.6, Leading zero omitted, Abs format (unit mm)*
G04 Created by KiCad (PCBNEW 7.0.7) date 2023-09-27 12:22:37*
%MOMM*%
%LPD*%
G01*
G04 APERTURE LIST*
%ADD10C,0.300000*%
%ADD11C,0.100000*%
%ADD12C,0.120000*%
%ADD13O,1.700000X1.700000*%
%ADD14R,1.700000X1.700000*%
G04 APERTURE END LIST*
D10*
X81580510Y-137312114D02*
X82080510Y-137312114D01*
X82294796Y-138097828D02*
X81580510Y-138097828D01*
X81580510Y-138097828D02*
X81580510Y-136597828D01*
X81580510Y-136597828D02*
X82294796Y-136597828D01*
X82937653Y-137312114D02*
X83437653Y-137312114D01*
X83651939Y-138097828D02*
X82937653Y-138097828D01*
X82937653Y-138097828D02*
X82937653Y-136597828D01*
X82937653Y-136597828D02*
X83651939Y-136597828D01*
X84294796Y-137312114D02*
X84794796Y-137312114D01*
X85009082Y-138097828D02*
X84294796Y-138097828D01*
X84294796Y-138097828D02*
X84294796Y-136597828D01*
X84294796Y-136597828D02*
X85009082Y-136597828D01*
X86294797Y-137097828D02*
X86294797Y-138097828D01*
X85937654Y-136526400D02*
X85580511Y-137597828D01*
X85580511Y-137597828D02*
X86509082Y-137597828D01*
X87366225Y-136597828D02*
X87509082Y-136597828D01*
X87509082Y-136597828D02*
X87651939Y-136669257D01*
X87651939Y-136669257D02*
X87723368Y-136740685D01*
X87723368Y-136740685D02*
X87794796Y-136883542D01*
X87794796Y-136883542D02*
X87866225Y-137169257D01*
X87866225Y-137169257D02*
X87866225Y-137526400D01*
X87866225Y-137526400D02*
X87794796Y-137812114D01*
X87794796Y-137812114D02*
X87723368Y-137954971D01*
X87723368Y-137954971D02*
X87651939Y-138026400D01*
X87651939Y-138026400D02*
X87509082Y-138097828D01*
X87509082Y-138097828D02*
X87366225Y-138097828D01*
X87366225Y-138097828D02*
X87223368Y-138026400D01*
X87223368Y-138026400D02*
X87151939Y-137954971D01*
X87151939Y-137954971D02*
X87080510Y-137812114D01*
X87080510Y-137812114D02*
X87009082Y-137526400D01*
X87009082Y-137526400D02*
X87009082Y-137169257D01*
X87009082Y-137169257D02*
X87080510Y-136883542D01*
X87080510Y-136883542D02*
X87151939Y-136740685D01*
X87151939Y-136740685D02*
X87223368Y-136669257D01*
X87223368Y-136669257D02*
X87366225Y-136597828D01*
X88437653Y-136740685D02*
X88509081Y-136669257D01*
X88509081Y-136669257D02*
X88651939Y-136597828D01*
X88651939Y-136597828D02*
X89009081Y-136597828D01*
X89009081Y-136597828D02*
X89151939Y-136669257D01*
X89151939Y-136669257D02*
X89223367Y-136740685D01*
X89223367Y-136740685D02*
X89294796Y-136883542D01*
X89294796Y-136883542D02*
X89294796Y-137026400D01*
X89294796Y-137026400D02*
X89223367Y-137240685D01*
X89223367Y-137240685D02*
X88366224Y-138097828D01*
X88366224Y-138097828D02*
X89294796Y-138097828D01*
X89866224Y-136740685D02*
X89937652Y-136669257D01*
X89937652Y-136669257D02*
X90080510Y-136597828D01*
X90080510Y-136597828D02*
X90437652Y-136597828D01*
X90437652Y-136597828D02*
X90580510Y-136669257D01*
X90580510Y-136669257D02*
X90651938Y-136740685D01*
X90651938Y-136740685D02*
X90723367Y-136883542D01*
X90723367Y-136883542D02*
X90723367Y-137026400D01*
X90723367Y-137026400D02*
X90651938Y-137240685D01*
X90651938Y-137240685D02*
X89794795Y-138097828D01*
X89794795Y-138097828D02*
X90723367Y-138097828D01*
X91294795Y-138026400D02*
X91509081Y-138097828D01*
X91509081Y-138097828D02*
X91866223Y-138097828D01*
X91866223Y-138097828D02*
X92009081Y-138026400D01*
X92009081Y-138026400D02*
X92080509Y-137954971D01*
X92080509Y-137954971D02*
X92151938Y-137812114D01*
X92151938Y-137812114D02*
X92151938Y-137669257D01*
X92151938Y-137669257D02*
X92080509Y-137526400D01*
X92080509Y-137526400D02*
X92009081Y-137454971D01*
X92009081Y-137454971D02*
X91866223Y-137383542D01*
X91866223Y-137383542D02*
X91580509Y-137312114D01*
X91580509Y-137312114D02*
X91437652Y-137240685D01*
X91437652Y-137240685D02*
X91366223Y-137169257D01*
X91366223Y-137169257D02*
X91294795Y-137026400D01*
X91294795Y-137026400D02*
X91294795Y-136883542D01*
X91294795Y-136883542D02*
X91366223Y-136740685D01*
X91366223Y-136740685D02*
X91437652Y-136669257D01*
X91437652Y-136669257D02*
X91580509Y-136597828D01*
X91580509Y-136597828D02*
X91937652Y-136597828D01*
X91937652Y-136597828D02*
X92151938Y-136669257D01*
X82437653Y-140512828D02*
X81937653Y-139798542D01*
X81580510Y-140512828D02*
X81580510Y-139012828D01*
X81580510Y-139012828D02*
X82151939Y-139012828D01*
X82151939Y-139012828D02*
X82294796Y-139084257D01*
X82294796Y-139084257D02*
X82366225Y-139155685D01*
X82366225Y-139155685D02*
X82437653Y-139298542D01*
X82437653Y-139298542D02*
X82437653Y-139512828D01*
X82437653Y-139512828D02*
X82366225Y-139655685D01*
X82366225Y-139655685D02*
X82294796Y-139727114D01*
X82294796Y-139727114D02*
X82151939Y-139798542D01*
X82151939Y-139798542D02*
X81580510Y-139798542D01*
X83651939Y-140441400D02*
X83509082Y-140512828D01*
X83509082Y-140512828D02*
X83223368Y-140512828D01*
X83223368Y-140512828D02*
X83080510Y-140441400D01*
X83080510Y-140441400D02*
X83009082Y-140298542D01*
X83009082Y-140298542D02*
X83009082Y-139727114D01*
X83009082Y-139727114D02*
X83080510Y-139584257D01*
X83080510Y-139584257D02*
X83223368Y-139512828D01*
X83223368Y-139512828D02*
X83509082Y-139512828D01*
X83509082Y-139512828D02*
X83651939Y-139584257D01*
X83651939Y-139584257D02*
X83723368Y-139727114D01*
X83723368Y-139727114D02*
X83723368Y-139869971D01*
X83723368Y-139869971D02*
X83009082Y-140012828D01*
X85009082Y-140441400D02*
X84866224Y-140512828D01*
X84866224Y-140512828D02*
X84580510Y-140512828D01*
X84580510Y-140512828D02*
X84437653Y-140441400D01*
X84437653Y-140441400D02*
X84366224Y-140369971D01*
X84366224Y-140369971D02*
X84294796Y-140227114D01*
X84294796Y-140227114D02*
X84294796Y-139798542D01*
X84294796Y-139798542D02*
X84366224Y-139655685D01*
X84366224Y-139655685D02*
X84437653Y-139584257D01*
X84437653Y-139584257D02*
X84580510Y-139512828D01*
X84580510Y-139512828D02*
X84866224Y-139512828D01*
X84866224Y-139512828D02*
X85009082Y-139584257D01*
X86223367Y-140441400D02*
X86080510Y-140512828D01*
X86080510Y-140512828D02*
X85794796Y-140512828D01*
X85794796Y-140512828D02*
X85651938Y-140441400D01*
X85651938Y-140441400D02*
X85580510Y-140298542D01*
X85580510Y-140298542D02*
X85580510Y-139727114D01*
X85580510Y-139727114D02*
X85651938Y-139584257D01*
X85651938Y-139584257D02*
X85794796Y-139512828D01*
X85794796Y-139512828D02*
X86080510Y-139512828D01*
X86080510Y-139512828D02*
X86223367Y-139584257D01*
X86223367Y-139584257D02*
X86294796Y-139727114D01*
X86294796Y-139727114D02*
X86294796Y-139869971D01*
X86294796Y-139869971D02*
X85580510Y-140012828D01*
X86937652Y-140512828D02*
X86937652Y-139512828D01*
X86937652Y-139012828D02*
X86866224Y-139084257D01*
X86866224Y-139084257D02*
X86937652Y-139155685D01*
X86937652Y-139155685D02*
X87009081Y-139084257D01*
X87009081Y-139084257D02*
X86937652Y-139012828D01*
X86937652Y-139012828D02*
X86937652Y-139155685D01*
X87509081Y-139512828D02*
X87866224Y-140512828D01*
X87866224Y-140512828D02*
X88223367Y-139512828D01*
X89366224Y-140441400D02*
X89223367Y-140512828D01*
X89223367Y-140512828D02*
X88937653Y-140512828D01*
X88937653Y-140512828D02*
X88794795Y-140441400D01*
X88794795Y-140441400D02*
X88723367Y-140298542D01*
X88723367Y-140298542D02*
X88723367Y-139727114D01*
X88723367Y-139727114D02*
X88794795Y-139584257D01*
X88794795Y-139584257D02*
X88937653Y-139512828D01*
X88937653Y-139512828D02*
X89223367Y-139512828D01*
X89223367Y-139512828D02*
X89366224Y-139584257D01*
X89366224Y-139584257D02*
X89437653Y-139727114D01*
X89437653Y-139727114D02*
X89437653Y-139869971D01*
X89437653Y-139869971D02*
X88723367Y-140012828D01*
X81580510Y-142927828D02*
X81580510Y-141427828D01*
X81580510Y-141427828D02*
X82080510Y-142499257D01*
X82080510Y-142499257D02*
X82580510Y-141427828D01*
X82580510Y-141427828D02*
X82580510Y-142927828D01*
X83509082Y-142927828D02*
X83366225Y-142856400D01*
X83366225Y-142856400D02*
X83294796Y-142784971D01*
X83294796Y-142784971D02*
X83223368Y-142642114D01*
X83223368Y-142642114D02*
X83223368Y-142213542D01*
X83223368Y-142213542D02*
X83294796Y-142070685D01*
X83294796Y-142070685D02*
X83366225Y-141999257D01*
X83366225Y-141999257D02*
X83509082Y-141927828D01*
X83509082Y-141927828D02*
X83723368Y-141927828D01*
X83723368Y-141927828D02*
X83866225Y-141999257D01*
X83866225Y-141999257D02*
X83937654Y-142070685D01*
X83937654Y-142070685D02*
X84009082Y-142213542D01*
X84009082Y-142213542D02*
X84009082Y-142642114D01*
X84009082Y-142642114D02*
X83937654Y-142784971D01*
X83937654Y-142784971D02*
X83866225Y-142856400D01*
X83866225Y-142856400D02*
X83723368Y-142927828D01*
X83723368Y-142927828D02*
X83509082Y-142927828D01*
X85294797Y-142927828D02*
X85294797Y-141427828D01*
X85294797Y-142856400D02*
X85151939Y-142927828D01*
X85151939Y-142927828D02*
X84866225Y-142927828D01*
X84866225Y-142927828D02*
X84723368Y-142856400D01*
X84723368Y-142856400D02*
X84651939Y-142784971D01*
X84651939Y-142784971D02*
X84580511Y-142642114D01*
X84580511Y-142642114D02*
X84580511Y-142213542D01*
X84580511Y-142213542D02*
X84651939Y-142070685D01*
X84651939Y-142070685D02*
X84723368Y-141999257D01*
X84723368Y-141999257D02*
X84866225Y-141927828D01*
X84866225Y-141927828D02*
X85151939Y-141927828D01*
X85151939Y-141927828D02*
X85294797Y-141999257D01*
X86651940Y-141927828D02*
X86651940Y-142927828D01*
X86009082Y-141927828D02*
X86009082Y-142713542D01*
X86009082Y-142713542D02*
X86080511Y-142856400D01*
X86080511Y-142856400D02*
X86223368Y-142927828D01*
X86223368Y-142927828D02*
X86437654Y-142927828D01*
X86437654Y-142927828D02*
X86580511Y-142856400D01*
X86580511Y-142856400D02*
X86651940Y-142784971D01*
X87580511Y-142927828D02*
X87437654Y-142856400D01*
X87437654Y-142856400D02*
X87366225Y-142713542D01*
X87366225Y-142713542D02*
X87366225Y-141427828D01*
X88723368Y-142856400D02*
X88580511Y-142927828D01*
X88580511Y-142927828D02*
X88294797Y-142927828D01*
X88294797Y-142927828D02*
X88151939Y-142856400D01*
X88151939Y-142856400D02*
X88080511Y-142713542D01*
X88080511Y-142713542D02*
X88080511Y-142142114D01*
X88080511Y-142142114D02*
X88151939Y-141999257D01*
X88151939Y-141999257D02*
X88294797Y-141927828D01*
X88294797Y-141927828D02*
X88580511Y-141927828D01*
X88580511Y-141927828D02*
X88723368Y-141999257D01*
X88723368Y-141999257D02*
X88794797Y-142142114D01*
X88794797Y-142142114D02*
X88794797Y-142284971D01*
X88794797Y-142284971D02*
X88080511Y-142427828D01*
X82080510Y-144557114D02*
X82294796Y-144628542D01*
X82294796Y-144628542D02*
X82366225Y-144699971D01*
X82366225Y-144699971D02*
X82437653Y-144842828D01*
X82437653Y-144842828D02*
X82437653Y-145057114D01*
X82437653Y-145057114D02*
X82366225Y-145199971D01*
X82366225Y-145199971D02*
X82294796Y-145271400D01*
X82294796Y-145271400D02*
X82151939Y-145342828D01*
X82151939Y-145342828D02*
X81580510Y-145342828D01*
X81580510Y-145342828D02*
X81580510Y-143842828D01*
X81580510Y-143842828D02*
X82080510Y-143842828D01*
X82080510Y-143842828D02*
X82223368Y-143914257D01*
X82223368Y-143914257D02*
X82294796Y-143985685D01*
X82294796Y-143985685D02*
X82366225Y-144128542D01*
X82366225Y-144128542D02*
X82366225Y-144271400D01*
X82366225Y-144271400D02*
X82294796Y-144414257D01*
X82294796Y-144414257D02*
X82223368Y-144485685D01*
X82223368Y-144485685D02*
X82080510Y-144557114D01*
X82080510Y-144557114D02*
X81580510Y-144557114D01*
X82937653Y-144342828D02*
X83294796Y-145342828D01*
X83651939Y-144342828D02*
X83294796Y-145342828D01*
X83294796Y-145342828D02*
X83151939Y-145699971D01*
X83151939Y-145699971D02*
X83080510Y-145771400D01*
X83080510Y-145771400D02*
X82937653Y-145842828D01*
X86223367Y-145342828D02*
X85723367Y-144628542D01*
X85366224Y-145342828D02*
X85366224Y-143842828D01*
X85366224Y-143842828D02*
X85937653Y-143842828D01*
X85937653Y-143842828D02*
X86080510Y-143914257D01*
X86080510Y-143914257D02*
X86151939Y-143985685D01*
X86151939Y-143985685D02*
X86223367Y-144128542D01*
X86223367Y-144128542D02*
X86223367Y-144342828D01*
X86223367Y-144342828D02*
X86151939Y-144485685D01*
X86151939Y-144485685D02*
X86080510Y-144557114D01*
X86080510Y-144557114D02*
X85937653Y-144628542D01*
X85937653Y-144628542D02*
X85366224Y-144628542D01*
X87080510Y-145342828D02*
X86937653Y-145271400D01*
X86937653Y-145271400D02*
X86866224Y-145199971D01*
X86866224Y-145199971D02*
X86794796Y-145057114D01*
X86794796Y-145057114D02*
X86794796Y-144628542D01*
X86794796Y-144628542D02*
X86866224Y-144485685D01*
X86866224Y-144485685D02*
X86937653Y-144414257D01*
X86937653Y-144414257D02*
X87080510Y-144342828D01*
X87080510Y-144342828D02*
X87294796Y-144342828D01*
X87294796Y-144342828D02*
X87437653Y-144414257D01*
X87437653Y-144414257D02*
X87509082Y-144485685D01*
X87509082Y-144485685D02*
X87580510Y-144628542D01*
X87580510Y-144628542D02*
X87580510Y-145057114D01*
X87580510Y-145057114D02*
X87509082Y-145199971D01*
X87509082Y-145199971D02*
X87437653Y-145271400D01*
X87437653Y-145271400D02*
X87294796Y-145342828D01*
X87294796Y-145342828D02*
X87080510Y-145342828D01*
X88223367Y-145342828D02*
X88223367Y-144342828D01*
X88223367Y-144628542D02*
X88294796Y-144485685D01*
X88294796Y-144485685D02*
X88366225Y-144414257D01*
X88366225Y-144414257D02*
X88509082Y-144342828D01*
X88509082Y-144342828D02*
X88651939Y-144342828D01*
X89009081Y-144342828D02*
X89366224Y-145342828D01*
X89723367Y-144342828D02*
X89366224Y-145342828D01*
X89366224Y-145342828D02*
X89223367Y-145699971D01*
X89223367Y-145699971D02*
X89151938Y-145771400D01*
X89151938Y-145771400D02*
X89009081Y-145842828D01*
X91366224Y-145271400D02*
X91580510Y-145342828D01*
X91580510Y-145342828D02*
X91937652Y-145342828D01*
X91937652Y-145342828D02*
X92080510Y-145271400D01*
X92080510Y-145271400D02*
X92151938Y-145199971D01*
X92151938Y-145199971D02*
X92223367Y-145057114D01*
X92223367Y-145057114D02*
X92223367Y-144914257D01*
X92223367Y-144914257D02*
X92151938Y-144771400D01*
X92151938Y-144771400D02*
X92080510Y-144699971D01*
X92080510Y-144699971D02*
X91937652Y-144628542D01*
X91937652Y-144628542D02*
X91651938Y-144557114D01*
X91651938Y-144557114D02*
X91509081Y-144485685D01*
X91509081Y-144485685D02*
X91437652Y-144414257D01*
X91437652Y-144414257D02*
X91366224Y-144271400D01*
X91366224Y-144271400D02*
X91366224Y-144128542D01*
X91366224Y-144128542D02*
X91437652Y-143985685D01*
X91437652Y-143985685D02*
X91509081Y-143914257D01*
X91509081Y-143914257D02*
X91651938Y-143842828D01*
X91651938Y-143842828D02*
X92009081Y-143842828D01*
X92009081Y-143842828D02*
X92223367Y-143914257D01*
X93509081Y-145271400D02*
X93366223Y-145342828D01*
X93366223Y-145342828D02*
X93080509Y-145342828D01*
X93080509Y-145342828D02*
X92937652Y-145271400D01*
X92937652Y-145271400D02*
X92866223Y-145199971D01*
X92866223Y-145199971D02*
X92794795Y-145057114D01*
X92794795Y-145057114D02*
X92794795Y-144628542D01*
X92794795Y-144628542D02*
X92866223Y-144485685D01*
X92866223Y-144485685D02*
X92937652Y-144414257D01*
X92937652Y-144414257D02*
X93080509Y-144342828D01*
X93080509Y-144342828D02*
X93366223Y-144342828D01*
X93366223Y-144342828D02*
X93509081Y-144414257D01*
X94151937Y-145342828D02*
X94151937Y-143842828D01*
X94794795Y-145342828D02*
X94794795Y-144557114D01*
X94794795Y-144557114D02*
X94723366Y-144414257D01*
X94723366Y-144414257D02*
X94580509Y-144342828D01*
X94580509Y-144342828D02*
X94366223Y-144342828D01*
X94366223Y-144342828D02*
X94223366Y-144414257D01*
X94223366Y-144414257D02*
X94151937Y-144485685D01*
X95509080Y-145342828D02*
X95509080Y-144342828D01*
X95509080Y-144628542D02*
X95580509Y-144485685D01*
X95580509Y-144485685D02*
X95651938Y-144414257D01*
X95651938Y-144414257D02*
X95794795Y-144342828D01*
X95794795Y-144342828D02*
X95937652Y-144342828D01*
X97080509Y-145342828D02*
X97080509Y-144557114D01*
X97080509Y-144557114D02*
X97009080Y-144414257D01*
X97009080Y-144414257D02*
X96866223Y-144342828D01*
X96866223Y-144342828D02*
X96580509Y-144342828D01*
X96580509Y-144342828D02*
X96437651Y-144414257D01*
X97080509Y-145271400D02*
X96937651Y-145342828D01*
X96937651Y-145342828D02*
X96580509Y-145342828D01*
X96580509Y-145342828D02*
X96437651Y-145271400D01*
X96437651Y-145271400D02*
X96366223Y-145128542D01*
X96366223Y-145128542D02*
X96366223Y-144985685D01*
X96366223Y-144985685D02*
X96437651Y-144842828D01*
X96437651Y-144842828D02*
X96580509Y-144771400D01*
X96580509Y-144771400D02*
X96937651Y-144771400D01*
X96937651Y-144771400D02*
X97080509Y-144699971D01*
X97794794Y-145342828D02*
X97794794Y-144342828D01*
X97794794Y-144485685D02*
X97866223Y-144414257D01*
X97866223Y-144414257D02*
X98009080Y-144342828D01*
X98009080Y-144342828D02*
X98223366Y-144342828D01*
X98223366Y-144342828D02*
X98366223Y-144414257D01*
X98366223Y-144414257D02*
X98437652Y-144557114D01*
X98437652Y-144557114D02*
X98437652Y-145342828D01*
X98437652Y-144557114D02*
X98509080Y-144414257D01*
X98509080Y-144414257D02*
X98651937Y-144342828D01*
X98651937Y-144342828D02*
X98866223Y-144342828D01*
X98866223Y-144342828D02*
X99009080Y-144414257D01*
X99009080Y-144414257D02*
X99080509Y-144557114D01*
X99080509Y-144557114D02*
X99080509Y-145342828D01*
D11*
X102033095Y-106899419D02*
X102033095Y-107708942D01*
X102033095Y-107708942D02*
X102080714Y-107804180D01*
X102080714Y-107804180D02*
X102128333Y-107851800D01*
X102128333Y-107851800D02*
X102223571Y-107899419D01*
X102223571Y-107899419D02*
X102414047Y-107899419D01*
X102414047Y-107899419D02*
X102509285Y-107851800D01*
X102509285Y-107851800D02*
X102556904Y-107804180D01*
X102556904Y-107804180D02*
X102604523Y-107708942D01*
X102604523Y-107708942D02*
X102604523Y-106899419D01*
X103604523Y-107899419D02*
X103033095Y-107899419D01*
X103318809Y-107899419D02*
X103318809Y-106899419D01*
X103318809Y-106899419D02*
X103223571Y-107042276D01*
X103223571Y-107042276D02*
X103128333Y-107137514D01*
X103128333Y-107137514D02*
X103033095Y-107185133D01*
X105751115Y-91799390D02*
X105417782Y-91799390D01*
X105274925Y-91275580D02*
X105751115Y-91275580D01*
X105751115Y-91275580D02*
X105751115Y-92275580D01*
X105751115Y-92275580D02*
X105274925Y-92275580D01*
X104893972Y-91323200D02*
X104751115Y-91275580D01*
X104751115Y-91275580D02*
X104513020Y-91275580D01*
X104513020Y-91275580D02*
X104417782Y-91323200D01*
X104417782Y-91323200D02*
X104370163Y-91370819D01*
X104370163Y-91370819D02*
X104322544Y-91466057D01*
X104322544Y-91466057D02*
X104322544Y-91561295D01*
X104322544Y-91561295D02*
X104370163Y-91656533D01*
X104370163Y-91656533D02*
X104417782Y-91704152D01*
X104417782Y-91704152D02*
X104513020Y-91751771D01*
X104513020Y-91751771D02*
X104703496Y-91799390D01*
X104703496Y-91799390D02*
X104798734Y-91847009D01*
X104798734Y-91847009D02*
X104846353Y-91894628D01*
X104846353Y-91894628D02*
X104893972Y-91989866D01*
X104893972Y-91989866D02*
X104893972Y-92085104D01*
X104893972Y-92085104D02*
X104846353Y-92180342D01*
X104846353Y-92180342D02*
X104798734Y-92227961D01*
X104798734Y-92227961D02*
X104703496Y-92275580D01*
X104703496Y-92275580D02*
X104465401Y-92275580D01*
X104465401Y-92275580D02*
X104322544Y-92227961D01*
X103893972Y-91275580D02*
X103893972Y-92275580D01*
X103893972Y-92275580D02*
X103513020Y-92275580D01*
X103513020Y-92275580D02*
X103417782Y-92227961D01*
X103417782Y-92227961D02*
X103370163Y-92180342D01*
X103370163Y-92180342D02*
X103322544Y-92085104D01*
X103322544Y-92085104D02*
X103322544Y-91942247D01*
X103322544Y-91942247D02*
X103370163Y-91847009D01*
X103370163Y-91847009D02*
X103417782Y-91799390D01*
X103417782Y-91799390D02*
X103513020Y-91751771D01*
X103513020Y-91751771D02*
X103893972Y-91751771D01*
X102751115Y-91847009D02*
X102846353Y-91894628D01*
X102846353Y-91894628D02*
X102893972Y-91942247D01*
X102893972Y-91942247D02*
X102941591Y-92037485D01*
X102941591Y-92037485D02*
X102941591Y-92085104D01*
X102941591Y-92085104D02*
X102893972Y-92180342D01*
X102893972Y-92180342D02*
X102846353Y-92227961D01*
X102846353Y-92227961D02*
X102751115Y-92275580D01*
X102751115Y-92275580D02*
X102560639Y-92275580D01*
X102560639Y-92275580D02*
X102465401Y-92227961D01*
X102465401Y-92227961D02*
X102417782Y-92180342D01*
X102417782Y-92180342D02*
X102370163Y-92085104D01*
X102370163Y-92085104D02*
X102370163Y-92037485D01*
X102370163Y-92037485D02*
X102417782Y-91942247D01*
X102417782Y-91942247D02*
X102465401Y-91894628D01*
X102465401Y-91894628D02*
X102560639Y-91847009D01*
X102560639Y-91847009D02*
X102751115Y-91847009D01*
X102751115Y-91847009D02*
X102846353Y-91799390D01*
X102846353Y-91799390D02*
X102893972Y-91751771D01*
X102893972Y-91751771D02*
X102941591Y-91656533D01*
X102941591Y-91656533D02*
X102941591Y-91466057D01*
X102941591Y-91466057D02*
X102893972Y-91370819D01*
X102893972Y-91370819D02*
X102846353Y-91323200D01*
X102846353Y-91323200D02*
X102751115Y-91275580D01*
X102751115Y-91275580D02*
X102560639Y-91275580D01*
X102560639Y-91275580D02*
X102465401Y-91323200D01*
X102465401Y-91323200D02*
X102417782Y-91370819D01*
X102417782Y-91370819D02*
X102370163Y-91466057D01*
X102370163Y-91466057D02*
X102370163Y-91656533D01*
X102370163Y-91656533D02*
X102417782Y-91751771D01*
X102417782Y-91751771D02*
X102465401Y-91799390D01*
X102465401Y-91799390D02*
X102560639Y-91847009D01*
X101989210Y-92180342D02*
X101941591Y-92227961D01*
X101941591Y-92227961D02*
X101846353Y-92275580D01*
X101846353Y-92275580D02*
X101608258Y-92275580D01*
X101608258Y-92275580D02*
X101513020Y-92227961D01*
X101513020Y-92227961D02*
X101465401Y-92180342D01*
X101465401Y-92180342D02*
X101417782Y-92085104D01*
X101417782Y-92085104D02*
X101417782Y-91989866D01*
X101417782Y-91989866D02*
X101465401Y-91847009D01*
X101465401Y-91847009D02*
X102036829Y-91275580D01*
X102036829Y-91275580D02*
X101417782Y-91275580D01*
X100560639Y-92275580D02*
X100751115Y-92275580D01*
X100751115Y-92275580D02*
X100846353Y-92227961D01*
X100846353Y-92227961D02*
X100893972Y-92180342D01*
X100893972Y-92180342D02*
X100989210Y-92037485D01*
X100989210Y-92037485D02*
X101036829Y-91847009D01*
X101036829Y-91847009D02*
X101036829Y-91466057D01*
X101036829Y-91466057D02*
X100989210Y-91370819D01*
X100989210Y-91370819D02*
X100941591Y-91323200D01*
X100941591Y-91323200D02*
X100846353Y-91275580D01*
X100846353Y-91275580D02*
X100655877Y-91275580D01*
X100655877Y-91275580D02*
X100560639Y-91323200D01*
X100560639Y-91323200D02*
X100513020Y-91370819D01*
X100513020Y-91370819D02*
X100465401Y-91466057D01*
X100465401Y-91466057D02*
X100465401Y-91704152D01*
X100465401Y-91704152D02*
X100513020Y-91799390D01*
X100513020Y-91799390D02*
X100560639Y-91847009D01*
X100560639Y-91847009D02*
X100655877Y-91894628D01*
X100655877Y-91894628D02*
X100846353Y-91894628D01*
X100846353Y-91894628D02*
X100941591Y-91847009D01*
X100941591Y-91847009D02*
X100989210Y-91799390D01*
X100989210Y-91799390D02*
X101036829Y-91704152D01*
X99608258Y-92275580D02*
X99798734Y-92275580D01*
X99798734Y-92275580D02*
X99893972Y-92227961D01*
X99893972Y-92227961D02*
X99941591Y-92180342D01*
X99941591Y-92180342D02*
X100036829Y-92037485D01*
X100036829Y-92037485D02*
X100084448Y-91847009D01*
X100084448Y-91847009D02*
X100084448Y-91466057D01*
X100084448Y-91466057D02*
X100036829Y-91370819D01*
X100036829Y-91370819D02*
X99989210Y-91323200D01*
X99989210Y-91323200D02*
X99893972Y-91275580D01*
X99893972Y-91275580D02*
X99703496Y-91275580D01*
X99703496Y-91275580D02*
X99608258Y-91323200D01*
X99608258Y-91323200D02*
X99560639Y-91370819D01*
X99560639Y-91370819D02*
X99513020Y-91466057D01*
X99513020Y-91466057D02*
X99513020Y-91704152D01*
X99513020Y-91704152D02*
X99560639Y-91799390D01*
X99560639Y-91799390D02*
X99608258Y-91847009D01*
X99608258Y-91847009D02*
X99703496Y-91894628D01*
X99703496Y-91894628D02*
X99893972Y-91894628D01*
X99893972Y-91894628D02*
X99989210Y-91847009D01*
X99989210Y-91847009D02*
X100036829Y-91799390D01*
X100036829Y-91799390D02*
X100084448Y-91704152D01*
X116586095Y-120639419D02*
X116586095Y-121448942D01*
X116586095Y-121448942D02*
X116633714Y-121544180D01*
X116633714Y-121544180D02*
X116681333Y-121591800D01*
X116681333Y-121591800D02*
X116776571Y-121639419D01*
X116776571Y-121639419D02*
X116967047Y-121639419D01*
X116967047Y-121639419D02*
X117062285Y-121591800D01*
X117062285Y-121591800D02*
X117109904Y-121544180D01*
X117109904Y-121544180D02*
X117157523Y-121448942D01*
X117157523Y-121448942D02*
X117157523Y-120639419D01*
X118062285Y-120972752D02*
X118062285Y-121639419D01*
X117824190Y-120591800D02*
X117586095Y-121306085D01*
X117586095Y-121306085D02*
X118205142Y-121306085D01*
X120515419Y-145637115D02*
X119515419Y-145637115D01*
X119515419Y-145637115D02*
X119515419Y-145399020D01*
X119515419Y-145399020D02*
X119563038Y-145256163D01*
X119563038Y-145256163D02*
X119658276Y-145160925D01*
X119658276Y-145160925D02*
X119753514Y-145113306D01*
X119753514Y-145113306D02*
X119943990Y-145065687D01*
X119943990Y-145065687D02*
X120086847Y-145065687D01*
X120086847Y-145065687D02*
X120277323Y-145113306D01*
X120277323Y-145113306D02*
X120372561Y-145160925D01*
X120372561Y-145160925D02*
X120467800Y-145256163D01*
X120467800Y-145256163D02*
X120515419Y-145399020D01*
X120515419Y-145399020D02*
X120515419Y-145637115D01*
X120515419Y-144637115D02*
X119515419Y-144637115D01*
X119515419Y-143970449D02*
X119515419Y-143779973D01*
X119515419Y-143779973D02*
X119563038Y-143684735D01*
X119563038Y-143684735D02*
X119658276Y-143589497D01*
X119658276Y-143589497D02*
X119848752Y-143541878D01*
X119848752Y-143541878D02*
X120182085Y-143541878D01*
X120182085Y-143541878D02*
X120372561Y-143589497D01*
X120372561Y-143589497D02*
X120467800Y-143684735D01*
X120467800Y-143684735D02*
X120515419Y-143779973D01*
X120515419Y-143779973D02*
X120515419Y-143970449D01*
X120515419Y-143970449D02*
X120467800Y-144065687D01*
X120467800Y-144065687D02*
X120372561Y-144160925D01*
X120372561Y-144160925D02*
X120182085Y-144208544D01*
X120182085Y-144208544D02*
X119848752Y-144208544D01*
X119848752Y-144208544D02*
X119658276Y-144160925D01*
X119658276Y-144160925D02*
X119563038Y-144065687D01*
X119563038Y-144065687D02*
X119515419Y-143970449D01*
X119515419Y-143208544D02*
X119515419Y-142589497D01*
X119515419Y-142589497D02*
X119896371Y-142922830D01*
X119896371Y-142922830D02*
X119896371Y-142779973D01*
X119896371Y-142779973D02*
X119943990Y-142684735D01*
X119943990Y-142684735D02*
X119991609Y-142637116D01*
X119991609Y-142637116D02*
X120086847Y-142589497D01*
X120086847Y-142589497D02*
X120324942Y-142589497D01*
X120324942Y-142589497D02*
X120420180Y-142637116D01*
X120420180Y-142637116D02*
X120467800Y-142684735D01*
X120467800Y-142684735D02*
X120515419Y-142779973D01*
X120515419Y-142779973D02*
X120515419Y-143065687D01*
X120515419Y-143065687D02*
X120467800Y-143160925D01*
X120467800Y-143160925D02*
X120420180Y-143208544D01*
X107459265Y-128605800D02*
X107602122Y-128653419D01*
X107602122Y-128653419D02*
X107840217Y-128653419D01*
X107840217Y-128653419D02*
X107935455Y-128605800D01*
X107935455Y-128605800D02*
X107983074Y-128558180D01*
X107983074Y-128558180D02*
X108030693Y-128462942D01*
X108030693Y-128462942D02*
X108030693Y-128367704D01*
X108030693Y-128367704D02*
X107983074Y-128272466D01*
X107983074Y-128272466D02*
X107935455Y-128224847D01*
X107935455Y-128224847D02*
X107840217Y-128177228D01*
X107840217Y-128177228D02*
X107649741Y-128129609D01*
X107649741Y-128129609D02*
X107554503Y-128081990D01*
X107554503Y-128081990D02*
X107506884Y-128034371D01*
X107506884Y-128034371D02*
X107459265Y-127939133D01*
X107459265Y-127939133D02*
X107459265Y-127843895D01*
X107459265Y-127843895D02*
X107506884Y-127748657D01*
X107506884Y-127748657D02*
X107554503Y-127701038D01*
X107554503Y-127701038D02*
X107649741Y-127653419D01*
X107649741Y-127653419D02*
X107887836Y-127653419D01*
X107887836Y-127653419D02*
X108030693Y-127701038D01*
X108364027Y-127653419D02*
X109030693Y-128653419D01*
X109030693Y-127653419D02*
X108364027Y-128653419D01*
X109935455Y-128653419D02*
X109364027Y-128653419D01*
X109649741Y-128653419D02*
X109649741Y-127653419D01*
X109649741Y-127653419D02*
X109554503Y-127796276D01*
X109554503Y-127796276D02*
X109459265Y-127891514D01*
X109459265Y-127891514D02*
X109364027Y-127939133D01*
X110316408Y-127748657D02*
X110364027Y-127701038D01*
X110364027Y-127701038D02*
X110459265Y-127653419D01*
X110459265Y-127653419D02*
X110697360Y-127653419D01*
X110697360Y-127653419D02*
X110792598Y-127701038D01*
X110792598Y-127701038D02*
X110840217Y-127748657D01*
X110840217Y-127748657D02*
X110887836Y-127843895D01*
X110887836Y-127843895D02*
X110887836Y-127939133D01*
X110887836Y-127939133D02*
X110840217Y-128081990D01*
X110840217Y-128081990D02*
X110268789Y-128653419D01*
X110268789Y-128653419D02*
X110887836Y-128653419D01*
X111221170Y-127653419D02*
X111887836Y-127653419D01*
X111887836Y-127653419D02*
X111459265Y-128653419D01*
X112411646Y-128081990D02*
X112316408Y-128034371D01*
X112316408Y-128034371D02*
X112268789Y-127986752D01*
X112268789Y-127986752D02*
X112221170Y-127891514D01*
X112221170Y-127891514D02*
X112221170Y-127843895D01*
X112221170Y-127843895D02*
X112268789Y-127748657D01*
X112268789Y-127748657D02*
X112316408Y-127701038D01*
X112316408Y-127701038D02*
X112411646Y-127653419D01*
X112411646Y-127653419D02*
X112602122Y-127653419D01*
X112602122Y-127653419D02*
X112697360Y-127701038D01*
X112697360Y-127701038D02*
X112744979Y-127748657D01*
X112744979Y-127748657D02*
X112792598Y-127843895D01*
X112792598Y-127843895D02*
X112792598Y-127891514D01*
X112792598Y-127891514D02*
X112744979Y-127986752D01*
X112744979Y-127986752D02*
X112697360Y-128034371D01*
X112697360Y-128034371D02*
X112602122Y-128081990D01*
X112602122Y-128081990D02*
X112411646Y-128081990D01*
X112411646Y-128081990D02*
X112316408Y-128129609D01*
X112316408Y-128129609D02*
X112268789Y-128177228D01*
X112268789Y-128177228D02*
X112221170Y-128272466D01*
X112221170Y-128272466D02*
X112221170Y-128462942D01*
X112221170Y-128462942D02*
X112268789Y-128558180D01*
X112268789Y-128558180D02*
X112316408Y-128605800D01*
X112316408Y-128605800D02*
X112411646Y-128653419D01*
X112411646Y-128653419D02*
X112602122Y-128653419D01*
X112602122Y-128653419D02*
X112697360Y-128605800D01*
X112697360Y-128605800D02*
X112744979Y-128558180D01*
X112744979Y-128558180D02*
X112792598Y-128462942D01*
X112792598Y-128462942D02*
X112792598Y-128272466D01*
X112792598Y-128272466D02*
X112744979Y-128177228D01*
X112744979Y-128177228D02*
X112697360Y-128129609D01*
X112697360Y-128129609D02*
X112602122Y-128081990D01*
X101663038Y-112113306D02*
X101615419Y-112208544D01*
X101615419Y-112208544D02*
X101615419Y-112351401D01*
X101615419Y-112351401D02*
X101663038Y-112494258D01*
X101663038Y-112494258D02*
X101758276Y-112589496D01*
X101758276Y-112589496D02*
X101853514Y-112637115D01*
X101853514Y-112637115D02*
X102043990Y-112684734D01*
X102043990Y-112684734D02*
X102186847Y-112684734D01*
X102186847Y-112684734D02*
X102377323Y-112637115D01*
X102377323Y-112637115D02*
X102472561Y-112589496D01*
X102472561Y-112589496D02*
X102567800Y-112494258D01*
X102567800Y-112494258D02*
X102615419Y-112351401D01*
X102615419Y-112351401D02*
X102615419Y-112256163D01*
X102615419Y-112256163D02*
X102567800Y-112113306D01*
X102567800Y-112113306D02*
X102520180Y-112065687D01*
X102520180Y-112065687D02*
X102186847Y-112065687D01*
X102186847Y-112065687D02*
X102186847Y-112256163D01*
X102615419Y-111637115D02*
X101615419Y-111637115D01*
X101615419Y-111637115D02*
X102615419Y-111065687D01*
X102615419Y-111065687D02*
X101615419Y-111065687D01*
X102615419Y-110589496D02*
X101615419Y-110589496D01*
X101615419Y-110589496D02*
X101615419Y-110351401D01*
X101615419Y-110351401D02*
X101663038Y-110208544D01*
X101663038Y-110208544D02*
X101758276Y-110113306D01*
X101758276Y-110113306D02*
X101853514Y-110065687D01*
X101853514Y-110065687D02*
X102043990Y-110018068D01*
X102043990Y-110018068D02*
X102186847Y-110018068D01*
X102186847Y-110018068D02*
X102377323Y-110065687D01*
X102377323Y-110065687D02*
X102472561Y-110113306D01*
X102472561Y-110113306D02*
X102567800Y-110208544D01*
X102567800Y-110208544D02*
X102615419Y-110351401D01*
X102615419Y-110351401D02*
X102615419Y-110589496D01*
X101663038Y-145213306D02*
X101615419Y-145308544D01*
X101615419Y-145308544D02*
X101615419Y-145451401D01*
X101615419Y-145451401D02*
X101663038Y-145594258D01*
X101663038Y-145594258D02*
X101758276Y-145689496D01*
X101758276Y-145689496D02*
X101853514Y-145737115D01*
X101853514Y-145737115D02*
X102043990Y-145784734D01*
X102043990Y-145784734D02*
X102186847Y-145784734D01*
X102186847Y-145784734D02*
X102377323Y-145737115D01*
X102377323Y-145737115D02*
X102472561Y-145689496D01*
X102472561Y-145689496D02*
X102567800Y-145594258D01*
X102567800Y-145594258D02*
X102615419Y-145451401D01*
X102615419Y-145451401D02*
X102615419Y-145356163D01*
X102615419Y-145356163D02*
X102567800Y-145213306D01*
X102567800Y-145213306D02*
X102520180Y-145165687D01*
X102520180Y-145165687D02*
X102186847Y-145165687D01*
X102186847Y-145165687D02*
X102186847Y-145356163D01*
X102615419Y-144737115D02*
X101615419Y-144737115D01*
X101615419Y-144737115D02*
X102615419Y-144165687D01*
X102615419Y-144165687D02*
X101615419Y-144165687D01*
X102615419Y-143689496D02*
X101615419Y-143689496D01*
X101615419Y-143689496D02*
X101615419Y-143451401D01*
X101615419Y-143451401D02*
X101663038Y-143308544D01*
X101663038Y-143308544D02*
X101758276Y-143213306D01*
X101758276Y-143213306D02*
X101853514Y-143165687D01*
X101853514Y-143165687D02*
X102043990Y-143118068D01*
X102043990Y-143118068D02*
X102186847Y-143118068D01*
X102186847Y-143118068D02*
X102377323Y-143165687D01*
X102377323Y-143165687D02*
X102472561Y-143213306D01*
X102472561Y-143213306D02*
X102567800Y-143308544D01*
X102567800Y-143308544D02*
X102615419Y-143451401D01*
X102615419Y-143451401D02*
X102615419Y-143689496D01*
X104915419Y-112737115D02*
X103915419Y-112737115D01*
X103915419Y-112737115D02*
X104915419Y-112165687D01*
X104915419Y-112165687D02*
X103915419Y-112165687D01*
X104867800Y-111737115D02*
X104915419Y-111594258D01*
X104915419Y-111594258D02*
X104915419Y-111356163D01*
X104915419Y-111356163D02*
X104867800Y-111260925D01*
X104867800Y-111260925D02*
X104820180Y-111213306D01*
X104820180Y-111213306D02*
X104724942Y-111165687D01*
X104724942Y-111165687D02*
X104629704Y-111165687D01*
X104629704Y-111165687D02*
X104534466Y-111213306D01*
X104534466Y-111213306D02*
X104486847Y-111260925D01*
X104486847Y-111260925D02*
X104439228Y-111356163D01*
X104439228Y-111356163D02*
X104391609Y-111546639D01*
X104391609Y-111546639D02*
X104343990Y-111641877D01*
X104343990Y-111641877D02*
X104296371Y-111689496D01*
X104296371Y-111689496D02*
X104201133Y-111737115D01*
X104201133Y-111737115D02*
X104105895Y-111737115D01*
X104105895Y-111737115D02*
X104010657Y-111689496D01*
X104010657Y-111689496D02*
X103963038Y-111641877D01*
X103963038Y-111641877D02*
X103915419Y-111546639D01*
X103915419Y-111546639D02*
X103915419Y-111308544D01*
X103915419Y-111308544D02*
X103963038Y-111165687D01*
X104867800Y-110784734D02*
X104915419Y-110641877D01*
X104915419Y-110641877D02*
X104915419Y-110403782D01*
X104915419Y-110403782D02*
X104867800Y-110308544D01*
X104867800Y-110308544D02*
X104820180Y-110260925D01*
X104820180Y-110260925D02*
X104724942Y-110213306D01*
X104724942Y-110213306D02*
X104629704Y-110213306D01*
X104629704Y-110213306D02*
X104534466Y-110260925D01*
X104534466Y-110260925D02*
X104486847Y-110308544D01*
X104486847Y-110308544D02*
X104439228Y-110403782D01*
X104439228Y-110403782D02*
X104391609Y-110594258D01*
X104391609Y-110594258D02*
X104343990Y-110689496D01*
X104343990Y-110689496D02*
X104296371Y-110737115D01*
X104296371Y-110737115D02*
X104201133Y-110784734D01*
X104201133Y-110784734D02*
X104105895Y-110784734D01*
X104105895Y-110784734D02*
X104010657Y-110737115D01*
X104010657Y-110737115D02*
X103963038Y-110689496D01*
X103963038Y-110689496D02*
X103915419Y-110594258D01*
X103915419Y-110594258D02*
X103915419Y-110356163D01*
X103915419Y-110356163D02*
X103963038Y-110213306D01*
X90404095Y-125212419D02*
X90404095Y-126021942D01*
X90404095Y-126021942D02*
X90451714Y-126117180D01*
X90451714Y-126117180D02*
X90499333Y-126164800D01*
X90499333Y-126164800D02*
X90594571Y-126212419D01*
X90594571Y-126212419D02*
X90785047Y-126212419D01*
X90785047Y-126212419D02*
X90880285Y-126164800D01*
X90880285Y-126164800D02*
X90927904Y-126117180D01*
X90927904Y-126117180D02*
X90975523Y-126021942D01*
X90975523Y-126021942D02*
X90975523Y-125212419D01*
X91404095Y-125307657D02*
X91451714Y-125260038D01*
X91451714Y-125260038D02*
X91546952Y-125212419D01*
X91546952Y-125212419D02*
X91785047Y-125212419D01*
X91785047Y-125212419D02*
X91880285Y-125260038D01*
X91880285Y-125260038D02*
X91927904Y-125307657D01*
X91927904Y-125307657D02*
X91975523Y-125402895D01*
X91975523Y-125402895D02*
X91975523Y-125498133D01*
X91975523Y-125498133D02*
X91927904Y-125640990D01*
X91927904Y-125640990D02*
X91356476Y-126212419D01*
X91356476Y-126212419D02*
X91975523Y-126212419D01*
X85663693Y-121602038D02*
X85568455Y-121554419D01*
X85568455Y-121554419D02*
X85425598Y-121554419D01*
X85425598Y-121554419D02*
X85282741Y-121602038D01*
X85282741Y-121602038D02*
X85187503Y-121697276D01*
X85187503Y-121697276D02*
X85139884Y-121792514D01*
X85139884Y-121792514D02*
X85092265Y-121982990D01*
X85092265Y-121982990D02*
X85092265Y-122125847D01*
X85092265Y-122125847D02*
X85139884Y-122316323D01*
X85139884Y-122316323D02*
X85187503Y-122411561D01*
X85187503Y-122411561D02*
X85282741Y-122506800D01*
X85282741Y-122506800D02*
X85425598Y-122554419D01*
X85425598Y-122554419D02*
X85520836Y-122554419D01*
X85520836Y-122554419D02*
X85663693Y-122506800D01*
X85663693Y-122506800D02*
X85711312Y-122459180D01*
X85711312Y-122459180D02*
X85711312Y-122125847D01*
X85711312Y-122125847D02*
X85520836Y-122125847D01*
X86139884Y-122554419D02*
X86139884Y-121554419D01*
X86139884Y-121554419D02*
X86711312Y-122554419D01*
X86711312Y-122554419D02*
X86711312Y-121554419D01*
X87187503Y-122554419D02*
X87187503Y-121554419D01*
X87187503Y-121554419D02*
X87425598Y-121554419D01*
X87425598Y-121554419D02*
X87568455Y-121602038D01*
X87568455Y-121602038D02*
X87663693Y-121697276D01*
X87663693Y-121697276D02*
X87711312Y-121792514D01*
X87711312Y-121792514D02*
X87758931Y-121982990D01*
X87758931Y-121982990D02*
X87758931Y-122125847D01*
X87758931Y-122125847D02*
X87711312Y-122316323D01*
X87711312Y-122316323D02*
X87663693Y-122411561D01*
X87663693Y-122411561D02*
X87568455Y-122506800D01*
X87568455Y-122506800D02*
X87425598Y-122554419D01*
X87425598Y-122554419D02*
X87187503Y-122554419D01*
X95045884Y-122300419D02*
X95045884Y-121300419D01*
X95045884Y-121300419D02*
X95426836Y-121300419D01*
X95426836Y-121300419D02*
X95522074Y-121348038D01*
X95522074Y-121348038D02*
X95569693Y-121395657D01*
X95569693Y-121395657D02*
X95617312Y-121490895D01*
X95617312Y-121490895D02*
X95617312Y-121633752D01*
X95617312Y-121633752D02*
X95569693Y-121728990D01*
X95569693Y-121728990D02*
X95522074Y-121776609D01*
X95522074Y-121776609D02*
X95426836Y-121824228D01*
X95426836Y-121824228D02*
X95045884Y-121824228D01*
X96045884Y-122300419D02*
X96045884Y-121300419D01*
X96522074Y-122300419D02*
X96522074Y-121300419D01*
X96522074Y-121300419D02*
X97093502Y-122300419D01*
X97093502Y-122300419D02*
X97093502Y-121300419D01*
X90688095Y-108693419D02*
X90688095Y-109502942D01*
X90688095Y-109502942D02*
X90735714Y-109598180D01*
X90735714Y-109598180D02*
X90783333Y-109645800D01*
X90783333Y-109645800D02*
X90878571Y-109693419D01*
X90878571Y-109693419D02*
X91069047Y-109693419D01*
X91069047Y-109693419D02*
X91164285Y-109645800D01*
X91164285Y-109645800D02*
X91211904Y-109598180D01*
X91211904Y-109598180D02*
X91259523Y-109502942D01*
X91259523Y-109502942D02*
X91259523Y-108693419D01*
X92211904Y-108693419D02*
X91735714Y-108693419D01*
X91735714Y-108693419D02*
X91688095Y-109169609D01*
X91688095Y-109169609D02*
X91735714Y-109121990D01*
X91735714Y-109121990D02*
X91830952Y-109074371D01*
X91830952Y-109074371D02*
X92069047Y-109074371D01*
X92069047Y-109074371D02*
X92164285Y-109121990D01*
X92164285Y-109121990D02*
X92211904Y-109169609D01*
X92211904Y-109169609D02*
X92259523Y-109264847D01*
X92259523Y-109264847D02*
X92259523Y-109502942D01*
X92259523Y-109502942D02*
X92211904Y-109598180D01*
X92211904Y-109598180D02*
X92164285Y-109645800D01*
X92164285Y-109645800D02*
X92069047Y-109693419D01*
X92069047Y-109693419D02*
X91830952Y-109693419D01*
X91830952Y-109693419D02*
X91735714Y-109645800D01*
X91735714Y-109645800D02*
X91688095Y-109598180D01*
X86147693Y-112226038D02*
X86052455Y-112178419D01*
X86052455Y-112178419D02*
X85909598Y-112178419D01*
X85909598Y-112178419D02*
X85766741Y-112226038D01*
X85766741Y-112226038D02*
X85671503Y-112321276D01*
X85671503Y-112321276D02*
X85623884Y-112416514D01*
X85623884Y-112416514D02*
X85576265Y-112606990D01*
X85576265Y-112606990D02*
X85576265Y-112749847D01*
X85576265Y-112749847D02*
X85623884Y-112940323D01*
X85623884Y-112940323D02*
X85671503Y-113035561D01*
X85671503Y-113035561D02*
X85766741Y-113130800D01*
X85766741Y-113130800D02*
X85909598Y-113178419D01*
X85909598Y-113178419D02*
X86004836Y-113178419D01*
X86004836Y-113178419D02*
X86147693Y-113130800D01*
X86147693Y-113130800D02*
X86195312Y-113083180D01*
X86195312Y-113083180D02*
X86195312Y-112749847D01*
X86195312Y-112749847D02*
X86004836Y-112749847D01*
X86623884Y-113178419D02*
X86623884Y-112178419D01*
X86623884Y-112178419D02*
X87195312Y-113178419D01*
X87195312Y-113178419D02*
X87195312Y-112178419D01*
X87671503Y-113178419D02*
X87671503Y-112178419D01*
X87671503Y-112178419D02*
X87909598Y-112178419D01*
X87909598Y-112178419D02*
X88052455Y-112226038D01*
X88052455Y-112226038D02*
X88147693Y-112321276D01*
X88147693Y-112321276D02*
X88195312Y-112416514D01*
X88195312Y-112416514D02*
X88242931Y-112606990D01*
X88242931Y-112606990D02*
X88242931Y-112749847D01*
X88242931Y-112749847D02*
X88195312Y-112940323D01*
X88195312Y-112940323D02*
X88147693Y-113035561D01*
X88147693Y-113035561D02*
X88052455Y-113130800D01*
X88052455Y-113130800D02*
X87909598Y-113178419D01*
X87909598Y-113178419D02*
X87671503Y-113178419D01*
X87034360Y-117618419D02*
X87224836Y-117618419D01*
X87224836Y-117618419D02*
X87320074Y-117666038D01*
X87320074Y-117666038D02*
X87415312Y-117761276D01*
X87415312Y-117761276D02*
X87462931Y-117951752D01*
X87462931Y-117951752D02*
X87462931Y-118285085D01*
X87462931Y-118285085D02*
X87415312Y-118475561D01*
X87415312Y-118475561D02*
X87320074Y-118570800D01*
X87320074Y-118570800D02*
X87224836Y-118618419D01*
X87224836Y-118618419D02*
X87034360Y-118618419D01*
X87034360Y-118618419D02*
X86939122Y-118570800D01*
X86939122Y-118570800D02*
X86843884Y-118475561D01*
X86843884Y-118475561D02*
X86796265Y-118285085D01*
X86796265Y-118285085D02*
X86796265Y-117951752D01*
X86796265Y-117951752D02*
X86843884Y-117761276D01*
X86843884Y-117761276D02*
X86939122Y-117666038D01*
X86939122Y-117666038D02*
X87034360Y-117618419D01*
X88367693Y-118618419D02*
X87891503Y-118618419D01*
X87891503Y-118618419D02*
X87891503Y-117618419D01*
X88701027Y-118094609D02*
X89034360Y-118094609D01*
X89177217Y-118618419D02*
X88701027Y-118618419D01*
X88701027Y-118618419D02*
X88701027Y-117618419D01*
X88701027Y-117618419D02*
X89177217Y-117618419D01*
X89605789Y-118618419D02*
X89605789Y-117618419D01*
X89605789Y-117618419D02*
X89843884Y-117618419D01*
X89843884Y-117618419D02*
X89986741Y-117666038D01*
X89986741Y-117666038D02*
X90081979Y-117761276D01*
X90081979Y-117761276D02*
X90129598Y-117856514D01*
X90129598Y-117856514D02*
X90177217Y-118046990D01*
X90177217Y-118046990D02*
X90177217Y-118189847D01*
X90177217Y-118189847D02*
X90129598Y-118380323D01*
X90129598Y-118380323D02*
X90081979Y-118475561D01*
X90081979Y-118475561D02*
X89986741Y-118570800D01*
X89986741Y-118570800D02*
X89843884Y-118618419D01*
X89843884Y-118618419D02*
X89605789Y-118618419D01*
X91367694Y-118618419D02*
X91367694Y-117618419D01*
X91367694Y-117618419D02*
X91605789Y-117618419D01*
X91605789Y-117618419D02*
X91748646Y-117666038D01*
X91748646Y-117666038D02*
X91843884Y-117761276D01*
X91843884Y-117761276D02*
X91891503Y-117856514D01*
X91891503Y-117856514D02*
X91939122Y-118046990D01*
X91939122Y-118046990D02*
X91939122Y-118189847D01*
X91939122Y-118189847D02*
X91891503Y-118380323D01*
X91891503Y-118380323D02*
X91843884Y-118475561D01*
X91843884Y-118475561D02*
X91748646Y-118570800D01*
X91748646Y-118570800D02*
X91605789Y-118618419D01*
X91605789Y-118618419D02*
X91367694Y-118618419D01*
X92367694Y-118618419D02*
X92367694Y-117951752D01*
X92367694Y-117618419D02*
X92320075Y-117666038D01*
X92320075Y-117666038D02*
X92367694Y-117713657D01*
X92367694Y-117713657D02*
X92415313Y-117666038D01*
X92415313Y-117666038D02*
X92367694Y-117618419D01*
X92367694Y-117618419D02*
X92367694Y-117713657D01*
X92796265Y-118570800D02*
X92891503Y-118618419D01*
X92891503Y-118618419D02*
X93081979Y-118618419D01*
X93081979Y-118618419D02*
X93177217Y-118570800D01*
X93177217Y-118570800D02*
X93224836Y-118475561D01*
X93224836Y-118475561D02*
X93224836Y-118427942D01*
X93224836Y-118427942D02*
X93177217Y-118332704D01*
X93177217Y-118332704D02*
X93081979Y-118285085D01*
X93081979Y-118285085D02*
X92939122Y-118285085D01*
X92939122Y-118285085D02*
X92843884Y-118237466D01*
X92843884Y-118237466D02*
X92796265Y-118142228D01*
X92796265Y-118142228D02*
X92796265Y-118094609D01*
X92796265Y-118094609D02*
X92843884Y-117999371D01*
X92843884Y-117999371D02*
X92939122Y-117951752D01*
X92939122Y-117951752D02*
X93081979Y-117951752D01*
X93081979Y-117951752D02*
X93177217Y-117999371D01*
X93653408Y-117951752D02*
X93653408Y-118951752D01*
X93653408Y-117999371D02*
X93748646Y-117951752D01*
X93748646Y-117951752D02*
X93939122Y-117951752D01*
X93939122Y-117951752D02*
X94034360Y-117999371D01*
X94034360Y-117999371D02*
X94081979Y-118046990D01*
X94081979Y-118046990D02*
X94129598Y-118142228D01*
X94129598Y-118142228D02*
X94129598Y-118427942D01*
X94129598Y-118427942D02*
X94081979Y-118523180D01*
X94081979Y-118523180D02*
X94034360Y-118570800D01*
X94034360Y-118570800D02*
X93939122Y-118618419D01*
X93939122Y-118618419D02*
X93748646Y-118618419D01*
X93748646Y-118618419D02*
X93653408Y-118570800D01*
X94701027Y-118618419D02*
X94605789Y-118570800D01*
X94605789Y-118570800D02*
X94558170Y-118475561D01*
X94558170Y-118475561D02*
X94558170Y-117618419D01*
X95510551Y-118618419D02*
X95510551Y-118094609D01*
X95510551Y-118094609D02*
X95462932Y-117999371D01*
X95462932Y-117999371D02*
X95367694Y-117951752D01*
X95367694Y-117951752D02*
X95177218Y-117951752D01*
X95177218Y-117951752D02*
X95081980Y-117999371D01*
X95510551Y-118570800D02*
X95415313Y-118618419D01*
X95415313Y-118618419D02*
X95177218Y-118618419D01*
X95177218Y-118618419D02*
X95081980Y-118570800D01*
X95081980Y-118570800D02*
X95034361Y-118475561D01*
X95034361Y-118475561D02*
X95034361Y-118380323D01*
X95034361Y-118380323D02*
X95081980Y-118285085D01*
X95081980Y-118285085D02*
X95177218Y-118237466D01*
X95177218Y-118237466D02*
X95415313Y-118237466D01*
X95415313Y-118237466D02*
X95510551Y-118189847D01*
X95891504Y-117951752D02*
X96129599Y-118618419D01*
X96367694Y-117951752D02*
X96129599Y-118618419D01*
X96129599Y-118618419D02*
X96034361Y-118856514D01*
X96034361Y-118856514D02*
X95986742Y-118904133D01*
X95986742Y-118904133D02*
X95891504Y-118951752D01*
X95636265Y-113030800D02*
X95779122Y-113078419D01*
X95779122Y-113078419D02*
X96017217Y-113078419D01*
X96017217Y-113078419D02*
X96112455Y-113030800D01*
X96112455Y-113030800D02*
X96160074Y-112983180D01*
X96160074Y-112983180D02*
X96207693Y-112887942D01*
X96207693Y-112887942D02*
X96207693Y-112792704D01*
X96207693Y-112792704D02*
X96160074Y-112697466D01*
X96160074Y-112697466D02*
X96112455Y-112649847D01*
X96112455Y-112649847D02*
X96017217Y-112602228D01*
X96017217Y-112602228D02*
X95826741Y-112554609D01*
X95826741Y-112554609D02*
X95731503Y-112506990D01*
X95731503Y-112506990D02*
X95683884Y-112459371D01*
X95683884Y-112459371D02*
X95636265Y-112364133D01*
X95636265Y-112364133D02*
X95636265Y-112268895D01*
X95636265Y-112268895D02*
X95683884Y-112173657D01*
X95683884Y-112173657D02*
X95731503Y-112126038D01*
X95731503Y-112126038D02*
X95826741Y-112078419D01*
X95826741Y-112078419D02*
X96064836Y-112078419D01*
X96064836Y-112078419D02*
X96207693Y-112126038D01*
X96636265Y-113078419D02*
X96636265Y-112078419D01*
X96636265Y-112078419D02*
X96874360Y-112078419D01*
X96874360Y-112078419D02*
X97017217Y-112126038D01*
X97017217Y-112126038D02*
X97112455Y-112221276D01*
X97112455Y-112221276D02*
X97160074Y-112316514D01*
X97160074Y-112316514D02*
X97207693Y-112506990D01*
X97207693Y-112506990D02*
X97207693Y-112649847D01*
X97207693Y-112649847D02*
X97160074Y-112840323D01*
X97160074Y-112840323D02*
X97112455Y-112935561D01*
X97112455Y-112935561D02*
X97017217Y-113030800D01*
X97017217Y-113030800D02*
X96874360Y-113078419D01*
X96874360Y-113078419D02*
X96636265Y-113078419D01*
X97588646Y-112792704D02*
X98064836Y-112792704D01*
X97493408Y-113078419D02*
X97826741Y-112078419D01*
X97826741Y-112078419D02*
X98160074Y-113078419D01*
D12*
%TO.C,U1*%
X120685000Y-70268000D02*
X118025000Y-70268000D01*
X120655000Y-108488000D02*
X120685000Y-70268000D01*
X120655000Y-108488000D02*
X118025000Y-108488000D01*
X118025000Y-108488000D02*
X118025000Y-105888000D01*
X118025000Y-105888000D02*
X118025000Y-70268000D01*
X115605000Y-70268000D02*
X112945000Y-70268000D01*
X115575000Y-108488000D02*
X115605000Y-70268000D01*
X115575000Y-108488000D02*
X112945000Y-108488000D01*
X112945000Y-108488000D02*
X112945000Y-105888000D01*
X112945000Y-105888000D02*
X112945000Y-70268000D01*
X92745000Y-70268000D02*
X90085000Y-70268000D01*
X92715000Y-108488000D02*
X92745000Y-70268000D01*
X92715000Y-108488000D02*
X90085000Y-108488000D01*
X90085000Y-108488000D02*
X90085000Y-105888000D01*
X90085000Y-105888000D02*
X90085000Y-70268000D01*
X87665000Y-70268000D02*
X85005000Y-70268000D01*
X87635000Y-108488000D02*
X87665000Y-70268000D01*
X87635000Y-108488000D02*
X85005000Y-108488000D01*
X85005000Y-108488000D02*
X85005000Y-105888000D01*
X85005000Y-105888000D02*
X85005000Y-70268000D01*
D11*
X106095000Y-74608000D02*
X98915000Y-74608000D01*
X98915000Y-74608000D02*
X98915000Y-69968000D01*
X98915000Y-69968000D02*
X106095000Y-69968000D01*
X106095000Y-69968000D02*
X106095000Y-74608000D01*
G36*
X106095000Y-74608000D02*
G01*
X98915000Y-74608000D01*
X98915000Y-69968000D01*
X106095000Y-69968000D01*
X106095000Y-74608000D01*
G37*
D12*
%TO.C,U4*%
X103393000Y-142021000D02*
X121233000Y-142021000D01*
X103393000Y-142021000D02*
X103393000Y-139361000D01*
X121233000Y-142021000D02*
X121233000Y-139361000D01*
X100793000Y-140691000D02*
X100793000Y-139361000D01*
X100793000Y-139361000D02*
X102123000Y-139361000D01*
X103393000Y-139361000D02*
X121233000Y-139361000D01*
X103393000Y-116621000D02*
X121233000Y-116621000D01*
X103393000Y-116621000D02*
X103393000Y-113961000D01*
X121233000Y-116621000D02*
X121233000Y-113961000D01*
X100793000Y-115291000D02*
X100793000Y-113961000D01*
X100793000Y-113961000D02*
X102123000Y-113961000D01*
X103393000Y-113961000D02*
X121233000Y-113961000D01*
%TO.C,U2*%
X88586000Y-120590000D02*
X89916000Y-120590000D01*
X88586000Y-128210000D02*
X89916000Y-128210000D01*
X88596000Y-130880000D02*
X88586000Y-128210000D01*
X88596000Y-130880000D02*
X93786000Y-130870000D01*
X88616000Y-123230000D02*
X88586000Y-120590000D01*
X88616000Y-123230000D02*
X93786000Y-123250000D01*
X89916000Y-120590000D02*
X93786000Y-120590000D01*
X89916000Y-128210000D02*
X93786000Y-128210000D01*
X93786000Y-123250000D02*
X93786000Y-120590000D01*
X93786000Y-130870000D02*
X93786000Y-128210000D01*
D11*
X88616000Y-123120000D02*
X93816000Y-123120000D01*
X93816000Y-123120000D02*
X93816000Y-128120000D01*
X93816000Y-128120000D02*
X88616000Y-128120000D01*
X88616000Y-128120000D02*
X88616000Y-123120000D01*
D12*
%TO.C,U5*%
X86300000Y-113986000D02*
X88900000Y-113986000D01*
X86330000Y-116596000D02*
X86300000Y-113986000D01*
X86330000Y-116596000D02*
X96580000Y-116646000D01*
X88900000Y-113986000D02*
X96580000Y-113986000D01*
X96580000Y-116646000D02*
X96580000Y-113986000D01*
%TD*%
%LPC*%
D13*
%TO.C,U1*%
X119355000Y-107158000D03*
X114275000Y-107158000D03*
X119355000Y-104618000D03*
X114275000Y-104618000D03*
X119355000Y-102078000D03*
X114275000Y-102078000D03*
X119355000Y-99538000D03*
X114275000Y-99538000D03*
X119355000Y-96998000D03*
X114275000Y-96998000D03*
X119355000Y-94458000D03*
X114275000Y-94458000D03*
X119355000Y-91918000D03*
X114275000Y-91918000D03*
X119355000Y-89378000D03*
X114275000Y-89378000D03*
X119355000Y-86838000D03*
X114275000Y-86838000D03*
X119355000Y-84298000D03*
X114275000Y-84298000D03*
X119355000Y-81758000D03*
X114275000Y-81758000D03*
X119355000Y-79218000D03*
X114275000Y-79218000D03*
X119355000Y-76678000D03*
X114275000Y-76678000D03*
X119355000Y-74138000D03*
X114275000Y-74138000D03*
X119355000Y-71598000D03*
X114275000Y-71598000D03*
X91415000Y-107158000D03*
X86335000Y-107158000D03*
X91415000Y-104618000D03*
X86335000Y-104618000D03*
X91415000Y-102078000D03*
X86335000Y-102078000D03*
X91415000Y-99538000D03*
X86335000Y-99538000D03*
X91415000Y-96998000D03*
X86335000Y-96998000D03*
X91415000Y-94458000D03*
X86335000Y-94458000D03*
X91415000Y-91918000D03*
X86335000Y-91918000D03*
X91415000Y-89378000D03*
X86335000Y-89378000D03*
X91415000Y-86838000D03*
X86335000Y-86838000D03*
X91415000Y-84298000D03*
X86335000Y-84298000D03*
X91415000Y-81758000D03*
X86335000Y-81758000D03*
X91415000Y-79218000D03*
X86335000Y-79218000D03*
X91415000Y-76678000D03*
X86335000Y-76678000D03*
X91415000Y-74138000D03*
X86335000Y-74138000D03*
X91415000Y-71598000D03*
X86335000Y-71598000D03*
%TD*%
D14*
%TO.C,U4*%
X102123000Y-115291000D03*
D13*
X104663000Y-115291000D03*
X107203000Y-115291000D03*
X109743000Y-115291000D03*
X112283000Y-115291000D03*
X114823000Y-115291000D03*
X117363000Y-115291000D03*
X119903000Y-115291000D03*
D14*
X102123000Y-140691000D03*
D13*
X104663000Y-140691000D03*
X107203000Y-140691000D03*
X109743000Y-140691000D03*
X112283000Y-140691000D03*
X114823000Y-140691000D03*
X117363000Y-140691000D03*
X119903000Y-140691000D03*
%TD*%
%TO.C,U2*%
X89916000Y-129540000D03*
X92456000Y-129540000D03*
X89916000Y-121920000D03*
X92456000Y-121920000D03*
%TD*%
%TO.C,U5*%
X87630000Y-115316000D03*
X90170000Y-115316000D03*
X92710000Y-115316000D03*
X95250000Y-115316000D03*
%TD*%
%LPD*%
M02*
