M48
; DRILL file {KiCad 7.0.7} date 2023 September 27, Wednesday 12:22:37
; FORMAT={-:-/ absolute / inch / decimal}
; #@! TF.CreationDate,2023-09-27T12:22:37+02:00
; #@! TF.GenerationSoftware,Kicad,Pcbnew,7.0.7
; #@! TF.FileFunction,Plated,1,2,PTH
FMAT,2
INCH
; #@! TA.AperFunction,Plated,PTH,ViaDrill
T1C0.0157
; #@! TA.AperFunction,Plated,PTH,ComponentDrill
T2C0.0394
%
G90
G05
T1
X3.88Y-3.36
X3.99Y-3.51
T2
X3.399Y-2.8188
X3.399Y-2.9188
X3.399Y-3.0188
X3.399Y-3.1188
X3.399Y-3.2188
X3.399Y-3.3188
X3.399Y-3.4188
X3.399Y-3.5188
X3.399Y-3.6188
X3.399Y-3.7188
X3.399Y-3.8188
X3.399Y-3.9188
X3.399Y-4.0188
X3.399Y-4.1188
X3.399Y-4.2188
X3.45Y-4.54
X3.54Y-4.8
X3.54Y-5.1
X3.55Y-4.54
X3.599Y-2.8188
X3.599Y-2.9188
X3.599Y-3.0188
X3.599Y-3.1188
X3.599Y-3.2188
X3.599Y-3.3188
X3.599Y-3.4188
X3.599Y-3.5188
X3.599Y-3.6188
X3.599Y-3.7188
X3.599Y-3.8188
X3.599Y-3.9188
X3.599Y-4.0188
X3.599Y-4.1188
X3.599Y-4.2188
X3.64Y-4.8
X3.64Y-5.1
X3.65Y-4.54
X3.75Y-4.54
X4.0206Y-4.539
X4.0206Y-5.539
X4.1206Y-4.539
X4.1206Y-5.539
X4.2206Y-4.539
X4.2206Y-5.539
X4.3206Y-4.539
X4.3206Y-5.539
X4.4206Y-4.539
X4.4206Y-5.539
X4.499Y-2.8188
X4.499Y-2.9188
X4.499Y-3.0188
X4.499Y-3.1188
X4.499Y-3.2188
X4.499Y-3.3188
X4.499Y-3.4188
X4.499Y-3.5188
X4.499Y-3.6188
X4.499Y-3.7188
X4.499Y-3.8188
X4.499Y-3.9188
X4.499Y-4.0188
X4.499Y-4.1188
X4.499Y-4.2188
X4.5206Y-4.539
X4.5206Y-5.539
X4.6206Y-4.539
X4.6206Y-5.539
X4.699Y-2.8188
X4.699Y-2.9188
X4.699Y-3.0188
X4.699Y-3.1188
X4.699Y-3.2188
X4.699Y-3.3188
X4.699Y-3.4188
X4.699Y-3.5188
X4.699Y-3.6188
X4.699Y-3.7188
X4.699Y-3.8188
X4.699Y-3.9188
X4.699Y-4.0188
X4.699Y-4.1188
X4.699Y-4.2188
X4.7206Y-4.539
X4.7206Y-5.539
T0
M30
