%TF.GenerationSoftware,KiCad,Pcbnew,7.0.7*%
%TF.CreationDate,2023-09-27T12:22:37+02:00*%
%TF.ProjectId,EEE4022S Receiver Circuit,45454534-3032-4325-9320-526563656976,rev?*%
%TF.SameCoordinates,Original*%
%TF.FileFunction,Copper,L2,Bot*%
%TF.FilePolarity,Positive*%
%FSLAX46Y46*%
G04 Gerber Fmt 4.6, Leading zero omitted, Abs format (unit mm)*
G04 Created by KiCad (PCBNEW 7.0.7) date 2023-09-27 12:22:37*
%MOMM*%
%LPD*%
G01*
G04 APERTURE LIST*
%TA.AperFunction,ComponentPad*%
%ADD10O,1.700000X1.700000*%
%TD*%
%TA.AperFunction,ComponentPad*%
%ADD11R,1.700000X1.700000*%
%TD*%
%TA.AperFunction,ViaPad*%
%ADD12C,0.800000*%
%TD*%
%TA.AperFunction,Conductor*%
%ADD13C,0.250000*%
%TD*%
G04 APERTURE END LIST*
D10*
%TO.P,U1,1,A0*%
%TO.N,unconnected-(U1-A0-Pad1)*%
X119355000Y-107158000D03*
X114275000Y-107158000D03*
%TO.P,U1,2,RSV*%
%TO.N,unconnected-(U1-RSV-Pad2)*%
X119355000Y-104618000D03*
X114275000Y-104618000D03*
%TO.P,U1,3,RSV*%
%TO.N,unconnected-(U1-RSV-Pad3)*%
X119355000Y-102078000D03*
X114275000Y-102078000D03*
%TO.P,U1,4,SD3*%
%TO.N,unconnected-(U1-SD3-Pad4)*%
X119355000Y-99538000D03*
X114275000Y-99538000D03*
%TO.P,U1,5,SD2*%
%TO.N,unconnected-(U1-SD2-Pad5)*%
X119355000Y-96998000D03*
X114275000Y-96998000D03*
%TO.P,U1,6,SD1*%
%TO.N,unconnected-(U1-SD1-Pad6)*%
X119355000Y-94458000D03*
X114275000Y-94458000D03*
%TO.P,U1,7,CMD*%
%TO.N,unconnected-(U1-CMD-Pad7)*%
X119355000Y-91918000D03*
X114275000Y-91918000D03*
%TO.P,U1,8,SDO*%
%TO.N,unconnected-(U1-SDO-Pad8)*%
X119355000Y-89378000D03*
X114275000Y-89378000D03*
%TO.P,U1,9,CLK*%
%TO.N,unconnected-(U1-CLK-Pad9)*%
X119355000Y-86838000D03*
X114275000Y-86838000D03*
%TO.P,U1,10,GND*%
%TO.N,GND*%
X119355000Y-84298000D03*
X114275000Y-84298000D03*
%TO.P,U1,11,3V3*%
%TO.N,3V3*%
X119355000Y-81758000D03*
X114275000Y-81758000D03*
%TO.P,U1,12,EN*%
%TO.N,unconnected-(U1-EN-Pad12)*%
X119355000Y-79218000D03*
X114275000Y-79218000D03*
%TO.P,U1,13,RST*%
%TO.N,unconnected-(U1-RST-Pad13)*%
X119355000Y-76678000D03*
X114275000Y-76678000D03*
%TO.P,U1,14,GND*%
%TO.N,GND*%
X119355000Y-74138000D03*
X114275000Y-74138000D03*
%TO.P,U1,15,Vin*%
%TO.N,unconnected-(U1-Vin-Pad15)*%
X119355000Y-71598000D03*
X114275000Y-71598000D03*
%TO.P,U1,16,D0*%
%TO.N,D0*%
X91415000Y-107158000D03*
X86335000Y-107158000D03*
%TO.P,U1,17,D1*%
%TO.N,D1*%
X91415000Y-104618000D03*
X86335000Y-104618000D03*
%TO.P,U1,18,D2*%
%TO.N,D2*%
X91415000Y-102078000D03*
X86335000Y-102078000D03*
%TO.P,U1,19,D3*%
%TO.N,unconnected-(U1-D3-Pad19)*%
X91415000Y-99538000D03*
X86335000Y-99538000D03*
%TO.P,U1,20,D4*%
%TO.N,D4*%
X91415000Y-96998000D03*
X86335000Y-96998000D03*
%TO.P,U1,21,3V3*%
%TO.N,3V3*%
X91415000Y-94458000D03*
X86335000Y-94458000D03*
%TO.P,U1,22,GND*%
%TO.N,GND*%
X91415000Y-91918000D03*
X86335000Y-91918000D03*
%TO.P,U1,23,D5*%
%TO.N,D5*%
X91415000Y-89378000D03*
X86335000Y-89378000D03*
%TO.P,U1,24,D6*%
%TO.N,D6*%
X91415000Y-86838000D03*
X86335000Y-86838000D03*
%TO.P,U1,25,D7*%
%TO.N,D7*%
X91415000Y-84298000D03*
X86335000Y-84298000D03*
%TO.P,U1,26,D8*%
%TO.N,D8*%
X91415000Y-81758000D03*
X86335000Y-81758000D03*
%TO.P,U1,27,RX*%
%TO.N,unconnected-(U1-RX-Pad27)*%
X91415000Y-79218000D03*
X86335000Y-79218000D03*
%TO.P,U1,28,TX*%
%TO.N,unconnected-(U1-TX-Pad28)*%
X91415000Y-76678000D03*
X86335000Y-76678000D03*
%TO.P,U1,29,GND*%
%TO.N,GND*%
X91415000Y-74138000D03*
X86335000Y-74138000D03*
%TO.P,U1,30,3V3*%
%TO.N,unconnected-(U1-3V3-Pad30)*%
X91415000Y-71598000D03*
X86335000Y-71598000D03*
%TD*%
D11*
%TO.P,U4,1,GND*%
%TO.N,GND*%
X102123000Y-115291000D03*
D10*
%TO.P,U4,2,NSS*%
%TO.N,D8*%
X104663000Y-115291000D03*
%TO.P,U4,3,MOSI*%
%TO.N,D7*%
X107203000Y-115291000D03*
%TO.P,U4,4,MISO*%
%TO.N,D6*%
X109743000Y-115291000D03*
%TO.P,U4,5,SCK*%
%TO.N,D5*%
X112283000Y-115291000D03*
%TO.P,U4,6,DIO5*%
%TO.N,unconnected-(U4-DIO5-Pad6)*%
X114823000Y-115291000D03*
%TO.P,U4,7,DIO4*%
%TO.N,unconnected-(U4-DIO4-Pad7)*%
X117363000Y-115291000D03*
%TO.P,U4,8,GND*%
%TO.N,GND*%
X119903000Y-115291000D03*
D11*
%TO.P,U4,9,GND*%
X102123000Y-140691000D03*
D10*
%TO.P,U4,10,GND*%
X104663000Y-140691000D03*
%TO.P,U4,11,3.3V*%
%TO.N,3V3*%
X107203000Y-140691000D03*
%TO.P,U4,12,RST*%
%TO.N,D0*%
X109743000Y-140691000D03*
%TO.P,U4,13,DIO0*%
%TO.N,D2*%
X112283000Y-140691000D03*
%TO.P,U4,14,DIO1*%
%TO.N,unconnected-(U4-DIO1-Pad14)*%
X114823000Y-140691000D03*
%TO.P,U4,15,DIO2*%
%TO.N,unconnected-(U4-DIO2-Pad15)*%
X117363000Y-140691000D03*
%TO.P,U4,16,DIO3*%
%TO.N,unconnected-(U4-DIO3-Pad16)*%
X119903000Y-140691000D03*
%TD*%
%TO.P,U2,*%
%TO.N,*%
X89916000Y-129540000D03*
X92456000Y-129540000D03*
%TO.P,U2,1,GND*%
%TO.N,GND*%
X89916000Y-121920000D03*
%TO.P,U2,2,PIN*%
%TO.N,D4*%
X92456000Y-121920000D03*
%TD*%
%TO.P,U5,1,GND*%
%TO.N,GND*%
X87630000Y-115316000D03*
%TO.P,U5,2,VCC*%
%TO.N,3V3*%
X90170000Y-115316000D03*
%TO.P,U5,3,SCL*%
%TO.N,D1*%
X92710000Y-115316000D03*
%TO.P,U5,4,SDA*%
%TO.N,D2*%
X95250000Y-115316000D03*
%TD*%
D12*
%TO.N,D5*%
X101346000Y-89154000D03*
%TO.N,D7*%
X98552000Y-85344000D03*
%TD*%
D13*
%TO.N,GND*%
X86614000Y-118618000D02*
X89916000Y-121920000D01*
X87630000Y-115316000D02*
X86614000Y-116332000D01*
X86614000Y-116332000D02*
X86614000Y-118618000D01*
%TO.N,D5*%
X95250000Y-89154000D02*
X101346000Y-89154000D01*
X91415000Y-89378000D02*
X95026000Y-89378000D01*
X95026000Y-89378000D02*
X95250000Y-89154000D01*
%TO.N,D6*%
X109743000Y-115291000D02*
X109743000Y-110251000D01*
X109743000Y-110251000D02*
X104394000Y-104902000D01*
X104394000Y-104902000D02*
X104394000Y-88646000D01*
X102586000Y-86838000D02*
X91415000Y-86838000D01*
X104394000Y-88646000D02*
X102586000Y-86838000D01*
%TO.N,D7*%
X97506000Y-84298000D02*
X91415000Y-84298000D01*
X98552000Y-85344000D02*
X97506000Y-84298000D01*
%TD*%
%TA.AperFunction,Conductor*%
%TO.N,3V3*%
G36*
X125670574Y-68388288D02*
G01*
X125738025Y-68393111D01*
X125888600Y-68404959D01*
X125896918Y-68406186D01*
X125919783Y-68411159D01*
X125992858Y-68427055D01*
X126111704Y-68455585D01*
X126118887Y-68457779D01*
X126216547Y-68494203D01*
X126324686Y-68538995D01*
X126330670Y-68541858D01*
X126423063Y-68592307D01*
X126425745Y-68593860D01*
X126522835Y-68653356D01*
X126527590Y-68656582D01*
X126566790Y-68685927D01*
X126612600Y-68720220D01*
X126615711Y-68722708D01*
X126701693Y-68796142D01*
X126705270Y-68799449D01*
X126780549Y-68874728D01*
X126783856Y-68878305D01*
X126857290Y-68964287D01*
X126859778Y-68967398D01*
X126923410Y-69052400D01*
X126926642Y-69057163D01*
X126986138Y-69154253D01*
X126987691Y-69156935D01*
X127038140Y-69249328D01*
X127041007Y-69255319D01*
X127085799Y-69363460D01*
X127122219Y-69461109D01*
X127124416Y-69468309D01*
X127152945Y-69587142D01*
X127173812Y-69683079D01*
X127175039Y-69691402D01*
X127186891Y-69842013D01*
X127189004Y-69871560D01*
X127190617Y-69894127D01*
X127191711Y-69909419D01*
X127191869Y-69913843D01*
X127191869Y-147510156D01*
X127191711Y-147514580D01*
X127186891Y-147581987D01*
X127175039Y-147732596D01*
X127173812Y-147740919D01*
X127152945Y-147836857D01*
X127124416Y-147955689D01*
X127122219Y-147962888D01*
X127085799Y-148060539D01*
X127041007Y-148168679D01*
X127038140Y-148174670D01*
X126987691Y-148267063D01*
X126986138Y-148269745D01*
X126926642Y-148366835D01*
X126923410Y-148371598D01*
X126859778Y-148456600D01*
X126857290Y-148459711D01*
X126783856Y-148545693D01*
X126780549Y-148549270D01*
X126705270Y-148624549D01*
X126701693Y-148627856D01*
X126615711Y-148701290D01*
X126612600Y-148703778D01*
X126527598Y-148767410D01*
X126522835Y-148770642D01*
X126425745Y-148830138D01*
X126423063Y-148831691D01*
X126330670Y-148882140D01*
X126324679Y-148885007D01*
X126216539Y-148929799D01*
X126118888Y-148966219D01*
X126111689Y-148968416D01*
X125992857Y-148996945D01*
X125896919Y-149017812D01*
X125888596Y-149019039D01*
X125737987Y-149030891D01*
X125705901Y-149033185D01*
X125670576Y-149035711D01*
X125666157Y-149035869D01*
X80835843Y-149035869D01*
X80831423Y-149035711D01*
X80796098Y-149033185D01*
X80764013Y-149030891D01*
X80613402Y-149019039D01*
X80605079Y-149017812D01*
X80509142Y-148996945D01*
X80390309Y-148968416D01*
X80383109Y-148966219D01*
X80285460Y-148929799D01*
X80177319Y-148885007D01*
X80171328Y-148882140D01*
X80078935Y-148831691D01*
X80076253Y-148830138D01*
X79979163Y-148770642D01*
X79974400Y-148767410D01*
X79889398Y-148703778D01*
X79886287Y-148701290D01*
X79800305Y-148627856D01*
X79796728Y-148624549D01*
X79721449Y-148549270D01*
X79718142Y-148545693D01*
X79644708Y-148459711D01*
X79642220Y-148456600D01*
X79607927Y-148410790D01*
X79578582Y-148371590D01*
X79575356Y-148366835D01*
X79515860Y-148269745D01*
X79514307Y-148267063D01*
X79463858Y-148174670D01*
X79460995Y-148168686D01*
X79416200Y-148060539D01*
X79379779Y-147962887D01*
X79377585Y-147955704D01*
X79349055Y-147836857D01*
X79328186Y-147740918D01*
X79326959Y-147732595D01*
X79323058Y-147683015D01*
X79315109Y-147581987D01*
X79310288Y-147514575D01*
X79310210Y-147512371D01*
X80197228Y-147512371D01*
X80199353Y-147529869D01*
X80215720Y-147664670D01*
X80215721Y-147664675D01*
X80270124Y-147808122D01*
X80270124Y-147808123D01*
X80319464Y-147879603D01*
X80354695Y-147930644D01*
X80357278Y-147934385D01*
X80472110Y-148036118D01*
X80472111Y-148036118D01*
X80472113Y-148036120D01*
X80607959Y-148107418D01*
X80631134Y-148113130D01*
X80635544Y-148114392D01*
X80637782Y-148115122D01*
X80637785Y-148115124D01*
X80642533Y-148116029D01*
X80645728Y-148116727D01*
X80756921Y-148144134D01*
X80756922Y-148144134D01*
X80774893Y-148144134D01*
X80780367Y-148145741D01*
X80803964Y-148144256D01*
X80807859Y-148144134D01*
X80910343Y-148144134D01*
X80910343Y-148144133D01*
X80919762Y-148141811D01*
X80925938Y-148140290D01*
X80934672Y-148140673D01*
X80964871Y-148130861D01*
X80969183Y-148129630D01*
X81059303Y-148107418D01*
X81072997Y-148100230D01*
X81084365Y-148097952D01*
X81096879Y-148090011D01*
X81096896Y-148090001D01*
X81103474Y-148085826D01*
X81103478Y-148085825D01*
X81115833Y-148077983D01*
X81120214Y-148075448D01*
X81175387Y-148046492D01*
X81195146Y-148036122D01*
X81195147Y-148036120D01*
X81195149Y-148036120D01*
X81206947Y-148025667D01*
X81219865Y-148019594D01*
X81232263Y-148006393D01*
X81232282Y-148006375D01*
X81237609Y-148000701D01*
X81237612Y-148000700D01*
X81247961Y-147989678D01*
X81252008Y-147985746D01*
X81309985Y-147934384D01*
X81319468Y-147920644D01*
X81332530Y-147910058D01*
X81353526Y-147871866D01*
X81356825Y-147866523D01*
X81379513Y-147833654D01*
X81397134Y-147808129D01*
X81397135Y-147808126D01*
X81397138Y-147808122D01*
X81403555Y-147791200D01*
X81415135Y-147775905D01*
X81419002Y-147760847D01*
X81430443Y-147731948D01*
X81436856Y-147720281D01*
X81439738Y-147704738D01*
X125093597Y-147704738D01*
X125112089Y-147857037D01*
X125112090Y-147857042D01*
X125166493Y-148000489D01*
X125166493Y-148000490D01*
X125218228Y-148075440D01*
X125251064Y-148123011D01*
X125253647Y-148126752D01*
X125368479Y-148228485D01*
X125368480Y-148228485D01*
X125368482Y-148228487D01*
X125504328Y-148299785D01*
X125527503Y-148305497D01*
X125531913Y-148306759D01*
X125534151Y-148307489D01*
X125534154Y-148307491D01*
X125538902Y-148308396D01*
X125542097Y-148309094D01*
X125653290Y-148336501D01*
X125653291Y-148336501D01*
X125671262Y-148336501D01*
X125676736Y-148338108D01*
X125700333Y-148336623D01*
X125704228Y-148336501D01*
X125806712Y-148336501D01*
X125806712Y-148336500D01*
X125816131Y-148334178D01*
X125822307Y-148332657D01*
X125831041Y-148333040D01*
X125861240Y-148323228D01*
X125865552Y-148321997D01*
X125955672Y-148299785D01*
X125969366Y-148292597D01*
X125980734Y-148290319D01*
X125993248Y-148282378D01*
X125993265Y-148282368D01*
X125999843Y-148278193D01*
X125999847Y-148278192D01*
X126012202Y-148270350D01*
X126016583Y-148267815D01*
X126065732Y-148242020D01*
X126091515Y-148228489D01*
X126091516Y-148228487D01*
X126091518Y-148228487D01*
X126103316Y-148218034D01*
X126116234Y-148211961D01*
X126128632Y-148198760D01*
X126128651Y-148198742D01*
X126133978Y-148193068D01*
X126133981Y-148193067D01*
X126144330Y-148182045D01*
X126148377Y-148178113D01*
X126206354Y-148126751D01*
X126215837Y-148113011D01*
X126228899Y-148102425D01*
X126249895Y-148064233D01*
X126253194Y-148058890D01*
X126289432Y-148006393D01*
X126293503Y-148000496D01*
X126293504Y-148000493D01*
X126293507Y-148000489D01*
X126299924Y-147983567D01*
X126311504Y-147968272D01*
X126315371Y-147953214D01*
X126326812Y-147924315D01*
X126333225Y-147912648D01*
X126339351Y-147879606D01*
X126347910Y-147857039D01*
X126354461Y-147803079D01*
X126355953Y-147795156D01*
X126358774Y-147784171D01*
X126358774Y-147784167D01*
X126359489Y-147781384D01*
X126359493Y-147781364D01*
X126365646Y-147757400D01*
X126363765Y-147726461D01*
X126366403Y-147704738D01*
X126363765Y-147683013D01*
X126367626Y-147659787D01*
X126360471Y-147631918D01*
X126358774Y-147625308D01*
X126358774Y-147625305D01*
X126355955Y-147614329D01*
X126354460Y-147606381D01*
X126352690Y-147591804D01*
X126347910Y-147552437D01*
X126339350Y-147529868D01*
X126337387Y-147504398D01*
X126326812Y-147485161D01*
X126315369Y-147456259D01*
X126313115Y-147447479D01*
X126299924Y-147425909D01*
X126293507Y-147408987D01*
X126259743Y-147360072D01*
X126253201Y-147350594D01*
X126249892Y-147345238D01*
X126231634Y-147312026D01*
X126215840Y-147296468D01*
X126206354Y-147282725D01*
X126148400Y-147231381D01*
X126144316Y-147227414D01*
X126129977Y-147212146D01*
X126129974Y-147212143D01*
X126119535Y-147201027D01*
X126103320Y-147191444D01*
X126091522Y-147180992D01*
X126091520Y-147180990D01*
X126091518Y-147180989D01*
X126069835Y-147169609D01*
X126016603Y-147141669D01*
X126012196Y-147139120D01*
X125992083Y-147126357D01*
X125992078Y-147126354D01*
X125984041Y-147121254D01*
X125969370Y-147116880D01*
X125955670Y-147109690D01*
X125955669Y-147109689D01*
X125865560Y-147087479D01*
X125861239Y-147086246D01*
X125833853Y-147077347D01*
X125822318Y-147076821D01*
X125806713Y-147072975D01*
X125806710Y-147072975D01*
X125704198Y-147072975D01*
X125700325Y-147072853D01*
X125692465Y-147072359D01*
X125685637Y-147071929D01*
X125685582Y-147071929D01*
X125678632Y-147071492D01*
X125671258Y-147072975D01*
X125653288Y-147072975D01*
X125542242Y-147100345D01*
X125539021Y-147101048D01*
X125534128Y-147101981D01*
X125534071Y-147102011D01*
X125531665Y-147102789D01*
X125527420Y-147103998D01*
X125504329Y-147109690D01*
X125504324Y-147109692D01*
X125368483Y-147180987D01*
X125368481Y-147180989D01*
X125253647Y-147282723D01*
X125166493Y-147408985D01*
X125166493Y-147408986D01*
X125112090Y-147552433D01*
X125112089Y-147552438D01*
X125093597Y-147704738D01*
X81439738Y-147704738D01*
X81442982Y-147687239D01*
X81451541Y-147664672D01*
X81458092Y-147610712D01*
X81459584Y-147602789D01*
X81462405Y-147591804D01*
X81462405Y-147591800D01*
X81463120Y-147589017D01*
X81463124Y-147588997D01*
X81469277Y-147565033D01*
X81467396Y-147534094D01*
X81470034Y-147512371D01*
X81469765Y-147510159D01*
X81467396Y-147490648D01*
X81471257Y-147467420D01*
X81464102Y-147439551D01*
X81462405Y-147432941D01*
X81462405Y-147432938D01*
X81459586Y-147421962D01*
X81458091Y-147414014D01*
X81457481Y-147408987D01*
X81451541Y-147360070D01*
X81442981Y-147337501D01*
X81441018Y-147312031D01*
X81430443Y-147292794D01*
X81419000Y-147263892D01*
X81416746Y-147255112D01*
X81403555Y-147233542D01*
X81397138Y-147216620D01*
X81356832Y-147158227D01*
X81353523Y-147152871D01*
X81335265Y-147119659D01*
X81319471Y-147104101D01*
X81318565Y-147102789D01*
X81309985Y-147090358D01*
X81252031Y-147039015D01*
X81247962Y-147035063D01*
X81237612Y-147024042D01*
X81237611Y-147024041D01*
X81233607Y-147019777D01*
X81233605Y-147019776D01*
X81223166Y-147008660D01*
X81206951Y-146999077D01*
X81195153Y-146988625D01*
X81195151Y-146988623D01*
X81195149Y-146988622D01*
X81173466Y-146977242D01*
X81120234Y-146949302D01*
X81115827Y-146946753D01*
X81095714Y-146933990D01*
X81095709Y-146933987D01*
X81087672Y-146928887D01*
X81073001Y-146924513D01*
X81059301Y-146917323D01*
X81059300Y-146917322D01*
X80969191Y-146895112D01*
X80964870Y-146893879D01*
X80937484Y-146884980D01*
X80925949Y-146884454D01*
X80910344Y-146880608D01*
X80910341Y-146880608D01*
X80807829Y-146880608D01*
X80803956Y-146880486D01*
X80796096Y-146879992D01*
X80789268Y-146879562D01*
X80789213Y-146879562D01*
X80782263Y-146879125D01*
X80774889Y-146880608D01*
X80756919Y-146880608D01*
X80645873Y-146907978D01*
X80642652Y-146908681D01*
X80637759Y-146909614D01*
X80637702Y-146909644D01*
X80635296Y-146910422D01*
X80631051Y-146911631D01*
X80607960Y-146917323D01*
X80607955Y-146917325D01*
X80472114Y-146988620D01*
X80472112Y-146988622D01*
X80357278Y-147090356D01*
X80270124Y-147216618D01*
X80270124Y-147216619D01*
X80215721Y-147360066D01*
X80215720Y-147360071D01*
X80197289Y-147511869D01*
X80197228Y-147512371D01*
X79310210Y-147512371D01*
X79310131Y-147510159D01*
X79310131Y-141588870D01*
X100772500Y-141588870D01*
X100772501Y-141588876D01*
X100778908Y-141648483D01*
X100829202Y-141783328D01*
X100829206Y-141783335D01*
X100915452Y-141898544D01*
X100915455Y-141898547D01*
X101030664Y-141984793D01*
X101030671Y-141984797D01*
X101165517Y-142035091D01*
X101165516Y-142035091D01*
X101172444Y-142035835D01*
X101225127Y-142041500D01*
X103020872Y-142041499D01*
X103080483Y-142035091D01*
X103215331Y-141984796D01*
X103330546Y-141898546D01*
X103416796Y-141783331D01*
X103465810Y-141651916D01*
X103507681Y-141595984D01*
X103573145Y-141571566D01*
X103641418Y-141586417D01*
X103669673Y-141607569D01*
X103791599Y-141729495D01*
X103888384Y-141797264D01*
X103985165Y-141865032D01*
X103985167Y-141865033D01*
X103985170Y-141865035D01*
X104199337Y-141964903D01*
X104427592Y-142026063D01*
X104604034Y-142041500D01*
X104662999Y-142046659D01*
X104663000Y-142046659D01*
X104663001Y-142046659D01*
X104721966Y-142041500D01*
X104898408Y-142026063D01*
X105126663Y-141964903D01*
X105340830Y-141865035D01*
X105534401Y-141729495D01*
X105701495Y-141562401D01*
X105831730Y-141376405D01*
X105886307Y-141332781D01*
X105955805Y-141325587D01*
X106018160Y-141357110D01*
X106034879Y-141376405D01*
X106164890Y-141562078D01*
X106331917Y-141729105D01*
X106525421Y-141864600D01*
X106739507Y-141964429D01*
X106739516Y-141964433D01*
X106953000Y-142021634D01*
X106953000Y-141303301D01*
X106972685Y-141236262D01*
X107025489Y-141190507D01*
X107094647Y-141180563D01*
X107167237Y-141191000D01*
X107167238Y-141191000D01*
X107238762Y-141191000D01*
X107238763Y-141191000D01*
X107311353Y-141180563D01*
X107380512Y-141190507D01*
X107433315Y-141236262D01*
X107453000Y-141303301D01*
X107453000Y-142021633D01*
X107666483Y-141964433D01*
X107666492Y-141964429D01*
X107880578Y-141864600D01*
X108074082Y-141729105D01*
X108241105Y-141562082D01*
X108371119Y-141376405D01*
X108425696Y-141332781D01*
X108495195Y-141325588D01*
X108557549Y-141357110D01*
X108574269Y-141376405D01*
X108704505Y-141562401D01*
X108871599Y-141729495D01*
X108968384Y-141797264D01*
X109065165Y-141865032D01*
X109065167Y-141865033D01*
X109065170Y-141865035D01*
X109279337Y-141964903D01*
X109507592Y-142026063D01*
X109684034Y-142041500D01*
X109742999Y-142046659D01*
X109743000Y-142046659D01*
X109743001Y-142046659D01*
X109801966Y-142041500D01*
X109978408Y-142026063D01*
X110206663Y-141964903D01*
X110420830Y-141865035D01*
X110614401Y-141729495D01*
X110781495Y-141562401D01*
X110911424Y-141376842D01*
X110966002Y-141333217D01*
X111035500Y-141326023D01*
X111097855Y-141357546D01*
X111114575Y-141376842D01*
X111244500Y-141562395D01*
X111244505Y-141562401D01*
X111411599Y-141729495D01*
X111508384Y-141797264D01*
X111605165Y-141865032D01*
X111605167Y-141865033D01*
X111605170Y-141865035D01*
X111819337Y-141964903D01*
X112047592Y-142026063D01*
X112224034Y-142041500D01*
X112282999Y-142046659D01*
X112283000Y-142046659D01*
X112283001Y-142046659D01*
X112341966Y-142041500D01*
X112518408Y-142026063D01*
X112746663Y-141964903D01*
X112960830Y-141865035D01*
X113154401Y-141729495D01*
X113321495Y-141562401D01*
X113451424Y-141376842D01*
X113506002Y-141333217D01*
X113575500Y-141326023D01*
X113637855Y-141357546D01*
X113654575Y-141376842D01*
X113784500Y-141562395D01*
X113784505Y-141562401D01*
X113951599Y-141729495D01*
X114048384Y-141797264D01*
X114145165Y-141865032D01*
X114145167Y-141865033D01*
X114145170Y-141865035D01*
X114359337Y-141964903D01*
X114587592Y-142026063D01*
X114764034Y-142041500D01*
X114822999Y-142046659D01*
X114823000Y-142046659D01*
X114823001Y-142046659D01*
X114881966Y-142041500D01*
X115058408Y-142026063D01*
X115286663Y-141964903D01*
X115500830Y-141865035D01*
X115694401Y-141729495D01*
X115861495Y-141562401D01*
X115991424Y-141376842D01*
X116046002Y-141333217D01*
X116115500Y-141326023D01*
X116177855Y-141357546D01*
X116194575Y-141376842D01*
X116324500Y-141562395D01*
X116324505Y-141562401D01*
X116491599Y-141729495D01*
X116588384Y-141797264D01*
X116685165Y-141865032D01*
X116685167Y-141865033D01*
X116685170Y-141865035D01*
X116899337Y-141964903D01*
X117127592Y-142026063D01*
X117304034Y-142041500D01*
X117362999Y-142046659D01*
X117363000Y-142046659D01*
X117363001Y-142046659D01*
X117421966Y-142041500D01*
X117598408Y-142026063D01*
X117826663Y-141964903D01*
X118040830Y-141865035D01*
X118234401Y-141729495D01*
X118401495Y-141562401D01*
X118531424Y-141376842D01*
X118586002Y-141333217D01*
X118655500Y-141326023D01*
X118717855Y-141357546D01*
X118734575Y-141376842D01*
X118864500Y-141562395D01*
X118864505Y-141562401D01*
X119031599Y-141729495D01*
X119128384Y-141797264D01*
X119225165Y-141865032D01*
X119225167Y-141865033D01*
X119225170Y-141865035D01*
X119439337Y-141964903D01*
X119667592Y-142026063D01*
X119844034Y-142041500D01*
X119902999Y-142046659D01*
X119903000Y-142046659D01*
X119903001Y-142046659D01*
X119961966Y-142041500D01*
X120138408Y-142026063D01*
X120366663Y-141964903D01*
X120580830Y-141865035D01*
X120774401Y-141729495D01*
X120941495Y-141562401D01*
X121077035Y-141368830D01*
X121176903Y-141154663D01*
X121238063Y-140926408D01*
X121258659Y-140691000D01*
X121238063Y-140455592D01*
X121176903Y-140227337D01*
X121077035Y-140013171D01*
X121071731Y-140005595D01*
X120941494Y-139819597D01*
X120774402Y-139652506D01*
X120774395Y-139652501D01*
X120580834Y-139516967D01*
X120580830Y-139516965D01*
X120580829Y-139516964D01*
X120366663Y-139417097D01*
X120366659Y-139417096D01*
X120366655Y-139417094D01*
X120138413Y-139355938D01*
X120138403Y-139355936D01*
X119903001Y-139335341D01*
X119902999Y-139335341D01*
X119667596Y-139355936D01*
X119667586Y-139355938D01*
X119439344Y-139417094D01*
X119439335Y-139417098D01*
X119225171Y-139516964D01*
X119225169Y-139516965D01*
X119031597Y-139652505D01*
X118864505Y-139819597D01*
X118734575Y-140005158D01*
X118679998Y-140048783D01*
X118610500Y-140055977D01*
X118548145Y-140024454D01*
X118531425Y-140005158D01*
X118401494Y-139819597D01*
X118234402Y-139652506D01*
X118234395Y-139652501D01*
X118040834Y-139516967D01*
X118040830Y-139516965D01*
X118040828Y-139516964D01*
X117826663Y-139417097D01*
X117826659Y-139417096D01*
X117826655Y-139417094D01*
X117598413Y-139355938D01*
X117598403Y-139355936D01*
X117363001Y-139335341D01*
X117362999Y-139335341D01*
X117127596Y-139355936D01*
X117127586Y-139355938D01*
X116899344Y-139417094D01*
X116899335Y-139417098D01*
X116685171Y-139516964D01*
X116685169Y-139516965D01*
X116491597Y-139652505D01*
X116324505Y-139819597D01*
X116194575Y-140005158D01*
X116139998Y-140048783D01*
X116070500Y-140055977D01*
X116008145Y-140024454D01*
X115991425Y-140005158D01*
X115861494Y-139819597D01*
X115694402Y-139652506D01*
X115694395Y-139652501D01*
X115500834Y-139516967D01*
X115500830Y-139516965D01*
X115500829Y-139516964D01*
X115286663Y-139417097D01*
X115286659Y-139417096D01*
X115286655Y-139417094D01*
X115058413Y-139355938D01*
X115058403Y-139355936D01*
X114823001Y-139335341D01*
X114822999Y-139335341D01*
X114587596Y-139355936D01*
X114587586Y-139355938D01*
X114359344Y-139417094D01*
X114359335Y-139417098D01*
X114145171Y-139516964D01*
X114145169Y-139516965D01*
X113951597Y-139652505D01*
X113784505Y-139819597D01*
X113654575Y-140005158D01*
X113599998Y-140048783D01*
X113530500Y-140055977D01*
X113468145Y-140024454D01*
X113451425Y-140005158D01*
X113321494Y-139819597D01*
X113154402Y-139652506D01*
X113154395Y-139652501D01*
X112960834Y-139516967D01*
X112960830Y-139516965D01*
X112960828Y-139516964D01*
X112746663Y-139417097D01*
X112746659Y-139417096D01*
X112746655Y-139417094D01*
X112518413Y-139355938D01*
X112518403Y-139355936D01*
X112283001Y-139335341D01*
X112282999Y-139335341D01*
X112047596Y-139355936D01*
X112047586Y-139355938D01*
X111819344Y-139417094D01*
X111819335Y-139417098D01*
X111605171Y-139516964D01*
X111605169Y-139516965D01*
X111411597Y-139652505D01*
X111244505Y-139819597D01*
X111114575Y-140005158D01*
X111059998Y-140048783D01*
X110990500Y-140055977D01*
X110928145Y-140024454D01*
X110911425Y-140005158D01*
X110781494Y-139819597D01*
X110614402Y-139652506D01*
X110614395Y-139652501D01*
X110420834Y-139516967D01*
X110420830Y-139516965D01*
X110420829Y-139516964D01*
X110206663Y-139417097D01*
X110206659Y-139417096D01*
X110206655Y-139417094D01*
X109978413Y-139355938D01*
X109978403Y-139355936D01*
X109743001Y-139335341D01*
X109742999Y-139335341D01*
X109507596Y-139355936D01*
X109507586Y-139355938D01*
X109279344Y-139417094D01*
X109279335Y-139417098D01*
X109065171Y-139516964D01*
X109065169Y-139516965D01*
X108871597Y-139652505D01*
X108704508Y-139819594D01*
X108574269Y-140005595D01*
X108519692Y-140049219D01*
X108450193Y-140056412D01*
X108387839Y-140024890D01*
X108371119Y-140005594D01*
X108241113Y-139819926D01*
X108241108Y-139819920D01*
X108074082Y-139652894D01*
X107880578Y-139517399D01*
X107666492Y-139417570D01*
X107666486Y-139417567D01*
X107453000Y-139360364D01*
X107453000Y-140078698D01*
X107433315Y-140145737D01*
X107380511Y-140191492D01*
X107311355Y-140201436D01*
X107238766Y-140191000D01*
X107238763Y-140191000D01*
X107167237Y-140191000D01*
X107167233Y-140191000D01*
X107094645Y-140201436D01*
X107025487Y-140191492D01*
X106972684Y-140145736D01*
X106953000Y-140078698D01*
X106953000Y-139360364D01*
X106952999Y-139360364D01*
X106739513Y-139417567D01*
X106739507Y-139417570D01*
X106525422Y-139517399D01*
X106525420Y-139517400D01*
X106331926Y-139652886D01*
X106331920Y-139652891D01*
X106164891Y-139819920D01*
X106164890Y-139819922D01*
X106034880Y-140005595D01*
X105980303Y-140049219D01*
X105910804Y-140056412D01*
X105848450Y-140024890D01*
X105831730Y-140005594D01*
X105701494Y-139819597D01*
X105534402Y-139652506D01*
X105534395Y-139652501D01*
X105340834Y-139516967D01*
X105340830Y-139516965D01*
X105340829Y-139516964D01*
X105126663Y-139417097D01*
X105126659Y-139417096D01*
X105126655Y-139417094D01*
X104898413Y-139355938D01*
X104898403Y-139355936D01*
X104663001Y-139335341D01*
X104662999Y-139335341D01*
X104427596Y-139355936D01*
X104427586Y-139355938D01*
X104199344Y-139417094D01*
X104199335Y-139417098D01*
X103985171Y-139516964D01*
X103985169Y-139516965D01*
X103791600Y-139652503D01*
X103669673Y-139774430D01*
X103608350Y-139807914D01*
X103538658Y-139802930D01*
X103482725Y-139761058D01*
X103465810Y-139730081D01*
X103416797Y-139598671D01*
X103416793Y-139598664D01*
X103330547Y-139483455D01*
X103330544Y-139483452D01*
X103215335Y-139397206D01*
X103215328Y-139397202D01*
X103080482Y-139346908D01*
X103080483Y-139346908D01*
X103020883Y-139340501D01*
X103020881Y-139340500D01*
X103020873Y-139340500D01*
X103020864Y-139340500D01*
X101225129Y-139340500D01*
X101225123Y-139340501D01*
X101165516Y-139346908D01*
X101030671Y-139397202D01*
X101030664Y-139397206D01*
X100915455Y-139483452D01*
X100915452Y-139483455D01*
X100829206Y-139598664D01*
X100829202Y-139598671D01*
X100778908Y-139733517D01*
X100772501Y-139793116D01*
X100772500Y-139793135D01*
X100772500Y-141588870D01*
X79310131Y-141588870D01*
X79310131Y-129540000D01*
X88560341Y-129540000D01*
X88580936Y-129775403D01*
X88580938Y-129775413D01*
X88642094Y-130003655D01*
X88642096Y-130003659D01*
X88642097Y-130003663D01*
X88646000Y-130012032D01*
X88741965Y-130217830D01*
X88741967Y-130217834D01*
X88850281Y-130372521D01*
X88877505Y-130411401D01*
X89044599Y-130578495D01*
X89141384Y-130646264D01*
X89238165Y-130714032D01*
X89238167Y-130714033D01*
X89238170Y-130714035D01*
X89452337Y-130813903D01*
X89680592Y-130875063D01*
X89868918Y-130891539D01*
X89915999Y-130895659D01*
X89916000Y-130895659D01*
X89916001Y-130895659D01*
X89955234Y-130892226D01*
X90151408Y-130875063D01*
X90379663Y-130813903D01*
X90593830Y-130714035D01*
X90787401Y-130578495D01*
X90954495Y-130411401D01*
X91084426Y-130225840D01*
X91139001Y-130182217D01*
X91208499Y-130175023D01*
X91270854Y-130206546D01*
X91287574Y-130225841D01*
X91417505Y-130411401D01*
X91584599Y-130578495D01*
X91681384Y-130646264D01*
X91778165Y-130714032D01*
X91778167Y-130714033D01*
X91778170Y-130714035D01*
X91992337Y-130813903D01*
X92220592Y-130875063D01*
X92408918Y-130891539D01*
X92455999Y-130895659D01*
X92456000Y-130895659D01*
X92456001Y-130895659D01*
X92495234Y-130892226D01*
X92691408Y-130875063D01*
X92919663Y-130813903D01*
X93133830Y-130714035D01*
X93327401Y-130578495D01*
X93494495Y-130411401D01*
X93630035Y-130217830D01*
X93729903Y-130003663D01*
X93791063Y-129775408D01*
X93811659Y-129540000D01*
X93791063Y-129304592D01*
X93729903Y-129076337D01*
X93630035Y-128862171D01*
X93624425Y-128854158D01*
X93494494Y-128668597D01*
X93327402Y-128501506D01*
X93327395Y-128501501D01*
X93133834Y-128365967D01*
X93133830Y-128365965D01*
X93133828Y-128365964D01*
X92919663Y-128266097D01*
X92919659Y-128266096D01*
X92919655Y-128266094D01*
X92691413Y-128204938D01*
X92691403Y-128204936D01*
X92456001Y-128184341D01*
X92455999Y-128184341D01*
X92220596Y-128204936D01*
X92220586Y-128204938D01*
X91992344Y-128266094D01*
X91992335Y-128266098D01*
X91778171Y-128365964D01*
X91778169Y-128365965D01*
X91584597Y-128501505D01*
X91417505Y-128668597D01*
X91287575Y-128854158D01*
X91232998Y-128897783D01*
X91163500Y-128904977D01*
X91101145Y-128873454D01*
X91084425Y-128854158D01*
X90954494Y-128668597D01*
X90787402Y-128501506D01*
X90787395Y-128501501D01*
X90593834Y-128365967D01*
X90593830Y-128365965D01*
X90593828Y-128365964D01*
X90379663Y-128266097D01*
X90379659Y-128266096D01*
X90379655Y-128266094D01*
X90151413Y-128204938D01*
X90151403Y-128204936D01*
X89916001Y-128184341D01*
X89915999Y-128184341D01*
X89680596Y-128204936D01*
X89680586Y-128204938D01*
X89452344Y-128266094D01*
X89452335Y-128266098D01*
X89238171Y-128365964D01*
X89238169Y-128365965D01*
X89044597Y-128501505D01*
X88877505Y-128668597D01*
X88741965Y-128862169D01*
X88741964Y-128862171D01*
X88642098Y-129076335D01*
X88642094Y-129076344D01*
X88580938Y-129304586D01*
X88580936Y-129304596D01*
X88560341Y-129539999D01*
X88560341Y-129540000D01*
X79310131Y-129540000D01*
X79310131Y-116312195D01*
X85983840Y-116312195D01*
X85988225Y-116358583D01*
X85988500Y-116364421D01*
X85988500Y-118535255D01*
X85986775Y-118550872D01*
X85987061Y-118550899D01*
X85986326Y-118558665D01*
X85988500Y-118627814D01*
X85988500Y-118657343D01*
X85988501Y-118657360D01*
X85989368Y-118664231D01*
X85989826Y-118670050D01*
X85991290Y-118716624D01*
X85991291Y-118716627D01*
X85996880Y-118735867D01*
X86000824Y-118754911D01*
X86003336Y-118774791D01*
X86020490Y-118818119D01*
X86022382Y-118823647D01*
X86035381Y-118868388D01*
X86045580Y-118885634D01*
X86054138Y-118903103D01*
X86061514Y-118921732D01*
X86088898Y-118959423D01*
X86092106Y-118964307D01*
X86115827Y-119004416D01*
X86115833Y-119004424D01*
X86129990Y-119018580D01*
X86142628Y-119033376D01*
X86154405Y-119049586D01*
X86154406Y-119049587D01*
X86190309Y-119079288D01*
X86194620Y-119083210D01*
X87992910Y-120881501D01*
X88575761Y-121464352D01*
X88609246Y-121525675D01*
X88607855Y-121584124D01*
X88580937Y-121684589D01*
X88580937Y-121684590D01*
X88560341Y-121919999D01*
X88560341Y-121920000D01*
X88580936Y-122155403D01*
X88580938Y-122155413D01*
X88642094Y-122383655D01*
X88642096Y-122383659D01*
X88642097Y-122383663D01*
X88646000Y-122392032D01*
X88741965Y-122597830D01*
X88741967Y-122597834D01*
X88850281Y-122752521D01*
X88877505Y-122791401D01*
X89044599Y-122958495D01*
X89141384Y-123026264D01*
X89238165Y-123094032D01*
X89238167Y-123094033D01*
X89238170Y-123094035D01*
X89452337Y-123193903D01*
X89680592Y-123255063D01*
X89868918Y-123271539D01*
X89915999Y-123275659D01*
X89916000Y-123275659D01*
X89916001Y-123275659D01*
X89955234Y-123272226D01*
X90151408Y-123255063D01*
X90379663Y-123193903D01*
X90593830Y-123094035D01*
X90787401Y-122958495D01*
X90954495Y-122791401D01*
X91084426Y-122605840D01*
X91139001Y-122562217D01*
X91208499Y-122555023D01*
X91270854Y-122586546D01*
X91287574Y-122605841D01*
X91417505Y-122791401D01*
X91584599Y-122958495D01*
X91681384Y-123026264D01*
X91778165Y-123094032D01*
X91778167Y-123094033D01*
X91778170Y-123094035D01*
X91992337Y-123193903D01*
X92220592Y-123255063D01*
X92408918Y-123271539D01*
X92455999Y-123275659D01*
X92456000Y-123275659D01*
X92456001Y-123275659D01*
X92495234Y-123272226D01*
X92691408Y-123255063D01*
X92919663Y-123193903D01*
X93133830Y-123094035D01*
X93327401Y-122958495D01*
X93494495Y-122791401D01*
X93630035Y-122597830D01*
X93729903Y-122383663D01*
X93791063Y-122155408D01*
X93811659Y-121920000D01*
X93791063Y-121684592D01*
X93729903Y-121456337D01*
X93630035Y-121242171D01*
X93624425Y-121234158D01*
X93494494Y-121048597D01*
X93327402Y-120881506D01*
X93327395Y-120881501D01*
X93133834Y-120745967D01*
X93133830Y-120745965D01*
X93133828Y-120745964D01*
X92919663Y-120646097D01*
X92919659Y-120646096D01*
X92919655Y-120646094D01*
X92691413Y-120584938D01*
X92691403Y-120584936D01*
X92456001Y-120564341D01*
X92455999Y-120564341D01*
X92220596Y-120584936D01*
X92220586Y-120584938D01*
X91992344Y-120646094D01*
X91992335Y-120646098D01*
X91778171Y-120745964D01*
X91778169Y-120745965D01*
X91584597Y-120881505D01*
X91417505Y-121048597D01*
X91287575Y-121234158D01*
X91232998Y-121277783D01*
X91163500Y-121284977D01*
X91101145Y-121253454D01*
X91084425Y-121234158D01*
X90954494Y-121048597D01*
X90787402Y-120881506D01*
X90787395Y-120881501D01*
X90593834Y-120745967D01*
X90593830Y-120745965D01*
X90593828Y-120745964D01*
X90379663Y-120646097D01*
X90379659Y-120646096D01*
X90379655Y-120646094D01*
X90151413Y-120584938D01*
X90151403Y-120584936D01*
X89916001Y-120564341D01*
X89915999Y-120564341D01*
X89680590Y-120584937D01*
X89680589Y-120584937D01*
X89580124Y-120611855D01*
X89510274Y-120610191D01*
X89460352Y-120579761D01*
X87275819Y-118395228D01*
X87242334Y-118333905D01*
X87239500Y-118307547D01*
X87239500Y-116771106D01*
X87259185Y-116704067D01*
X87311989Y-116658312D01*
X87381147Y-116648368D01*
X87392385Y-116650673D01*
X87394584Y-116651060D01*
X87394592Y-116651063D01*
X87582918Y-116667539D01*
X87629999Y-116671659D01*
X87630000Y-116671659D01*
X87630001Y-116671659D01*
X87669234Y-116668226D01*
X87865408Y-116651063D01*
X88093663Y-116589903D01*
X88307830Y-116490035D01*
X88501401Y-116354495D01*
X88668495Y-116187401D01*
X88798730Y-116001405D01*
X88853307Y-115957781D01*
X88922805Y-115950587D01*
X88985160Y-115982110D01*
X89001879Y-116001405D01*
X89131890Y-116187078D01*
X89298917Y-116354105D01*
X89492421Y-116489600D01*
X89706507Y-116589429D01*
X89706516Y-116589433D01*
X89920000Y-116646634D01*
X89920000Y-115928301D01*
X89939685Y-115861262D01*
X89992489Y-115815507D01*
X90061647Y-115805563D01*
X90134237Y-115816000D01*
X90134238Y-115816000D01*
X90205762Y-115816000D01*
X90205763Y-115816000D01*
X90278352Y-115805563D01*
X90347510Y-115815507D01*
X90400314Y-115861261D01*
X90419999Y-115928301D01*
X90419999Y-116646634D01*
X90633483Y-116589433D01*
X90633492Y-116589429D01*
X90847578Y-116489600D01*
X91041082Y-116354105D01*
X91208105Y-116187082D01*
X91338119Y-116001405D01*
X91392696Y-115957781D01*
X91462195Y-115950588D01*
X91524549Y-115982110D01*
X91541269Y-116001405D01*
X91671505Y-116187401D01*
X91838599Y-116354495D01*
X91848592Y-116361492D01*
X92032165Y-116490032D01*
X92032167Y-116490033D01*
X92032170Y-116490035D01*
X92246337Y-116589903D01*
X92474592Y-116651063D01*
X92662918Y-116667539D01*
X92709999Y-116671659D01*
X92710000Y-116671659D01*
X92710001Y-116671659D01*
X92749234Y-116668226D01*
X92945408Y-116651063D01*
X93173663Y-116589903D01*
X93387830Y-116490035D01*
X93581401Y-116354495D01*
X93748495Y-116187401D01*
X93878424Y-116001842D01*
X93933002Y-115958217D01*
X94002500Y-115951023D01*
X94064855Y-115982546D01*
X94081575Y-116001842D01*
X94211500Y-116187395D01*
X94211505Y-116187401D01*
X94378599Y-116354495D01*
X94388592Y-116361492D01*
X94572165Y-116490032D01*
X94572167Y-116490033D01*
X94572170Y-116490035D01*
X94786337Y-116589903D01*
X95014592Y-116651063D01*
X95202918Y-116667539D01*
X95249999Y-116671659D01*
X95250000Y-116671659D01*
X95250001Y-116671659D01*
X95289234Y-116668226D01*
X95485408Y-116651063D01*
X95713663Y-116589903D01*
X95927830Y-116490035D01*
X96121401Y-116354495D01*
X96288495Y-116187401D01*
X96424035Y-115993830D01*
X96523903Y-115779663D01*
X96585063Y-115551408D01*
X96605659Y-115316000D01*
X96585063Y-115080592D01*
X96523903Y-114852337D01*
X96424035Y-114638171D01*
X96418731Y-114630595D01*
X96288494Y-114444597D01*
X96121402Y-114277506D01*
X96121395Y-114277501D01*
X95927834Y-114141967D01*
X95927830Y-114141965D01*
X95875039Y-114117348D01*
X95713663Y-114042097D01*
X95713659Y-114042096D01*
X95713655Y-114042094D01*
X95485413Y-113980938D01*
X95485403Y-113980936D01*
X95250001Y-113960341D01*
X95249999Y-113960341D01*
X95014596Y-113980936D01*
X95014586Y-113980938D01*
X94786344Y-114042094D01*
X94786335Y-114042098D01*
X94572171Y-114141964D01*
X94572169Y-114141965D01*
X94378597Y-114277505D01*
X94211505Y-114444597D01*
X94081575Y-114630158D01*
X94026998Y-114673783D01*
X93957500Y-114680977D01*
X93895145Y-114649454D01*
X93878425Y-114630158D01*
X93748494Y-114444597D01*
X93581402Y-114277506D01*
X93581395Y-114277501D01*
X93387834Y-114141967D01*
X93387830Y-114141965D01*
X93335039Y-114117348D01*
X93173663Y-114042097D01*
X93173659Y-114042096D01*
X93173655Y-114042094D01*
X92945413Y-113980938D01*
X92945403Y-113980936D01*
X92710001Y-113960341D01*
X92709999Y-113960341D01*
X92474596Y-113980936D01*
X92474586Y-113980938D01*
X92246344Y-114042094D01*
X92246335Y-114042098D01*
X92032171Y-114141964D01*
X92032169Y-114141965D01*
X91838597Y-114277505D01*
X91671508Y-114444594D01*
X91541269Y-114630595D01*
X91486692Y-114674219D01*
X91417193Y-114681412D01*
X91354839Y-114649890D01*
X91338119Y-114630594D01*
X91208113Y-114444926D01*
X91208108Y-114444920D01*
X91041082Y-114277894D01*
X90847578Y-114142399D01*
X90633492Y-114042570D01*
X90633486Y-114042567D01*
X90420000Y-113985364D01*
X90419999Y-113985364D01*
X90419999Y-114703698D01*
X90400314Y-114770738D01*
X90347510Y-114816492D01*
X90278353Y-114826436D01*
X90205764Y-114816000D01*
X90205763Y-114816000D01*
X90134237Y-114816000D01*
X90134233Y-114816000D01*
X90061645Y-114826436D01*
X89992487Y-114816492D01*
X89939684Y-114770736D01*
X89920000Y-114703698D01*
X89920000Y-113985364D01*
X89919999Y-113985364D01*
X89706513Y-114042567D01*
X89706507Y-114042570D01*
X89492422Y-114142399D01*
X89492420Y-114142400D01*
X89298926Y-114277886D01*
X89298920Y-114277891D01*
X89131891Y-114444920D01*
X89131890Y-114444922D01*
X89001880Y-114630595D01*
X88947303Y-114674219D01*
X88877804Y-114681412D01*
X88815450Y-114649890D01*
X88798730Y-114630594D01*
X88668494Y-114444597D01*
X88501402Y-114277506D01*
X88501395Y-114277501D01*
X88307834Y-114141967D01*
X88307830Y-114141965D01*
X88255039Y-114117348D01*
X88093663Y-114042097D01*
X88093659Y-114042096D01*
X88093655Y-114042094D01*
X87865413Y-113980938D01*
X87865403Y-113980936D01*
X87630001Y-113960341D01*
X87629999Y-113960341D01*
X87394596Y-113980936D01*
X87394586Y-113980938D01*
X87166344Y-114042094D01*
X87166335Y-114042098D01*
X86952171Y-114141964D01*
X86952169Y-114141965D01*
X86758597Y-114277505D01*
X86591505Y-114444597D01*
X86455965Y-114638169D01*
X86455964Y-114638171D01*
X86356098Y-114852335D01*
X86356094Y-114852344D01*
X86294938Y-115080586D01*
X86294936Y-115080596D01*
X86274341Y-115315999D01*
X86274341Y-115316000D01*
X86294937Y-115551408D01*
X86321855Y-115651873D01*
X86320192Y-115721723D01*
X86289761Y-115771646D01*
X86230208Y-115831199D01*
X86217951Y-115841020D01*
X86218134Y-115841241D01*
X86212123Y-115846213D01*
X86164772Y-115896636D01*
X86143889Y-115917519D01*
X86143877Y-115917532D01*
X86139621Y-115923017D01*
X86135837Y-115927447D01*
X86103937Y-115961418D01*
X86103936Y-115961420D01*
X86094284Y-115978976D01*
X86083610Y-115995226D01*
X86071329Y-116011061D01*
X86071324Y-116011068D01*
X86052815Y-116053838D01*
X86050245Y-116059084D01*
X86027803Y-116099906D01*
X86022822Y-116119307D01*
X86016521Y-116137710D01*
X86008562Y-116156102D01*
X86008561Y-116156105D01*
X86001271Y-116202127D01*
X86000087Y-116207846D01*
X85988501Y-116252972D01*
X85988500Y-116252982D01*
X85988500Y-116273016D01*
X85986973Y-116292415D01*
X85983840Y-116312194D01*
X85983840Y-116312195D01*
X79310131Y-116312195D01*
X79310131Y-107158000D01*
X84979341Y-107158000D01*
X84999936Y-107393403D01*
X84999938Y-107393413D01*
X85061094Y-107621655D01*
X85061096Y-107621659D01*
X85061097Y-107621663D01*
X85160965Y-107835830D01*
X85160967Y-107835834D01*
X85269281Y-107990521D01*
X85296505Y-108029401D01*
X85463599Y-108196495D01*
X85560384Y-108264265D01*
X85657165Y-108332032D01*
X85657167Y-108332033D01*
X85657170Y-108332035D01*
X85871337Y-108431903D01*
X86099592Y-108493063D01*
X86287918Y-108509539D01*
X86334999Y-108513659D01*
X86335000Y-108513659D01*
X86335001Y-108513659D01*
X86374234Y-108510226D01*
X86570408Y-108493063D01*
X86798663Y-108431903D01*
X87012830Y-108332035D01*
X87206401Y-108196495D01*
X87373495Y-108029401D01*
X87509035Y-107835830D01*
X87608903Y-107621663D01*
X87670063Y-107393408D01*
X87690659Y-107158000D01*
X90059341Y-107158000D01*
X90079936Y-107393403D01*
X90079938Y-107393413D01*
X90141094Y-107621655D01*
X90141096Y-107621659D01*
X90141097Y-107621663D01*
X90240964Y-107835829D01*
X90240965Y-107835830D01*
X90240967Y-107835834D01*
X90349281Y-107990521D01*
X90376505Y-108029401D01*
X90543599Y-108196495D01*
X90640384Y-108264265D01*
X90737165Y-108332032D01*
X90737167Y-108332033D01*
X90737170Y-108332035D01*
X90951337Y-108431903D01*
X91179592Y-108493063D01*
X91367918Y-108509539D01*
X91414999Y-108513659D01*
X91415000Y-108513659D01*
X91415001Y-108513659D01*
X91454234Y-108510226D01*
X91650408Y-108493063D01*
X91878663Y-108431903D01*
X92092830Y-108332035D01*
X92286401Y-108196495D01*
X92453495Y-108029401D01*
X92589035Y-107835830D01*
X92688903Y-107621663D01*
X92750063Y-107393408D01*
X92770659Y-107158000D01*
X92750063Y-106922592D01*
X92688903Y-106694337D01*
X92589035Y-106480171D01*
X92453495Y-106286599D01*
X92453494Y-106286597D01*
X92286402Y-106119506D01*
X92286396Y-106119501D01*
X92100842Y-105989575D01*
X92057217Y-105934998D01*
X92050023Y-105865500D01*
X92081546Y-105803145D01*
X92100842Y-105786425D01*
X92123026Y-105770891D01*
X92286401Y-105656495D01*
X92453495Y-105489401D01*
X92589035Y-105295830D01*
X92688903Y-105081663D01*
X92750063Y-104853408D01*
X92770659Y-104618000D01*
X92750063Y-104382592D01*
X92688903Y-104154337D01*
X92589035Y-103940171D01*
X92453495Y-103746599D01*
X92453494Y-103746597D01*
X92286402Y-103579506D01*
X92286396Y-103579501D01*
X92100842Y-103449575D01*
X92057217Y-103394998D01*
X92050023Y-103325500D01*
X92081546Y-103263145D01*
X92100842Y-103246425D01*
X92123026Y-103230891D01*
X92286401Y-103116495D01*
X92453495Y-102949401D01*
X92589035Y-102755830D01*
X92688903Y-102541663D01*
X92750063Y-102313408D01*
X92770659Y-102078000D01*
X92750063Y-101842592D01*
X92688903Y-101614337D01*
X92589035Y-101400171D01*
X92453495Y-101206599D01*
X92453494Y-101206597D01*
X92286402Y-101039506D01*
X92286396Y-101039501D01*
X92100842Y-100909575D01*
X92057217Y-100854998D01*
X92050023Y-100785500D01*
X92081546Y-100723145D01*
X92100842Y-100706425D01*
X92123026Y-100690891D01*
X92286401Y-100576495D01*
X92453495Y-100409401D01*
X92589035Y-100215830D01*
X92688903Y-100001663D01*
X92750063Y-99773408D01*
X92770659Y-99538000D01*
X92750063Y-99302592D01*
X92688903Y-99074337D01*
X92589035Y-98860171D01*
X92453495Y-98666599D01*
X92453494Y-98666597D01*
X92286402Y-98499506D01*
X92286396Y-98499501D01*
X92100842Y-98369575D01*
X92057217Y-98314998D01*
X92050023Y-98245500D01*
X92081546Y-98183145D01*
X92100842Y-98166425D01*
X92123026Y-98150891D01*
X92286401Y-98036495D01*
X92453495Y-97869401D01*
X92589035Y-97675830D01*
X92688903Y-97461663D01*
X92750063Y-97233408D01*
X92770659Y-96998000D01*
X92750063Y-96762592D01*
X92688903Y-96534337D01*
X92589035Y-96320171D01*
X92453495Y-96126599D01*
X92453494Y-96126597D01*
X92286402Y-95959506D01*
X92286401Y-95959505D01*
X92100405Y-95829269D01*
X92056781Y-95774692D01*
X92049588Y-95705193D01*
X92081110Y-95642839D01*
X92100405Y-95626119D01*
X92286082Y-95496105D01*
X92453105Y-95329082D01*
X92588600Y-95135578D01*
X92688429Y-94921492D01*
X92688432Y-94921486D01*
X92745636Y-94708000D01*
X92028347Y-94708000D01*
X91961308Y-94688315D01*
X91915553Y-94635511D01*
X91905609Y-94566353D01*
X91909369Y-94549067D01*
X91915000Y-94529888D01*
X91915000Y-94386111D01*
X91909369Y-94366933D01*
X91909370Y-94297064D01*
X91947145Y-94238286D01*
X92010701Y-94209262D01*
X92028347Y-94208000D01*
X92745636Y-94208000D01*
X92745635Y-94207999D01*
X92688432Y-93994513D01*
X92688429Y-93994507D01*
X92588600Y-93780422D01*
X92588599Y-93780420D01*
X92453113Y-93586926D01*
X92453108Y-93586920D01*
X92286078Y-93419890D01*
X92100405Y-93289879D01*
X92056780Y-93235302D01*
X92049588Y-93165804D01*
X92081110Y-93103449D01*
X92100406Y-93086730D01*
X92100842Y-93086425D01*
X92286401Y-92956495D01*
X92453495Y-92789401D01*
X92589035Y-92595830D01*
X92688903Y-92381663D01*
X92750063Y-92153408D01*
X92770659Y-91918000D01*
X92750063Y-91682592D01*
X92688903Y-91454337D01*
X92589035Y-91240171D01*
X92453495Y-91046599D01*
X92453494Y-91046597D01*
X92286402Y-90879506D01*
X92286396Y-90879501D01*
X92100842Y-90749575D01*
X92057217Y-90694998D01*
X92050023Y-90625500D01*
X92081546Y-90563145D01*
X92100842Y-90546425D01*
X92123026Y-90530891D01*
X92286401Y-90416495D01*
X92453495Y-90249401D01*
X92588651Y-90056377D01*
X92643229Y-90012752D01*
X92690227Y-90003500D01*
X94943257Y-90003500D01*
X94958877Y-90005224D01*
X94958904Y-90004939D01*
X94966660Y-90005671D01*
X94966667Y-90005673D01*
X95035814Y-90003500D01*
X95065350Y-90003500D01*
X95072228Y-90002630D01*
X95078041Y-90002172D01*
X95124627Y-90000709D01*
X95143869Y-89995117D01*
X95162912Y-89991174D01*
X95182792Y-89988664D01*
X95226122Y-89971507D01*
X95231646Y-89969617D01*
X95235396Y-89968527D01*
X95276390Y-89956618D01*
X95293629Y-89946422D01*
X95311103Y-89937862D01*
X95329727Y-89930488D01*
X95329727Y-89930487D01*
X95329732Y-89930486D01*
X95367449Y-89903082D01*
X95372305Y-89899892D01*
X95412420Y-89876170D01*
X95426589Y-89861999D01*
X95441379Y-89849368D01*
X95457587Y-89837594D01*
X95466443Y-89826889D01*
X95468450Y-89824463D01*
X95526348Y-89785353D01*
X95563996Y-89779500D01*
X100642252Y-89779500D01*
X100709291Y-89799185D01*
X100734400Y-89820526D01*
X100740126Y-89826885D01*
X100740130Y-89826889D01*
X100893265Y-89938148D01*
X100893270Y-89938151D01*
X101066192Y-90015142D01*
X101066197Y-90015144D01*
X101251354Y-90054500D01*
X101251355Y-90054500D01*
X101440644Y-90054500D01*
X101440646Y-90054500D01*
X101625803Y-90015144D01*
X101798730Y-89938151D01*
X101951871Y-89826888D01*
X102078533Y-89686216D01*
X102173179Y-89522284D01*
X102231674Y-89342256D01*
X102251460Y-89154000D01*
X102231674Y-88965744D01*
X102173179Y-88785716D01*
X102078533Y-88621784D01*
X101951871Y-88481112D01*
X101951870Y-88481111D01*
X101798734Y-88369851D01*
X101798729Y-88369848D01*
X101625807Y-88292857D01*
X101625802Y-88292855D01*
X101469260Y-88259582D01*
X101440646Y-88253500D01*
X101251354Y-88253500D01*
X101222792Y-88259571D01*
X101066197Y-88292855D01*
X101066192Y-88292857D01*
X100893270Y-88369848D01*
X100893265Y-88369851D01*
X100740130Y-88481110D01*
X100740126Y-88481114D01*
X100734400Y-88487474D01*
X100674913Y-88524121D01*
X100642252Y-88528500D01*
X95332743Y-88528500D01*
X95317122Y-88526775D01*
X95317096Y-88527061D01*
X95309334Y-88526327D01*
X95309333Y-88526327D01*
X95240186Y-88528500D01*
X95210649Y-88528500D01*
X95203766Y-88529369D01*
X95197949Y-88529826D01*
X95151373Y-88531290D01*
X95132129Y-88536881D01*
X95113079Y-88540825D01*
X95093211Y-88543334D01*
X95049884Y-88560488D01*
X95044358Y-88562379D01*
X94999614Y-88575379D01*
X94999610Y-88575381D01*
X94982366Y-88585579D01*
X94964905Y-88594133D01*
X94946274Y-88601510D01*
X94946262Y-88601517D01*
X94908570Y-88628902D01*
X94903687Y-88632109D01*
X94863580Y-88655829D01*
X94849414Y-88669995D01*
X94834624Y-88682627D01*
X94818414Y-88694404D01*
X94818413Y-88694406D01*
X94809373Y-88705334D01*
X94807547Y-88707541D01*
X94749647Y-88746648D01*
X94712003Y-88752500D01*
X92690227Y-88752500D01*
X92623188Y-88732815D01*
X92588652Y-88699623D01*
X92453494Y-88506597D01*
X92286402Y-88339506D01*
X92286396Y-88339501D01*
X92100842Y-88209575D01*
X92057217Y-88154998D01*
X92050023Y-88085500D01*
X92081546Y-88023145D01*
X92100842Y-88006425D01*
X92123026Y-87990891D01*
X92286401Y-87876495D01*
X92453495Y-87709401D01*
X92588651Y-87516377D01*
X92643229Y-87472752D01*
X92690227Y-87463500D01*
X102275548Y-87463500D01*
X102342587Y-87483185D01*
X102363229Y-87499819D01*
X103732181Y-88868771D01*
X103765666Y-88930094D01*
X103768500Y-88956452D01*
X103768500Y-104819255D01*
X103766775Y-104834872D01*
X103767061Y-104834899D01*
X103766326Y-104842665D01*
X103768500Y-104911814D01*
X103768500Y-104941343D01*
X103768501Y-104941360D01*
X103769368Y-104948231D01*
X103769826Y-104954050D01*
X103771290Y-105000624D01*
X103771291Y-105000627D01*
X103776880Y-105019867D01*
X103780824Y-105038911D01*
X103783336Y-105058792D01*
X103800490Y-105102119D01*
X103802382Y-105107647D01*
X103815381Y-105152388D01*
X103825580Y-105169634D01*
X103834138Y-105187103D01*
X103841514Y-105205732D01*
X103868898Y-105243423D01*
X103872106Y-105248307D01*
X103895827Y-105288416D01*
X103895833Y-105288424D01*
X103909990Y-105302580D01*
X103922628Y-105317376D01*
X103934405Y-105333586D01*
X103934406Y-105333587D01*
X103970309Y-105363288D01*
X103974620Y-105367210D01*
X106636805Y-108029395D01*
X109081181Y-110473771D01*
X109114666Y-110535094D01*
X109117500Y-110561452D01*
X109117499Y-114015773D01*
X109097814Y-114082812D01*
X109064623Y-114117348D01*
X108871594Y-114252508D01*
X108704508Y-114419594D01*
X108574574Y-114605159D01*
X108519997Y-114648784D01*
X108450498Y-114655976D01*
X108388144Y-114624454D01*
X108371424Y-114605158D01*
X108241494Y-114419597D01*
X108074402Y-114252506D01*
X108074395Y-114252501D01*
X107880834Y-114116967D01*
X107880830Y-114116965D01*
X107828500Y-114092563D01*
X107666663Y-114017097D01*
X107666659Y-114017096D01*
X107666655Y-114017094D01*
X107438413Y-113955938D01*
X107438403Y-113955936D01*
X107203001Y-113935341D01*
X107202999Y-113935341D01*
X106967596Y-113955936D01*
X106967586Y-113955938D01*
X106739344Y-114017094D01*
X106739335Y-114017098D01*
X106525171Y-114116964D01*
X106525169Y-114116965D01*
X106331597Y-114252505D01*
X106164505Y-114419597D01*
X106034575Y-114605158D01*
X105979998Y-114648783D01*
X105910500Y-114655977D01*
X105848145Y-114624454D01*
X105831425Y-114605158D01*
X105701494Y-114419597D01*
X105534402Y-114252506D01*
X105534395Y-114252501D01*
X105340834Y-114116967D01*
X105340830Y-114116965D01*
X105288500Y-114092563D01*
X105126663Y-114017097D01*
X105126659Y-114017096D01*
X105126655Y-114017094D01*
X104898413Y-113955938D01*
X104898403Y-113955936D01*
X104663001Y-113935341D01*
X104662999Y-113935341D01*
X104427596Y-113955936D01*
X104427586Y-113955938D01*
X104199344Y-114017094D01*
X104199335Y-114017098D01*
X103985171Y-114116964D01*
X103985169Y-114116965D01*
X103791600Y-114252503D01*
X103669673Y-114374430D01*
X103608350Y-114407914D01*
X103538658Y-114402930D01*
X103482725Y-114361058D01*
X103465810Y-114330081D01*
X103416797Y-114198671D01*
X103416793Y-114198664D01*
X103330547Y-114083455D01*
X103330544Y-114083452D01*
X103215335Y-113997206D01*
X103215328Y-113997202D01*
X103080482Y-113946908D01*
X103080483Y-113946908D01*
X103020883Y-113940501D01*
X103020881Y-113940500D01*
X103020873Y-113940500D01*
X103020864Y-113940500D01*
X101225129Y-113940500D01*
X101225123Y-113940501D01*
X101165516Y-113946908D01*
X101030671Y-113997202D01*
X101030664Y-113997206D01*
X100915455Y-114083452D01*
X100915452Y-114083455D01*
X100829206Y-114198664D01*
X100829202Y-114198671D01*
X100778908Y-114333517D01*
X100772501Y-114393116D01*
X100772500Y-114393135D01*
X100772500Y-116188870D01*
X100772501Y-116188876D01*
X100778908Y-116248483D01*
X100829202Y-116383328D01*
X100829206Y-116383335D01*
X100915452Y-116498544D01*
X100915455Y-116498547D01*
X101030664Y-116584793D01*
X101030671Y-116584797D01*
X101165517Y-116635091D01*
X101165516Y-116635091D01*
X101172444Y-116635835D01*
X101225127Y-116641500D01*
X103020872Y-116641499D01*
X103080483Y-116635091D01*
X103215331Y-116584796D01*
X103330546Y-116498546D01*
X103416796Y-116383331D01*
X103465810Y-116251916D01*
X103507681Y-116195984D01*
X103573145Y-116171566D01*
X103641418Y-116186417D01*
X103669672Y-116207568D01*
X103791599Y-116329495D01*
X103888384Y-116397264D01*
X103985165Y-116465032D01*
X103985167Y-116465033D01*
X103985170Y-116465035D01*
X104199337Y-116564903D01*
X104427592Y-116626063D01*
X104604034Y-116641500D01*
X104662999Y-116646659D01*
X104663000Y-116646659D01*
X104663001Y-116646659D01*
X104721966Y-116641500D01*
X104898408Y-116626063D01*
X105126663Y-116564903D01*
X105340830Y-116465035D01*
X105534401Y-116329495D01*
X105701495Y-116162401D01*
X105831424Y-115976842D01*
X105886002Y-115933217D01*
X105955500Y-115926023D01*
X106017855Y-115957546D01*
X106034575Y-115976842D01*
X106164500Y-116162395D01*
X106164505Y-116162401D01*
X106331599Y-116329495D01*
X106428384Y-116397264D01*
X106525165Y-116465032D01*
X106525167Y-116465033D01*
X106525170Y-116465035D01*
X106739337Y-116564903D01*
X106967592Y-116626063D01*
X107144034Y-116641500D01*
X107202999Y-116646659D01*
X107203000Y-116646659D01*
X107203001Y-116646659D01*
X107261966Y-116641500D01*
X107438408Y-116626063D01*
X107666663Y-116564903D01*
X107880830Y-116465035D01*
X108074401Y-116329495D01*
X108241495Y-116162401D01*
X108371424Y-115976842D01*
X108426002Y-115933217D01*
X108495500Y-115926023D01*
X108557855Y-115957546D01*
X108574575Y-115976842D01*
X108704500Y-116162395D01*
X108704505Y-116162401D01*
X108871599Y-116329495D01*
X108968384Y-116397264D01*
X109065165Y-116465032D01*
X109065167Y-116465033D01*
X109065170Y-116465035D01*
X109279337Y-116564903D01*
X109507592Y-116626063D01*
X109684034Y-116641500D01*
X109742999Y-116646659D01*
X109743000Y-116646659D01*
X109743001Y-116646659D01*
X109801966Y-116641500D01*
X109978408Y-116626063D01*
X110206663Y-116564903D01*
X110420830Y-116465035D01*
X110614401Y-116329495D01*
X110781495Y-116162401D01*
X110911424Y-115976842D01*
X110966002Y-115933217D01*
X111035500Y-115926023D01*
X111097855Y-115957546D01*
X111114575Y-115976842D01*
X111244500Y-116162395D01*
X111244505Y-116162401D01*
X111411599Y-116329495D01*
X111508384Y-116397264D01*
X111605165Y-116465032D01*
X111605167Y-116465033D01*
X111605170Y-116465035D01*
X111819337Y-116564903D01*
X112047592Y-116626063D01*
X112224034Y-116641500D01*
X112282999Y-116646659D01*
X112283000Y-116646659D01*
X112283001Y-116646659D01*
X112341966Y-116641500D01*
X112518408Y-116626063D01*
X112746663Y-116564903D01*
X112960830Y-116465035D01*
X113154401Y-116329495D01*
X113321495Y-116162401D01*
X113451424Y-115976842D01*
X113506002Y-115933217D01*
X113575500Y-115926023D01*
X113637855Y-115957546D01*
X113654575Y-115976842D01*
X113784500Y-116162395D01*
X113784505Y-116162401D01*
X113951599Y-116329495D01*
X114048384Y-116397264D01*
X114145165Y-116465032D01*
X114145167Y-116465033D01*
X114145170Y-116465035D01*
X114359337Y-116564903D01*
X114587592Y-116626063D01*
X114764034Y-116641500D01*
X114822999Y-116646659D01*
X114823000Y-116646659D01*
X114823001Y-116646659D01*
X114881966Y-116641500D01*
X115058408Y-116626063D01*
X115286663Y-116564903D01*
X115500830Y-116465035D01*
X115694401Y-116329495D01*
X115861495Y-116162401D01*
X115991424Y-115976842D01*
X116046002Y-115933217D01*
X116115500Y-115926023D01*
X116177855Y-115957546D01*
X116194575Y-115976842D01*
X116324500Y-116162395D01*
X116324505Y-116162401D01*
X116491599Y-116329495D01*
X116588384Y-116397264D01*
X116685165Y-116465032D01*
X116685167Y-116465033D01*
X116685170Y-116465035D01*
X116899337Y-116564903D01*
X117127592Y-116626063D01*
X117304034Y-116641500D01*
X117362999Y-116646659D01*
X117363000Y-116646659D01*
X117363001Y-116646659D01*
X117421966Y-116641500D01*
X117598408Y-116626063D01*
X117826663Y-116564903D01*
X118040830Y-116465035D01*
X118234401Y-116329495D01*
X118401495Y-116162401D01*
X118531424Y-115976842D01*
X118586002Y-115933217D01*
X118655500Y-115926023D01*
X118717855Y-115957546D01*
X118734575Y-115976842D01*
X118864500Y-116162395D01*
X118864505Y-116162401D01*
X119031599Y-116329495D01*
X119128384Y-116397264D01*
X119225165Y-116465032D01*
X119225167Y-116465033D01*
X119225170Y-116465035D01*
X119439337Y-116564903D01*
X119667592Y-116626063D01*
X119844034Y-116641500D01*
X119902999Y-116646659D01*
X119903000Y-116646659D01*
X119903001Y-116646659D01*
X119961966Y-116641500D01*
X120138408Y-116626063D01*
X120366663Y-116564903D01*
X120580830Y-116465035D01*
X120774401Y-116329495D01*
X120941495Y-116162401D01*
X121077035Y-115968830D01*
X121176903Y-115754663D01*
X121238063Y-115526408D01*
X121258659Y-115291000D01*
X121238063Y-115055592D01*
X121176903Y-114827337D01*
X121077035Y-114613171D01*
X121071425Y-114605158D01*
X120941494Y-114419597D01*
X120774402Y-114252506D01*
X120774395Y-114252501D01*
X120580834Y-114116967D01*
X120580830Y-114116965D01*
X120528500Y-114092563D01*
X120366663Y-114017097D01*
X120366659Y-114017096D01*
X120366655Y-114017094D01*
X120138413Y-113955938D01*
X120138403Y-113955936D01*
X119903001Y-113935341D01*
X119902999Y-113935341D01*
X119667596Y-113955936D01*
X119667586Y-113955938D01*
X119439344Y-114017094D01*
X119439335Y-114017098D01*
X119225171Y-114116964D01*
X119225169Y-114116965D01*
X119031597Y-114252505D01*
X118864505Y-114419597D01*
X118734575Y-114605158D01*
X118679998Y-114648783D01*
X118610500Y-114655977D01*
X118548145Y-114624454D01*
X118531425Y-114605158D01*
X118401494Y-114419597D01*
X118234402Y-114252506D01*
X118234395Y-114252501D01*
X118040834Y-114116967D01*
X118040830Y-114116965D01*
X117988500Y-114092563D01*
X117826663Y-114017097D01*
X117826659Y-114017096D01*
X117826655Y-114017094D01*
X117598413Y-113955938D01*
X117598403Y-113955936D01*
X117363001Y-113935341D01*
X117362999Y-113935341D01*
X117127596Y-113955936D01*
X117127586Y-113955938D01*
X116899344Y-114017094D01*
X116899335Y-114017098D01*
X116685171Y-114116964D01*
X116685169Y-114116965D01*
X116491597Y-114252505D01*
X116324505Y-114419597D01*
X116194575Y-114605158D01*
X116139998Y-114648783D01*
X116070500Y-114655977D01*
X116008145Y-114624454D01*
X115991425Y-114605158D01*
X115861494Y-114419597D01*
X115694402Y-114252506D01*
X115694395Y-114252501D01*
X115500834Y-114116967D01*
X115500830Y-114116965D01*
X115448500Y-114092563D01*
X115286663Y-114017097D01*
X115286659Y-114017096D01*
X115286655Y-114017094D01*
X115058413Y-113955938D01*
X115058403Y-113955936D01*
X114823001Y-113935341D01*
X114822999Y-113935341D01*
X114587596Y-113955936D01*
X114587586Y-113955938D01*
X114359344Y-114017094D01*
X114359335Y-114017098D01*
X114145171Y-114116964D01*
X114145169Y-114116965D01*
X113951597Y-114252505D01*
X113784505Y-114419597D01*
X113654575Y-114605158D01*
X113599998Y-114648783D01*
X113530500Y-114655977D01*
X113468145Y-114624454D01*
X113451425Y-114605158D01*
X113321494Y-114419597D01*
X113154402Y-114252506D01*
X113154395Y-114252501D01*
X112960834Y-114116967D01*
X112960830Y-114116965D01*
X112908500Y-114092563D01*
X112746663Y-114017097D01*
X112746659Y-114017096D01*
X112746655Y-114017094D01*
X112518413Y-113955938D01*
X112518403Y-113955936D01*
X112283001Y-113935341D01*
X112282999Y-113935341D01*
X112047596Y-113955936D01*
X112047586Y-113955938D01*
X111819344Y-114017094D01*
X111819335Y-114017098D01*
X111605171Y-114116964D01*
X111605169Y-114116965D01*
X111411597Y-114252505D01*
X111244505Y-114419597D01*
X111114575Y-114605158D01*
X111059998Y-114648783D01*
X110990500Y-114655977D01*
X110928145Y-114624454D01*
X110911425Y-114605158D01*
X110781494Y-114419597D01*
X110614402Y-114252506D01*
X110614395Y-114252501D01*
X110421376Y-114117347D01*
X110377751Y-114062770D01*
X110368499Y-114015776D01*
X110368499Y-110333743D01*
X110370224Y-110318129D01*
X110369937Y-110318102D01*
X110370670Y-110310339D01*
X110370672Y-110310332D01*
X110368499Y-110241203D01*
X110368500Y-110211650D01*
X110367629Y-110204758D01*
X110367172Y-110198946D01*
X110365709Y-110152373D01*
X110360121Y-110133139D01*
X110356174Y-110114081D01*
X110353664Y-110094208D01*
X110336507Y-110050875D01*
X110334614Y-110045346D01*
X110321618Y-110000614D01*
X110321617Y-110000610D01*
X110311420Y-109983368D01*
X110302863Y-109965902D01*
X110295486Y-109947268D01*
X110268083Y-109909550D01*
X110264900Y-109904705D01*
X110241170Y-109864579D01*
X110241165Y-109864573D01*
X110227005Y-109850413D01*
X110214370Y-109835620D01*
X110202593Y-109819412D01*
X110166693Y-109789713D01*
X110162381Y-109785790D01*
X107534591Y-107158000D01*
X112919341Y-107158000D01*
X112939936Y-107393403D01*
X112939938Y-107393413D01*
X113001094Y-107621655D01*
X113001096Y-107621659D01*
X113001097Y-107621663D01*
X113100965Y-107835830D01*
X113100967Y-107835834D01*
X113209281Y-107990521D01*
X113236505Y-108029401D01*
X113403599Y-108196495D01*
X113500384Y-108264265D01*
X113597165Y-108332032D01*
X113597167Y-108332033D01*
X113597170Y-108332035D01*
X113811337Y-108431903D01*
X114039592Y-108493063D01*
X114227918Y-108509539D01*
X114274999Y-108513659D01*
X114275000Y-108513659D01*
X114275001Y-108513659D01*
X114314234Y-108510226D01*
X114510408Y-108493063D01*
X114738663Y-108431903D01*
X114952830Y-108332035D01*
X115146401Y-108196495D01*
X115313495Y-108029401D01*
X115449035Y-107835830D01*
X115548903Y-107621663D01*
X115610063Y-107393408D01*
X115630659Y-107158000D01*
X117999341Y-107158000D01*
X118019936Y-107393403D01*
X118019938Y-107393413D01*
X118081094Y-107621655D01*
X118081096Y-107621659D01*
X118081097Y-107621663D01*
X118180965Y-107835829D01*
X118180965Y-107835830D01*
X118180967Y-107835834D01*
X118289281Y-107990521D01*
X118316505Y-108029401D01*
X118483599Y-108196495D01*
X118580384Y-108264265D01*
X118677165Y-108332032D01*
X118677167Y-108332033D01*
X118677170Y-108332035D01*
X118891337Y-108431903D01*
X119119592Y-108493063D01*
X119307918Y-108509539D01*
X119354999Y-108513659D01*
X119355000Y-108513659D01*
X119355001Y-108513659D01*
X119394234Y-108510226D01*
X119590408Y-108493063D01*
X119818663Y-108431903D01*
X120032830Y-108332035D01*
X120226401Y-108196495D01*
X120393495Y-108029401D01*
X120529035Y-107835830D01*
X120628903Y-107621663D01*
X120690063Y-107393408D01*
X120710659Y-107158000D01*
X120690063Y-106922592D01*
X120628903Y-106694337D01*
X120529035Y-106480171D01*
X120393495Y-106286599D01*
X120393494Y-106286597D01*
X120226402Y-106119506D01*
X120226396Y-106119501D01*
X120040842Y-105989575D01*
X119997217Y-105934998D01*
X119990023Y-105865500D01*
X120021546Y-105803145D01*
X120040842Y-105786425D01*
X120063026Y-105770891D01*
X120226401Y-105656495D01*
X120393495Y-105489401D01*
X120529035Y-105295830D01*
X120628903Y-105081663D01*
X120690063Y-104853408D01*
X120710659Y-104618000D01*
X120690063Y-104382592D01*
X120628903Y-104154337D01*
X120529035Y-103940171D01*
X120393495Y-103746599D01*
X120393494Y-103746597D01*
X120226402Y-103579506D01*
X120226396Y-103579501D01*
X120040842Y-103449575D01*
X119997217Y-103394998D01*
X119990023Y-103325500D01*
X120021546Y-103263145D01*
X120040842Y-103246425D01*
X120063026Y-103230891D01*
X120226401Y-103116495D01*
X120393495Y-102949401D01*
X120529035Y-102755830D01*
X120628903Y-102541663D01*
X120690063Y-102313408D01*
X120710659Y-102078000D01*
X120690063Y-101842592D01*
X120628903Y-101614337D01*
X120529035Y-101400171D01*
X120393495Y-101206599D01*
X120393494Y-101206597D01*
X120226402Y-101039506D01*
X120226396Y-101039501D01*
X120040842Y-100909575D01*
X119997217Y-100854998D01*
X119990023Y-100785500D01*
X120021546Y-100723145D01*
X120040842Y-100706425D01*
X120063026Y-100690891D01*
X120226401Y-100576495D01*
X120393495Y-100409401D01*
X120529035Y-100215830D01*
X120628903Y-100001663D01*
X120690063Y-99773408D01*
X120710659Y-99538000D01*
X120690063Y-99302592D01*
X120628903Y-99074337D01*
X120529035Y-98860171D01*
X120393495Y-98666599D01*
X120393494Y-98666597D01*
X120226402Y-98499506D01*
X120226396Y-98499501D01*
X120040842Y-98369575D01*
X119997217Y-98314998D01*
X119990023Y-98245500D01*
X120021546Y-98183145D01*
X120040842Y-98166425D01*
X120063026Y-98150891D01*
X120226401Y-98036495D01*
X120393495Y-97869401D01*
X120529035Y-97675830D01*
X120628903Y-97461663D01*
X120690063Y-97233408D01*
X120710659Y-96998000D01*
X120690063Y-96762592D01*
X120628903Y-96534337D01*
X120529035Y-96320171D01*
X120393495Y-96126599D01*
X120393494Y-96126597D01*
X120226402Y-95959506D01*
X120226396Y-95959501D01*
X120040842Y-95829575D01*
X119997217Y-95774998D01*
X119990023Y-95705500D01*
X120021546Y-95643145D01*
X120040842Y-95626425D01*
X120063026Y-95610891D01*
X120226401Y-95496495D01*
X120393495Y-95329401D01*
X120529035Y-95135830D01*
X120628903Y-94921663D01*
X120690063Y-94693408D01*
X120710659Y-94458000D01*
X120690063Y-94222592D01*
X120628903Y-93994337D01*
X120529035Y-93780171D01*
X120393495Y-93586599D01*
X120393494Y-93586597D01*
X120226402Y-93419506D01*
X120226396Y-93419501D01*
X120040842Y-93289575D01*
X119997217Y-93234998D01*
X119990023Y-93165500D01*
X120021546Y-93103145D01*
X120040842Y-93086425D01*
X120063026Y-93070891D01*
X120226401Y-92956495D01*
X120393495Y-92789401D01*
X120529035Y-92595830D01*
X120628903Y-92381663D01*
X120690063Y-92153408D01*
X120710659Y-91918000D01*
X120690063Y-91682592D01*
X120628903Y-91454337D01*
X120529035Y-91240171D01*
X120393495Y-91046599D01*
X120393494Y-91046597D01*
X120226402Y-90879506D01*
X120226396Y-90879501D01*
X120040842Y-90749575D01*
X119997217Y-90694998D01*
X119990023Y-90625500D01*
X120021546Y-90563145D01*
X120040842Y-90546425D01*
X120063026Y-90530891D01*
X120226401Y-90416495D01*
X120393495Y-90249401D01*
X120529035Y-90055830D01*
X120628903Y-89841663D01*
X120690063Y-89613408D01*
X120710659Y-89378000D01*
X120690063Y-89142592D01*
X120628903Y-88914337D01*
X120529035Y-88700171D01*
X120528652Y-88699623D01*
X120393494Y-88506597D01*
X120226402Y-88339506D01*
X120226396Y-88339501D01*
X120040842Y-88209575D01*
X119997217Y-88154998D01*
X119990023Y-88085500D01*
X120021546Y-88023145D01*
X120040842Y-88006425D01*
X120063026Y-87990891D01*
X120226401Y-87876495D01*
X120393495Y-87709401D01*
X120529035Y-87515830D01*
X120628903Y-87301663D01*
X120690063Y-87073408D01*
X120710659Y-86838000D01*
X120690063Y-86602592D01*
X120628903Y-86374337D01*
X120529035Y-86160171D01*
X120528652Y-86159623D01*
X120393494Y-85966597D01*
X120226402Y-85799506D01*
X120226396Y-85799501D01*
X120040842Y-85669575D01*
X119997217Y-85614998D01*
X119990023Y-85545500D01*
X120021546Y-85483145D01*
X120040842Y-85466425D01*
X120063026Y-85450891D01*
X120226401Y-85336495D01*
X120393495Y-85169401D01*
X120529035Y-84975830D01*
X120628903Y-84761663D01*
X120690063Y-84533408D01*
X120710659Y-84298000D01*
X120690063Y-84062592D01*
X120628903Y-83834337D01*
X120529035Y-83620171D01*
X120528652Y-83619623D01*
X120393494Y-83426597D01*
X120226402Y-83259506D01*
X120226401Y-83259505D01*
X120040405Y-83129269D01*
X119996781Y-83074692D01*
X119989588Y-83005193D01*
X120021110Y-82942839D01*
X120040405Y-82926119D01*
X120226082Y-82796105D01*
X120393105Y-82629082D01*
X120528600Y-82435578D01*
X120628429Y-82221492D01*
X120628432Y-82221486D01*
X120685636Y-82008000D01*
X119968347Y-82008000D01*
X119901308Y-81988315D01*
X119855553Y-81935511D01*
X119845609Y-81866353D01*
X119849369Y-81849067D01*
X119855000Y-81829888D01*
X119855000Y-81686111D01*
X119849369Y-81666933D01*
X119849370Y-81597064D01*
X119887145Y-81538286D01*
X119950701Y-81509262D01*
X119968347Y-81508000D01*
X120685636Y-81508000D01*
X120685635Y-81507999D01*
X120628432Y-81294513D01*
X120628429Y-81294507D01*
X120528600Y-81080422D01*
X120528599Y-81080420D01*
X120393113Y-80886926D01*
X120393108Y-80886920D01*
X120226078Y-80719890D01*
X120040405Y-80589879D01*
X119996780Y-80535302D01*
X119989588Y-80465804D01*
X120021110Y-80403449D01*
X120040406Y-80386730D01*
X120040842Y-80386425D01*
X120226401Y-80256495D01*
X120393495Y-80089401D01*
X120529035Y-79895830D01*
X120628903Y-79681663D01*
X120690063Y-79453408D01*
X120710659Y-79218000D01*
X120690063Y-78982592D01*
X120628903Y-78754337D01*
X120529035Y-78540171D01*
X120393495Y-78346599D01*
X120393494Y-78346597D01*
X120226402Y-78179506D01*
X120226396Y-78179501D01*
X120040842Y-78049575D01*
X119997217Y-77994998D01*
X119990023Y-77925500D01*
X120021546Y-77863145D01*
X120040842Y-77846425D01*
X120063026Y-77830891D01*
X120226401Y-77716495D01*
X120393495Y-77549401D01*
X120529035Y-77355830D01*
X120628903Y-77141663D01*
X120690063Y-76913408D01*
X120710659Y-76678000D01*
X120690063Y-76442592D01*
X120628903Y-76214337D01*
X120529035Y-76000171D01*
X120393495Y-75806599D01*
X120393494Y-75806597D01*
X120226402Y-75639506D01*
X120226396Y-75639501D01*
X120040842Y-75509575D01*
X119997217Y-75454998D01*
X119990023Y-75385500D01*
X120021546Y-75323145D01*
X120040842Y-75306425D01*
X120063026Y-75290891D01*
X120226401Y-75176495D01*
X120393495Y-75009401D01*
X120529035Y-74815830D01*
X120628903Y-74601663D01*
X120690063Y-74373408D01*
X120710659Y-74138000D01*
X120690063Y-73902592D01*
X120628903Y-73674337D01*
X120529035Y-73460171D01*
X120393495Y-73266599D01*
X120393494Y-73266597D01*
X120226402Y-73099506D01*
X120226396Y-73099501D01*
X120040842Y-72969575D01*
X119997217Y-72914998D01*
X119990023Y-72845500D01*
X120021546Y-72783145D01*
X120040842Y-72766425D01*
X120063026Y-72750891D01*
X120226401Y-72636495D01*
X120393495Y-72469401D01*
X120529035Y-72275830D01*
X120628903Y-72061663D01*
X120690063Y-71833408D01*
X120710659Y-71598000D01*
X120690063Y-71362592D01*
X120628903Y-71134337D01*
X120529035Y-70920171D01*
X120393495Y-70726599D01*
X120393494Y-70726597D01*
X120226402Y-70559506D01*
X120226395Y-70559501D01*
X120032834Y-70423967D01*
X120032830Y-70423965D01*
X119981351Y-70399960D01*
X119818663Y-70324097D01*
X119818659Y-70324096D01*
X119818655Y-70324094D01*
X119590413Y-70262938D01*
X119590403Y-70262936D01*
X119355001Y-70242341D01*
X119354999Y-70242341D01*
X119119596Y-70262936D01*
X119119586Y-70262938D01*
X118891344Y-70324094D01*
X118891335Y-70324098D01*
X118677171Y-70423964D01*
X118677169Y-70423965D01*
X118483597Y-70559505D01*
X118316505Y-70726597D01*
X118180965Y-70920169D01*
X118180964Y-70920171D01*
X118081098Y-71134335D01*
X118081094Y-71134344D01*
X118019938Y-71362586D01*
X118019936Y-71362596D01*
X117999341Y-71597999D01*
X117999341Y-71598000D01*
X118019936Y-71833403D01*
X118019938Y-71833413D01*
X118081094Y-72061655D01*
X118081096Y-72061659D01*
X118081097Y-72061663D01*
X118180965Y-72275830D01*
X118180967Y-72275834D01*
X118316501Y-72469395D01*
X118316506Y-72469402D01*
X118483597Y-72636493D01*
X118483603Y-72636498D01*
X118669158Y-72766425D01*
X118712783Y-72821002D01*
X118719977Y-72890500D01*
X118688454Y-72952855D01*
X118669158Y-72969575D01*
X118483597Y-73099505D01*
X118316505Y-73266597D01*
X118180965Y-73460169D01*
X118180964Y-73460171D01*
X118081098Y-73674335D01*
X118081094Y-73674344D01*
X118019938Y-73902586D01*
X118019936Y-73902596D01*
X117999341Y-74137999D01*
X117999341Y-74138000D01*
X118019936Y-74373403D01*
X118019938Y-74373413D01*
X118081094Y-74601655D01*
X118081096Y-74601659D01*
X118081097Y-74601663D01*
X118180964Y-74815829D01*
X118180965Y-74815830D01*
X118180967Y-74815834D01*
X118316501Y-75009395D01*
X118316506Y-75009402D01*
X118483597Y-75176493D01*
X118483603Y-75176498D01*
X118669158Y-75306425D01*
X118712783Y-75361002D01*
X118719977Y-75430500D01*
X118688454Y-75492855D01*
X118669158Y-75509575D01*
X118483597Y-75639505D01*
X118316505Y-75806597D01*
X118180965Y-76000169D01*
X118180964Y-76000171D01*
X118081098Y-76214335D01*
X118081094Y-76214344D01*
X118019938Y-76442586D01*
X118019936Y-76442596D01*
X117999341Y-76677999D01*
X117999341Y-76678000D01*
X118019936Y-76913403D01*
X118019938Y-76913413D01*
X118081094Y-77141655D01*
X118081096Y-77141659D01*
X118081097Y-77141663D01*
X118180965Y-77355830D01*
X118180967Y-77355834D01*
X118316501Y-77549395D01*
X118316506Y-77549402D01*
X118483597Y-77716493D01*
X118483603Y-77716498D01*
X118669158Y-77846425D01*
X118712783Y-77901002D01*
X118719977Y-77970500D01*
X118688454Y-78032855D01*
X118669158Y-78049575D01*
X118483597Y-78179505D01*
X118316505Y-78346597D01*
X118180965Y-78540169D01*
X118180964Y-78540171D01*
X118081098Y-78754335D01*
X118081094Y-78754344D01*
X118019938Y-78982586D01*
X118019936Y-78982596D01*
X117999341Y-79217999D01*
X117999341Y-79218000D01*
X118019936Y-79453403D01*
X118019938Y-79453413D01*
X118081094Y-79681655D01*
X118081096Y-79681659D01*
X118081097Y-79681663D01*
X118180964Y-79895829D01*
X118180965Y-79895830D01*
X118180967Y-79895834D01*
X118316501Y-80089395D01*
X118316506Y-80089402D01*
X118483597Y-80256493D01*
X118483603Y-80256498D01*
X118669594Y-80386730D01*
X118713219Y-80441307D01*
X118720413Y-80510805D01*
X118688890Y-80573160D01*
X118669595Y-80589880D01*
X118483922Y-80719890D01*
X118483920Y-80719891D01*
X118316891Y-80886920D01*
X118316886Y-80886926D01*
X118181400Y-81080420D01*
X118181399Y-81080422D01*
X118081570Y-81294507D01*
X118081567Y-81294513D01*
X118024364Y-81507999D01*
X118024364Y-81508000D01*
X118741653Y-81508000D01*
X118808692Y-81527685D01*
X118854447Y-81580489D01*
X118864391Y-81649647D01*
X118860631Y-81666933D01*
X118855000Y-81686111D01*
X118855000Y-81829888D01*
X118860631Y-81849067D01*
X118860630Y-81918936D01*
X118822855Y-81977714D01*
X118759299Y-82006738D01*
X118741653Y-82008000D01*
X118024364Y-82008000D01*
X118081567Y-82221486D01*
X118081570Y-82221492D01*
X118181399Y-82435578D01*
X118316894Y-82629082D01*
X118483917Y-82796105D01*
X118669595Y-82926119D01*
X118713219Y-82980696D01*
X118720412Y-83050195D01*
X118688890Y-83112549D01*
X118669595Y-83129269D01*
X118483594Y-83259508D01*
X118316505Y-83426597D01*
X118180965Y-83620169D01*
X118180964Y-83620171D01*
X118081098Y-83834335D01*
X118081094Y-83834344D01*
X118019938Y-84062586D01*
X118019936Y-84062596D01*
X117999341Y-84297999D01*
X117999341Y-84298000D01*
X118019936Y-84533403D01*
X118019938Y-84533413D01*
X118081094Y-84761655D01*
X118081096Y-84761659D01*
X118081097Y-84761663D01*
X118156563Y-84923500D01*
X118180965Y-84975830D01*
X118180967Y-84975834D01*
X118289281Y-85130521D01*
X118316501Y-85169396D01*
X118316506Y-85169402D01*
X118483597Y-85336493D01*
X118483603Y-85336498D01*
X118669158Y-85466425D01*
X118712783Y-85521002D01*
X118719977Y-85590500D01*
X118688454Y-85652855D01*
X118669158Y-85669575D01*
X118483597Y-85799505D01*
X118316505Y-85966597D01*
X118180965Y-86160169D01*
X118180964Y-86160171D01*
X118081098Y-86374335D01*
X118081094Y-86374344D01*
X118019938Y-86602586D01*
X118019936Y-86602596D01*
X117999341Y-86837999D01*
X117999341Y-86838000D01*
X118019936Y-87073403D01*
X118019938Y-87073413D01*
X118081094Y-87301655D01*
X118081096Y-87301659D01*
X118081097Y-87301663D01*
X118156563Y-87463500D01*
X118180965Y-87515830D01*
X118180967Y-87515834D01*
X118289281Y-87670521D01*
X118316501Y-87709396D01*
X118316506Y-87709402D01*
X118483597Y-87876493D01*
X118483603Y-87876498D01*
X118669158Y-88006425D01*
X118712783Y-88061002D01*
X118719977Y-88130500D01*
X118688454Y-88192855D01*
X118669158Y-88209575D01*
X118483597Y-88339505D01*
X118316505Y-88506597D01*
X118180965Y-88700169D01*
X118180964Y-88700171D01*
X118081098Y-88914335D01*
X118081094Y-88914344D01*
X118019938Y-89142586D01*
X118019936Y-89142596D01*
X117999341Y-89377999D01*
X117999341Y-89378000D01*
X118019936Y-89613403D01*
X118019938Y-89613413D01*
X118081094Y-89841655D01*
X118081096Y-89841659D01*
X118081097Y-89841663D01*
X118127630Y-89941453D01*
X118180965Y-90055830D01*
X118180967Y-90055834D01*
X118289281Y-90210521D01*
X118316501Y-90249396D01*
X118316506Y-90249402D01*
X118483597Y-90416493D01*
X118483603Y-90416498D01*
X118669158Y-90546425D01*
X118712783Y-90601002D01*
X118719977Y-90670500D01*
X118688454Y-90732855D01*
X118669158Y-90749575D01*
X118483597Y-90879505D01*
X118316505Y-91046597D01*
X118180965Y-91240169D01*
X118180964Y-91240171D01*
X118081098Y-91454335D01*
X118081094Y-91454344D01*
X118019938Y-91682586D01*
X118019936Y-91682596D01*
X117999341Y-91917999D01*
X117999341Y-91918000D01*
X118019936Y-92153403D01*
X118019938Y-92153413D01*
X118081094Y-92381655D01*
X118081096Y-92381659D01*
X118081097Y-92381663D01*
X118180965Y-92595829D01*
X118180965Y-92595830D01*
X118180967Y-92595834D01*
X118316501Y-92789395D01*
X118316506Y-92789402D01*
X118483597Y-92956493D01*
X118483603Y-92956498D01*
X118669158Y-93086425D01*
X118712783Y-93141002D01*
X118719977Y-93210500D01*
X118688454Y-93272855D01*
X118669158Y-93289575D01*
X118483597Y-93419505D01*
X118316505Y-93586597D01*
X118180965Y-93780169D01*
X118180964Y-93780171D01*
X118081098Y-93994335D01*
X118081094Y-93994344D01*
X118019938Y-94222586D01*
X118019936Y-94222596D01*
X117999341Y-94457999D01*
X117999341Y-94458000D01*
X118019936Y-94693403D01*
X118019938Y-94693413D01*
X118081094Y-94921655D01*
X118081096Y-94921659D01*
X118081097Y-94921663D01*
X118180847Y-95135578D01*
X118180965Y-95135830D01*
X118180967Y-95135834D01*
X118316501Y-95329395D01*
X118316506Y-95329402D01*
X118483597Y-95496493D01*
X118483603Y-95496498D01*
X118669158Y-95626425D01*
X118712783Y-95681002D01*
X118719977Y-95750500D01*
X118688454Y-95812855D01*
X118669158Y-95829575D01*
X118483597Y-95959505D01*
X118316505Y-96126597D01*
X118180965Y-96320169D01*
X118180964Y-96320171D01*
X118081098Y-96534335D01*
X118081094Y-96534344D01*
X118019938Y-96762586D01*
X118019936Y-96762596D01*
X117999341Y-96997999D01*
X117999341Y-96998000D01*
X118019936Y-97233403D01*
X118019938Y-97233413D01*
X118081094Y-97461655D01*
X118081096Y-97461659D01*
X118081097Y-97461663D01*
X118180965Y-97675830D01*
X118180967Y-97675834D01*
X118316501Y-97869395D01*
X118316506Y-97869402D01*
X118483597Y-98036493D01*
X118483603Y-98036498D01*
X118669158Y-98166425D01*
X118712783Y-98221002D01*
X118719977Y-98290500D01*
X118688454Y-98352855D01*
X118669158Y-98369575D01*
X118483597Y-98499505D01*
X118316505Y-98666597D01*
X118180965Y-98860169D01*
X118180964Y-98860171D01*
X118081098Y-99074335D01*
X118081094Y-99074344D01*
X118019938Y-99302586D01*
X118019936Y-99302596D01*
X117999341Y-99537999D01*
X117999341Y-99538000D01*
X118019936Y-99773403D01*
X118019938Y-99773413D01*
X118081094Y-100001655D01*
X118081096Y-100001659D01*
X118081097Y-100001663D01*
X118180964Y-100215829D01*
X118180965Y-100215830D01*
X118180967Y-100215834D01*
X118316501Y-100409395D01*
X118316506Y-100409402D01*
X118483597Y-100576493D01*
X118483603Y-100576498D01*
X118669158Y-100706425D01*
X118712783Y-100761002D01*
X118719977Y-100830500D01*
X118688454Y-100892855D01*
X118669158Y-100909575D01*
X118483597Y-101039505D01*
X118316505Y-101206597D01*
X118180965Y-101400169D01*
X118180964Y-101400171D01*
X118081098Y-101614335D01*
X118081094Y-101614344D01*
X118019938Y-101842586D01*
X118019936Y-101842596D01*
X117999341Y-102077999D01*
X117999341Y-102078000D01*
X118019936Y-102313403D01*
X118019938Y-102313413D01*
X118081094Y-102541655D01*
X118081096Y-102541659D01*
X118081097Y-102541663D01*
X118180965Y-102755830D01*
X118180967Y-102755834D01*
X118316501Y-102949395D01*
X118316506Y-102949402D01*
X118483597Y-103116493D01*
X118483603Y-103116498D01*
X118669158Y-103246425D01*
X118712783Y-103301002D01*
X118719977Y-103370500D01*
X118688454Y-103432855D01*
X118669158Y-103449575D01*
X118483597Y-103579505D01*
X118316505Y-103746597D01*
X118180965Y-103940169D01*
X118180964Y-103940171D01*
X118081098Y-104154335D01*
X118081094Y-104154344D01*
X118019938Y-104382586D01*
X118019936Y-104382596D01*
X117999341Y-104617999D01*
X117999341Y-104618000D01*
X118019936Y-104853403D01*
X118019938Y-104853413D01*
X118081094Y-105081655D01*
X118081096Y-105081659D01*
X118081097Y-105081663D01*
X118156527Y-105243423D01*
X118180965Y-105295830D01*
X118180967Y-105295834D01*
X118316501Y-105489395D01*
X118316506Y-105489402D01*
X118483597Y-105656493D01*
X118483603Y-105656498D01*
X118669158Y-105786425D01*
X118712783Y-105841002D01*
X118719977Y-105910500D01*
X118688454Y-105972855D01*
X118669158Y-105989575D01*
X118483597Y-106119505D01*
X118316505Y-106286597D01*
X118180965Y-106480169D01*
X118180964Y-106480171D01*
X118081098Y-106694335D01*
X118081094Y-106694344D01*
X118019938Y-106922586D01*
X118019936Y-106922596D01*
X117999341Y-107157999D01*
X117999341Y-107158000D01*
X115630659Y-107158000D01*
X115610063Y-106922592D01*
X115548903Y-106694337D01*
X115449035Y-106480171D01*
X115313495Y-106286599D01*
X115313494Y-106286597D01*
X115146402Y-106119506D01*
X115146396Y-106119501D01*
X114960842Y-105989575D01*
X114917217Y-105934998D01*
X114910023Y-105865500D01*
X114941546Y-105803145D01*
X114960842Y-105786425D01*
X114983026Y-105770891D01*
X115146401Y-105656495D01*
X115313495Y-105489401D01*
X115449035Y-105295830D01*
X115548903Y-105081663D01*
X115610063Y-104853408D01*
X115630659Y-104618000D01*
X115610063Y-104382592D01*
X115548903Y-104154337D01*
X115449035Y-103940171D01*
X115313495Y-103746599D01*
X115313494Y-103746597D01*
X115146402Y-103579506D01*
X115146396Y-103579501D01*
X114960842Y-103449575D01*
X114917217Y-103394998D01*
X114910023Y-103325500D01*
X114941546Y-103263145D01*
X114960842Y-103246425D01*
X114983026Y-103230891D01*
X115146401Y-103116495D01*
X115313495Y-102949401D01*
X115449035Y-102755830D01*
X115548903Y-102541663D01*
X115610063Y-102313408D01*
X115630659Y-102078000D01*
X115610063Y-101842592D01*
X115548903Y-101614337D01*
X115449035Y-101400171D01*
X115313495Y-101206599D01*
X115313494Y-101206597D01*
X115146402Y-101039506D01*
X115146396Y-101039501D01*
X114960842Y-100909575D01*
X114917217Y-100854998D01*
X114910023Y-100785500D01*
X114941546Y-100723145D01*
X114960842Y-100706425D01*
X114983026Y-100690891D01*
X115146401Y-100576495D01*
X115313495Y-100409401D01*
X115449035Y-100215830D01*
X115548903Y-100001663D01*
X115610063Y-99773408D01*
X115630659Y-99538000D01*
X115610063Y-99302592D01*
X115548903Y-99074337D01*
X115449035Y-98860171D01*
X115313495Y-98666599D01*
X115313494Y-98666597D01*
X115146402Y-98499506D01*
X115146396Y-98499501D01*
X114960842Y-98369575D01*
X114917217Y-98314998D01*
X114910023Y-98245500D01*
X114941546Y-98183145D01*
X114960842Y-98166425D01*
X114983026Y-98150891D01*
X115146401Y-98036495D01*
X115313495Y-97869401D01*
X115449035Y-97675830D01*
X115548903Y-97461663D01*
X115610063Y-97233408D01*
X115630659Y-96998000D01*
X115610063Y-96762592D01*
X115548903Y-96534337D01*
X115449035Y-96320171D01*
X115313495Y-96126599D01*
X115313494Y-96126597D01*
X115146402Y-95959506D01*
X115146396Y-95959501D01*
X114960842Y-95829575D01*
X114917217Y-95774998D01*
X114910023Y-95705500D01*
X114941546Y-95643145D01*
X114960842Y-95626425D01*
X114983026Y-95610891D01*
X115146401Y-95496495D01*
X115313495Y-95329401D01*
X115449035Y-95135830D01*
X115548903Y-94921663D01*
X115610063Y-94693408D01*
X115630659Y-94458000D01*
X115610063Y-94222592D01*
X115548903Y-93994337D01*
X115449035Y-93780171D01*
X115313495Y-93586599D01*
X115313494Y-93586597D01*
X115146402Y-93419506D01*
X115146396Y-93419501D01*
X114960842Y-93289575D01*
X114917217Y-93234998D01*
X114910023Y-93165500D01*
X114941546Y-93103145D01*
X114960842Y-93086425D01*
X114983026Y-93070891D01*
X115146401Y-92956495D01*
X115313495Y-92789401D01*
X115449035Y-92595830D01*
X115548903Y-92381663D01*
X115610063Y-92153408D01*
X115630659Y-91918000D01*
X115610063Y-91682592D01*
X115548903Y-91454337D01*
X115449035Y-91240171D01*
X115313495Y-91046599D01*
X115313494Y-91046597D01*
X115146402Y-90879506D01*
X115146396Y-90879501D01*
X114960842Y-90749575D01*
X114917217Y-90694998D01*
X114910023Y-90625500D01*
X114941546Y-90563145D01*
X114960842Y-90546425D01*
X114983026Y-90530891D01*
X115146401Y-90416495D01*
X115313495Y-90249401D01*
X115449035Y-90055830D01*
X115548903Y-89841663D01*
X115610063Y-89613408D01*
X115630659Y-89378000D01*
X115610063Y-89142592D01*
X115548903Y-88914337D01*
X115449035Y-88700171D01*
X115448652Y-88699623D01*
X115313494Y-88506597D01*
X115146402Y-88339506D01*
X115146396Y-88339501D01*
X114960842Y-88209575D01*
X114917217Y-88154998D01*
X114910023Y-88085500D01*
X114941546Y-88023145D01*
X114960842Y-88006425D01*
X114983026Y-87990891D01*
X115146401Y-87876495D01*
X115313495Y-87709401D01*
X115449035Y-87515830D01*
X115548903Y-87301663D01*
X115610063Y-87073408D01*
X115630659Y-86838000D01*
X115610063Y-86602592D01*
X115548903Y-86374337D01*
X115449035Y-86160171D01*
X115448652Y-86159623D01*
X115313494Y-85966597D01*
X115146402Y-85799506D01*
X115146396Y-85799501D01*
X114960842Y-85669575D01*
X114917217Y-85614998D01*
X114910023Y-85545500D01*
X114941546Y-85483145D01*
X114960842Y-85466425D01*
X114983026Y-85450891D01*
X115146401Y-85336495D01*
X115313495Y-85169401D01*
X115449035Y-84975830D01*
X115548903Y-84761663D01*
X115610063Y-84533408D01*
X115630659Y-84298000D01*
X115610063Y-84062592D01*
X115548903Y-83834337D01*
X115449035Y-83620171D01*
X115448652Y-83619623D01*
X115313494Y-83426597D01*
X115146402Y-83259506D01*
X115146401Y-83259505D01*
X114960405Y-83129269D01*
X114916781Y-83074692D01*
X114909588Y-83005193D01*
X114941110Y-82942839D01*
X114960405Y-82926119D01*
X115146082Y-82796105D01*
X115313105Y-82629082D01*
X115448600Y-82435578D01*
X115548429Y-82221492D01*
X115548432Y-82221486D01*
X115605636Y-82008000D01*
X114888347Y-82008000D01*
X114821308Y-81988315D01*
X114775553Y-81935511D01*
X114765609Y-81866353D01*
X114769369Y-81849067D01*
X114775000Y-81829888D01*
X114775000Y-81686111D01*
X114769369Y-81666933D01*
X114769370Y-81597064D01*
X114807145Y-81538286D01*
X114870701Y-81509262D01*
X114888347Y-81508000D01*
X115605636Y-81508000D01*
X115605635Y-81507999D01*
X115548432Y-81294513D01*
X115548429Y-81294507D01*
X115448600Y-81080422D01*
X115448599Y-81080420D01*
X115313113Y-80886926D01*
X115313108Y-80886920D01*
X115146078Y-80719890D01*
X114960405Y-80589879D01*
X114916780Y-80535302D01*
X114909588Y-80465804D01*
X114941110Y-80403449D01*
X114960406Y-80386730D01*
X114960842Y-80386425D01*
X115146401Y-80256495D01*
X115313495Y-80089401D01*
X115449035Y-79895830D01*
X115548903Y-79681663D01*
X115610063Y-79453408D01*
X115630659Y-79218000D01*
X115610063Y-78982592D01*
X115548903Y-78754337D01*
X115449035Y-78540171D01*
X115313495Y-78346599D01*
X115313494Y-78346597D01*
X115146402Y-78179506D01*
X115146396Y-78179501D01*
X114960842Y-78049575D01*
X114917217Y-77994998D01*
X114910023Y-77925500D01*
X114941546Y-77863145D01*
X114960842Y-77846425D01*
X114983026Y-77830891D01*
X115146401Y-77716495D01*
X115313495Y-77549401D01*
X115449035Y-77355830D01*
X115548903Y-77141663D01*
X115610063Y-76913408D01*
X115630659Y-76678000D01*
X115610063Y-76442592D01*
X115548903Y-76214337D01*
X115449035Y-76000171D01*
X115313495Y-75806599D01*
X115313494Y-75806597D01*
X115146402Y-75639506D01*
X115146396Y-75639501D01*
X114960842Y-75509575D01*
X114917217Y-75454998D01*
X114910023Y-75385500D01*
X114941546Y-75323145D01*
X114960842Y-75306425D01*
X114983026Y-75290891D01*
X115146401Y-75176495D01*
X115313495Y-75009401D01*
X115449035Y-74815830D01*
X115548903Y-74601663D01*
X115610063Y-74373408D01*
X115630659Y-74138000D01*
X115610063Y-73902592D01*
X115548903Y-73674337D01*
X115449035Y-73460171D01*
X115313495Y-73266599D01*
X115313494Y-73266597D01*
X115146402Y-73099506D01*
X115146396Y-73099501D01*
X114960842Y-72969575D01*
X114917217Y-72914998D01*
X114910023Y-72845500D01*
X114941546Y-72783145D01*
X114960842Y-72766425D01*
X114983026Y-72750891D01*
X115146401Y-72636495D01*
X115313495Y-72469401D01*
X115449035Y-72275830D01*
X115548903Y-72061663D01*
X115610063Y-71833408D01*
X115630659Y-71598000D01*
X115610063Y-71362592D01*
X115548903Y-71134337D01*
X115449035Y-70920171D01*
X115313495Y-70726599D01*
X115313494Y-70726597D01*
X115146402Y-70559506D01*
X115146395Y-70559501D01*
X114952834Y-70423967D01*
X114952830Y-70423965D01*
X114901351Y-70399960D01*
X114738663Y-70324097D01*
X114738659Y-70324096D01*
X114738655Y-70324094D01*
X114510413Y-70262938D01*
X114510403Y-70262936D01*
X114275001Y-70242341D01*
X114274999Y-70242341D01*
X114039596Y-70262936D01*
X114039586Y-70262938D01*
X113811344Y-70324094D01*
X113811335Y-70324098D01*
X113597171Y-70423964D01*
X113597169Y-70423965D01*
X113403597Y-70559505D01*
X113236505Y-70726597D01*
X113100965Y-70920169D01*
X113100964Y-70920171D01*
X113001098Y-71134335D01*
X113001094Y-71134344D01*
X112939938Y-71362586D01*
X112939936Y-71362596D01*
X112919341Y-71597999D01*
X112919341Y-71598000D01*
X112939936Y-71833403D01*
X112939938Y-71833413D01*
X113001094Y-72061655D01*
X113001096Y-72061659D01*
X113001097Y-72061663D01*
X113100965Y-72275830D01*
X113100967Y-72275834D01*
X113236501Y-72469395D01*
X113236506Y-72469402D01*
X113403597Y-72636493D01*
X113403603Y-72636498D01*
X113589158Y-72766425D01*
X113632783Y-72821002D01*
X113639977Y-72890500D01*
X113608454Y-72952855D01*
X113589158Y-72969575D01*
X113403597Y-73099505D01*
X113236505Y-73266597D01*
X113100965Y-73460169D01*
X113100964Y-73460171D01*
X113001098Y-73674335D01*
X113001094Y-73674344D01*
X112939938Y-73902586D01*
X112939936Y-73902596D01*
X112919341Y-74137999D01*
X112919341Y-74138000D01*
X112939936Y-74373403D01*
X112939938Y-74373413D01*
X113001094Y-74601655D01*
X113001096Y-74601659D01*
X113001097Y-74601663D01*
X113100964Y-74815829D01*
X113100965Y-74815830D01*
X113100967Y-74815834D01*
X113236501Y-75009395D01*
X113236506Y-75009402D01*
X113403597Y-75176493D01*
X113403603Y-75176498D01*
X113589158Y-75306425D01*
X113632783Y-75361002D01*
X113639977Y-75430500D01*
X113608454Y-75492855D01*
X113589158Y-75509575D01*
X113403597Y-75639505D01*
X113236505Y-75806597D01*
X113100965Y-76000169D01*
X113100964Y-76000171D01*
X113001098Y-76214335D01*
X113001094Y-76214344D01*
X112939938Y-76442586D01*
X112939936Y-76442596D01*
X112919341Y-76677999D01*
X112919341Y-76678000D01*
X112939936Y-76913403D01*
X112939938Y-76913413D01*
X113001094Y-77141655D01*
X113001096Y-77141659D01*
X113001097Y-77141663D01*
X113100965Y-77355830D01*
X113100967Y-77355834D01*
X113236501Y-77549395D01*
X113236506Y-77549402D01*
X113403597Y-77716493D01*
X113403603Y-77716498D01*
X113589158Y-77846425D01*
X113632783Y-77901002D01*
X113639977Y-77970500D01*
X113608454Y-78032855D01*
X113589158Y-78049575D01*
X113403597Y-78179505D01*
X113236505Y-78346597D01*
X113100965Y-78540169D01*
X113100964Y-78540171D01*
X113001098Y-78754335D01*
X113001094Y-78754344D01*
X112939938Y-78982586D01*
X112939936Y-78982596D01*
X112919341Y-79217999D01*
X112919341Y-79218000D01*
X112939936Y-79453403D01*
X112939938Y-79453413D01*
X113001094Y-79681655D01*
X113001096Y-79681659D01*
X113001097Y-79681663D01*
X113100964Y-79895830D01*
X113100965Y-79895830D01*
X113100967Y-79895834D01*
X113236501Y-80089395D01*
X113236506Y-80089402D01*
X113403597Y-80256493D01*
X113403603Y-80256498D01*
X113589594Y-80386730D01*
X113633219Y-80441307D01*
X113640413Y-80510805D01*
X113608890Y-80573160D01*
X113589595Y-80589880D01*
X113403922Y-80719890D01*
X113403920Y-80719891D01*
X113236891Y-80886920D01*
X113236886Y-80886926D01*
X113101400Y-81080420D01*
X113101399Y-81080422D01*
X113001570Y-81294507D01*
X113001567Y-81294513D01*
X112944364Y-81507999D01*
X112944364Y-81508000D01*
X113661653Y-81508000D01*
X113728692Y-81527685D01*
X113774447Y-81580489D01*
X113784391Y-81649647D01*
X113780631Y-81666933D01*
X113775000Y-81686111D01*
X113775000Y-81829888D01*
X113780631Y-81849067D01*
X113780630Y-81918936D01*
X113742855Y-81977714D01*
X113679299Y-82006738D01*
X113661653Y-82008000D01*
X112944364Y-82008000D01*
X113001567Y-82221486D01*
X113001570Y-82221492D01*
X113101399Y-82435578D01*
X113236894Y-82629082D01*
X113403917Y-82796105D01*
X113589595Y-82926119D01*
X113633219Y-82980696D01*
X113640412Y-83050195D01*
X113608890Y-83112549D01*
X113589595Y-83129269D01*
X113403594Y-83259508D01*
X113236505Y-83426597D01*
X113100965Y-83620169D01*
X113100964Y-83620171D01*
X113001098Y-83834335D01*
X113001094Y-83834344D01*
X112939938Y-84062586D01*
X112939936Y-84062596D01*
X112919341Y-84297999D01*
X112919341Y-84298000D01*
X112939936Y-84533403D01*
X112939938Y-84533413D01*
X113001094Y-84761655D01*
X113001096Y-84761659D01*
X113001097Y-84761663D01*
X113076563Y-84923500D01*
X113100965Y-84975830D01*
X113100967Y-84975834D01*
X113209281Y-85130521D01*
X113236501Y-85169396D01*
X113236506Y-85169402D01*
X113403597Y-85336493D01*
X113403603Y-85336498D01*
X113589158Y-85466425D01*
X113632783Y-85521002D01*
X113639977Y-85590500D01*
X113608454Y-85652855D01*
X113589158Y-85669575D01*
X113403597Y-85799505D01*
X113236505Y-85966597D01*
X113100965Y-86160169D01*
X113100964Y-86160171D01*
X113001098Y-86374335D01*
X113001094Y-86374344D01*
X112939938Y-86602586D01*
X112939936Y-86602596D01*
X112919341Y-86837999D01*
X112919341Y-86838000D01*
X112939936Y-87073403D01*
X112939938Y-87073413D01*
X113001094Y-87301655D01*
X113001096Y-87301659D01*
X113001097Y-87301663D01*
X113076563Y-87463500D01*
X113100965Y-87515830D01*
X113100967Y-87515834D01*
X113209281Y-87670521D01*
X113236501Y-87709396D01*
X113236506Y-87709402D01*
X113403597Y-87876493D01*
X113403603Y-87876498D01*
X113589158Y-88006425D01*
X113632783Y-88061002D01*
X113639977Y-88130500D01*
X113608454Y-88192855D01*
X113589158Y-88209575D01*
X113403597Y-88339505D01*
X113236505Y-88506597D01*
X113100965Y-88700169D01*
X113100964Y-88700171D01*
X113001098Y-88914335D01*
X113001094Y-88914344D01*
X112939938Y-89142586D01*
X112939936Y-89142596D01*
X112919341Y-89377999D01*
X112919341Y-89378000D01*
X112939936Y-89613403D01*
X112939938Y-89613413D01*
X113001094Y-89841655D01*
X113001096Y-89841659D01*
X113001097Y-89841663D01*
X113047630Y-89941453D01*
X113100965Y-90055830D01*
X113100967Y-90055834D01*
X113209281Y-90210521D01*
X113236501Y-90249396D01*
X113236506Y-90249402D01*
X113403597Y-90416493D01*
X113403603Y-90416498D01*
X113589158Y-90546425D01*
X113632783Y-90601002D01*
X113639977Y-90670500D01*
X113608454Y-90732855D01*
X113589158Y-90749575D01*
X113403597Y-90879505D01*
X113236505Y-91046597D01*
X113100965Y-91240169D01*
X113100964Y-91240171D01*
X113001098Y-91454335D01*
X113001094Y-91454344D01*
X112939938Y-91682586D01*
X112939936Y-91682596D01*
X112919341Y-91917999D01*
X112919341Y-91918000D01*
X112939936Y-92153403D01*
X112939938Y-92153413D01*
X113001094Y-92381655D01*
X113001096Y-92381659D01*
X113001097Y-92381663D01*
X113100965Y-92595830D01*
X113100967Y-92595834D01*
X113236501Y-92789395D01*
X113236506Y-92789402D01*
X113403597Y-92956493D01*
X113403603Y-92956498D01*
X113589158Y-93086425D01*
X113632783Y-93141002D01*
X113639977Y-93210500D01*
X113608454Y-93272855D01*
X113589158Y-93289575D01*
X113403597Y-93419505D01*
X113236505Y-93586597D01*
X113100965Y-93780169D01*
X113100964Y-93780171D01*
X113001098Y-93994335D01*
X113001094Y-93994344D01*
X112939938Y-94222586D01*
X112939936Y-94222596D01*
X112919341Y-94457999D01*
X112919341Y-94458000D01*
X112939936Y-94693403D01*
X112939938Y-94693413D01*
X113001094Y-94921655D01*
X113001096Y-94921659D01*
X113001097Y-94921663D01*
X113100847Y-95135578D01*
X113100965Y-95135830D01*
X113100967Y-95135834D01*
X113236501Y-95329395D01*
X113236506Y-95329402D01*
X113403597Y-95496493D01*
X113403603Y-95496498D01*
X113589158Y-95626425D01*
X113632783Y-95681002D01*
X113639977Y-95750500D01*
X113608454Y-95812855D01*
X113589158Y-95829575D01*
X113403597Y-95959505D01*
X113236505Y-96126597D01*
X113100965Y-96320169D01*
X113100964Y-96320171D01*
X113001098Y-96534335D01*
X113001094Y-96534344D01*
X112939938Y-96762586D01*
X112939936Y-96762596D01*
X112919341Y-96997999D01*
X112919341Y-96998000D01*
X112939936Y-97233403D01*
X112939938Y-97233413D01*
X113001094Y-97461655D01*
X113001096Y-97461659D01*
X113001097Y-97461663D01*
X113100965Y-97675830D01*
X113100967Y-97675834D01*
X113236501Y-97869395D01*
X113236506Y-97869402D01*
X113403597Y-98036493D01*
X113403603Y-98036498D01*
X113589158Y-98166425D01*
X113632783Y-98221002D01*
X113639977Y-98290500D01*
X113608454Y-98352855D01*
X113589158Y-98369575D01*
X113403597Y-98499505D01*
X113236505Y-98666597D01*
X113100965Y-98860169D01*
X113100964Y-98860171D01*
X113001098Y-99074335D01*
X113001094Y-99074344D01*
X112939938Y-99302586D01*
X112939936Y-99302596D01*
X112919341Y-99537999D01*
X112919341Y-99538000D01*
X112939936Y-99773403D01*
X112939938Y-99773413D01*
X113001094Y-100001655D01*
X113001096Y-100001659D01*
X113001097Y-100001663D01*
X113100964Y-100215829D01*
X113100965Y-100215830D01*
X113100967Y-100215834D01*
X113236501Y-100409395D01*
X113236506Y-100409402D01*
X113403597Y-100576493D01*
X113403603Y-100576498D01*
X113589158Y-100706425D01*
X113632783Y-100761002D01*
X113639977Y-100830500D01*
X113608454Y-100892855D01*
X113589158Y-100909575D01*
X113403597Y-101039505D01*
X113236505Y-101206597D01*
X113100965Y-101400169D01*
X113100964Y-101400171D01*
X113001098Y-101614335D01*
X113001094Y-101614344D01*
X112939938Y-101842586D01*
X112939936Y-101842596D01*
X112919341Y-102077999D01*
X112919341Y-102078000D01*
X112939936Y-102313403D01*
X112939938Y-102313413D01*
X113001094Y-102541655D01*
X113001096Y-102541659D01*
X113001097Y-102541663D01*
X113100965Y-102755830D01*
X113100967Y-102755834D01*
X113236501Y-102949395D01*
X113236506Y-102949402D01*
X113403597Y-103116493D01*
X113403603Y-103116498D01*
X113589158Y-103246425D01*
X113632783Y-103301002D01*
X113639977Y-103370500D01*
X113608454Y-103432855D01*
X113589158Y-103449575D01*
X113403597Y-103579505D01*
X113236505Y-103746597D01*
X113100965Y-103940169D01*
X113100964Y-103940171D01*
X113001098Y-104154335D01*
X113001094Y-104154344D01*
X112939938Y-104382586D01*
X112939936Y-104382596D01*
X112919341Y-104617999D01*
X112919341Y-104618000D01*
X112939936Y-104853403D01*
X112939938Y-104853413D01*
X113001094Y-105081655D01*
X113001096Y-105081659D01*
X113001097Y-105081663D01*
X113076527Y-105243423D01*
X113100965Y-105295830D01*
X113100967Y-105295834D01*
X113236501Y-105489395D01*
X113236506Y-105489402D01*
X113403597Y-105656493D01*
X113403603Y-105656498D01*
X113589158Y-105786425D01*
X113632783Y-105841002D01*
X113639977Y-105910500D01*
X113608454Y-105972855D01*
X113589158Y-105989575D01*
X113403597Y-106119505D01*
X113236505Y-106286597D01*
X113100965Y-106480169D01*
X113100964Y-106480171D01*
X113001098Y-106694335D01*
X113001094Y-106694344D01*
X112939938Y-106922586D01*
X112939936Y-106922596D01*
X112919341Y-107157999D01*
X112919341Y-107158000D01*
X107534591Y-107158000D01*
X105055819Y-104679228D01*
X105022334Y-104617905D01*
X105019500Y-104591547D01*
X105019500Y-88728738D01*
X105021224Y-88713124D01*
X105020938Y-88713097D01*
X105021672Y-88705334D01*
X105019500Y-88636203D01*
X105019500Y-88606651D01*
X105019500Y-88606650D01*
X105018629Y-88599759D01*
X105018172Y-88593945D01*
X105016709Y-88547372D01*
X105011122Y-88528144D01*
X105007174Y-88509084D01*
X105006860Y-88506597D01*
X105004664Y-88489208D01*
X104987507Y-88445875D01*
X104985619Y-88440359D01*
X104972619Y-88395612D01*
X104962418Y-88378363D01*
X104953860Y-88360894D01*
X104946486Y-88342268D01*
X104946483Y-88342264D01*
X104946483Y-88342263D01*
X104919098Y-88304571D01*
X104915890Y-88299687D01*
X104892172Y-88259582D01*
X104892163Y-88259571D01*
X104878005Y-88245413D01*
X104865370Y-88230620D01*
X104853593Y-88214412D01*
X104817693Y-88184713D01*
X104813381Y-88180790D01*
X103086802Y-86454212D01*
X103076980Y-86441950D01*
X103076759Y-86442134D01*
X103071786Y-86436123D01*
X103021364Y-86388773D01*
X103006926Y-86374335D01*
X103000475Y-86367883D01*
X102994986Y-86363625D01*
X102990561Y-86359847D01*
X102956582Y-86327938D01*
X102956580Y-86327936D01*
X102956577Y-86327935D01*
X102939029Y-86318288D01*
X102922763Y-86307604D01*
X102906933Y-86295325D01*
X102864168Y-86276818D01*
X102858922Y-86274248D01*
X102818093Y-86251803D01*
X102818092Y-86251802D01*
X102798693Y-86246822D01*
X102780281Y-86240518D01*
X102761898Y-86232562D01*
X102761892Y-86232560D01*
X102715874Y-86225272D01*
X102710152Y-86224087D01*
X102665021Y-86212500D01*
X102665019Y-86212500D01*
X102644984Y-86212500D01*
X102625586Y-86210973D01*
X102618162Y-86209797D01*
X102605805Y-86207840D01*
X102605804Y-86207840D01*
X102559416Y-86212225D01*
X102553578Y-86212500D01*
X99260250Y-86212500D01*
X99193211Y-86192815D01*
X99147456Y-86140011D01*
X99137512Y-86070853D01*
X99166537Y-86007297D01*
X99168100Y-86005528D01*
X99188423Y-85982956D01*
X99284533Y-85876216D01*
X99379179Y-85712284D01*
X99437674Y-85532256D01*
X99457460Y-85344000D01*
X99437674Y-85155744D01*
X99379179Y-84975716D01*
X99284533Y-84811784D01*
X99157871Y-84671112D01*
X99157870Y-84671111D01*
X99004734Y-84559851D01*
X99004729Y-84559848D01*
X98831807Y-84482857D01*
X98831802Y-84482855D01*
X98686000Y-84451865D01*
X98646646Y-84443500D01*
X98646645Y-84443500D01*
X98587453Y-84443500D01*
X98520414Y-84423815D01*
X98499772Y-84407181D01*
X98006803Y-83914212D01*
X97996980Y-83901950D01*
X97996759Y-83902134D01*
X97991786Y-83896123D01*
X97941364Y-83848773D01*
X97926926Y-83834335D01*
X97920475Y-83827883D01*
X97914986Y-83823625D01*
X97910561Y-83819847D01*
X97876582Y-83787938D01*
X97876580Y-83787936D01*
X97876577Y-83787935D01*
X97859029Y-83778288D01*
X97842763Y-83767604D01*
X97826933Y-83755325D01*
X97784168Y-83736818D01*
X97778922Y-83734248D01*
X97738093Y-83711803D01*
X97738092Y-83711802D01*
X97718693Y-83706822D01*
X97700281Y-83700518D01*
X97681898Y-83692562D01*
X97681892Y-83692560D01*
X97635874Y-83685272D01*
X97630152Y-83684087D01*
X97585021Y-83672500D01*
X97585019Y-83672500D01*
X97564984Y-83672500D01*
X97545586Y-83670973D01*
X97538162Y-83669797D01*
X97525805Y-83667840D01*
X97525804Y-83667840D01*
X97479416Y-83672225D01*
X97473578Y-83672500D01*
X92690227Y-83672500D01*
X92623188Y-83652815D01*
X92588652Y-83619623D01*
X92453494Y-83426597D01*
X92286402Y-83259506D01*
X92286396Y-83259501D01*
X92100842Y-83129575D01*
X92057217Y-83074998D01*
X92050023Y-83005500D01*
X92081546Y-82943145D01*
X92100842Y-82926425D01*
X92123026Y-82910891D01*
X92286401Y-82796495D01*
X92453495Y-82629401D01*
X92589035Y-82435830D01*
X92688903Y-82221663D01*
X92750063Y-81993408D01*
X92770659Y-81758000D01*
X92750063Y-81522592D01*
X92688903Y-81294337D01*
X92589035Y-81080171D01*
X92453495Y-80886599D01*
X92453494Y-80886597D01*
X92286402Y-80719506D01*
X92286396Y-80719501D01*
X92100842Y-80589575D01*
X92057217Y-80534998D01*
X92050023Y-80465500D01*
X92081546Y-80403145D01*
X92100842Y-80386425D01*
X92123026Y-80370891D01*
X92286401Y-80256495D01*
X92453495Y-80089401D01*
X92589035Y-79895830D01*
X92688903Y-79681663D01*
X92750063Y-79453408D01*
X92770659Y-79218000D01*
X92750063Y-78982592D01*
X92688903Y-78754337D01*
X92589035Y-78540171D01*
X92453495Y-78346599D01*
X92453494Y-78346597D01*
X92286402Y-78179506D01*
X92286396Y-78179501D01*
X92100842Y-78049575D01*
X92057217Y-77994998D01*
X92050023Y-77925500D01*
X92081546Y-77863145D01*
X92100842Y-77846425D01*
X92123026Y-77830891D01*
X92286401Y-77716495D01*
X92453495Y-77549401D01*
X92589035Y-77355830D01*
X92688903Y-77141663D01*
X92750063Y-76913408D01*
X92770659Y-76678000D01*
X92750063Y-76442592D01*
X92688903Y-76214337D01*
X92589035Y-76000171D01*
X92453495Y-75806599D01*
X92453494Y-75806597D01*
X92286402Y-75639506D01*
X92286396Y-75639501D01*
X92100842Y-75509575D01*
X92057217Y-75454998D01*
X92050023Y-75385500D01*
X92081546Y-75323145D01*
X92100842Y-75306425D01*
X92123026Y-75290891D01*
X92286401Y-75176495D01*
X92453495Y-75009401D01*
X92589035Y-74815830D01*
X92688903Y-74601663D01*
X92750063Y-74373408D01*
X92770659Y-74138000D01*
X92750063Y-73902592D01*
X92688903Y-73674337D01*
X92589035Y-73460171D01*
X92453495Y-73266599D01*
X92453494Y-73266597D01*
X92286402Y-73099506D01*
X92286396Y-73099501D01*
X92100842Y-72969575D01*
X92057217Y-72914998D01*
X92050023Y-72845500D01*
X92081546Y-72783145D01*
X92100842Y-72766425D01*
X92123026Y-72750891D01*
X92286401Y-72636495D01*
X92453495Y-72469401D01*
X92589035Y-72275830D01*
X92688903Y-72061663D01*
X92750063Y-71833408D01*
X92770659Y-71598000D01*
X92750063Y-71362592D01*
X92688903Y-71134337D01*
X92589035Y-70920171D01*
X92453495Y-70726599D01*
X92453494Y-70726597D01*
X92286402Y-70559506D01*
X92286395Y-70559501D01*
X92092834Y-70423967D01*
X92092830Y-70423965D01*
X92041351Y-70399960D01*
X91878663Y-70324097D01*
X91878659Y-70324096D01*
X91878655Y-70324094D01*
X91650413Y-70262938D01*
X91650403Y-70262936D01*
X91415001Y-70242341D01*
X91414999Y-70242341D01*
X91179596Y-70262936D01*
X91179586Y-70262938D01*
X90951344Y-70324094D01*
X90951335Y-70324098D01*
X90737171Y-70423964D01*
X90737169Y-70423965D01*
X90543597Y-70559505D01*
X90376505Y-70726597D01*
X90240965Y-70920169D01*
X90240964Y-70920171D01*
X90141098Y-71134335D01*
X90141094Y-71134344D01*
X90079938Y-71362586D01*
X90079936Y-71362596D01*
X90059341Y-71597999D01*
X90059341Y-71598000D01*
X90079936Y-71833403D01*
X90079938Y-71833413D01*
X90141094Y-72061655D01*
X90141096Y-72061659D01*
X90141097Y-72061663D01*
X90240965Y-72275830D01*
X90240967Y-72275834D01*
X90376501Y-72469395D01*
X90376506Y-72469402D01*
X90543597Y-72636493D01*
X90543603Y-72636498D01*
X90729158Y-72766425D01*
X90772783Y-72821002D01*
X90779977Y-72890500D01*
X90748454Y-72952855D01*
X90729158Y-72969575D01*
X90543597Y-73099505D01*
X90376505Y-73266597D01*
X90240965Y-73460169D01*
X90240964Y-73460171D01*
X90141098Y-73674335D01*
X90141094Y-73674344D01*
X90079938Y-73902586D01*
X90079936Y-73902596D01*
X90059341Y-74137999D01*
X90059341Y-74138000D01*
X90079936Y-74373403D01*
X90079938Y-74373413D01*
X90141094Y-74601655D01*
X90141096Y-74601659D01*
X90141097Y-74601663D01*
X90240965Y-74815830D01*
X90240967Y-74815834D01*
X90376501Y-75009395D01*
X90376506Y-75009402D01*
X90543597Y-75176493D01*
X90543603Y-75176498D01*
X90729158Y-75306425D01*
X90772783Y-75361002D01*
X90779977Y-75430500D01*
X90748454Y-75492855D01*
X90729158Y-75509575D01*
X90543597Y-75639505D01*
X90376505Y-75806597D01*
X90240965Y-76000169D01*
X90240964Y-76000171D01*
X90141098Y-76214335D01*
X90141094Y-76214344D01*
X90079938Y-76442586D01*
X90079936Y-76442596D01*
X90059341Y-76677999D01*
X90059341Y-76678000D01*
X90079936Y-76913403D01*
X90079938Y-76913413D01*
X90141094Y-77141655D01*
X90141096Y-77141659D01*
X90141097Y-77141663D01*
X90240965Y-77355829D01*
X90240965Y-77355830D01*
X90240967Y-77355834D01*
X90376501Y-77549395D01*
X90376506Y-77549402D01*
X90543597Y-77716493D01*
X90543603Y-77716498D01*
X90729158Y-77846425D01*
X90772783Y-77901002D01*
X90779977Y-77970500D01*
X90748454Y-78032855D01*
X90729158Y-78049575D01*
X90543597Y-78179505D01*
X90376505Y-78346597D01*
X90240965Y-78540169D01*
X90240964Y-78540171D01*
X90141098Y-78754335D01*
X90141094Y-78754344D01*
X90079938Y-78982586D01*
X90079936Y-78982596D01*
X90059341Y-79217999D01*
X90059341Y-79218000D01*
X90079936Y-79453403D01*
X90079938Y-79453413D01*
X90141094Y-79681655D01*
X90141096Y-79681659D01*
X90141097Y-79681663D01*
X90240964Y-79895830D01*
X90240965Y-79895830D01*
X90240967Y-79895834D01*
X90376501Y-80089395D01*
X90376506Y-80089402D01*
X90543597Y-80256493D01*
X90543603Y-80256498D01*
X90729158Y-80386425D01*
X90772783Y-80441002D01*
X90779977Y-80510500D01*
X90748454Y-80572855D01*
X90729158Y-80589575D01*
X90543597Y-80719505D01*
X90376505Y-80886597D01*
X90240965Y-81080169D01*
X90240964Y-81080171D01*
X90141098Y-81294335D01*
X90141094Y-81294344D01*
X90079938Y-81522586D01*
X90079936Y-81522596D01*
X90059341Y-81757999D01*
X90059341Y-81758000D01*
X90079936Y-81993403D01*
X90079938Y-81993413D01*
X90141094Y-82221655D01*
X90141096Y-82221659D01*
X90141097Y-82221663D01*
X90240847Y-82435578D01*
X90240965Y-82435830D01*
X90240967Y-82435834D01*
X90376501Y-82629395D01*
X90376506Y-82629402D01*
X90543597Y-82796493D01*
X90543603Y-82796498D01*
X90729158Y-82926425D01*
X90772783Y-82981002D01*
X90779977Y-83050500D01*
X90748454Y-83112855D01*
X90729158Y-83129575D01*
X90543597Y-83259505D01*
X90376505Y-83426597D01*
X90240965Y-83620169D01*
X90240964Y-83620171D01*
X90141098Y-83834335D01*
X90141094Y-83834344D01*
X90079938Y-84062586D01*
X90079936Y-84062596D01*
X90059341Y-84297999D01*
X90059341Y-84298000D01*
X90079936Y-84533403D01*
X90079938Y-84533413D01*
X90141094Y-84761655D01*
X90141096Y-84761659D01*
X90141097Y-84761663D01*
X90216563Y-84923500D01*
X90240965Y-84975830D01*
X90240967Y-84975834D01*
X90349281Y-85130521D01*
X90376501Y-85169396D01*
X90376506Y-85169402D01*
X90543597Y-85336493D01*
X90543603Y-85336498D01*
X90729158Y-85466425D01*
X90772783Y-85521002D01*
X90779977Y-85590500D01*
X90748454Y-85652855D01*
X90729158Y-85669575D01*
X90543597Y-85799505D01*
X90376505Y-85966597D01*
X90240965Y-86160169D01*
X90240964Y-86160171D01*
X90141098Y-86374335D01*
X90141094Y-86374344D01*
X90079938Y-86602586D01*
X90079936Y-86602596D01*
X90059341Y-86837999D01*
X90059341Y-86838000D01*
X90079936Y-87073403D01*
X90079938Y-87073413D01*
X90141094Y-87301655D01*
X90141096Y-87301659D01*
X90141097Y-87301663D01*
X90216563Y-87463500D01*
X90240965Y-87515830D01*
X90240967Y-87515834D01*
X90349281Y-87670521D01*
X90376501Y-87709396D01*
X90376506Y-87709402D01*
X90543597Y-87876493D01*
X90543603Y-87876498D01*
X90729158Y-88006425D01*
X90772783Y-88061002D01*
X90779977Y-88130500D01*
X90748454Y-88192855D01*
X90729158Y-88209575D01*
X90543597Y-88339505D01*
X90376505Y-88506597D01*
X90240965Y-88700169D01*
X90240964Y-88700171D01*
X90141098Y-88914335D01*
X90141094Y-88914344D01*
X90079938Y-89142586D01*
X90079936Y-89142596D01*
X90059341Y-89377999D01*
X90059341Y-89378000D01*
X90079936Y-89613403D01*
X90079938Y-89613413D01*
X90141094Y-89841655D01*
X90141096Y-89841659D01*
X90141097Y-89841663D01*
X90187630Y-89941453D01*
X90240965Y-90055830D01*
X90240967Y-90055834D01*
X90349281Y-90210521D01*
X90376501Y-90249396D01*
X90376506Y-90249402D01*
X90543597Y-90416493D01*
X90543603Y-90416498D01*
X90729158Y-90546425D01*
X90772783Y-90601002D01*
X90779977Y-90670500D01*
X90748454Y-90732855D01*
X90729158Y-90749575D01*
X90543597Y-90879505D01*
X90376505Y-91046597D01*
X90240965Y-91240169D01*
X90240964Y-91240171D01*
X90141098Y-91454335D01*
X90141094Y-91454344D01*
X90079938Y-91682586D01*
X90079936Y-91682596D01*
X90059341Y-91917999D01*
X90059341Y-91918000D01*
X90079936Y-92153403D01*
X90079938Y-92153413D01*
X90141094Y-92381655D01*
X90141096Y-92381659D01*
X90141097Y-92381663D01*
X90240964Y-92595830D01*
X90240965Y-92595830D01*
X90240967Y-92595834D01*
X90376501Y-92789395D01*
X90376506Y-92789402D01*
X90543597Y-92956493D01*
X90543603Y-92956498D01*
X90729594Y-93086730D01*
X90773219Y-93141307D01*
X90780413Y-93210805D01*
X90748890Y-93273160D01*
X90729595Y-93289880D01*
X90543922Y-93419890D01*
X90543920Y-93419891D01*
X90376891Y-93586920D01*
X90376886Y-93586926D01*
X90241400Y-93780420D01*
X90241399Y-93780422D01*
X90141570Y-93994507D01*
X90141567Y-93994513D01*
X90084364Y-94207999D01*
X90084364Y-94208000D01*
X90801653Y-94208000D01*
X90868692Y-94227685D01*
X90914447Y-94280489D01*
X90924391Y-94349647D01*
X90920631Y-94366933D01*
X90915000Y-94386111D01*
X90915000Y-94529888D01*
X90920631Y-94549067D01*
X90920630Y-94618936D01*
X90882855Y-94677714D01*
X90819299Y-94706738D01*
X90801653Y-94708000D01*
X90084364Y-94708000D01*
X90141567Y-94921486D01*
X90141570Y-94921492D01*
X90241399Y-95135578D01*
X90376894Y-95329082D01*
X90543917Y-95496105D01*
X90729595Y-95626119D01*
X90773219Y-95680696D01*
X90780412Y-95750195D01*
X90748890Y-95812549D01*
X90729595Y-95829269D01*
X90543594Y-95959508D01*
X90376505Y-96126597D01*
X90240965Y-96320169D01*
X90240964Y-96320171D01*
X90141098Y-96534335D01*
X90141094Y-96534344D01*
X90079938Y-96762586D01*
X90079936Y-96762596D01*
X90059341Y-96997999D01*
X90059341Y-96998000D01*
X90079936Y-97233403D01*
X90079938Y-97233413D01*
X90141094Y-97461655D01*
X90141096Y-97461659D01*
X90141097Y-97461663D01*
X90240964Y-97675830D01*
X90240965Y-97675830D01*
X90240967Y-97675834D01*
X90376501Y-97869395D01*
X90376506Y-97869402D01*
X90543597Y-98036493D01*
X90543603Y-98036498D01*
X90729158Y-98166425D01*
X90772783Y-98221002D01*
X90779977Y-98290500D01*
X90748454Y-98352855D01*
X90729158Y-98369575D01*
X90543597Y-98499505D01*
X90376505Y-98666597D01*
X90240965Y-98860169D01*
X90240964Y-98860171D01*
X90141098Y-99074335D01*
X90141094Y-99074344D01*
X90079938Y-99302586D01*
X90079936Y-99302596D01*
X90059341Y-99537999D01*
X90059341Y-99538000D01*
X90079936Y-99773403D01*
X90079938Y-99773413D01*
X90141094Y-100001655D01*
X90141096Y-100001659D01*
X90141097Y-100001663D01*
X90240964Y-100215830D01*
X90240965Y-100215830D01*
X90240967Y-100215834D01*
X90376501Y-100409395D01*
X90376506Y-100409402D01*
X90543597Y-100576493D01*
X90543603Y-100576498D01*
X90729158Y-100706425D01*
X90772783Y-100761002D01*
X90779977Y-100830500D01*
X90748454Y-100892855D01*
X90729158Y-100909575D01*
X90543597Y-101039505D01*
X90376505Y-101206597D01*
X90240965Y-101400169D01*
X90240964Y-101400171D01*
X90141098Y-101614335D01*
X90141094Y-101614344D01*
X90079938Y-101842586D01*
X90079936Y-101842596D01*
X90059341Y-102077999D01*
X90059341Y-102078000D01*
X90079936Y-102313403D01*
X90079938Y-102313413D01*
X90141094Y-102541655D01*
X90141096Y-102541659D01*
X90141097Y-102541663D01*
X90240964Y-102755829D01*
X90240965Y-102755830D01*
X90240967Y-102755834D01*
X90376501Y-102949395D01*
X90376506Y-102949402D01*
X90543597Y-103116493D01*
X90543603Y-103116498D01*
X90729158Y-103246425D01*
X90772783Y-103301002D01*
X90779977Y-103370500D01*
X90748454Y-103432855D01*
X90729158Y-103449575D01*
X90543597Y-103579505D01*
X90376505Y-103746597D01*
X90240965Y-103940169D01*
X90240964Y-103940171D01*
X90141098Y-104154335D01*
X90141094Y-104154344D01*
X90079938Y-104382586D01*
X90079936Y-104382596D01*
X90059341Y-104617999D01*
X90059341Y-104618000D01*
X90079936Y-104853403D01*
X90079938Y-104853413D01*
X90141094Y-105081655D01*
X90141096Y-105081659D01*
X90141097Y-105081663D01*
X90216527Y-105243423D01*
X90240965Y-105295830D01*
X90240967Y-105295834D01*
X90376501Y-105489395D01*
X90376506Y-105489402D01*
X90543597Y-105656493D01*
X90543603Y-105656498D01*
X90729158Y-105786425D01*
X90772783Y-105841002D01*
X90779977Y-105910500D01*
X90748454Y-105972855D01*
X90729158Y-105989575D01*
X90543597Y-106119505D01*
X90376505Y-106286597D01*
X90240965Y-106480169D01*
X90240964Y-106480171D01*
X90141098Y-106694335D01*
X90141094Y-106694344D01*
X90079938Y-106922586D01*
X90079936Y-106922596D01*
X90059341Y-107157999D01*
X90059341Y-107158000D01*
X87690659Y-107158000D01*
X87670063Y-106922592D01*
X87608903Y-106694337D01*
X87509035Y-106480171D01*
X87373495Y-106286599D01*
X87373494Y-106286597D01*
X87206402Y-106119506D01*
X87206396Y-106119501D01*
X87020842Y-105989575D01*
X86977217Y-105934998D01*
X86970023Y-105865500D01*
X87001546Y-105803145D01*
X87020842Y-105786425D01*
X87043026Y-105770891D01*
X87206401Y-105656495D01*
X87373495Y-105489401D01*
X87509035Y-105295830D01*
X87608903Y-105081663D01*
X87670063Y-104853408D01*
X87690659Y-104618000D01*
X87670063Y-104382592D01*
X87608903Y-104154337D01*
X87509035Y-103940171D01*
X87373495Y-103746599D01*
X87373494Y-103746597D01*
X87206402Y-103579506D01*
X87206396Y-103579501D01*
X87020842Y-103449575D01*
X86977217Y-103394998D01*
X86970023Y-103325500D01*
X87001546Y-103263145D01*
X87020842Y-103246425D01*
X87043026Y-103230891D01*
X87206401Y-103116495D01*
X87373495Y-102949401D01*
X87509035Y-102755830D01*
X87608903Y-102541663D01*
X87670063Y-102313408D01*
X87690659Y-102078000D01*
X87670063Y-101842592D01*
X87608903Y-101614337D01*
X87509035Y-101400171D01*
X87373495Y-101206599D01*
X87373494Y-101206597D01*
X87206402Y-101039506D01*
X87206396Y-101039501D01*
X87020842Y-100909575D01*
X86977217Y-100854998D01*
X86970023Y-100785500D01*
X87001546Y-100723145D01*
X87020842Y-100706425D01*
X87043026Y-100690891D01*
X87206401Y-100576495D01*
X87373495Y-100409401D01*
X87509035Y-100215830D01*
X87608903Y-100001663D01*
X87670063Y-99773408D01*
X87690659Y-99538000D01*
X87670063Y-99302592D01*
X87608903Y-99074337D01*
X87509035Y-98860171D01*
X87373495Y-98666599D01*
X87373494Y-98666597D01*
X87206402Y-98499506D01*
X87206396Y-98499501D01*
X87020842Y-98369575D01*
X86977217Y-98314998D01*
X86970023Y-98245500D01*
X87001546Y-98183145D01*
X87020842Y-98166425D01*
X87043026Y-98150891D01*
X87206401Y-98036495D01*
X87373495Y-97869401D01*
X87509035Y-97675830D01*
X87608903Y-97461663D01*
X87670063Y-97233408D01*
X87690659Y-96998000D01*
X87670063Y-96762592D01*
X87608903Y-96534337D01*
X87509035Y-96320171D01*
X87373495Y-96126599D01*
X87373494Y-96126597D01*
X87206402Y-95959506D01*
X87206401Y-95959505D01*
X87020405Y-95829269D01*
X86976781Y-95774692D01*
X86969588Y-95705193D01*
X87001110Y-95642839D01*
X87020405Y-95626119D01*
X87206082Y-95496105D01*
X87373105Y-95329082D01*
X87508600Y-95135578D01*
X87608429Y-94921492D01*
X87608432Y-94921486D01*
X87665636Y-94708000D01*
X86948347Y-94708000D01*
X86881308Y-94688315D01*
X86835553Y-94635511D01*
X86825609Y-94566353D01*
X86829369Y-94549067D01*
X86835000Y-94529888D01*
X86835000Y-94386111D01*
X86829369Y-94366933D01*
X86829370Y-94297064D01*
X86867145Y-94238286D01*
X86930701Y-94209262D01*
X86948347Y-94208000D01*
X87665636Y-94208000D01*
X87665635Y-94207999D01*
X87608432Y-93994513D01*
X87608429Y-93994507D01*
X87508600Y-93780422D01*
X87508599Y-93780420D01*
X87373113Y-93586926D01*
X87373108Y-93586920D01*
X87206078Y-93419890D01*
X87020405Y-93289879D01*
X86976780Y-93235302D01*
X86969588Y-93165804D01*
X87001110Y-93103449D01*
X87020406Y-93086730D01*
X87020842Y-93086425D01*
X87206401Y-92956495D01*
X87373495Y-92789401D01*
X87509035Y-92595830D01*
X87608903Y-92381663D01*
X87670063Y-92153408D01*
X87690659Y-91918000D01*
X87670063Y-91682592D01*
X87608903Y-91454337D01*
X87509035Y-91240171D01*
X87373495Y-91046599D01*
X87373494Y-91046597D01*
X87206402Y-90879506D01*
X87206396Y-90879501D01*
X87020842Y-90749575D01*
X86977217Y-90694998D01*
X86970023Y-90625500D01*
X87001546Y-90563145D01*
X87020842Y-90546425D01*
X87043026Y-90530891D01*
X87206401Y-90416495D01*
X87373495Y-90249401D01*
X87509035Y-90055830D01*
X87608903Y-89841663D01*
X87670063Y-89613408D01*
X87690659Y-89378000D01*
X87670063Y-89142592D01*
X87608903Y-88914337D01*
X87509035Y-88700171D01*
X87508652Y-88699623D01*
X87373494Y-88506597D01*
X87206402Y-88339506D01*
X87206396Y-88339501D01*
X87020842Y-88209575D01*
X86977217Y-88154998D01*
X86970023Y-88085500D01*
X87001546Y-88023145D01*
X87020842Y-88006425D01*
X87043026Y-87990891D01*
X87206401Y-87876495D01*
X87373495Y-87709401D01*
X87509035Y-87515830D01*
X87608903Y-87301663D01*
X87670063Y-87073408D01*
X87690659Y-86838000D01*
X87670063Y-86602592D01*
X87608903Y-86374337D01*
X87509035Y-86160171D01*
X87508652Y-86159623D01*
X87373494Y-85966597D01*
X87206402Y-85799506D01*
X87206396Y-85799501D01*
X87020842Y-85669575D01*
X86977217Y-85614998D01*
X86970023Y-85545500D01*
X87001546Y-85483145D01*
X87020842Y-85466425D01*
X87043026Y-85450891D01*
X87206401Y-85336495D01*
X87373495Y-85169401D01*
X87509035Y-84975830D01*
X87608903Y-84761663D01*
X87670063Y-84533408D01*
X87690659Y-84298000D01*
X87670063Y-84062592D01*
X87608903Y-83834337D01*
X87509035Y-83620171D01*
X87508652Y-83619623D01*
X87373494Y-83426597D01*
X87206402Y-83259506D01*
X87206396Y-83259501D01*
X87020842Y-83129575D01*
X86977217Y-83074998D01*
X86970023Y-83005500D01*
X87001546Y-82943145D01*
X87020842Y-82926425D01*
X87043026Y-82910891D01*
X87206401Y-82796495D01*
X87373495Y-82629401D01*
X87509035Y-82435830D01*
X87608903Y-82221663D01*
X87670063Y-81993408D01*
X87690659Y-81758000D01*
X87670063Y-81522592D01*
X87608903Y-81294337D01*
X87509035Y-81080171D01*
X87373495Y-80886599D01*
X87373494Y-80886597D01*
X87206402Y-80719506D01*
X87206396Y-80719501D01*
X87020842Y-80589575D01*
X86977217Y-80534998D01*
X86970023Y-80465500D01*
X87001546Y-80403145D01*
X87020842Y-80386425D01*
X87043026Y-80370891D01*
X87206401Y-80256495D01*
X87373495Y-80089401D01*
X87509035Y-79895830D01*
X87608903Y-79681663D01*
X87670063Y-79453408D01*
X87690659Y-79218000D01*
X87670063Y-78982592D01*
X87608903Y-78754337D01*
X87509035Y-78540171D01*
X87373495Y-78346599D01*
X87373494Y-78346597D01*
X87206402Y-78179506D01*
X87206396Y-78179501D01*
X87020842Y-78049575D01*
X86977217Y-77994998D01*
X86970023Y-77925500D01*
X87001546Y-77863145D01*
X87020842Y-77846425D01*
X87043026Y-77830891D01*
X87206401Y-77716495D01*
X87373495Y-77549401D01*
X87509035Y-77355830D01*
X87608903Y-77141663D01*
X87670063Y-76913408D01*
X87690659Y-76678000D01*
X87670063Y-76442592D01*
X87608903Y-76214337D01*
X87509035Y-76000171D01*
X87373495Y-75806599D01*
X87373494Y-75806597D01*
X87206402Y-75639506D01*
X87206396Y-75639501D01*
X87020842Y-75509575D01*
X86977217Y-75454998D01*
X86970023Y-75385500D01*
X87001546Y-75323145D01*
X87020842Y-75306425D01*
X87043026Y-75290891D01*
X87206401Y-75176495D01*
X87373495Y-75009401D01*
X87509035Y-74815830D01*
X87608903Y-74601663D01*
X87670063Y-74373408D01*
X87690659Y-74138000D01*
X87670063Y-73902592D01*
X87608903Y-73674337D01*
X87509035Y-73460171D01*
X87373495Y-73266599D01*
X87373494Y-73266597D01*
X87206402Y-73099506D01*
X87206396Y-73099501D01*
X87020842Y-72969575D01*
X86977217Y-72914998D01*
X86970023Y-72845500D01*
X87001546Y-72783145D01*
X87020842Y-72766425D01*
X87043026Y-72750891D01*
X87206401Y-72636495D01*
X87373495Y-72469401D01*
X87509035Y-72275830D01*
X87608903Y-72061663D01*
X87670063Y-71833408D01*
X87690659Y-71598000D01*
X87670063Y-71362592D01*
X87608903Y-71134337D01*
X87509035Y-70920171D01*
X87373495Y-70726599D01*
X87373494Y-70726597D01*
X87206402Y-70559506D01*
X87206395Y-70559501D01*
X87012834Y-70423967D01*
X87012830Y-70423965D01*
X86961351Y-70399960D01*
X86798663Y-70324097D01*
X86798659Y-70324096D01*
X86798655Y-70324094D01*
X86570413Y-70262938D01*
X86570403Y-70262936D01*
X86335001Y-70242341D01*
X86334999Y-70242341D01*
X86099596Y-70262936D01*
X86099586Y-70262938D01*
X85871344Y-70324094D01*
X85871335Y-70324098D01*
X85657171Y-70423964D01*
X85657169Y-70423965D01*
X85463597Y-70559505D01*
X85296505Y-70726597D01*
X85160965Y-70920169D01*
X85160964Y-70920171D01*
X85061098Y-71134335D01*
X85061094Y-71134344D01*
X84999938Y-71362586D01*
X84999936Y-71362596D01*
X84979341Y-71597999D01*
X84979341Y-71598000D01*
X84999936Y-71833403D01*
X84999938Y-71833413D01*
X85061094Y-72061655D01*
X85061096Y-72061659D01*
X85061097Y-72061663D01*
X85160965Y-72275830D01*
X85160967Y-72275834D01*
X85296501Y-72469395D01*
X85296506Y-72469402D01*
X85463597Y-72636493D01*
X85463603Y-72636498D01*
X85649158Y-72766425D01*
X85692783Y-72821002D01*
X85699977Y-72890500D01*
X85668454Y-72952855D01*
X85649158Y-72969575D01*
X85463597Y-73099505D01*
X85296505Y-73266597D01*
X85160965Y-73460169D01*
X85160964Y-73460171D01*
X85061098Y-73674335D01*
X85061094Y-73674344D01*
X84999938Y-73902586D01*
X84999936Y-73902596D01*
X84979341Y-74137999D01*
X84979341Y-74138000D01*
X84999936Y-74373403D01*
X84999938Y-74373413D01*
X85061094Y-74601655D01*
X85061096Y-74601659D01*
X85061097Y-74601663D01*
X85160965Y-74815829D01*
X85160965Y-74815830D01*
X85160967Y-74815834D01*
X85296501Y-75009395D01*
X85296506Y-75009402D01*
X85463597Y-75176493D01*
X85463603Y-75176498D01*
X85649158Y-75306425D01*
X85692783Y-75361002D01*
X85699977Y-75430500D01*
X85668454Y-75492855D01*
X85649158Y-75509575D01*
X85463597Y-75639505D01*
X85296505Y-75806597D01*
X85160965Y-76000169D01*
X85160964Y-76000171D01*
X85061098Y-76214335D01*
X85061094Y-76214344D01*
X84999938Y-76442586D01*
X84999936Y-76442596D01*
X84979341Y-76677999D01*
X84979341Y-76678000D01*
X84999936Y-76913403D01*
X84999938Y-76913413D01*
X85061094Y-77141655D01*
X85061096Y-77141659D01*
X85061097Y-77141663D01*
X85160965Y-77355830D01*
X85160967Y-77355834D01*
X85296501Y-77549395D01*
X85296506Y-77549402D01*
X85463597Y-77716493D01*
X85463603Y-77716498D01*
X85649158Y-77846425D01*
X85692783Y-77901002D01*
X85699977Y-77970500D01*
X85668454Y-78032855D01*
X85649158Y-78049575D01*
X85463597Y-78179505D01*
X85296505Y-78346597D01*
X85160965Y-78540169D01*
X85160964Y-78540171D01*
X85061098Y-78754335D01*
X85061094Y-78754344D01*
X84999938Y-78982586D01*
X84999936Y-78982596D01*
X84979341Y-79217999D01*
X84979341Y-79218000D01*
X84999936Y-79453403D01*
X84999938Y-79453413D01*
X85061094Y-79681655D01*
X85061096Y-79681659D01*
X85061097Y-79681663D01*
X85160965Y-79895830D01*
X85160967Y-79895834D01*
X85296501Y-80089395D01*
X85296506Y-80089402D01*
X85463597Y-80256493D01*
X85463603Y-80256498D01*
X85649158Y-80386425D01*
X85692783Y-80441002D01*
X85699977Y-80510500D01*
X85668454Y-80572855D01*
X85649158Y-80589575D01*
X85463597Y-80719505D01*
X85296505Y-80886597D01*
X85160965Y-81080169D01*
X85160964Y-81080171D01*
X85061098Y-81294335D01*
X85061094Y-81294344D01*
X84999938Y-81522586D01*
X84999936Y-81522596D01*
X84979341Y-81757999D01*
X84979341Y-81758000D01*
X84999936Y-81993403D01*
X84999938Y-81993413D01*
X85061094Y-82221655D01*
X85061096Y-82221659D01*
X85061097Y-82221663D01*
X85160847Y-82435578D01*
X85160965Y-82435830D01*
X85160967Y-82435834D01*
X85296501Y-82629395D01*
X85296506Y-82629402D01*
X85463597Y-82796493D01*
X85463603Y-82796498D01*
X85649158Y-82926425D01*
X85692783Y-82981002D01*
X85699977Y-83050500D01*
X85668454Y-83112855D01*
X85649158Y-83129575D01*
X85463597Y-83259505D01*
X85296505Y-83426597D01*
X85160965Y-83620169D01*
X85160964Y-83620171D01*
X85061098Y-83834335D01*
X85061094Y-83834344D01*
X84999938Y-84062586D01*
X84999936Y-84062596D01*
X84979341Y-84297999D01*
X84979341Y-84298000D01*
X84999936Y-84533403D01*
X84999938Y-84533413D01*
X85061094Y-84761655D01*
X85061096Y-84761659D01*
X85061097Y-84761663D01*
X85136563Y-84923500D01*
X85160965Y-84975830D01*
X85160967Y-84975834D01*
X85269281Y-85130521D01*
X85296501Y-85169396D01*
X85296506Y-85169402D01*
X85463597Y-85336493D01*
X85463603Y-85336498D01*
X85649158Y-85466425D01*
X85692783Y-85521002D01*
X85699977Y-85590500D01*
X85668454Y-85652855D01*
X85649158Y-85669575D01*
X85463597Y-85799505D01*
X85296505Y-85966597D01*
X85160965Y-86160169D01*
X85160964Y-86160171D01*
X85061098Y-86374335D01*
X85061094Y-86374344D01*
X84999938Y-86602586D01*
X84999936Y-86602596D01*
X84979341Y-86837999D01*
X84979341Y-86838000D01*
X84999936Y-87073403D01*
X84999938Y-87073413D01*
X85061094Y-87301655D01*
X85061096Y-87301659D01*
X85061097Y-87301663D01*
X85136563Y-87463500D01*
X85160965Y-87515830D01*
X85160967Y-87515834D01*
X85269281Y-87670521D01*
X85296501Y-87709396D01*
X85296506Y-87709402D01*
X85463597Y-87876493D01*
X85463603Y-87876498D01*
X85649158Y-88006425D01*
X85692783Y-88061002D01*
X85699977Y-88130500D01*
X85668454Y-88192855D01*
X85649158Y-88209575D01*
X85463597Y-88339505D01*
X85296505Y-88506597D01*
X85160965Y-88700169D01*
X85160964Y-88700171D01*
X85061098Y-88914335D01*
X85061094Y-88914344D01*
X84999938Y-89142586D01*
X84999936Y-89142596D01*
X84979341Y-89377999D01*
X84979341Y-89378000D01*
X84999936Y-89613403D01*
X84999938Y-89613413D01*
X85061094Y-89841655D01*
X85061096Y-89841659D01*
X85061097Y-89841663D01*
X85107630Y-89941453D01*
X85160965Y-90055830D01*
X85160967Y-90055834D01*
X85269281Y-90210521D01*
X85296501Y-90249396D01*
X85296506Y-90249402D01*
X85463597Y-90416493D01*
X85463603Y-90416498D01*
X85649158Y-90546425D01*
X85692783Y-90601002D01*
X85699977Y-90670500D01*
X85668454Y-90732855D01*
X85649158Y-90749575D01*
X85463597Y-90879505D01*
X85296505Y-91046597D01*
X85160965Y-91240169D01*
X85160964Y-91240171D01*
X85061098Y-91454335D01*
X85061094Y-91454344D01*
X84999938Y-91682586D01*
X84999936Y-91682596D01*
X84979341Y-91917999D01*
X84979341Y-91918000D01*
X84999936Y-92153403D01*
X84999938Y-92153413D01*
X85061094Y-92381655D01*
X85061096Y-92381659D01*
X85061097Y-92381663D01*
X85160965Y-92595830D01*
X85160967Y-92595834D01*
X85296501Y-92789395D01*
X85296506Y-92789402D01*
X85463597Y-92956493D01*
X85463603Y-92956498D01*
X85649594Y-93086730D01*
X85693219Y-93141307D01*
X85700413Y-93210805D01*
X85668890Y-93273160D01*
X85649595Y-93289880D01*
X85463922Y-93419890D01*
X85463920Y-93419891D01*
X85296891Y-93586920D01*
X85296886Y-93586926D01*
X85161400Y-93780420D01*
X85161399Y-93780422D01*
X85061570Y-93994507D01*
X85061567Y-93994513D01*
X85004364Y-94207999D01*
X85004364Y-94208000D01*
X85721653Y-94208000D01*
X85788692Y-94227685D01*
X85834447Y-94280489D01*
X85844391Y-94349647D01*
X85840631Y-94366933D01*
X85835000Y-94386111D01*
X85835000Y-94529888D01*
X85840631Y-94549067D01*
X85840630Y-94618936D01*
X85802855Y-94677714D01*
X85739299Y-94706738D01*
X85721653Y-94708000D01*
X85004364Y-94708000D01*
X85061567Y-94921486D01*
X85061570Y-94921492D01*
X85161399Y-95135578D01*
X85296894Y-95329082D01*
X85463917Y-95496105D01*
X85649595Y-95626119D01*
X85693219Y-95680696D01*
X85700412Y-95750195D01*
X85668890Y-95812549D01*
X85649595Y-95829269D01*
X85463594Y-95959508D01*
X85296505Y-96126597D01*
X85160965Y-96320169D01*
X85160964Y-96320171D01*
X85061098Y-96534335D01*
X85061094Y-96534344D01*
X84999938Y-96762586D01*
X84999936Y-96762596D01*
X84979341Y-96997999D01*
X84979341Y-96998000D01*
X84999936Y-97233403D01*
X84999938Y-97233413D01*
X85061094Y-97461655D01*
X85061096Y-97461659D01*
X85061097Y-97461663D01*
X85160965Y-97675830D01*
X85160967Y-97675834D01*
X85296501Y-97869395D01*
X85296506Y-97869402D01*
X85463597Y-98036493D01*
X85463603Y-98036498D01*
X85649158Y-98166425D01*
X85692783Y-98221002D01*
X85699977Y-98290500D01*
X85668454Y-98352855D01*
X85649158Y-98369575D01*
X85463597Y-98499505D01*
X85296505Y-98666597D01*
X85160965Y-98860169D01*
X85160964Y-98860171D01*
X85061098Y-99074335D01*
X85061094Y-99074344D01*
X84999938Y-99302586D01*
X84999936Y-99302596D01*
X84979341Y-99537999D01*
X84979341Y-99538000D01*
X84999936Y-99773403D01*
X84999938Y-99773413D01*
X85061094Y-100001655D01*
X85061096Y-100001659D01*
X85061097Y-100001663D01*
X85160965Y-100215830D01*
X85160967Y-100215834D01*
X85296501Y-100409395D01*
X85296506Y-100409402D01*
X85463597Y-100576493D01*
X85463603Y-100576498D01*
X85649158Y-100706425D01*
X85692783Y-100761002D01*
X85699977Y-100830500D01*
X85668454Y-100892855D01*
X85649158Y-100909575D01*
X85463597Y-101039505D01*
X85296505Y-101206597D01*
X85160965Y-101400169D01*
X85160964Y-101400171D01*
X85061098Y-101614335D01*
X85061094Y-101614344D01*
X84999938Y-101842586D01*
X84999936Y-101842596D01*
X84979341Y-102077999D01*
X84979341Y-102078000D01*
X84999936Y-102313403D01*
X84999938Y-102313413D01*
X85061094Y-102541655D01*
X85061096Y-102541659D01*
X85061097Y-102541663D01*
X85160965Y-102755830D01*
X85160967Y-102755834D01*
X85296501Y-102949395D01*
X85296506Y-102949402D01*
X85463597Y-103116493D01*
X85463603Y-103116498D01*
X85649158Y-103246425D01*
X85692783Y-103301002D01*
X85699977Y-103370500D01*
X85668454Y-103432855D01*
X85649158Y-103449575D01*
X85463597Y-103579505D01*
X85296505Y-103746597D01*
X85160965Y-103940169D01*
X85160964Y-103940171D01*
X85061098Y-104154335D01*
X85061094Y-104154344D01*
X84999938Y-104382586D01*
X84999936Y-104382596D01*
X84979341Y-104617999D01*
X84979341Y-104618000D01*
X84999936Y-104853403D01*
X84999938Y-104853413D01*
X85061094Y-105081655D01*
X85061096Y-105081659D01*
X85061097Y-105081663D01*
X85136527Y-105243423D01*
X85160965Y-105295830D01*
X85160967Y-105295834D01*
X85296501Y-105489395D01*
X85296506Y-105489402D01*
X85463597Y-105656493D01*
X85463603Y-105656498D01*
X85649158Y-105786425D01*
X85692783Y-105841002D01*
X85699977Y-105910500D01*
X85668454Y-105972855D01*
X85649158Y-105989575D01*
X85463597Y-106119505D01*
X85296505Y-106286597D01*
X85160965Y-106480169D01*
X85160964Y-106480171D01*
X85061098Y-106694335D01*
X85061094Y-106694344D01*
X84999938Y-106922586D01*
X84999936Y-106922596D01*
X84979341Y-107157999D01*
X84979341Y-107158000D01*
X79310131Y-107158000D01*
X79310131Y-69913840D01*
X79310210Y-69911631D01*
X80197226Y-69911631D01*
X80215718Y-70063930D01*
X80215719Y-70063935D01*
X80270122Y-70207382D01*
X80270122Y-70207383D01*
X80321856Y-70282331D01*
X80354693Y-70329904D01*
X80357276Y-70333645D01*
X80472108Y-70435378D01*
X80472109Y-70435378D01*
X80472111Y-70435380D01*
X80607957Y-70506678D01*
X80631132Y-70512390D01*
X80635542Y-70513652D01*
X80637780Y-70514382D01*
X80637783Y-70514384D01*
X80642531Y-70515289D01*
X80645726Y-70515987D01*
X80756919Y-70543394D01*
X80756920Y-70543394D01*
X80774891Y-70543394D01*
X80780365Y-70545001D01*
X80803962Y-70543516D01*
X80807857Y-70543394D01*
X80910341Y-70543394D01*
X80910341Y-70543393D01*
X80919760Y-70541071D01*
X80925936Y-70539550D01*
X80934670Y-70539933D01*
X80964869Y-70530121D01*
X80969181Y-70528890D01*
X81059301Y-70506678D01*
X81072995Y-70499490D01*
X81084363Y-70497212D01*
X81096877Y-70489271D01*
X81096894Y-70489261D01*
X81103472Y-70485086D01*
X81103476Y-70485085D01*
X81115831Y-70477243D01*
X81120212Y-70474708D01*
X81169361Y-70448913D01*
X81195144Y-70435382D01*
X81195145Y-70435380D01*
X81195147Y-70435380D01*
X81206945Y-70424927D01*
X81219863Y-70418854D01*
X81232261Y-70405653D01*
X81232280Y-70405635D01*
X81237607Y-70399961D01*
X81237610Y-70399960D01*
X81247959Y-70388938D01*
X81252006Y-70385006D01*
X81309983Y-70333644D01*
X81319466Y-70319904D01*
X81332528Y-70309318D01*
X81353524Y-70271126D01*
X81356823Y-70265783D01*
X81383950Y-70226485D01*
X81397132Y-70207389D01*
X81397133Y-70207386D01*
X81397136Y-70207382D01*
X81403553Y-70190460D01*
X81415133Y-70175165D01*
X81419000Y-70160107D01*
X81430441Y-70131208D01*
X81436854Y-70119541D01*
X81442980Y-70086499D01*
X81451539Y-70063932D01*
X81458090Y-70009972D01*
X81459582Y-70002049D01*
X81462403Y-69991064D01*
X81462403Y-69991060D01*
X81463118Y-69988277D01*
X81463122Y-69988257D01*
X81469275Y-69964293D01*
X81467394Y-69933354D01*
X81470032Y-69911631D01*
X81469763Y-69909419D01*
X81468598Y-69899823D01*
X81467394Y-69889906D01*
X81471255Y-69866680D01*
X81464100Y-69838811D01*
X81462403Y-69832201D01*
X81462403Y-69832198D01*
X81459584Y-69821222D01*
X81458089Y-69813274D01*
X81457653Y-69809680D01*
X81451539Y-69759330D01*
X81442979Y-69736761D01*
X81441630Y-69719261D01*
X125093597Y-69719261D01*
X125112089Y-69871561D01*
X125112090Y-69871566D01*
X125166493Y-70015013D01*
X125166493Y-70015014D01*
X125226651Y-70102166D01*
X125251064Y-70137535D01*
X125253647Y-70141276D01*
X125368479Y-70243009D01*
X125368480Y-70243009D01*
X125368482Y-70243011D01*
X125504328Y-70314309D01*
X125527503Y-70320021D01*
X125531913Y-70321283D01*
X125534151Y-70322013D01*
X125534154Y-70322015D01*
X125538902Y-70322920D01*
X125542097Y-70323618D01*
X125653290Y-70351025D01*
X125653291Y-70351025D01*
X125671262Y-70351025D01*
X125676736Y-70352632D01*
X125700333Y-70351147D01*
X125704228Y-70351025D01*
X125806712Y-70351025D01*
X125806712Y-70351024D01*
X125816131Y-70348702D01*
X125822307Y-70347181D01*
X125831041Y-70347564D01*
X125861240Y-70337752D01*
X125865552Y-70336521D01*
X125955672Y-70314309D01*
X125969366Y-70307121D01*
X125980734Y-70304843D01*
X125993248Y-70296902D01*
X125993265Y-70296892D01*
X125999843Y-70292717D01*
X125999847Y-70292716D01*
X126012202Y-70284874D01*
X126016583Y-70282339D01*
X126065732Y-70256544D01*
X126091515Y-70243013D01*
X126091516Y-70243011D01*
X126091518Y-70243011D01*
X126103316Y-70232558D01*
X126116234Y-70226485D01*
X126128632Y-70213284D01*
X126128651Y-70213266D01*
X126133978Y-70207592D01*
X126133981Y-70207591D01*
X126144330Y-70196569D01*
X126148377Y-70192637D01*
X126206354Y-70141275D01*
X126215837Y-70127535D01*
X126228899Y-70116949D01*
X126249895Y-70078757D01*
X126253194Y-70073414D01*
X126275882Y-70040545D01*
X126293503Y-70015020D01*
X126293504Y-70015017D01*
X126293507Y-70015013D01*
X126299924Y-69998091D01*
X126311504Y-69982796D01*
X126315371Y-69967738D01*
X126326812Y-69938839D01*
X126333225Y-69927172D01*
X126339351Y-69894130D01*
X126347910Y-69871563D01*
X126354461Y-69817603D01*
X126355953Y-69809680D01*
X126358774Y-69798695D01*
X126358774Y-69798691D01*
X126359489Y-69795908D01*
X126359493Y-69795888D01*
X126365646Y-69771924D01*
X126363765Y-69740985D01*
X126366403Y-69719262D01*
X126363765Y-69697537D01*
X126367626Y-69674310D01*
X126360263Y-69645632D01*
X126358774Y-69639831D01*
X126358774Y-69639829D01*
X126355957Y-69628857D01*
X126354460Y-69620904D01*
X126353850Y-69615877D01*
X126347910Y-69566961D01*
X126339350Y-69544392D01*
X126337387Y-69518922D01*
X126326812Y-69499685D01*
X126315369Y-69470783D01*
X126313115Y-69462003D01*
X126299924Y-69440433D01*
X126293507Y-69423511D01*
X126253201Y-69365118D01*
X126249892Y-69359762D01*
X126231634Y-69326550D01*
X126215840Y-69310992D01*
X126206354Y-69297249D01*
X126206352Y-69297247D01*
X126148390Y-69245897D01*
X126144315Y-69241938D01*
X126133981Y-69230933D01*
X126133978Y-69230931D01*
X126129975Y-69226668D01*
X126129974Y-69226667D01*
X126119535Y-69215551D01*
X126103320Y-69205968D01*
X126091522Y-69195516D01*
X126091520Y-69195514D01*
X126091518Y-69195513D01*
X126060330Y-69179144D01*
X126016603Y-69156193D01*
X126012196Y-69153644D01*
X125992083Y-69140881D01*
X125992078Y-69140878D01*
X125984041Y-69135778D01*
X125969370Y-69131404D01*
X125955670Y-69124214D01*
X125955669Y-69124213D01*
X125865560Y-69102003D01*
X125861239Y-69100770D01*
X125833853Y-69091871D01*
X125822318Y-69091345D01*
X125806713Y-69087499D01*
X125806710Y-69087499D01*
X125704198Y-69087499D01*
X125700325Y-69087377D01*
X125692465Y-69086883D01*
X125685637Y-69086453D01*
X125685582Y-69086453D01*
X125678632Y-69086016D01*
X125671258Y-69087499D01*
X125653288Y-69087499D01*
X125542242Y-69114869D01*
X125539021Y-69115572D01*
X125534128Y-69116505D01*
X125534071Y-69116535D01*
X125531665Y-69117313D01*
X125527420Y-69118522D01*
X125504329Y-69124214D01*
X125504324Y-69124216D01*
X125368483Y-69195511D01*
X125368481Y-69195513D01*
X125253647Y-69297247D01*
X125166493Y-69423509D01*
X125166493Y-69423510D01*
X125112090Y-69566957D01*
X125112089Y-69566962D01*
X125093597Y-69719261D01*
X81441630Y-69719261D01*
X81441016Y-69711291D01*
X81430441Y-69692054D01*
X81418998Y-69663152D01*
X81416744Y-69654372D01*
X81403553Y-69632802D01*
X81397136Y-69615880D01*
X81397134Y-69615877D01*
X81356830Y-69557487D01*
X81353521Y-69552131D01*
X81335263Y-69518919D01*
X81319469Y-69503361D01*
X81309983Y-69489618D01*
X81252029Y-69438274D01*
X81247945Y-69434307D01*
X81233606Y-69419039D01*
X81233603Y-69419036D01*
X81223164Y-69407920D01*
X81206949Y-69398337D01*
X81195151Y-69387885D01*
X81195149Y-69387883D01*
X81195147Y-69387882D01*
X81173464Y-69376502D01*
X81120232Y-69348562D01*
X81115825Y-69346013D01*
X81095712Y-69333250D01*
X81095707Y-69333247D01*
X81087670Y-69328147D01*
X81072999Y-69323773D01*
X81059299Y-69316583D01*
X81059298Y-69316582D01*
X80969189Y-69294372D01*
X80964868Y-69293139D01*
X80937482Y-69284240D01*
X80925947Y-69283714D01*
X80910342Y-69279868D01*
X80910339Y-69279868D01*
X80807827Y-69279868D01*
X80803954Y-69279746D01*
X80796094Y-69279252D01*
X80789266Y-69278822D01*
X80789211Y-69278822D01*
X80782261Y-69278385D01*
X80774887Y-69279868D01*
X80756917Y-69279868D01*
X80645871Y-69307238D01*
X80642650Y-69307941D01*
X80637757Y-69308874D01*
X80637700Y-69308904D01*
X80635294Y-69309682D01*
X80631049Y-69310891D01*
X80607958Y-69316583D01*
X80607953Y-69316585D01*
X80472112Y-69387880D01*
X80472110Y-69387882D01*
X80357276Y-69489616D01*
X80270122Y-69615878D01*
X80270122Y-69615879D01*
X80215719Y-69759326D01*
X80215718Y-69759331D01*
X80197226Y-69911631D01*
X79310210Y-69911631D01*
X79310289Y-69909417D01*
X79315114Y-69841934D01*
X79326960Y-69691395D01*
X79328186Y-69683079D01*
X79349063Y-69587104D01*
X79377587Y-69468286D01*
X79379776Y-69461121D01*
X79416209Y-69363435D01*
X79461001Y-69255298D01*
X79463858Y-69249328D01*
X79465727Y-69245906D01*
X79514328Y-69156897D01*
X79515850Y-69154269D01*
X79575364Y-69057150D01*
X79578568Y-69052429D01*
X79642233Y-68967380D01*
X79644692Y-68964306D01*
X79718164Y-68878280D01*
X79721424Y-68874754D01*
X79796754Y-68799424D01*
X79800280Y-68796164D01*
X79886306Y-68722692D01*
X79889380Y-68720233D01*
X79974429Y-68656568D01*
X79979150Y-68653364D01*
X80076269Y-68593850D01*
X80078897Y-68592328D01*
X80171335Y-68541854D01*
X80177298Y-68539001D01*
X80285435Y-68494209D01*
X80383121Y-68457776D01*
X80390286Y-68455587D01*
X80509104Y-68427063D01*
X80605084Y-68406185D01*
X80613395Y-68404960D01*
X80763934Y-68393114D01*
X80831425Y-68388288D01*
X80835840Y-68388131D01*
X125666160Y-68388131D01*
X125670574Y-68388288D01*
G37*
%TD.AperFunction*%
%TD*%
M02*
