%TF.GenerationSoftware,KiCad,Pcbnew,7.0.7*%
%TF.CreationDate,2023-09-27T10:02:53+02:00*%
%TF.ProjectId,EEE4022S_KiCad,45454534-3032-4325-935f-4b694361642e,rev?*%
%TF.SameCoordinates,Original*%
%TF.FileFunction,Copper,L1,Top*%
%TF.FilePolarity,Positive*%
%FSLAX46Y46*%
G04 Gerber Fmt 4.6, Leading zero omitted, Abs format (unit mm)*
G04 Created by KiCad (PCBNEW 7.0.7) date 2023-09-27 10:02:53*
%MOMM*%
%LPD*%
G01*
G04 APERTURE LIST*
%TA.AperFunction,ComponentPad*%
%ADD10O,1.700000X1.700000*%
%TD*%
%TA.AperFunction,ComponentPad*%
%ADD11R,1.700000X1.700000*%
%TD*%
%TA.AperFunction,ViaPad*%
%ADD12C,0.800000*%
%TD*%
%TA.AperFunction,Conductor*%
%ADD13C,0.254000*%
%TD*%
G04 APERTURE END LIST*
D10*
%TO.P,U5,1,TXD*%
%TO.N,A3*%
X49684000Y-108956000D03*
%TO.P,U5,2,RXD*%
%TO.N,A2*%
X49684000Y-106416000D03*
%TO.P,U5,3,+5V*%
%TO.N,5V*%
X49684000Y-103876000D03*
%TO.P,U5,4,GND*%
%TO.N,GND*%
X49684000Y-101336000D03*
%TD*%
D11*
%TO.P,U3,1,VCC*%
%TO.N,3V3*%
X96262600Y-75410000D03*
D10*
%TO.P,U3,2,RX*%
%TO.N,Net-(U1-A9)*%
X98802600Y-75410000D03*
%TO.P,U3,3,TX*%
%TO.N,Net-(U1-A10)*%
X101342600Y-75410000D03*
%TO.P,U3,4,GND*%
%TO.N,GND*%
X103882600Y-75410000D03*
%TD*%
%TO.P,U6,*%
%TO.N,*%
X33020000Y-143764000D03*
X35560000Y-143764000D03*
%TO.P,U6,1,GND*%
%TO.N,GND*%
X33020000Y-136144000D03*
%TO.P,U6,2,PIN*%
%TO.N,B13*%
X35560000Y-136144000D03*
%TD*%
%TO.P,U4,1,CS*%
%TO.N,unconnected-(U4-CS-Pad1)*%
X61722000Y-99314000D03*
%TO.P,U4,2,ADDR/MISO*%
%TO.N,unconnected-(U4-ADDR{slash}MISO-Pad2)*%
X64262000Y-99314000D03*
%TO.P,U4,3,SCL/SCK*%
%TO.N,B6*%
X66802000Y-99314000D03*
%TO.P,U4,4,SDA/MOSI*%
%TO.N,B7*%
X69342000Y-99314000D03*
%TO.P,U4,5,GND*%
%TO.N,GND*%
X71882000Y-99314000D03*
%TO.P,U4,6,VCC*%
%TO.N,3V3*%
X74422000Y-99314000D03*
%TD*%
%TO.P,U7,*%
%TO.N,*%
X45212000Y-143764000D03*
X47752000Y-143764000D03*
%TO.P,U7,1,GND*%
%TO.N,GND*%
X45212000Y-136144000D03*
%TO.P,U7,2,PIN*%
%TO.N,A5*%
X47752000Y-136144000D03*
%TD*%
%TO.P,B1,1,5V_Out*%
%TO.N,5V*%
X104944000Y-41072000D03*
%TO.P,B1,2,GND*%
%TO.N,GND*%
X102404000Y-41072000D03*
%TD*%
%TO.P,U1,1,VB*%
%TO.N,unconnected-(U1-VB-Pad1)*%
X83058000Y-76200000D03*
%TO.P,U1,2,C13*%
%TO.N,unconnected-(U1-C13-Pad2)*%
X80518000Y-76200000D03*
%TO.P,U1,3,C14*%
%TO.N,unconnected-(U1-C14-Pad3)*%
X77978000Y-76200000D03*
%TO.P,U1,4,C15*%
%TO.N,unconnected-(U1-C15-Pad4)*%
X75438000Y-76200000D03*
%TO.P,U1,5,R*%
%TO.N,unconnected-(U1-R-Pad5)*%
X72898000Y-76200000D03*
%TO.P,U1,6,A0*%
%TO.N,unconnected-(U1-A0-Pad6)*%
X70358000Y-76200000D03*
%TO.P,U1,7,A1*%
%TO.N,unconnected-(U1-A1-Pad7)*%
X67818000Y-76200000D03*
%TO.P,U1,8,A2*%
%TO.N,A2*%
X65278000Y-76200000D03*
%TO.P,U1,9,A3*%
%TO.N,A3*%
X62738000Y-76200000D03*
%TO.P,U1,10,A4*%
%TO.N,A4*%
X60198000Y-76200000D03*
%TO.P,U1,11,A5*%
%TO.N,A5*%
X57658000Y-76200000D03*
%TO.P,U1,12,A6*%
%TO.N,unconnected-(U1-A6-Pad12)*%
X55118000Y-76200000D03*
%TO.P,U1,13,A7*%
%TO.N,unconnected-(U1-A7-Pad13)*%
X52578000Y-76200000D03*
%TO.P,U1,14,B0*%
%TO.N,unconnected-(U1-B0-Pad14)*%
X50038000Y-76200000D03*
%TO.P,U1,15,B1*%
%TO.N,unconnected-(U1-B1-Pad15)*%
X47498000Y-76200000D03*
%TO.P,U1,16,B2*%
%TO.N,unconnected-(U1-B2-Pad16)*%
X44958000Y-76200000D03*
%TO.P,U1,17,B10*%
%TO.N,B10*%
X42418000Y-76200000D03*
%TO.P,U1,18,3V3*%
%TO.N,unconnected-(U1-3V3-Pad18)*%
X39878000Y-76200000D03*
%TO.P,U1,19,G*%
%TO.N,GND*%
X37338000Y-76200000D03*
%TO.P,U1,20,5V*%
%TO.N,5V*%
X34798000Y-76200000D03*
%TO.P,U1,21,3V3*%
%TO.N,3V3*%
X83058000Y-91440000D03*
%TO.P,U1,22,G*%
%TO.N,GND*%
X80518000Y-91440000D03*
%TO.P,U1,23,5V*%
%TO.N,unconnected-(U1-5V-Pad23)*%
X77978000Y-91440000D03*
%TO.P,U1,24,B9*%
%TO.N,B9*%
X75438000Y-91440000D03*
%TO.P,U1,25,B8*%
%TO.N,B8*%
X72898000Y-91440000D03*
%TO.P,U1,26,B7*%
%TO.N,B7*%
X70358000Y-91440000D03*
%TO.P,U1,27,B6*%
%TO.N,B6*%
X67818000Y-91440000D03*
%TO.P,U1,28,B5*%
%TO.N,B5*%
X65278000Y-91440000D03*
%TO.P,U1,29,B4*%
%TO.N,B4*%
X62738000Y-91440000D03*
%TO.P,U1,30,B3*%
%TO.N,B3*%
X60198000Y-91440000D03*
%TO.P,U1,31,A15*%
%TO.N,unconnected-(U1-A15-Pad31)*%
X57658000Y-91440000D03*
%TO.P,U1,32,A12*%
%TO.N,unconnected-(U1-A12-Pad32)*%
X55118000Y-91440000D03*
%TO.P,U1,33,A11*%
%TO.N,unconnected-(U1-A11-Pad33)*%
X52578000Y-91440000D03*
%TO.P,U1,34,A10*%
%TO.N,Net-(U1-A10)*%
X50038000Y-91440000D03*
%TO.P,U1,35,A9*%
%TO.N,Net-(U1-A9)*%
X47498000Y-91440000D03*
%TO.P,U1,36,A8*%
%TO.N,unconnected-(U1-A8-Pad36)*%
X44958000Y-91440000D03*
%TO.P,U1,37,B15*%
%TO.N,unconnected-(U1-B15-Pad37)*%
X42418000Y-91440000D03*
%TO.P,U1,38,B14*%
%TO.N,unconnected-(U1-B14-Pad38)*%
X39878000Y-91440000D03*
%TO.P,U1,39,B13*%
%TO.N,B13*%
X37338000Y-91440000D03*
%TO.P,U1,40,B12*%
%TO.N,B12*%
X34798000Y-91440000D03*
%TD*%
%TO.P,U8,1,GND*%
%TO.N,GND*%
X36576000Y-123444000D03*
%TO.P,U8,2,VCC*%
%TO.N,5V*%
X39116000Y-123444000D03*
%TO.P,U8,3,SCL*%
%TO.N,B3*%
X41656000Y-123444000D03*
%TO.P,U8,4,SDA*%
%TO.N,B10*%
X44196000Y-123444000D03*
%TD*%
D11*
%TO.P,U2,1,GND*%
%TO.N,GND*%
X87376000Y-141732000D03*
D10*
%TO.P,U2,2,NSS*%
%TO.N,A4*%
X89916000Y-141732000D03*
%TO.P,U2,3,MOSI*%
%TO.N,B5*%
X92456000Y-141732000D03*
%TO.P,U2,4,MISO*%
%TO.N,B4*%
X94996000Y-141732000D03*
%TO.P,U2,5,SCK*%
%TO.N,B12*%
X97536000Y-141732000D03*
%TO.P,U2,6,DIO5*%
%TO.N,unconnected-(U2-DIO5-Pad6)*%
X100076000Y-141732000D03*
%TO.P,U2,7,DIO4*%
%TO.N,unconnected-(U2-DIO4-Pad7)*%
X102616000Y-141732000D03*
%TO.P,U2,8,GND*%
%TO.N,GND*%
X105156000Y-141732000D03*
D11*
%TO.P,U2,9,GND*%
X87376000Y-167132000D03*
D10*
%TO.P,U2,10,GND*%
X89916000Y-167132000D03*
%TO.P,U2,11,3.3V*%
%TO.N,3V3*%
X92456000Y-167132000D03*
%TO.P,U2,12,RST*%
%TO.N,B8*%
X94996000Y-167132000D03*
%TO.P,U2,13,DIO0*%
%TO.N,B9*%
X97536000Y-167132000D03*
%TO.P,U2,14,DIO1*%
%TO.N,unconnected-(U2-DIO1-Pad14)*%
X100076000Y-167132000D03*
%TO.P,U2,15,DIO2*%
%TO.N,unconnected-(U2-DIO2-Pad15)*%
X102616000Y-167132000D03*
%TO.P,U2,16,DIO3*%
%TO.N,unconnected-(U2-DIO3-Pad16)*%
X105156000Y-167132000D03*
%TD*%
D12*
%TO.N,5V*%
X36576000Y-80772000D03*
%TO.N,GND*%
X32258000Y-133604000D03*
%TO.N,A2*%
X32258000Y-72136000D03*
X58166000Y-72136000D03*
%TO.N,A3*%
X39370000Y-85852000D03*
X40640000Y-83058000D03*
%TO.N,A4*%
X70358000Y-78486000D03*
%TO.N,A5*%
X33020000Y-70866000D03*
X63754000Y-72136000D03*
X64770000Y-73660000D03*
%TO.N,B10*%
X39116000Y-81788000D03*
X33782000Y-87122000D03*
X48260000Y-118110000D03*
%TO.N,3V3*%
X64262000Y-133096000D03*
%TO.N,B8*%
X64262000Y-94742000D03*
X66548000Y-133096000D03*
X66548000Y-109220000D03*
%TO.N,B4*%
X61722000Y-96774000D03*
X57912000Y-109220000D03*
%TO.N,B13*%
X36068000Y-99568000D03*
%TO.N,B12*%
X44958000Y-107442000D03*
%TD*%
D13*
%TO.N,5V*%
X38862000Y-96520000D02*
X36322000Y-93980000D01*
X36322000Y-93980000D02*
X35052000Y-93980000D01*
X32512000Y-92964000D02*
X32512000Y-84836000D01*
X46218000Y-103876000D02*
X38862000Y-96520000D01*
X35052000Y-93980000D02*
X33528000Y-93980000D01*
X33528000Y-93980000D02*
X32512000Y-92964000D01*
X49684000Y-103876000D02*
X46218000Y-103876000D01*
X32512000Y-84836000D02*
X36576000Y-80772000D01*
%TO.N,GND*%
X33020000Y-134366000D02*
X32258000Y-133604000D01*
X33020000Y-136144000D02*
X33020000Y-134366000D01*
%TO.N,A2*%
X31242000Y-73152000D02*
X32258000Y-72136000D01*
X46345000Y-106416000D02*
X35433000Y-95504000D01*
X31242000Y-93218000D02*
X31242000Y-73152000D01*
X31242000Y-93726000D02*
X31242000Y-93218000D01*
X33020000Y-95504000D02*
X31242000Y-93726000D01*
X61214000Y-72136000D02*
X65278000Y-76200000D01*
X35433000Y-95504000D02*
X33020000Y-95504000D01*
X49684000Y-106416000D02*
X46345000Y-106416000D01*
X58166000Y-72136000D02*
X61214000Y-72136000D01*
%TO.N,A3*%
X40640000Y-84582000D02*
X40640000Y-83058000D01*
X39370000Y-85852000D02*
X40640000Y-84582000D01*
%TO.N,A4*%
X60198000Y-77978000D02*
X60198000Y-76200000D01*
X70358000Y-78486000D02*
X60706000Y-78486000D01*
X60706000Y-78486000D02*
X60198000Y-77978000D01*
%TO.N,A5*%
X47752000Y-136144000D02*
X47752000Y-134366000D01*
X33274000Y-116078000D02*
X36322000Y-113030000D01*
X40386000Y-102870000D02*
X40386000Y-102857866D01*
X31750000Y-70866000D02*
X33020000Y-70866000D01*
X30480000Y-95758000D02*
X30480000Y-72136000D01*
X40386000Y-108966000D02*
X40386000Y-102870000D01*
X36322000Y-113030000D02*
X40386000Y-108966000D01*
X64770000Y-73660000D02*
X64770000Y-73406000D01*
X38608000Y-132588000D02*
X33274000Y-127254000D01*
X40386000Y-102108000D02*
X36322000Y-98044000D01*
X64770000Y-73152000D02*
X64770000Y-73660000D01*
X40386000Y-102857866D02*
X40386000Y-102108000D01*
X63754000Y-72136000D02*
X64770000Y-73152000D01*
X32766000Y-98044000D02*
X30480000Y-95758000D01*
X34036000Y-98044000D02*
X32766000Y-98044000D01*
X45974000Y-132588000D02*
X38608000Y-132588000D01*
X46736000Y-133350000D02*
X45974000Y-132588000D01*
X36322000Y-98044000D02*
X34036000Y-98044000D01*
X30480000Y-72136000D02*
X31750000Y-70866000D01*
X33274000Y-125476000D02*
X33274000Y-116078000D01*
X33274000Y-127254000D02*
X33274000Y-125476000D01*
X47752000Y-134366000D02*
X46736000Y-133350000D01*
%TO.N,B10*%
X48260000Y-119380000D02*
X48260000Y-118110000D01*
X33782000Y-87122000D02*
X39116000Y-81788000D01*
X44196000Y-123444000D02*
X48260000Y-119380000D01*
%TO.N,3V3*%
X74422000Y-99314000D02*
X76200000Y-99314000D01*
X86106000Y-91440000D02*
X83058000Y-91440000D01*
X83058000Y-93980000D02*
X83058000Y-91440000D01*
X80264000Y-95250000D02*
X81788000Y-95250000D01*
X64262000Y-138938000D02*
X64262000Y-133096000D01*
X81788000Y-95250000D02*
X83058000Y-93980000D01*
X96262600Y-81283400D02*
X86106000Y-91440000D01*
X76200000Y-99314000D02*
X80264000Y-95250000D01*
X92456000Y-167132000D02*
X64262000Y-138938000D01*
X96262600Y-75410000D02*
X96262600Y-81283400D01*
%TO.N,B8*%
X58928000Y-101854000D02*
X58928000Y-97028000D01*
X94996000Y-167132000D02*
X94996000Y-164338000D01*
X58928000Y-97028000D02*
X61214000Y-94742000D01*
X66548000Y-135890000D02*
X66548000Y-133096000D01*
X63500000Y-103378000D02*
X60452000Y-103378000D01*
X66548000Y-109220000D02*
X66548000Y-106426000D01*
X66548000Y-106426000D02*
X63500000Y-103378000D01*
X60452000Y-103378000D02*
X58928000Y-101854000D01*
X92456000Y-161798000D02*
X66548000Y-135890000D01*
X61214000Y-94742000D02*
X64262000Y-94742000D01*
X94996000Y-164338000D02*
X92456000Y-161798000D01*
%TO.N,B7*%
X70358000Y-94488000D02*
X70358000Y-91440000D01*
X69342000Y-95504000D02*
X70358000Y-94488000D01*
X69342000Y-99314000D02*
X69342000Y-95504000D01*
%TO.N,B6*%
X66802000Y-95504000D02*
X67818000Y-94488000D01*
X66802000Y-99314000D02*
X66802000Y-95504000D01*
X67818000Y-94488000D02*
X67818000Y-91440000D01*
%TO.N,B4*%
X94996000Y-137414000D02*
X84582000Y-127000000D01*
X62738000Y-92710000D02*
X62738000Y-91440000D01*
X65278000Y-93472000D02*
X63500000Y-93472000D01*
X61722000Y-96774000D02*
X63754000Y-96774000D01*
X68580000Y-110998000D02*
X59690000Y-110998000D01*
X59690000Y-110998000D02*
X57912000Y-109220000D01*
X63500000Y-93472000D02*
X62738000Y-92710000D01*
X94996000Y-141732000D02*
X94996000Y-137414000D01*
X65786000Y-93980000D02*
X65278000Y-93472000D01*
X84582000Y-127000000D02*
X68580000Y-110998000D01*
X65786000Y-94742000D02*
X65786000Y-93980000D01*
X63754000Y-96774000D02*
X65786000Y-94742000D01*
%TO.N,B3*%
X60198000Y-94488000D02*
X60198000Y-91440000D01*
X58166000Y-96520000D02*
X60198000Y-94488000D01*
X41656000Y-123444000D02*
X58166000Y-106934000D01*
X58166000Y-106934000D02*
X58166000Y-96520000D01*
%TO.N,Net-(U1-A9)*%
X98806000Y-72644000D02*
X98806000Y-72390000D01*
X32004000Y-74168000D02*
X32004000Y-78232000D01*
X34798000Y-71374000D02*
X32004000Y-74168000D01*
X33528000Y-79756000D02*
X39116000Y-79756000D01*
X39116000Y-79756000D02*
X47498000Y-88138000D01*
X98806000Y-72390000D02*
X97790000Y-71374000D01*
X47498000Y-88138000D02*
X47498000Y-91440000D01*
X32004000Y-78232000D02*
X33528000Y-79756000D01*
X98802600Y-75410000D02*
X98802600Y-72647400D01*
X97790000Y-71374000D02*
X34798000Y-71374000D01*
X98802600Y-72647400D02*
X98806000Y-72644000D01*
%TO.N,B13*%
X38862000Y-108204000D02*
X38862000Y-102362000D01*
X35560000Y-132588000D02*
X32004000Y-129032000D01*
X35560000Y-136144000D02*
X35560000Y-132588000D01*
X32004000Y-115062000D02*
X34290000Y-112776000D01*
X38862000Y-102362000D02*
X36068000Y-99568000D01*
X32004000Y-129032000D02*
X32004000Y-115062000D01*
X34290000Y-112776000D02*
X38862000Y-108204000D01*
%TO.N,B12*%
X37846000Y-130302000D02*
X34036000Y-126492000D01*
X34036000Y-126492000D02*
X34036000Y-120650000D01*
X34798000Y-119888000D02*
X38608000Y-119888000D01*
X45466000Y-107950000D02*
X44958000Y-107442000D01*
X45466000Y-113030000D02*
X45466000Y-107950000D01*
X38608000Y-119888000D02*
X45466000Y-113030000D01*
X82296000Y-145796000D02*
X66802000Y-130302000D01*
X97536000Y-141732000D02*
X97536000Y-144018000D01*
X34036000Y-120650000D02*
X34798000Y-119888000D01*
X95758000Y-145796000D02*
X82296000Y-145796000D01*
X66802000Y-130302000D02*
X37846000Y-130302000D01*
X97536000Y-144018000D02*
X95758000Y-145796000D01*
%TD*%
%TA.AperFunction,Conductor*%
%TO.N,GND*%
G36*
X89369692Y-166901685D02*
G01*
X89415447Y-166954489D01*
X89425391Y-167023647D01*
X89421631Y-167040933D01*
X89416000Y-167060111D01*
X89416000Y-167203888D01*
X89421631Y-167223067D01*
X89421630Y-167292936D01*
X89383855Y-167351714D01*
X89320299Y-167380738D01*
X89302653Y-167382000D01*
X87989347Y-167382000D01*
X87922308Y-167362315D01*
X87876553Y-167309511D01*
X87866609Y-167240353D01*
X87870369Y-167223067D01*
X87876000Y-167203888D01*
X87876000Y-167060111D01*
X87870369Y-167040933D01*
X87870370Y-166971064D01*
X87908145Y-166912286D01*
X87971701Y-166883262D01*
X87989347Y-166882000D01*
X89302653Y-166882000D01*
X89369692Y-166901685D01*
G37*
%TD.AperFunction*%
%TA.AperFunction,Conductor*%
G36*
X112524207Y-24892657D02*
G01*
X112572129Y-24896085D01*
X112591629Y-24897480D01*
X112615386Y-24899349D01*
X112742233Y-24909332D01*
X112750552Y-24910560D01*
X112805602Y-24922535D01*
X112846479Y-24931427D01*
X112965320Y-24959959D01*
X112972519Y-24962157D01*
X113008335Y-24975515D01*
X113070181Y-24998582D01*
X113128505Y-25022742D01*
X113178307Y-25043371D01*
X113184297Y-25046237D01*
X113229528Y-25070934D01*
X113276730Y-25096708D01*
X113279363Y-25098232D01*
X113376472Y-25157741D01*
X113381185Y-25160939D01*
X113466268Y-25224632D01*
X113469334Y-25227085D01*
X113555305Y-25300511D01*
X113558881Y-25303817D01*
X113634181Y-25379117D01*
X113637487Y-25382693D01*
X113710901Y-25468649D01*
X113713373Y-25471738D01*
X113777053Y-25556805D01*
X113780264Y-25561536D01*
X113835220Y-25651217D01*
X113839753Y-25658614D01*
X113841306Y-25661296D01*
X113891761Y-25753701D01*
X113894627Y-25759690D01*
X113939423Y-25867834D01*
X113975841Y-25965479D01*
X113978039Y-25972677D01*
X114006573Y-26091525D01*
X114027439Y-26187446D01*
X114028666Y-26195769D01*
X114040519Y-26346368D01*
X114045342Y-26413791D01*
X114045500Y-26418216D01*
X114045502Y-172717785D01*
X114045344Y-172722209D01*
X114040522Y-172789633D01*
X114028669Y-172940232D01*
X114027441Y-172948555D01*
X114006573Y-173044488D01*
X113978042Y-173163323D01*
X113975844Y-173170521D01*
X113939428Y-173268159D01*
X113894629Y-173376313D01*
X113891763Y-173382304D01*
X113841315Y-173474693D01*
X113839762Y-173477374D01*
X113780272Y-173574454D01*
X113777040Y-173579217D01*
X113713399Y-173664231D01*
X113710910Y-173667343D01*
X113637483Y-173753315D01*
X113634177Y-173756891D01*
X113558891Y-173832177D01*
X113555315Y-173835483D01*
X113469343Y-173908910D01*
X113466231Y-173911399D01*
X113381217Y-173975040D01*
X113376454Y-173978272D01*
X113279374Y-174037762D01*
X113276693Y-174039315D01*
X113184304Y-174089763D01*
X113178313Y-174092629D01*
X113070159Y-174137428D01*
X112972521Y-174173844D01*
X112965323Y-174176042D01*
X112846488Y-174204573D01*
X112750554Y-174225441D01*
X112742231Y-174226669D01*
X112621773Y-174236150D01*
X112591717Y-174238516D01*
X112575566Y-174239671D01*
X112524211Y-174243343D01*
X112519788Y-174243501D01*
X31498215Y-174243501D01*
X31493790Y-174243343D01*
X31426367Y-174238520D01*
X31275768Y-174226667D01*
X31267445Y-174225440D01*
X31171497Y-174204568D01*
X31052689Y-174176044D01*
X31045489Y-174173846D01*
X30947823Y-174137419D01*
X30839692Y-174092629D01*
X30833701Y-174089763D01*
X30741292Y-174039304D01*
X30738611Y-174037751D01*
X30641555Y-173978276D01*
X30636791Y-173975044D01*
X30551752Y-173911384D01*
X30548652Y-173908903D01*
X30462677Y-173835474D01*
X30459111Y-173832177D01*
X30383821Y-173756887D01*
X30380519Y-173753315D01*
X30307089Y-173667340D01*
X30304614Y-173664246D01*
X30304603Y-173664231D01*
X30240945Y-173579194D01*
X30237727Y-173574451D01*
X30191717Y-173499368D01*
X30178247Y-173477387D01*
X30176694Y-173474706D01*
X30126235Y-173382297D01*
X30123369Y-173376306D01*
X30078580Y-173268176D01*
X30053775Y-173201672D01*
X30042150Y-173170504D01*
X30039957Y-173163319D01*
X30011432Y-173044507D01*
X29990559Y-172948553D01*
X29989331Y-172940234D01*
X29977487Y-172789750D01*
X29972654Y-172722180D01*
X29972498Y-172717815D01*
X29972498Y-172466000D01*
X30652323Y-172466000D01*
X30671012Y-172667697D01*
X30726446Y-172862524D01*
X30726451Y-172862537D01*
X30816736Y-173043852D01*
X30938808Y-173205502D01*
X31041674Y-173299276D01*
X31088502Y-173341965D01*
X31260723Y-173448600D01*
X31292022Y-173460725D01*
X31295031Y-173461994D01*
X31297526Y-173462857D01*
X31449606Y-173521774D01*
X31482298Y-173527885D01*
X31485488Y-173528570D01*
X31491849Y-173530114D01*
X31502121Y-173531590D01*
X31648719Y-173558995D01*
X31648720Y-173558995D01*
X31683854Y-173558995D01*
X31691994Y-173559577D01*
X31692000Y-173559458D01*
X31697895Y-173559738D01*
X31697899Y-173559739D01*
X31697902Y-173559738D01*
X31697907Y-173559739D01*
X31705450Y-173559380D01*
X31705463Y-173559383D01*
X31712125Y-173559065D01*
X31715078Y-173558995D01*
X31851278Y-173558995D01*
X31851281Y-173558995D01*
X31894220Y-173550968D01*
X31902641Y-173549985D01*
X31905832Y-173549834D01*
X31905838Y-173549832D01*
X31908224Y-173549719D01*
X31908278Y-173549714D01*
X31941060Y-173548151D01*
X31971532Y-173536515D01*
X32050394Y-173521774D01*
X32094927Y-173504521D01*
X32102537Y-173502125D01*
X32106289Y-173501204D01*
X32108133Y-173500757D01*
X32108137Y-173500754D01*
X32113859Y-173499368D01*
X32113875Y-173499363D01*
X32140350Y-173492940D01*
X32166854Y-173476656D01*
X32229251Y-173452484D01*
X32239275Y-173448601D01*
X32239280Y-173448598D01*
X32283562Y-173421179D01*
X32290420Y-173417508D01*
X32297490Y-173414280D01*
X32297493Y-173414277D01*
X32303161Y-173411689D01*
X32304585Y-173411484D01*
X32308274Y-173409354D01*
X32325723Y-173401385D01*
X32347585Y-173381537D01*
X32411498Y-173341965D01*
X32453199Y-173303949D01*
X32458989Y-173299276D01*
X32466589Y-173293864D01*
X32469581Y-173292828D01*
X32476699Y-173286661D01*
X32490608Y-173276755D01*
X32507429Y-173254511D01*
X32561193Y-173205500D01*
X32597878Y-173156920D01*
X32602475Y-173151510D01*
X32605961Y-173147854D01*
X32610108Y-173145459D01*
X32618883Y-173134302D01*
X32629140Y-173123545D01*
X32640809Y-173100070D01*
X32683264Y-173043852D01*
X32709881Y-172990395D01*
X32717465Y-172982215D01*
X32718858Y-172978738D01*
X32729661Y-172957782D01*
X32736490Y-172947155D01*
X32743135Y-172923614D01*
X32773551Y-172862532D01*
X32773553Y-172862527D01*
X32774137Y-172860474D01*
X32790239Y-172803880D01*
X32797037Y-172793103D01*
X32798385Y-172786113D01*
X32805026Y-172763492D01*
X32808867Y-172753897D01*
X32810878Y-172731342D01*
X32828987Y-172667698D01*
X32835912Y-172592964D01*
X32836762Y-172586991D01*
X32840021Y-172570084D01*
X32840021Y-172570081D01*
X32840997Y-172565016D01*
X32840999Y-172565001D01*
X32843766Y-172550642D01*
X32841749Y-172529968D01*
X32847677Y-172466000D01*
X111043323Y-172466000D01*
X111062012Y-172667697D01*
X111117446Y-172862524D01*
X111117451Y-172862537D01*
X111207736Y-173043852D01*
X111329808Y-173205502D01*
X111432674Y-173299276D01*
X111479502Y-173341965D01*
X111651723Y-173448600D01*
X111683022Y-173460725D01*
X111686031Y-173461994D01*
X111688526Y-173462857D01*
X111840606Y-173521774D01*
X111873298Y-173527885D01*
X111876488Y-173528570D01*
X111882848Y-173530114D01*
X111882849Y-173530114D01*
X111893121Y-173531590D01*
X112039719Y-173558995D01*
X112039720Y-173558995D01*
X112074854Y-173558995D01*
X112082994Y-173559577D01*
X112083000Y-173559458D01*
X112088895Y-173559738D01*
X112088899Y-173559739D01*
X112088902Y-173559738D01*
X112088907Y-173559739D01*
X112096450Y-173559380D01*
X112096463Y-173559383D01*
X112103125Y-173559065D01*
X112106078Y-173558995D01*
X112242278Y-173558995D01*
X112242281Y-173558995D01*
X112285220Y-173550968D01*
X112293641Y-173549985D01*
X112296832Y-173549834D01*
X112296838Y-173549832D01*
X112299224Y-173549719D01*
X112299278Y-173549714D01*
X112332060Y-173548151D01*
X112362532Y-173536515D01*
X112441394Y-173521774D01*
X112485927Y-173504521D01*
X112493537Y-173502125D01*
X112497289Y-173501204D01*
X112499133Y-173500757D01*
X112499137Y-173500754D01*
X112504859Y-173499368D01*
X112504875Y-173499363D01*
X112531350Y-173492940D01*
X112557854Y-173476656D01*
X112620251Y-173452484D01*
X112630275Y-173448601D01*
X112630280Y-173448598D01*
X112674562Y-173421179D01*
X112681420Y-173417508D01*
X112688490Y-173414280D01*
X112688493Y-173414277D01*
X112694161Y-173411689D01*
X112695585Y-173411484D01*
X112699274Y-173409354D01*
X112716723Y-173401385D01*
X112738585Y-173381537D01*
X112802498Y-173341965D01*
X112844199Y-173303949D01*
X112849989Y-173299276D01*
X112857589Y-173293864D01*
X112860581Y-173292828D01*
X112867699Y-173286661D01*
X112881608Y-173276755D01*
X112898429Y-173254511D01*
X112952193Y-173205500D01*
X112988878Y-173156920D01*
X112993475Y-173151510D01*
X112996961Y-173147854D01*
X113001108Y-173145459D01*
X113009883Y-173134302D01*
X113020140Y-173123545D01*
X113031809Y-173100070D01*
X113074264Y-173043852D01*
X113100881Y-172990395D01*
X113108465Y-172982215D01*
X113109858Y-172978738D01*
X113120661Y-172957782D01*
X113127490Y-172947155D01*
X113134135Y-172923614D01*
X113164551Y-172862532D01*
X113164553Y-172862527D01*
X113165137Y-172860474D01*
X113181239Y-172803880D01*
X113188037Y-172793103D01*
X113189385Y-172786113D01*
X113196026Y-172763492D01*
X113199867Y-172753897D01*
X113201878Y-172731342D01*
X113219987Y-172667698D01*
X113226912Y-172592964D01*
X113227762Y-172586991D01*
X113231021Y-172570084D01*
X113231021Y-172570081D01*
X113231997Y-172565016D01*
X113231999Y-172565001D01*
X113234766Y-172550642D01*
X113232749Y-172529968D01*
X113238677Y-172466000D01*
X113232749Y-172402030D01*
X113235772Y-172386577D01*
X113231301Y-172363377D01*
X113231297Y-172363354D01*
X113231021Y-172361923D01*
X113231021Y-172361916D01*
X113227760Y-172345000D01*
X113226913Y-172339055D01*
X113219987Y-172264302D01*
X113201878Y-172200656D01*
X113202022Y-172183481D01*
X113196026Y-172168504D01*
X113189383Y-172145883D01*
X113188849Y-172143112D01*
X113181239Y-172128119D01*
X113165137Y-172071526D01*
X113164553Y-172069473D01*
X113134132Y-172008380D01*
X113130876Y-171990112D01*
X113120660Y-171974216D01*
X113109868Y-171953283D01*
X113100881Y-171941603D01*
X113074264Y-171888148D01*
X113031809Y-171831929D01*
X113024778Y-171813316D01*
X113009883Y-171797695D01*
X113002995Y-171788936D01*
X112996957Y-171784139D01*
X112993475Y-171780488D01*
X112988866Y-171775063D01*
X112952193Y-171726500D01*
X112952190Y-171726497D01*
X112898427Y-171677484D01*
X112887432Y-171659390D01*
X112867695Y-171645334D01*
X112862134Y-171640515D01*
X112857591Y-171638136D01*
X112853625Y-171635312D01*
X112849995Y-171632728D01*
X112844193Y-171628045D01*
X112802498Y-171590035D01*
X112738584Y-171550461D01*
X112723613Y-171533759D01*
X112699274Y-171522644D01*
X112696407Y-171520989D01*
X112694168Y-171520312D01*
X112681437Y-171514498D01*
X112674547Y-171510811D01*
X112630277Y-171483400D01*
X112630276Y-171483399D01*
X112557851Y-171455342D01*
X112539109Y-171440939D01*
X112493772Y-171429941D01*
X112485985Y-171427500D01*
X112461820Y-171418139D01*
X112441394Y-171410226D01*
X112441388Y-171410224D01*
X112441382Y-171410223D01*
X112362526Y-171395482D01*
X112340419Y-171384241D01*
X112293652Y-171382013D01*
X112285202Y-171381027D01*
X112242286Y-171373005D01*
X112242281Y-171373005D01*
X112106003Y-171373005D01*
X112103053Y-171372935D01*
X112088899Y-171372260D01*
X112083000Y-171372542D01*
X112082994Y-171372422D01*
X112074854Y-171373005D01*
X112039719Y-171373005D01*
X111919479Y-171395482D01*
X111893122Y-171400409D01*
X111882846Y-171401886D01*
X111876480Y-171403430D01*
X111873265Y-171404120D01*
X111840608Y-171410225D01*
X111840604Y-171410226D01*
X111688530Y-171469140D01*
X111686031Y-171470005D01*
X111683019Y-171471274D01*
X111651727Y-171483398D01*
X111651716Y-171483404D01*
X111479503Y-171590033D01*
X111479501Y-171590035D01*
X111329808Y-171726497D01*
X111207736Y-171888147D01*
X111117451Y-172069462D01*
X111117446Y-172069475D01*
X111062012Y-172264302D01*
X111043323Y-172465999D01*
X111043323Y-172466000D01*
X32847677Y-172466000D01*
X32841749Y-172402030D01*
X32844772Y-172386577D01*
X32840301Y-172363377D01*
X32840297Y-172363354D01*
X32840021Y-172361923D01*
X32840021Y-172361916D01*
X32836760Y-172345000D01*
X32835913Y-172339055D01*
X32828987Y-172264302D01*
X32810878Y-172200656D01*
X32811022Y-172183481D01*
X32805026Y-172168504D01*
X32798383Y-172145883D01*
X32797849Y-172143112D01*
X32790239Y-172128119D01*
X32774137Y-172071526D01*
X32773553Y-172069473D01*
X32743132Y-172008380D01*
X32739876Y-171990112D01*
X32729660Y-171974216D01*
X32718868Y-171953283D01*
X32709881Y-171941603D01*
X32683264Y-171888148D01*
X32640809Y-171831929D01*
X32633778Y-171813316D01*
X32618883Y-171797695D01*
X32611995Y-171788936D01*
X32605957Y-171784139D01*
X32602475Y-171780488D01*
X32597866Y-171775063D01*
X32561193Y-171726500D01*
X32561190Y-171726497D01*
X32507427Y-171677484D01*
X32496432Y-171659390D01*
X32476695Y-171645334D01*
X32471134Y-171640515D01*
X32466591Y-171638136D01*
X32462625Y-171635312D01*
X32458995Y-171632728D01*
X32453193Y-171628045D01*
X32411498Y-171590035D01*
X32347584Y-171550461D01*
X32332613Y-171533759D01*
X32308274Y-171522644D01*
X32305407Y-171520989D01*
X32303168Y-171520312D01*
X32290437Y-171514498D01*
X32283547Y-171510811D01*
X32239277Y-171483400D01*
X32239276Y-171483399D01*
X32166851Y-171455342D01*
X32148109Y-171440939D01*
X32102772Y-171429941D01*
X32094985Y-171427500D01*
X32070820Y-171418139D01*
X32050394Y-171410226D01*
X32050388Y-171410224D01*
X32050382Y-171410223D01*
X31971526Y-171395482D01*
X31949419Y-171384241D01*
X31902652Y-171382013D01*
X31894202Y-171381027D01*
X31851286Y-171373005D01*
X31851281Y-171373005D01*
X31715003Y-171373005D01*
X31712053Y-171372935D01*
X31697899Y-171372260D01*
X31692000Y-171372542D01*
X31691994Y-171372422D01*
X31683854Y-171373005D01*
X31648719Y-171373005D01*
X31528479Y-171395482D01*
X31502122Y-171400409D01*
X31491846Y-171401886D01*
X31485480Y-171403430D01*
X31482265Y-171404120D01*
X31449608Y-171410225D01*
X31449604Y-171410226D01*
X31297530Y-171469140D01*
X31295031Y-171470005D01*
X31292019Y-171471274D01*
X31260727Y-171483398D01*
X31260716Y-171483404D01*
X31088503Y-171590033D01*
X31088501Y-171590035D01*
X30938808Y-171726497D01*
X30816736Y-171888147D01*
X30726451Y-172069462D01*
X30726446Y-172069475D01*
X30671012Y-172264302D01*
X30652323Y-172465999D01*
X30652323Y-172466000D01*
X29972498Y-172466000D01*
X29972498Y-143764000D01*
X31664341Y-143764000D01*
X31684936Y-143999403D01*
X31684938Y-143999413D01*
X31746094Y-144227655D01*
X31746096Y-144227659D01*
X31746097Y-144227663D01*
X31798463Y-144339961D01*
X31845965Y-144441830D01*
X31845967Y-144441834D01*
X31954281Y-144596521D01*
X31981505Y-144635401D01*
X32148599Y-144802495D01*
X32245384Y-144870264D01*
X32342165Y-144938032D01*
X32342167Y-144938033D01*
X32342170Y-144938035D01*
X32556337Y-145037903D01*
X32784592Y-145099063D01*
X32972918Y-145115539D01*
X33019999Y-145119659D01*
X33020000Y-145119659D01*
X33020001Y-145119659D01*
X33059234Y-145116226D01*
X33255408Y-145099063D01*
X33483663Y-145037903D01*
X33697830Y-144938035D01*
X33891401Y-144802495D01*
X34058495Y-144635401D01*
X34188424Y-144449842D01*
X34243002Y-144406217D01*
X34312500Y-144399023D01*
X34374855Y-144430546D01*
X34391575Y-144449842D01*
X34521500Y-144635395D01*
X34521505Y-144635401D01*
X34688599Y-144802495D01*
X34785384Y-144870265D01*
X34882165Y-144938032D01*
X34882167Y-144938033D01*
X34882170Y-144938035D01*
X35096337Y-145037903D01*
X35324592Y-145099063D01*
X35512918Y-145115539D01*
X35559999Y-145119659D01*
X35560000Y-145119659D01*
X35560001Y-145119659D01*
X35599234Y-145116226D01*
X35795408Y-145099063D01*
X36023663Y-145037903D01*
X36237830Y-144938035D01*
X36431401Y-144802495D01*
X36598495Y-144635401D01*
X36734035Y-144441830D01*
X36833903Y-144227663D01*
X36895063Y-143999408D01*
X36915659Y-143764000D01*
X43856341Y-143764000D01*
X43876936Y-143999403D01*
X43876938Y-143999413D01*
X43938094Y-144227655D01*
X43938096Y-144227659D01*
X43938097Y-144227663D01*
X43990463Y-144339961D01*
X44037965Y-144441830D01*
X44037967Y-144441834D01*
X44146281Y-144596521D01*
X44173505Y-144635401D01*
X44340599Y-144802495D01*
X44437384Y-144870264D01*
X44534165Y-144938032D01*
X44534167Y-144938033D01*
X44534170Y-144938035D01*
X44748337Y-145037903D01*
X44976592Y-145099063D01*
X45164918Y-145115539D01*
X45211999Y-145119659D01*
X45212000Y-145119659D01*
X45212001Y-145119659D01*
X45251234Y-145116226D01*
X45447408Y-145099063D01*
X45675663Y-145037903D01*
X45889830Y-144938035D01*
X46083401Y-144802495D01*
X46250495Y-144635401D01*
X46380424Y-144449842D01*
X46435002Y-144406217D01*
X46504500Y-144399023D01*
X46566855Y-144430546D01*
X46583575Y-144449842D01*
X46713500Y-144635395D01*
X46713505Y-144635401D01*
X46880599Y-144802495D01*
X46977384Y-144870265D01*
X47074165Y-144938032D01*
X47074167Y-144938033D01*
X47074170Y-144938035D01*
X47288337Y-145037903D01*
X47516592Y-145099063D01*
X47704918Y-145115539D01*
X47751999Y-145119659D01*
X47752000Y-145119659D01*
X47752001Y-145119659D01*
X47791234Y-145116226D01*
X47987408Y-145099063D01*
X48215663Y-145037903D01*
X48429830Y-144938035D01*
X48623401Y-144802495D01*
X48790495Y-144635401D01*
X48926035Y-144441830D01*
X49025903Y-144227663D01*
X49087063Y-143999408D01*
X49107659Y-143764000D01*
X49087063Y-143528592D01*
X49025903Y-143300337D01*
X48926035Y-143086171D01*
X48923115Y-143082000D01*
X48790494Y-142892597D01*
X48623402Y-142725506D01*
X48623395Y-142725501D01*
X48429834Y-142589967D01*
X48429830Y-142589965D01*
X48429830Y-142589964D01*
X48215663Y-142490097D01*
X48215659Y-142490096D01*
X48215655Y-142490094D01*
X47987413Y-142428938D01*
X47987403Y-142428936D01*
X47752001Y-142408341D01*
X47751999Y-142408341D01*
X47516596Y-142428936D01*
X47516586Y-142428938D01*
X47288344Y-142490094D01*
X47288335Y-142490098D01*
X47074171Y-142589964D01*
X47074169Y-142589965D01*
X46880597Y-142725505D01*
X46713508Y-142892594D01*
X46583574Y-143078160D01*
X46528997Y-143121784D01*
X46459498Y-143128977D01*
X46397144Y-143097455D01*
X46380429Y-143078164D01*
X46250495Y-142892599D01*
X46250493Y-142892596D01*
X46083402Y-142725506D01*
X46083395Y-142725501D01*
X45889834Y-142589967D01*
X45889830Y-142589965D01*
X45889828Y-142589964D01*
X45675663Y-142490097D01*
X45675659Y-142490096D01*
X45675655Y-142490094D01*
X45447413Y-142428938D01*
X45447403Y-142428936D01*
X45212001Y-142408341D01*
X45211999Y-142408341D01*
X44976596Y-142428936D01*
X44976586Y-142428938D01*
X44748344Y-142490094D01*
X44748335Y-142490098D01*
X44534171Y-142589964D01*
X44534169Y-142589965D01*
X44340597Y-142725505D01*
X44173505Y-142892597D01*
X44037965Y-143086169D01*
X44037964Y-143086171D01*
X43938098Y-143300335D01*
X43938094Y-143300344D01*
X43876938Y-143528586D01*
X43876936Y-143528596D01*
X43856341Y-143763999D01*
X43856341Y-143764000D01*
X36915659Y-143764000D01*
X36895063Y-143528592D01*
X36833903Y-143300337D01*
X36734035Y-143086171D01*
X36731115Y-143082000D01*
X36598494Y-142892597D01*
X36431402Y-142725506D01*
X36431395Y-142725501D01*
X36237834Y-142589967D01*
X36237830Y-142589965D01*
X36237829Y-142589964D01*
X36023663Y-142490097D01*
X36023659Y-142490096D01*
X36023655Y-142490094D01*
X35795413Y-142428938D01*
X35795403Y-142428936D01*
X35560001Y-142408341D01*
X35559999Y-142408341D01*
X35324596Y-142428936D01*
X35324586Y-142428938D01*
X35096344Y-142490094D01*
X35096335Y-142490098D01*
X34882171Y-142589964D01*
X34882169Y-142589965D01*
X34688597Y-142725505D01*
X34521505Y-142892597D01*
X34391575Y-143078158D01*
X34336998Y-143121783D01*
X34267500Y-143128977D01*
X34205145Y-143097454D01*
X34188425Y-143078158D01*
X34058494Y-142892597D01*
X33891402Y-142725506D01*
X33891395Y-142725501D01*
X33697834Y-142589967D01*
X33697830Y-142589965D01*
X33697828Y-142589964D01*
X33483663Y-142490097D01*
X33483659Y-142490096D01*
X33483655Y-142490094D01*
X33255413Y-142428938D01*
X33255403Y-142428936D01*
X33020001Y-142408341D01*
X33019999Y-142408341D01*
X32784596Y-142428936D01*
X32784586Y-142428938D01*
X32556344Y-142490094D01*
X32556335Y-142490098D01*
X32342171Y-142589964D01*
X32342169Y-142589965D01*
X32148597Y-142725505D01*
X31981505Y-142892597D01*
X31845965Y-143086169D01*
X31845964Y-143086171D01*
X31746098Y-143300335D01*
X31746094Y-143300344D01*
X31684938Y-143528586D01*
X31684936Y-143528596D01*
X31664341Y-143763999D01*
X31664341Y-143764000D01*
X29972498Y-143764000D01*
X29972499Y-96437279D01*
X29992184Y-96370241D01*
X30044988Y-96324486D01*
X30114146Y-96314542D01*
X30177702Y-96343567D01*
X30184180Y-96349599D01*
X32263624Y-98429043D01*
X32273471Y-98441333D01*
X32273689Y-98441154D01*
X32278657Y-98447160D01*
X32329257Y-98494677D01*
X32350201Y-98515620D01*
X32350207Y-98515626D01*
X32355697Y-98519883D01*
X32360148Y-98523684D01*
X32394235Y-98555695D01*
X32394237Y-98555696D01*
X32411867Y-98565387D01*
X32428135Y-98576072D01*
X32444038Y-98588408D01*
X32444040Y-98588409D01*
X32444042Y-98588410D01*
X32465380Y-98597643D01*
X32486943Y-98606974D01*
X32492190Y-98609545D01*
X32513734Y-98621389D01*
X32533166Y-98632072D01*
X32552667Y-98637079D01*
X32571061Y-98643376D01*
X32589541Y-98651373D01*
X32635716Y-98658685D01*
X32641419Y-98659866D01*
X32686728Y-98671500D01*
X32706859Y-98671500D01*
X32726256Y-98673026D01*
X32746133Y-98676175D01*
X32789064Y-98672116D01*
X32792679Y-98671775D01*
X32798517Y-98671500D01*
X33956728Y-98671500D01*
X35388272Y-98671500D01*
X35455311Y-98691185D01*
X35501066Y-98743989D01*
X35511010Y-98813147D01*
X35481985Y-98876703D01*
X35466825Y-98890616D01*
X35466958Y-98890764D01*
X35462129Y-98895111D01*
X35335466Y-99035785D01*
X35240821Y-99199715D01*
X35240818Y-99199722D01*
X35182327Y-99379740D01*
X35182326Y-99379744D01*
X35167181Y-99523844D01*
X35164494Y-99549413D01*
X35162540Y-99568000D01*
X35182326Y-99756256D01*
X35182327Y-99756259D01*
X35240818Y-99936277D01*
X35240821Y-99936284D01*
X35335467Y-100100216D01*
X35412168Y-100185401D01*
X35462129Y-100240888D01*
X35615265Y-100352148D01*
X35615270Y-100352151D01*
X35788192Y-100429142D01*
X35788197Y-100429144D01*
X35973354Y-100468500D01*
X36029719Y-100468500D01*
X36096758Y-100488185D01*
X36117400Y-100504819D01*
X38198182Y-102585601D01*
X38231666Y-102646922D01*
X38234500Y-102673280D01*
X38234500Y-107892719D01*
X38214815Y-107959758D01*
X38198181Y-107980400D01*
X33902344Y-112276237D01*
X31618953Y-114559626D01*
X31606669Y-114569469D01*
X31606849Y-114569687D01*
X31600838Y-114574659D01*
X31553322Y-114625258D01*
X31532375Y-114646205D01*
X31528106Y-114651709D01*
X31524315Y-114656147D01*
X31492308Y-114690230D01*
X31492305Y-114690234D01*
X31482606Y-114707877D01*
X31471928Y-114724133D01*
X31459594Y-114740034D01*
X31459589Y-114740042D01*
X31441025Y-114782943D01*
X31438454Y-114788191D01*
X31415927Y-114829167D01*
X31410920Y-114848668D01*
X31404621Y-114867064D01*
X31397893Y-114882612D01*
X31396625Y-114885544D01*
X31396624Y-114885546D01*
X31389312Y-114931716D01*
X31388127Y-114937438D01*
X31376500Y-114982723D01*
X31376500Y-115002858D01*
X31374973Y-115022257D01*
X31371825Y-115042131D01*
X31376225Y-115088677D01*
X31376500Y-115094515D01*
X31376500Y-128949032D01*
X31374772Y-128964681D01*
X31375054Y-128964708D01*
X31374319Y-128972475D01*
X31376500Y-129041859D01*
X31376500Y-129071477D01*
X31377371Y-129078380D01*
X31377829Y-129084199D01*
X31379298Y-129130942D01*
X31384916Y-129150275D01*
X31388862Y-129169329D01*
X31391383Y-129189287D01*
X31391386Y-129189299D01*
X31408595Y-129232765D01*
X31410487Y-129238293D01*
X31423530Y-129283187D01*
X31423530Y-129283188D01*
X31433777Y-129300515D01*
X31442335Y-129317985D01*
X31449745Y-129336701D01*
X31477229Y-129374529D01*
X31480437Y-129379413D01*
X31504234Y-129419652D01*
X31504240Y-129419660D01*
X31518469Y-129433888D01*
X31531109Y-129448687D01*
X31542934Y-129464964D01*
X31542936Y-129464965D01*
X31542937Y-129464967D01*
X31578957Y-129494765D01*
X31583268Y-129498687D01*
X34008762Y-131924181D01*
X34896181Y-132811600D01*
X34929666Y-132872923D01*
X34932500Y-132899281D01*
X34932500Y-134870173D01*
X34912815Y-134937212D01*
X34879624Y-134971748D01*
X34688594Y-135105508D01*
X34521508Y-135272594D01*
X34391269Y-135458595D01*
X34336692Y-135502219D01*
X34267193Y-135509412D01*
X34204839Y-135477890D01*
X34188119Y-135458594D01*
X34058113Y-135272926D01*
X34058108Y-135272920D01*
X33891082Y-135105894D01*
X33697578Y-134970399D01*
X33483492Y-134870570D01*
X33483486Y-134870567D01*
X33270000Y-134813364D01*
X33269999Y-134813364D01*
X33270000Y-135531698D01*
X33250315Y-135598737D01*
X33197511Y-135644492D01*
X33128355Y-135654436D01*
X33055766Y-135644000D01*
X33055763Y-135644000D01*
X32984237Y-135644000D01*
X32984233Y-135644000D01*
X32911645Y-135654436D01*
X32842487Y-135644492D01*
X32789684Y-135598736D01*
X32770000Y-135531698D01*
X32770000Y-134813364D01*
X32769999Y-134813364D01*
X32556513Y-134870567D01*
X32556507Y-134870570D01*
X32342422Y-134970399D01*
X32342420Y-134970400D01*
X32148926Y-135105886D01*
X32148920Y-135105891D01*
X31981891Y-135272920D01*
X31981886Y-135272926D01*
X31846400Y-135466420D01*
X31846399Y-135466422D01*
X31746570Y-135680507D01*
X31746567Y-135680513D01*
X31689364Y-135893999D01*
X31689364Y-135894000D01*
X32406653Y-135894000D01*
X32473692Y-135913685D01*
X32519447Y-135966489D01*
X32529391Y-136035647D01*
X32525631Y-136052933D01*
X32520000Y-136072111D01*
X32520000Y-136215888D01*
X32525631Y-136235067D01*
X32525630Y-136304936D01*
X32487855Y-136363714D01*
X32424299Y-136392738D01*
X32406653Y-136394000D01*
X31689364Y-136394000D01*
X31746567Y-136607486D01*
X31746570Y-136607492D01*
X31846399Y-136821578D01*
X31981894Y-137015082D01*
X32148917Y-137182105D01*
X32342421Y-137317600D01*
X32556507Y-137417429D01*
X32556516Y-137417433D01*
X32770000Y-137474634D01*
X32770000Y-136756301D01*
X32789685Y-136689262D01*
X32842489Y-136643507D01*
X32911647Y-136633563D01*
X32984237Y-136644000D01*
X32984238Y-136644000D01*
X33055762Y-136644000D01*
X33055763Y-136644000D01*
X33128353Y-136633563D01*
X33197512Y-136643507D01*
X33250315Y-136689262D01*
X33270000Y-136756301D01*
X33270000Y-137474634D01*
X33483483Y-137417433D01*
X33483492Y-137417429D01*
X33697578Y-137317600D01*
X33891082Y-137182105D01*
X34058105Y-137015082D01*
X34188119Y-136829405D01*
X34242696Y-136785781D01*
X34312195Y-136778588D01*
X34374549Y-136810110D01*
X34391269Y-136829405D01*
X34521505Y-137015401D01*
X34688599Y-137182495D01*
X34724614Y-137207713D01*
X34882165Y-137318032D01*
X34882167Y-137318033D01*
X34882170Y-137318035D01*
X35096337Y-137417903D01*
X35324592Y-137479063D01*
X35512918Y-137495539D01*
X35559999Y-137499659D01*
X35560000Y-137499659D01*
X35560001Y-137499659D01*
X35599234Y-137496226D01*
X35795408Y-137479063D01*
X36023663Y-137417903D01*
X36237830Y-137318035D01*
X36431401Y-137182495D01*
X36598495Y-137015401D01*
X36734035Y-136821830D01*
X36833903Y-136607663D01*
X36895063Y-136379408D01*
X36915659Y-136144000D01*
X36895063Y-135908592D01*
X36833903Y-135680337D01*
X36734035Y-135466171D01*
X36728731Y-135458595D01*
X36598494Y-135272597D01*
X36431402Y-135105506D01*
X36431401Y-135105505D01*
X36240376Y-134971748D01*
X36196752Y-134917171D01*
X36187500Y-134870173D01*
X36187500Y-132670964D01*
X36189228Y-132655314D01*
X36188946Y-132655288D01*
X36189680Y-132647525D01*
X36187500Y-132578154D01*
X36187500Y-132548528D01*
X36187500Y-132548524D01*
X36186627Y-132541614D01*
X36186168Y-132535785D01*
X36184700Y-132489057D01*
X36179082Y-132469720D01*
X36175138Y-132450674D01*
X36172616Y-132430707D01*
X36155403Y-132387233D01*
X36153515Y-132381716D01*
X36140467Y-132336805D01*
X36130223Y-132319484D01*
X36121661Y-132302007D01*
X36114253Y-132283298D01*
X36114253Y-132283297D01*
X36114252Y-132283297D01*
X36086764Y-132245462D01*
X36083561Y-132240585D01*
X36080172Y-132234855D01*
X36059763Y-132200344D01*
X36059761Y-132200342D01*
X36059759Y-132200339D01*
X36045531Y-132186112D01*
X36032896Y-132171320D01*
X36021063Y-132155033D01*
X36021060Y-132155031D01*
X36021060Y-132155030D01*
X36021059Y-132155029D01*
X35985035Y-132125228D01*
X35980713Y-132121294D01*
X32667819Y-128808400D01*
X32634334Y-128747077D01*
X32631500Y-128720719D01*
X32631500Y-128720718D01*
X32631500Y-127800378D01*
X32651183Y-127733343D01*
X32703987Y-127687588D01*
X32773146Y-127677644D01*
X32834537Y-127704836D01*
X32848961Y-127716768D01*
X32853279Y-127720698D01*
X38105624Y-132973043D01*
X38115471Y-132985333D01*
X38115689Y-132985154D01*
X38120657Y-132991160D01*
X38171257Y-133038677D01*
X38192201Y-133059620D01*
X38192207Y-133059626D01*
X38197697Y-133063883D01*
X38202148Y-133067684D01*
X38236235Y-133099695D01*
X38236237Y-133099696D01*
X38253868Y-133109388D01*
X38270137Y-133120074D01*
X38286037Y-133132407D01*
X38286037Y-133132408D01*
X38328944Y-133150975D01*
X38334193Y-133153547D01*
X38375161Y-133176070D01*
X38375164Y-133176071D01*
X38375166Y-133176072D01*
X38394659Y-133181076D01*
X38413067Y-133187379D01*
X38431541Y-133195374D01*
X38463890Y-133200497D01*
X38477723Y-133202688D01*
X38483438Y-133203871D01*
X38528728Y-133215500D01*
X38548858Y-133215500D01*
X38568255Y-133217026D01*
X38588133Y-133220175D01*
X38630779Y-133216143D01*
X38634679Y-133215775D01*
X38640517Y-133215500D01*
X45662719Y-133215500D01*
X45729758Y-133235185D01*
X45750400Y-133251819D01*
X47088181Y-134589600D01*
X47121666Y-134650923D01*
X47124500Y-134677281D01*
X47124500Y-134870173D01*
X47104815Y-134937212D01*
X47071624Y-134971748D01*
X46880594Y-135105508D01*
X46713508Y-135272594D01*
X46583269Y-135458595D01*
X46528692Y-135502219D01*
X46459193Y-135509412D01*
X46396839Y-135477890D01*
X46380119Y-135458594D01*
X46250113Y-135272926D01*
X46250108Y-135272920D01*
X46083082Y-135105894D01*
X45889578Y-134970399D01*
X45675492Y-134870570D01*
X45675486Y-134870567D01*
X45462000Y-134813364D01*
X45462000Y-135531698D01*
X45442315Y-135598737D01*
X45389511Y-135644492D01*
X45320355Y-135654436D01*
X45247766Y-135644000D01*
X45247763Y-135644000D01*
X45176237Y-135644000D01*
X45103646Y-135654437D01*
X45034487Y-135644493D01*
X44981683Y-135598738D01*
X44961999Y-135531699D01*
X44961999Y-134813364D01*
X44748513Y-134870567D01*
X44748507Y-134870570D01*
X44534422Y-134970399D01*
X44534420Y-134970400D01*
X44340926Y-135105886D01*
X44340920Y-135105891D01*
X44173891Y-135272920D01*
X44173886Y-135272926D01*
X44038400Y-135466420D01*
X44038399Y-135466422D01*
X43938570Y-135680507D01*
X43938567Y-135680513D01*
X43881364Y-135893999D01*
X43881364Y-135894000D01*
X44598653Y-135894000D01*
X44665692Y-135913685D01*
X44711447Y-135966489D01*
X44721391Y-136035647D01*
X44717631Y-136052933D01*
X44712000Y-136072111D01*
X44712000Y-136215888D01*
X44717631Y-136235067D01*
X44717630Y-136304936D01*
X44679855Y-136363714D01*
X44616299Y-136392738D01*
X44598653Y-136394000D01*
X43881364Y-136394000D01*
X43938567Y-136607486D01*
X43938570Y-136607492D01*
X44038399Y-136821578D01*
X44173894Y-137015082D01*
X44340917Y-137182105D01*
X44534421Y-137317600D01*
X44748507Y-137417429D01*
X44748516Y-137417433D01*
X44961999Y-137474633D01*
X44961999Y-136756301D01*
X44981683Y-136689262D01*
X45034487Y-136643507D01*
X45103646Y-136633563D01*
X45110380Y-136634531D01*
X45176237Y-136644000D01*
X45176238Y-136644000D01*
X45247762Y-136644000D01*
X45247763Y-136644000D01*
X45320353Y-136633563D01*
X45389512Y-136643507D01*
X45442315Y-136689262D01*
X45462000Y-136756301D01*
X45462000Y-137474633D01*
X45675483Y-137417433D01*
X45675492Y-137417429D01*
X45889578Y-137317600D01*
X46083082Y-137182105D01*
X46250105Y-137015082D01*
X46380119Y-136829405D01*
X46434696Y-136785781D01*
X46504195Y-136778588D01*
X46566549Y-136810110D01*
X46583269Y-136829405D01*
X46713505Y-137015401D01*
X46880599Y-137182495D01*
X46916614Y-137207713D01*
X47074165Y-137318032D01*
X47074167Y-137318033D01*
X47074170Y-137318035D01*
X47288337Y-137417903D01*
X47516592Y-137479063D01*
X47704918Y-137495539D01*
X47751999Y-137499659D01*
X47752000Y-137499659D01*
X47752001Y-137499659D01*
X47791234Y-137496226D01*
X47987408Y-137479063D01*
X48215663Y-137417903D01*
X48429830Y-137318035D01*
X48623401Y-137182495D01*
X48790495Y-137015401D01*
X48926035Y-136821830D01*
X49025903Y-136607663D01*
X49087063Y-136379408D01*
X49107659Y-136144000D01*
X49087063Y-135908592D01*
X49025903Y-135680337D01*
X48926035Y-135466171D01*
X48920731Y-135458595D01*
X48790494Y-135272597D01*
X48623402Y-135105506D01*
X48623401Y-135105505D01*
X48432376Y-134971748D01*
X48388752Y-134917171D01*
X48379500Y-134870173D01*
X48379500Y-134448964D01*
X48381228Y-134433313D01*
X48380946Y-134433287D01*
X48381680Y-134425524D01*
X48379500Y-134356140D01*
X48379500Y-134326530D01*
X48379500Y-134326524D01*
X48378626Y-134319607D01*
X48378169Y-134313792D01*
X48376701Y-134267057D01*
X48371084Y-134247727D01*
X48367138Y-134228668D01*
X48364617Y-134208711D01*
X48364616Y-134208709D01*
X48364616Y-134208707D01*
X48347403Y-134165234D01*
X48345514Y-134159713D01*
X48332467Y-134114807D01*
X48322225Y-134097489D01*
X48313662Y-134080011D01*
X48306253Y-134061297D01*
X48306253Y-134061296D01*
X48278771Y-134023472D01*
X48275567Y-134018596D01*
X48251763Y-133978344D01*
X48251761Y-133978342D01*
X48251759Y-133978339D01*
X48237531Y-133964112D01*
X48224896Y-133949320D01*
X48213063Y-133933033D01*
X48213060Y-133933031D01*
X48213060Y-133933030D01*
X48213059Y-133933029D01*
X48177035Y-133903228D01*
X48172713Y-133899294D01*
X47369419Y-133096000D01*
X63356540Y-133096000D01*
X63376326Y-133284256D01*
X63376327Y-133284259D01*
X63434818Y-133464277D01*
X63434821Y-133464284D01*
X63529467Y-133628216D01*
X63602651Y-133709494D01*
X63632880Y-133772484D01*
X63634500Y-133792465D01*
X63634499Y-138855032D01*
X63632773Y-138870681D01*
X63633054Y-138870708D01*
X63632319Y-138878475D01*
X63634500Y-138947859D01*
X63634500Y-138977477D01*
X63635371Y-138984380D01*
X63635829Y-138990199D01*
X63637298Y-139036942D01*
X63642916Y-139056275D01*
X63646862Y-139075329D01*
X63649383Y-139095287D01*
X63649386Y-139095299D01*
X63666595Y-139138765D01*
X63668487Y-139144293D01*
X63681530Y-139189187D01*
X63681530Y-139189188D01*
X63691777Y-139206515D01*
X63700335Y-139223985D01*
X63707745Y-139242701D01*
X63735229Y-139280529D01*
X63738437Y-139285413D01*
X63762234Y-139325652D01*
X63762240Y-139325660D01*
X63776469Y-139339888D01*
X63789109Y-139354687D01*
X63800934Y-139370964D01*
X63800936Y-139370965D01*
X63800937Y-139370967D01*
X63836957Y-139400765D01*
X63841268Y-139404687D01*
X85745516Y-161308935D01*
X90129681Y-165693100D01*
X90163166Y-165754423D01*
X90166000Y-165780781D01*
X90165999Y-166519698D01*
X90146314Y-166586738D01*
X90093510Y-166632492D01*
X90024353Y-166642436D01*
X89951764Y-166632000D01*
X89951763Y-166632000D01*
X89880237Y-166632000D01*
X89880233Y-166632000D01*
X89807645Y-166642436D01*
X89738487Y-166632492D01*
X89685684Y-166586736D01*
X89666000Y-166519698D01*
X89666000Y-165801364D01*
X89665999Y-165801364D01*
X89452513Y-165858567D01*
X89452507Y-165858570D01*
X89238422Y-165958399D01*
X89238420Y-165958400D01*
X89044926Y-166093886D01*
X88922477Y-166216335D01*
X88861154Y-166249819D01*
X88791462Y-166244835D01*
X88735529Y-166202963D01*
X88718614Y-166171986D01*
X88669354Y-166039913D01*
X88669350Y-166039906D01*
X88583190Y-165924812D01*
X88583187Y-165924809D01*
X88468093Y-165838649D01*
X88468086Y-165838645D01*
X88333379Y-165788403D01*
X88333372Y-165788401D01*
X88273844Y-165782000D01*
X87626000Y-165782000D01*
X87626000Y-166519698D01*
X87606315Y-166586737D01*
X87553511Y-166632492D01*
X87484355Y-166642436D01*
X87411766Y-166632000D01*
X87411763Y-166632000D01*
X87340237Y-166632000D01*
X87340233Y-166632000D01*
X87267645Y-166642436D01*
X87198487Y-166632492D01*
X87145684Y-166586736D01*
X87126000Y-166519698D01*
X87126000Y-165782000D01*
X86478155Y-165782000D01*
X86418627Y-165788401D01*
X86418620Y-165788403D01*
X86283913Y-165838645D01*
X86283906Y-165838649D01*
X86168812Y-165924809D01*
X86168809Y-165924812D01*
X86082649Y-166039906D01*
X86082645Y-166039913D01*
X86032403Y-166174620D01*
X86032401Y-166174627D01*
X86026000Y-166234155D01*
X86026000Y-166882000D01*
X86762653Y-166882000D01*
X86829692Y-166901685D01*
X86875447Y-166954489D01*
X86885391Y-167023647D01*
X86881631Y-167040933D01*
X86876000Y-167060111D01*
X86876000Y-167203888D01*
X86881631Y-167223067D01*
X86881630Y-167292936D01*
X86843855Y-167351714D01*
X86780299Y-167380738D01*
X86762653Y-167382000D01*
X86026000Y-167382000D01*
X86026000Y-168029844D01*
X86032401Y-168089372D01*
X86032403Y-168089379D01*
X86082645Y-168224086D01*
X86082649Y-168224093D01*
X86168809Y-168339187D01*
X86168812Y-168339190D01*
X86283906Y-168425350D01*
X86283913Y-168425354D01*
X86418620Y-168475596D01*
X86418627Y-168475598D01*
X86478155Y-168481999D01*
X86478172Y-168482000D01*
X87126000Y-168482000D01*
X87126000Y-167744301D01*
X87145685Y-167677262D01*
X87198489Y-167631507D01*
X87267647Y-167621563D01*
X87340237Y-167632000D01*
X87340238Y-167632000D01*
X87411762Y-167632000D01*
X87411763Y-167632000D01*
X87484353Y-167621563D01*
X87553512Y-167631507D01*
X87606315Y-167677262D01*
X87626000Y-167744301D01*
X87626000Y-168482000D01*
X88273828Y-168482000D01*
X88273844Y-168481999D01*
X88333372Y-168475598D01*
X88333379Y-168475596D01*
X88468086Y-168425354D01*
X88468093Y-168425350D01*
X88583187Y-168339190D01*
X88583190Y-168339187D01*
X88669350Y-168224093D01*
X88669354Y-168224086D01*
X88718614Y-168092013D01*
X88760485Y-168036079D01*
X88825949Y-168011662D01*
X88894222Y-168026513D01*
X88922477Y-168047665D01*
X89044917Y-168170105D01*
X89238421Y-168305600D01*
X89452507Y-168405429D01*
X89452516Y-168405433D01*
X89666000Y-168462634D01*
X89666000Y-167744301D01*
X89685685Y-167677262D01*
X89738489Y-167631507D01*
X89807647Y-167621563D01*
X89880237Y-167632000D01*
X89880238Y-167632000D01*
X89951762Y-167632000D01*
X89951763Y-167632000D01*
X90024352Y-167621563D01*
X90093510Y-167631507D01*
X90146314Y-167677261D01*
X90165999Y-167744301D01*
X90165999Y-168462634D01*
X90379483Y-168405433D01*
X90379492Y-168405429D01*
X90593578Y-168305600D01*
X90787082Y-168170105D01*
X90954105Y-168003082D01*
X91084119Y-167817405D01*
X91138696Y-167773781D01*
X91208195Y-167766588D01*
X91270549Y-167798110D01*
X91287269Y-167817405D01*
X91417505Y-168003401D01*
X91584599Y-168170495D01*
X91661135Y-168224086D01*
X91778165Y-168306032D01*
X91778167Y-168306033D01*
X91778170Y-168306035D01*
X91992337Y-168405903D01*
X92220592Y-168467063D01*
X92391319Y-168482000D01*
X92455999Y-168487659D01*
X92456000Y-168487659D01*
X92456001Y-168487659D01*
X92520681Y-168482000D01*
X92691408Y-168467063D01*
X92919663Y-168405903D01*
X93133830Y-168306035D01*
X93327401Y-168170495D01*
X93494495Y-168003401D01*
X93624426Y-167817840D01*
X93679001Y-167774217D01*
X93748499Y-167767023D01*
X93810854Y-167798546D01*
X93827574Y-167817841D01*
X93957505Y-168003401D01*
X94124599Y-168170495D01*
X94201135Y-168224086D01*
X94318165Y-168306032D01*
X94318167Y-168306033D01*
X94318170Y-168306035D01*
X94532337Y-168405903D01*
X94760592Y-168467063D01*
X94931319Y-168482000D01*
X94995999Y-168487659D01*
X94996000Y-168487659D01*
X94996001Y-168487659D01*
X95060681Y-168482000D01*
X95231408Y-168467063D01*
X95459663Y-168405903D01*
X95673830Y-168306035D01*
X95867401Y-168170495D01*
X96034495Y-168003401D01*
X96164426Y-167817841D01*
X96219002Y-167774217D01*
X96288500Y-167767023D01*
X96350855Y-167798546D01*
X96367575Y-167817842D01*
X96497500Y-168003395D01*
X96497505Y-168003401D01*
X96664599Y-168170495D01*
X96741135Y-168224086D01*
X96858165Y-168306032D01*
X96858167Y-168306033D01*
X96858170Y-168306035D01*
X97072337Y-168405903D01*
X97300592Y-168467063D01*
X97471319Y-168482000D01*
X97535999Y-168487659D01*
X97536000Y-168487659D01*
X97536001Y-168487659D01*
X97600681Y-168482000D01*
X97771408Y-168467063D01*
X97999663Y-168405903D01*
X98213830Y-168306035D01*
X98407401Y-168170495D01*
X98574495Y-168003401D01*
X98704426Y-167817840D01*
X98759001Y-167774217D01*
X98828499Y-167767023D01*
X98890854Y-167798546D01*
X98907574Y-167817841D01*
X99037505Y-168003401D01*
X99204599Y-168170495D01*
X99281135Y-168224086D01*
X99398165Y-168306032D01*
X99398167Y-168306033D01*
X99398170Y-168306035D01*
X99612337Y-168405903D01*
X99840592Y-168467063D01*
X100011319Y-168482000D01*
X100075999Y-168487659D01*
X100076000Y-168487659D01*
X100076001Y-168487659D01*
X100140681Y-168482000D01*
X100311408Y-168467063D01*
X100539663Y-168405903D01*
X100753830Y-168306035D01*
X100947401Y-168170495D01*
X101114495Y-168003401D01*
X101244426Y-167817841D01*
X101299002Y-167774217D01*
X101368500Y-167767023D01*
X101430855Y-167798546D01*
X101447575Y-167817842D01*
X101577500Y-168003395D01*
X101577505Y-168003401D01*
X101744599Y-168170495D01*
X101821135Y-168224086D01*
X101938165Y-168306032D01*
X101938167Y-168306033D01*
X101938170Y-168306035D01*
X102152337Y-168405903D01*
X102380592Y-168467063D01*
X102551319Y-168482000D01*
X102615999Y-168487659D01*
X102616000Y-168487659D01*
X102616001Y-168487659D01*
X102680681Y-168482000D01*
X102851408Y-168467063D01*
X103079663Y-168405903D01*
X103293830Y-168306035D01*
X103487401Y-168170495D01*
X103654495Y-168003401D01*
X103784426Y-167817840D01*
X103839001Y-167774217D01*
X103908499Y-167767023D01*
X103970854Y-167798546D01*
X103987574Y-167817841D01*
X104117505Y-168003401D01*
X104284599Y-168170495D01*
X104361135Y-168224086D01*
X104478165Y-168306032D01*
X104478167Y-168306033D01*
X104478170Y-168306035D01*
X104692337Y-168405903D01*
X104920592Y-168467063D01*
X105091319Y-168482000D01*
X105155999Y-168487659D01*
X105156000Y-168487659D01*
X105156001Y-168487659D01*
X105220681Y-168482000D01*
X105391408Y-168467063D01*
X105619663Y-168405903D01*
X105833830Y-168306035D01*
X106027401Y-168170495D01*
X106194495Y-168003401D01*
X106330035Y-167809830D01*
X106429903Y-167595663D01*
X106491063Y-167367408D01*
X106511659Y-167132000D01*
X106491063Y-166896592D01*
X106429903Y-166668337D01*
X106330035Y-166454171D01*
X106324425Y-166446158D01*
X106194494Y-166260597D01*
X106027402Y-166093506D01*
X106027395Y-166093501D01*
X105833834Y-165957967D01*
X105833830Y-165957965D01*
X105833828Y-165957964D01*
X105619663Y-165858097D01*
X105619659Y-165858096D01*
X105619655Y-165858094D01*
X105391413Y-165796938D01*
X105391403Y-165796936D01*
X105156001Y-165776341D01*
X105155999Y-165776341D01*
X104920596Y-165796936D01*
X104920586Y-165796938D01*
X104692344Y-165858094D01*
X104692335Y-165858098D01*
X104478171Y-165957964D01*
X104478169Y-165957965D01*
X104284597Y-166093505D01*
X104117505Y-166260597D01*
X103987575Y-166446158D01*
X103932998Y-166489783D01*
X103863500Y-166496977D01*
X103801145Y-166465454D01*
X103784425Y-166446158D01*
X103654494Y-166260597D01*
X103487402Y-166093506D01*
X103487395Y-166093501D01*
X103293834Y-165957967D01*
X103293830Y-165957965D01*
X103293828Y-165957964D01*
X103079663Y-165858097D01*
X103079659Y-165858096D01*
X103079655Y-165858094D01*
X102851413Y-165796938D01*
X102851403Y-165796936D01*
X102616001Y-165776341D01*
X102615999Y-165776341D01*
X102380596Y-165796936D01*
X102380586Y-165796938D01*
X102152344Y-165858094D01*
X102152335Y-165858098D01*
X101938171Y-165957964D01*
X101938169Y-165957965D01*
X101744597Y-166093505D01*
X101577508Y-166260594D01*
X101447574Y-166446159D01*
X101392997Y-166489784D01*
X101323498Y-166496976D01*
X101261144Y-166465454D01*
X101244424Y-166446158D01*
X101114494Y-166260597D01*
X100947402Y-166093506D01*
X100947395Y-166093501D01*
X100753834Y-165957967D01*
X100753830Y-165957965D01*
X100753828Y-165957964D01*
X100539663Y-165858097D01*
X100539659Y-165858096D01*
X100539655Y-165858094D01*
X100311413Y-165796938D01*
X100311403Y-165796936D01*
X100076001Y-165776341D01*
X100075999Y-165776341D01*
X99840596Y-165796936D01*
X99840586Y-165796938D01*
X99612344Y-165858094D01*
X99612335Y-165858098D01*
X99398171Y-165957964D01*
X99398169Y-165957965D01*
X99204597Y-166093505D01*
X99037505Y-166260597D01*
X98907575Y-166446158D01*
X98852998Y-166489783D01*
X98783500Y-166496977D01*
X98721145Y-166465454D01*
X98704425Y-166446158D01*
X98574494Y-166260597D01*
X98407402Y-166093506D01*
X98407395Y-166093501D01*
X98213834Y-165957967D01*
X98213830Y-165957965D01*
X98213828Y-165957964D01*
X97999663Y-165858097D01*
X97999659Y-165858096D01*
X97999655Y-165858094D01*
X97771413Y-165796938D01*
X97771403Y-165796936D01*
X97536001Y-165776341D01*
X97535999Y-165776341D01*
X97300596Y-165796936D01*
X97300586Y-165796938D01*
X97072344Y-165858094D01*
X97072335Y-165858098D01*
X96858171Y-165957964D01*
X96858169Y-165957965D01*
X96664597Y-166093505D01*
X96497505Y-166260597D01*
X96367575Y-166446158D01*
X96312998Y-166489783D01*
X96243500Y-166496977D01*
X96181145Y-166465454D01*
X96164425Y-166446158D01*
X96034494Y-166260597D01*
X95867402Y-166093506D01*
X95867401Y-166093505D01*
X95676376Y-165959748D01*
X95632752Y-165905171D01*
X95623500Y-165858173D01*
X95623500Y-164420964D01*
X95625228Y-164405314D01*
X95624946Y-164405288D01*
X95625680Y-164397525D01*
X95623500Y-164328154D01*
X95623500Y-164298528D01*
X95623500Y-164298524D01*
X95622627Y-164291614D01*
X95622168Y-164285785D01*
X95620700Y-164239057D01*
X95615082Y-164219720D01*
X95611138Y-164200674D01*
X95608616Y-164180707D01*
X95591403Y-164137233D01*
X95589515Y-164131716D01*
X95576467Y-164086805D01*
X95566223Y-164069484D01*
X95557661Y-164052007D01*
X95550253Y-164033298D01*
X95550253Y-164033297D01*
X95550252Y-164033297D01*
X95522764Y-163995462D01*
X95519561Y-163990585D01*
X95495764Y-163950346D01*
X95495759Y-163950339D01*
X95481531Y-163936112D01*
X95468896Y-163921320D01*
X95457063Y-163905033D01*
X95457060Y-163905031D01*
X95457060Y-163905030D01*
X95457059Y-163905029D01*
X95421035Y-163875228D01*
X95416713Y-163871294D01*
X92854356Y-161308937D01*
X92854353Y-161308935D01*
X67211819Y-135666400D01*
X67178334Y-135605077D01*
X67175500Y-135578719D01*
X67175500Y-133792465D01*
X67195185Y-133725426D01*
X67207343Y-133709500D01*
X67280533Y-133628216D01*
X67375179Y-133464284D01*
X67433674Y-133284256D01*
X67453460Y-133096000D01*
X67433674Y-132907744D01*
X67375179Y-132727716D01*
X67280533Y-132563784D01*
X67153871Y-132423112D01*
X67153870Y-132423111D01*
X67000734Y-132311851D01*
X67000729Y-132311848D01*
X66827807Y-132234857D01*
X66827802Y-132234855D01*
X66677729Y-132202957D01*
X66642646Y-132195500D01*
X66453354Y-132195500D01*
X66430588Y-132200339D01*
X66268197Y-132234855D01*
X66268192Y-132234857D01*
X66095270Y-132311848D01*
X66095265Y-132311851D01*
X65942129Y-132423111D01*
X65815466Y-132563785D01*
X65720821Y-132727715D01*
X65720818Y-132727722D01*
X65662327Y-132907740D01*
X65662326Y-132907744D01*
X65642540Y-133096000D01*
X65662326Y-133284256D01*
X65662327Y-133284259D01*
X65720818Y-133464277D01*
X65720821Y-133464284D01*
X65815467Y-133628216D01*
X65888651Y-133709494D01*
X65918880Y-133772484D01*
X65920500Y-133792465D01*
X65920500Y-135807032D01*
X65918772Y-135822681D01*
X65919054Y-135822708D01*
X65918319Y-135830475D01*
X65920500Y-135899859D01*
X65920500Y-135929477D01*
X65921371Y-135936380D01*
X65921829Y-135942199D01*
X65923298Y-135988942D01*
X65928916Y-136008275D01*
X65932862Y-136027329D01*
X65935383Y-136047287D01*
X65935386Y-136047299D01*
X65952595Y-136090765D01*
X65954487Y-136096293D01*
X65967530Y-136141187D01*
X65967530Y-136141188D01*
X65977777Y-136158515D01*
X65986335Y-136175985D01*
X65993745Y-136194701D01*
X66021229Y-136232529D01*
X66024437Y-136237413D01*
X66048234Y-136277652D01*
X66048240Y-136277660D01*
X66062469Y-136291888D01*
X66075109Y-136306687D01*
X66086934Y-136322964D01*
X66086936Y-136322965D01*
X66086937Y-136322967D01*
X66122957Y-136352765D01*
X66127268Y-136356687D01*
X91079516Y-161308935D01*
X91956237Y-162185656D01*
X94332180Y-164561600D01*
X94365665Y-164622923D01*
X94368499Y-164649281D01*
X94368500Y-165858173D01*
X94348815Y-165925212D01*
X94315624Y-165959748D01*
X94124594Y-166093508D01*
X93957505Y-166260597D01*
X93827575Y-166446158D01*
X93772998Y-166489783D01*
X93703500Y-166496977D01*
X93641145Y-166465454D01*
X93624425Y-166446158D01*
X93494494Y-166260597D01*
X93327402Y-166093506D01*
X93327395Y-166093501D01*
X93133834Y-165957967D01*
X93133830Y-165957965D01*
X93133828Y-165957964D01*
X92919663Y-165858097D01*
X92919659Y-165858096D01*
X92919655Y-165858094D01*
X92691413Y-165796938D01*
X92691403Y-165796936D01*
X92456001Y-165776341D01*
X92455999Y-165776341D01*
X92220596Y-165796936D01*
X92220583Y-165796939D01*
X92122356Y-165823258D01*
X92052507Y-165821595D01*
X92002583Y-165791164D01*
X64925818Y-138714399D01*
X64892333Y-138653076D01*
X64889499Y-138626718D01*
X64889499Y-133792465D01*
X64909184Y-133725426D01*
X64921350Y-133709492D01*
X64994533Y-133628216D01*
X65089179Y-133464284D01*
X65147674Y-133284256D01*
X65167460Y-133096000D01*
X65147674Y-132907744D01*
X65089179Y-132727716D01*
X64994533Y-132563784D01*
X64867871Y-132423112D01*
X64867870Y-132423111D01*
X64714734Y-132311851D01*
X64714729Y-132311848D01*
X64541807Y-132234857D01*
X64541802Y-132234855D01*
X64391729Y-132202957D01*
X64356646Y-132195500D01*
X64167354Y-132195500D01*
X64144588Y-132200339D01*
X63982197Y-132234855D01*
X63982192Y-132234857D01*
X63809270Y-132311848D01*
X63809265Y-132311851D01*
X63656129Y-132423111D01*
X63529466Y-132563785D01*
X63434821Y-132727715D01*
X63434818Y-132727722D01*
X63376327Y-132907740D01*
X63376326Y-132907744D01*
X63356540Y-133096000D01*
X47369419Y-133096000D01*
X47134356Y-132860937D01*
X47134353Y-132860935D01*
X46809203Y-132535785D01*
X46476376Y-132202957D01*
X46466531Y-132190668D01*
X46466313Y-132190849D01*
X46461340Y-132184838D01*
X46455346Y-132179209D01*
X46410741Y-132137322D01*
X46396789Y-132123370D01*
X46389797Y-132116377D01*
X46384296Y-132112111D01*
X46379848Y-132108312D01*
X46345768Y-132076308D01*
X46345763Y-132076304D01*
X46328122Y-132066606D01*
X46311857Y-132055922D01*
X46295963Y-132043593D01*
X46295962Y-132043592D01*
X46280804Y-132037032D01*
X46253054Y-132025023D01*
X46247807Y-132022453D01*
X46206837Y-131999929D01*
X46206828Y-131999926D01*
X46187334Y-131994920D01*
X46168933Y-131988620D01*
X46150459Y-131980626D01*
X46150452Y-131980624D01*
X46104287Y-131973313D01*
X46098563Y-131972128D01*
X46053279Y-131960500D01*
X46053272Y-131960500D01*
X46033142Y-131960500D01*
X46013743Y-131958973D01*
X45993868Y-131955825D01*
X45993867Y-131955825D01*
X45947321Y-131960225D01*
X45941483Y-131960500D01*
X38919281Y-131960500D01*
X38852242Y-131940815D01*
X38831600Y-131924181D01*
X38048600Y-131141181D01*
X38015115Y-131079858D01*
X38020099Y-131010166D01*
X38061971Y-130954233D01*
X38127435Y-130929816D01*
X38136281Y-130929500D01*
X66490719Y-130929500D01*
X66557758Y-130949185D01*
X66578400Y-130965819D01*
X81793624Y-146181043D01*
X81803471Y-146193333D01*
X81803689Y-146193154D01*
X81808657Y-146199160D01*
X81859257Y-146246677D01*
X81880201Y-146267620D01*
X81880207Y-146267626D01*
X81885697Y-146271883D01*
X81890148Y-146275684D01*
X81924235Y-146307695D01*
X81924237Y-146307696D01*
X81941867Y-146317387D01*
X81958135Y-146328072D01*
X81974038Y-146340408D01*
X82016945Y-146358975D01*
X82022181Y-146361539D01*
X82047089Y-146375233D01*
X82063158Y-146384068D01*
X82063160Y-146384069D01*
X82063166Y-146384072D01*
X82082240Y-146388969D01*
X82082660Y-146389077D01*
X82101064Y-146395377D01*
X82119542Y-146403374D01*
X82163038Y-146410262D01*
X82165724Y-146410688D01*
X82171429Y-146411869D01*
X82216728Y-146423500D01*
X82236858Y-146423500D01*
X82256257Y-146425027D01*
X82276133Y-146428175D01*
X82318779Y-146424143D01*
X82322679Y-146423775D01*
X82328517Y-146423500D01*
X95675033Y-146423500D01*
X95690681Y-146425227D01*
X95690708Y-146424946D01*
X95698475Y-146425680D01*
X95698476Y-146425679D01*
X95698477Y-146425680D01*
X95767860Y-146423500D01*
X95797476Y-146423500D01*
X95804378Y-146422627D01*
X95810190Y-146422169D01*
X95856943Y-146420701D01*
X95876272Y-146415084D01*
X95895328Y-146411137D01*
X95915293Y-146408616D01*
X95958770Y-146391401D01*
X95964276Y-146389516D01*
X96009191Y-146376468D01*
X96026515Y-146366221D01*
X96043983Y-146357663D01*
X96062703Y-146350253D01*
X96100542Y-146322759D01*
X96105391Y-146319574D01*
X96145656Y-146295763D01*
X96159897Y-146281520D01*
X96174678Y-146268897D01*
X96190967Y-146257063D01*
X96190969Y-146257059D01*
X96190971Y-146257059D01*
X96202845Y-146242703D01*
X96220776Y-146221028D01*
X96224689Y-146216728D01*
X97921043Y-144520374D01*
X97933325Y-144510537D01*
X97933144Y-144510318D01*
X97939152Y-144505346D01*
X97939162Y-144505340D01*
X97986677Y-144454741D01*
X98007623Y-144433796D01*
X98011892Y-144428290D01*
X98015676Y-144423859D01*
X98047693Y-144389767D01*
X98057389Y-144372128D01*
X98068073Y-144355861D01*
X98080408Y-144339962D01*
X98098983Y-144297034D01*
X98101534Y-144291827D01*
X98124072Y-144250834D01*
X98129078Y-144231334D01*
X98135376Y-144212936D01*
X98143374Y-144194458D01*
X98150688Y-144148276D01*
X98151870Y-144142565D01*
X98163500Y-144097272D01*
X98163500Y-144077141D01*
X98165027Y-144057741D01*
X98168175Y-144037867D01*
X98163775Y-143991321D01*
X98163500Y-143985483D01*
X98163500Y-143005826D01*
X98183185Y-142938787D01*
X98216375Y-142904252D01*
X98407401Y-142770495D01*
X98574495Y-142603401D01*
X98704426Y-142417841D01*
X98759002Y-142374217D01*
X98828500Y-142367023D01*
X98890855Y-142398546D01*
X98907575Y-142417842D01*
X99037281Y-142603082D01*
X99037505Y-142603401D01*
X99204599Y-142770495D01*
X99281135Y-142824086D01*
X99398165Y-142906032D01*
X99398167Y-142906033D01*
X99398170Y-142906035D01*
X99612337Y-143005903D01*
X99840592Y-143067063D01*
X100011319Y-143082000D01*
X100075999Y-143087659D01*
X100076000Y-143087659D01*
X100076001Y-143087659D01*
X100140681Y-143082000D01*
X100311408Y-143067063D01*
X100539663Y-143005903D01*
X100753830Y-142906035D01*
X100947401Y-142770495D01*
X101114495Y-142603401D01*
X101244426Y-142417840D01*
X101299001Y-142374217D01*
X101368499Y-142367023D01*
X101430854Y-142398546D01*
X101447574Y-142417841D01*
X101492321Y-142481746D01*
X101577505Y-142603401D01*
X101744599Y-142770495D01*
X101821135Y-142824086D01*
X101938165Y-142906032D01*
X101938167Y-142906033D01*
X101938170Y-142906035D01*
X102152337Y-143005903D01*
X102380592Y-143067063D01*
X102551319Y-143082000D01*
X102615999Y-143087659D01*
X102616000Y-143087659D01*
X102616001Y-143087659D01*
X102680681Y-143082000D01*
X102851408Y-143067063D01*
X103079663Y-143005903D01*
X103293830Y-142906035D01*
X103487401Y-142770495D01*
X103654495Y-142603401D01*
X103784730Y-142417405D01*
X103839307Y-142373781D01*
X103908805Y-142366587D01*
X103971160Y-142398110D01*
X103987879Y-142417405D01*
X104117890Y-142603078D01*
X104284917Y-142770105D01*
X104478421Y-142905600D01*
X104692507Y-143005429D01*
X104692516Y-143005433D01*
X104906000Y-143062634D01*
X104906000Y-142344301D01*
X104925685Y-142277262D01*
X104978489Y-142231507D01*
X105047647Y-142221563D01*
X105120237Y-142232000D01*
X105120238Y-142232000D01*
X105191762Y-142232000D01*
X105191763Y-142232000D01*
X105264353Y-142221563D01*
X105333512Y-142231507D01*
X105386315Y-142277262D01*
X105406000Y-142344301D01*
X105406000Y-143062633D01*
X105619483Y-143005433D01*
X105619492Y-143005429D01*
X105833578Y-142905600D01*
X106027082Y-142770105D01*
X106194105Y-142603082D01*
X106329600Y-142409578D01*
X106429429Y-142195492D01*
X106429432Y-142195486D01*
X106486636Y-141982000D01*
X105769347Y-141982000D01*
X105702308Y-141962315D01*
X105656553Y-141909511D01*
X105646609Y-141840353D01*
X105650369Y-141823067D01*
X105656000Y-141803888D01*
X105656000Y-141660111D01*
X105650369Y-141640933D01*
X105650370Y-141571064D01*
X105688145Y-141512286D01*
X105751701Y-141483262D01*
X105769347Y-141482000D01*
X106486636Y-141482000D01*
X106486635Y-141481999D01*
X106429432Y-141268513D01*
X106429429Y-141268507D01*
X106329600Y-141054422D01*
X106329599Y-141054420D01*
X106194113Y-140860926D01*
X106194108Y-140860920D01*
X106027082Y-140693894D01*
X105833578Y-140558399D01*
X105619492Y-140458570D01*
X105619486Y-140458567D01*
X105406000Y-140401364D01*
X105406000Y-141119698D01*
X105386315Y-141186737D01*
X105333511Y-141232492D01*
X105264355Y-141242436D01*
X105191766Y-141232000D01*
X105191763Y-141232000D01*
X105120237Y-141232000D01*
X105120233Y-141232000D01*
X105047645Y-141242436D01*
X104978487Y-141232492D01*
X104925684Y-141186736D01*
X104906000Y-141119698D01*
X104906000Y-140401364D01*
X104905999Y-140401364D01*
X104692513Y-140458567D01*
X104692507Y-140458570D01*
X104478422Y-140558399D01*
X104478420Y-140558400D01*
X104284926Y-140693886D01*
X104284920Y-140693891D01*
X104117891Y-140860920D01*
X104117890Y-140860922D01*
X103987880Y-141046595D01*
X103933303Y-141090219D01*
X103863804Y-141097412D01*
X103801450Y-141065890D01*
X103784730Y-141046594D01*
X103654494Y-140860597D01*
X103487402Y-140693506D01*
X103487395Y-140693501D01*
X103293834Y-140557967D01*
X103293830Y-140557965D01*
X103293828Y-140557964D01*
X103079663Y-140458097D01*
X103079659Y-140458096D01*
X103079655Y-140458094D01*
X102851413Y-140396938D01*
X102851403Y-140396936D01*
X102616001Y-140376341D01*
X102615999Y-140376341D01*
X102380596Y-140396936D01*
X102380586Y-140396938D01*
X102152344Y-140458094D01*
X102152335Y-140458098D01*
X101938171Y-140557964D01*
X101938169Y-140557965D01*
X101744597Y-140693505D01*
X101577508Y-140860594D01*
X101447574Y-141046159D01*
X101392997Y-141089784D01*
X101323498Y-141096976D01*
X101261144Y-141065454D01*
X101244424Y-141046158D01*
X101114494Y-140860597D01*
X100947402Y-140693506D01*
X100947395Y-140693501D01*
X100753834Y-140557967D01*
X100753830Y-140557965D01*
X100753828Y-140557964D01*
X100539663Y-140458097D01*
X100539659Y-140458096D01*
X100539655Y-140458094D01*
X100311413Y-140396938D01*
X100311403Y-140396936D01*
X100076001Y-140376341D01*
X100075999Y-140376341D01*
X99840596Y-140396936D01*
X99840586Y-140396938D01*
X99612344Y-140458094D01*
X99612335Y-140458098D01*
X99398171Y-140557964D01*
X99398169Y-140557965D01*
X99204597Y-140693505D01*
X99037508Y-140860594D01*
X98907574Y-141046159D01*
X98852997Y-141089784D01*
X98783498Y-141096976D01*
X98721144Y-141065454D01*
X98704424Y-141046158D01*
X98574494Y-140860597D01*
X98407402Y-140693506D01*
X98407395Y-140693501D01*
X98213834Y-140557967D01*
X98213830Y-140557965D01*
X98213828Y-140557964D01*
X97999663Y-140458097D01*
X97999659Y-140458096D01*
X97999655Y-140458094D01*
X97771413Y-140396938D01*
X97771403Y-140396936D01*
X97536001Y-140376341D01*
X97535999Y-140376341D01*
X97300596Y-140396936D01*
X97300586Y-140396938D01*
X97072344Y-140458094D01*
X97072335Y-140458098D01*
X96858171Y-140557964D01*
X96858169Y-140557965D01*
X96664597Y-140693505D01*
X96497505Y-140860597D01*
X96367575Y-141046158D01*
X96312998Y-141089783D01*
X96243500Y-141096977D01*
X96181145Y-141065454D01*
X96164425Y-141046158D01*
X96034494Y-140860597D01*
X95867402Y-140693506D01*
X95867401Y-140693505D01*
X95676376Y-140559748D01*
X95632752Y-140505171D01*
X95623500Y-140458173D01*
X95623500Y-137496964D01*
X95625228Y-137481313D01*
X95624946Y-137481287D01*
X95625680Y-137473524D01*
X95623500Y-137404140D01*
X95623500Y-137374530D01*
X95623500Y-137374524D01*
X95622626Y-137367607D01*
X95622169Y-137361792D01*
X95620701Y-137315057D01*
X95615084Y-137295727D01*
X95611138Y-137276668D01*
X95608617Y-137256711D01*
X95608616Y-137256709D01*
X95608616Y-137256707D01*
X95591403Y-137213234D01*
X95589514Y-137207713D01*
X95576467Y-137162807D01*
X95566225Y-137145489D01*
X95557662Y-137128011D01*
X95550253Y-137109297D01*
X95550253Y-137109296D01*
X95522771Y-137071472D01*
X95519567Y-137066596D01*
X95495763Y-137026344D01*
X95495761Y-137026342D01*
X95495759Y-137026339D01*
X95481531Y-137012112D01*
X95468896Y-136997320D01*
X95457063Y-136981033D01*
X95457060Y-136981031D01*
X95457060Y-136981030D01*
X95457059Y-136981029D01*
X95421035Y-136951228D01*
X95416713Y-136947294D01*
X69082376Y-110612957D01*
X69072531Y-110600668D01*
X69072313Y-110600849D01*
X69067340Y-110594838D01*
X69067340Y-110594837D01*
X69016741Y-110547322D01*
X69006268Y-110536849D01*
X68995797Y-110526377D01*
X68990296Y-110522111D01*
X68985848Y-110518312D01*
X68951768Y-110486308D01*
X68951763Y-110486304D01*
X68934122Y-110476606D01*
X68917857Y-110465922D01*
X68901963Y-110453593D01*
X68901962Y-110453592D01*
X68886804Y-110447032D01*
X68859054Y-110435023D01*
X68853807Y-110432453D01*
X68812837Y-110409929D01*
X68812828Y-110409926D01*
X68793334Y-110404920D01*
X68774933Y-110398620D01*
X68756459Y-110390626D01*
X68756452Y-110390624D01*
X68710287Y-110383313D01*
X68704563Y-110382128D01*
X68659279Y-110370500D01*
X68659272Y-110370500D01*
X68639142Y-110370500D01*
X68619743Y-110368973D01*
X68599868Y-110365825D01*
X68599867Y-110365825D01*
X68553321Y-110370225D01*
X68547483Y-110370500D01*
X60001281Y-110370500D01*
X59934242Y-110350815D01*
X59913600Y-110334181D01*
X58850628Y-109271209D01*
X58817143Y-109209886D01*
X58814990Y-109196506D01*
X58797674Y-109031744D01*
X58739179Y-108851716D01*
X58644533Y-108687784D01*
X58517871Y-108547112D01*
X58517870Y-108547111D01*
X58364734Y-108435851D01*
X58364729Y-108435848D01*
X58191807Y-108358857D01*
X58191802Y-108358855D01*
X58046001Y-108327865D01*
X58006646Y-108319500D01*
X57967280Y-108319500D01*
X57900241Y-108299815D01*
X57854486Y-108247011D01*
X57844542Y-108177853D01*
X57873567Y-108114297D01*
X57879599Y-108107819D01*
X58205453Y-107781965D01*
X58551043Y-107436374D01*
X58563325Y-107426537D01*
X58563144Y-107426318D01*
X58569152Y-107421346D01*
X58569162Y-107421340D01*
X58616677Y-107370741D01*
X58637623Y-107349796D01*
X58641892Y-107344290D01*
X58645676Y-107339859D01*
X58677693Y-107305767D01*
X58687389Y-107288128D01*
X58698073Y-107271861D01*
X58710408Y-107255962D01*
X58728983Y-107213034D01*
X58731534Y-107207827D01*
X58754072Y-107166834D01*
X58759078Y-107147334D01*
X58765376Y-107128936D01*
X58773374Y-107110458D01*
X58780688Y-107064276D01*
X58781870Y-107058565D01*
X58793500Y-107013272D01*
X58793500Y-106993141D01*
X58795027Y-106973741D01*
X58798175Y-106953867D01*
X58793775Y-106907321D01*
X58793500Y-106901483D01*
X58793500Y-102906281D01*
X58813185Y-102839242D01*
X58865989Y-102793487D01*
X58935147Y-102783543D01*
X58998703Y-102812568D01*
X59005181Y-102818600D01*
X59949624Y-103763043D01*
X59959471Y-103775333D01*
X59959689Y-103775154D01*
X59964657Y-103781160D01*
X60015257Y-103828677D01*
X60036201Y-103849620D01*
X60036207Y-103849626D01*
X60041697Y-103853883D01*
X60046148Y-103857684D01*
X60080235Y-103889695D01*
X60080237Y-103889696D01*
X60097867Y-103899387D01*
X60114135Y-103910072D01*
X60130038Y-103922408D01*
X60130040Y-103922409D01*
X60130042Y-103922410D01*
X60151380Y-103931643D01*
X60172943Y-103940974D01*
X60178190Y-103943545D01*
X60199734Y-103955389D01*
X60219166Y-103966072D01*
X60238667Y-103971079D01*
X60257065Y-103977378D01*
X60275541Y-103985373D01*
X60321740Y-103992690D01*
X60327414Y-103993865D01*
X60372728Y-104005500D01*
X60392864Y-104005500D01*
X60412263Y-104007027D01*
X60432133Y-104010174D01*
X60478670Y-104005774D01*
X60484507Y-104005500D01*
X63188719Y-104005500D01*
X63255758Y-104025185D01*
X63276400Y-104041819D01*
X65884180Y-106649600D01*
X65917665Y-106710923D01*
X65920499Y-106737281D01*
X65920500Y-108523534D01*
X65900815Y-108590573D01*
X65888650Y-108606506D01*
X65815466Y-108687785D01*
X65720821Y-108851715D01*
X65720818Y-108851722D01*
X65664471Y-109025141D01*
X65662326Y-109031744D01*
X65642540Y-109220000D01*
X65662326Y-109408256D01*
X65662327Y-109408259D01*
X65720818Y-109588277D01*
X65720821Y-109588284D01*
X65815467Y-109752216D01*
X65883159Y-109827395D01*
X65942129Y-109892888D01*
X66095265Y-110004148D01*
X66095270Y-110004151D01*
X66268192Y-110081142D01*
X66268197Y-110081144D01*
X66453354Y-110120500D01*
X66453355Y-110120500D01*
X66642644Y-110120500D01*
X66642646Y-110120500D01*
X66827803Y-110081144D01*
X67000730Y-110004151D01*
X67153871Y-109892888D01*
X67280533Y-109752216D01*
X67375179Y-109588284D01*
X67433674Y-109408256D01*
X67453460Y-109220000D01*
X67433674Y-109031744D01*
X67375179Y-108851716D01*
X67280533Y-108687784D01*
X67207350Y-108606506D01*
X67177120Y-108543515D01*
X67175500Y-108523534D01*
X67175500Y-106508964D01*
X67177228Y-106493313D01*
X67176946Y-106493287D01*
X67177680Y-106485524D01*
X67175500Y-106416140D01*
X67175500Y-106386530D01*
X67175500Y-106386524D01*
X67174626Y-106379607D01*
X67174169Y-106373792D01*
X67172701Y-106327057D01*
X67167084Y-106307727D01*
X67163138Y-106288668D01*
X67160617Y-106268711D01*
X67160616Y-106268709D01*
X67160616Y-106268707D01*
X67143403Y-106225234D01*
X67141514Y-106219713D01*
X67128467Y-106174807D01*
X67118225Y-106157489D01*
X67109662Y-106140011D01*
X67102253Y-106121297D01*
X67102253Y-106121296D01*
X67074771Y-106083472D01*
X67071567Y-106078596D01*
X67047763Y-106038344D01*
X67047761Y-106038342D01*
X67047759Y-106038339D01*
X67033531Y-106024112D01*
X67020896Y-106009320D01*
X67009063Y-105993033D01*
X67009060Y-105993031D01*
X67009060Y-105993030D01*
X67009059Y-105993029D01*
X66973035Y-105963228D01*
X66968713Y-105959294D01*
X64002376Y-102992957D01*
X63992531Y-102980668D01*
X63992313Y-102980849D01*
X63987340Y-102974838D01*
X63987340Y-102974837D01*
X63936741Y-102927322D01*
X63926268Y-102916849D01*
X63915797Y-102906377D01*
X63910296Y-102902111D01*
X63905848Y-102898312D01*
X63871768Y-102866308D01*
X63871763Y-102866304D01*
X63854122Y-102856606D01*
X63837857Y-102845922D01*
X63829245Y-102839242D01*
X63821962Y-102833592D01*
X63806804Y-102827032D01*
X63779054Y-102815023D01*
X63773807Y-102812453D01*
X63732837Y-102789929D01*
X63732828Y-102789926D01*
X63713334Y-102784920D01*
X63694933Y-102778620D01*
X63676459Y-102770626D01*
X63676452Y-102770624D01*
X63630287Y-102763313D01*
X63624563Y-102762128D01*
X63579279Y-102750500D01*
X63579272Y-102750500D01*
X63559142Y-102750500D01*
X63539743Y-102748973D01*
X63519868Y-102745825D01*
X63519867Y-102745825D01*
X63473321Y-102750225D01*
X63467483Y-102750500D01*
X60763281Y-102750500D01*
X60696242Y-102730815D01*
X60675600Y-102714181D01*
X59591819Y-101630400D01*
X59558334Y-101569077D01*
X59555500Y-101542719D01*
X59555500Y-97339280D01*
X59575185Y-97272241D01*
X59591814Y-97251604D01*
X61437599Y-95405818D01*
X61498923Y-95372334D01*
X61525281Y-95369500D01*
X63560053Y-95369500D01*
X63627092Y-95389185D01*
X63652199Y-95410523D01*
X63656129Y-95414888D01*
X63656132Y-95414891D01*
X63656135Y-95414893D01*
X63809265Y-95526148D01*
X63809267Y-95526149D01*
X63809270Y-95526151D01*
X63855598Y-95546777D01*
X63908834Y-95592027D01*
X63929155Y-95658876D01*
X63910110Y-95726099D01*
X63892842Y-95747737D01*
X63530400Y-96110181D01*
X63469077Y-96143666D01*
X63442719Y-96146500D01*
X62423947Y-96146500D01*
X62356908Y-96126815D01*
X62331800Y-96105476D01*
X62327871Y-96101112D01*
X62327869Y-96101111D01*
X62327867Y-96101108D01*
X62327864Y-96101106D01*
X62174734Y-95989851D01*
X62174729Y-95989848D01*
X62001807Y-95912857D01*
X62001802Y-95912855D01*
X61845721Y-95879680D01*
X61816646Y-95873500D01*
X61627354Y-95873500D01*
X61598279Y-95879680D01*
X61442197Y-95912855D01*
X61442192Y-95912857D01*
X61269270Y-95989848D01*
X61269265Y-95989851D01*
X61116129Y-96101111D01*
X60989466Y-96241785D01*
X60894821Y-96405715D01*
X60894818Y-96405722D01*
X60836327Y-96585740D01*
X60836326Y-96585744D01*
X60816540Y-96774000D01*
X60836326Y-96962256D01*
X60836327Y-96962259D01*
X60894818Y-97142277D01*
X60894821Y-97142284D01*
X60989467Y-97306216D01*
X61099891Y-97428854D01*
X61116129Y-97446888D01*
X61269265Y-97558148D01*
X61269270Y-97558151D01*
X61442192Y-97635142D01*
X61442197Y-97635144D01*
X61627354Y-97674500D01*
X61627355Y-97674500D01*
X61816644Y-97674500D01*
X61816646Y-97674500D01*
X62001803Y-97635144D01*
X62174730Y-97558151D01*
X62327871Y-97446888D01*
X62331799Y-97442525D01*
X62391286Y-97405879D01*
X62423947Y-97401500D01*
X63671033Y-97401500D01*
X63686681Y-97403227D01*
X63686708Y-97402946D01*
X63694475Y-97403680D01*
X63694476Y-97403679D01*
X63694477Y-97403680D01*
X63763860Y-97401500D01*
X63793476Y-97401500D01*
X63800378Y-97400627D01*
X63806190Y-97400169D01*
X63852943Y-97398701D01*
X63872272Y-97393084D01*
X63891328Y-97389137D01*
X63911293Y-97386616D01*
X63954770Y-97369401D01*
X63960276Y-97367516D01*
X64005191Y-97354468D01*
X64022515Y-97344221D01*
X64039983Y-97335663D01*
X64058703Y-97328253D01*
X64096542Y-97300759D01*
X64101391Y-97297574D01*
X64141656Y-97273763D01*
X64155897Y-97259520D01*
X64170678Y-97246897D01*
X64186967Y-97235063D01*
X64186969Y-97235059D01*
X64186971Y-97235059D01*
X64198845Y-97220703D01*
X64216776Y-97199028D01*
X64220689Y-97194728D01*
X65962821Y-95452596D01*
X66024142Y-95419113D01*
X66093834Y-95424097D01*
X66149767Y-95465969D01*
X66174184Y-95531433D01*
X66174500Y-95540279D01*
X66174500Y-98040173D01*
X66154815Y-98107212D01*
X66121624Y-98141748D01*
X65930594Y-98275508D01*
X65763505Y-98442597D01*
X65633575Y-98628158D01*
X65578998Y-98671783D01*
X65509500Y-98678977D01*
X65447145Y-98647454D01*
X65430425Y-98628158D01*
X65300494Y-98442597D01*
X65133402Y-98275506D01*
X65133395Y-98275501D01*
X64939834Y-98139967D01*
X64939830Y-98139965D01*
X64939829Y-98139964D01*
X64725663Y-98040097D01*
X64725659Y-98040096D01*
X64725655Y-98040094D01*
X64497413Y-97978938D01*
X64497403Y-97978936D01*
X64262001Y-97958341D01*
X64261999Y-97958341D01*
X64026596Y-97978936D01*
X64026586Y-97978938D01*
X63798344Y-98040094D01*
X63798335Y-98040098D01*
X63584171Y-98139964D01*
X63584169Y-98139965D01*
X63390597Y-98275505D01*
X63223505Y-98442597D01*
X63093575Y-98628158D01*
X63038998Y-98671783D01*
X62969500Y-98678977D01*
X62907145Y-98647454D01*
X62890425Y-98628158D01*
X62760494Y-98442597D01*
X62593402Y-98275506D01*
X62593395Y-98275501D01*
X62399834Y-98139967D01*
X62399830Y-98139965D01*
X62399829Y-98139964D01*
X62185663Y-98040097D01*
X62185659Y-98040096D01*
X62185655Y-98040094D01*
X61957413Y-97978938D01*
X61957403Y-97978936D01*
X61722001Y-97958341D01*
X61721999Y-97958341D01*
X61486596Y-97978936D01*
X61486586Y-97978938D01*
X61258344Y-98040094D01*
X61258335Y-98040098D01*
X61044171Y-98139964D01*
X61044169Y-98139965D01*
X60850597Y-98275505D01*
X60683505Y-98442597D01*
X60547965Y-98636169D01*
X60547964Y-98636171D01*
X60448098Y-98850335D01*
X60448094Y-98850344D01*
X60386938Y-99078586D01*
X60386936Y-99078596D01*
X60366341Y-99313999D01*
X60366341Y-99314000D01*
X60386936Y-99549403D01*
X60386938Y-99549413D01*
X60448094Y-99777655D01*
X60448096Y-99777659D01*
X60448097Y-99777663D01*
X60527801Y-99948588D01*
X60547965Y-99991830D01*
X60547967Y-99991834D01*
X60623856Y-100100214D01*
X60683505Y-100185401D01*
X60850599Y-100352495D01*
X60947384Y-100420264D01*
X61044165Y-100488032D01*
X61044167Y-100488033D01*
X61044170Y-100488035D01*
X61258337Y-100587903D01*
X61486592Y-100649063D01*
X61674918Y-100665539D01*
X61721999Y-100669659D01*
X61722000Y-100669659D01*
X61722001Y-100669659D01*
X61761234Y-100666226D01*
X61957408Y-100649063D01*
X62185663Y-100587903D01*
X62399830Y-100488035D01*
X62593401Y-100352495D01*
X62760495Y-100185401D01*
X62890424Y-99999842D01*
X62945002Y-99956217D01*
X63014500Y-99949023D01*
X63076855Y-99980546D01*
X63093575Y-99999842D01*
X63223500Y-100185395D01*
X63223505Y-100185401D01*
X63390599Y-100352495D01*
X63487384Y-100420264D01*
X63584165Y-100488032D01*
X63584167Y-100488033D01*
X63584170Y-100488035D01*
X63798337Y-100587903D01*
X64026592Y-100649063D01*
X64214918Y-100665539D01*
X64261999Y-100669659D01*
X64262000Y-100669659D01*
X64262001Y-100669659D01*
X64301234Y-100666226D01*
X64497408Y-100649063D01*
X64725663Y-100587903D01*
X64939830Y-100488035D01*
X65133401Y-100352495D01*
X65300495Y-100185401D01*
X65430424Y-99999842D01*
X65485002Y-99956217D01*
X65554500Y-99949023D01*
X65616855Y-99980546D01*
X65633575Y-99999842D01*
X65763500Y-100185395D01*
X65763505Y-100185401D01*
X65930599Y-100352495D01*
X66027384Y-100420264D01*
X66124165Y-100488032D01*
X66124167Y-100488033D01*
X66124170Y-100488035D01*
X66338337Y-100587903D01*
X66566592Y-100649063D01*
X66754918Y-100665539D01*
X66801999Y-100669659D01*
X66802000Y-100669659D01*
X66802001Y-100669659D01*
X66841234Y-100666226D01*
X67037408Y-100649063D01*
X67265663Y-100587903D01*
X67479830Y-100488035D01*
X67673401Y-100352495D01*
X67840495Y-100185401D01*
X67970424Y-99999842D01*
X68025002Y-99956217D01*
X68094500Y-99949023D01*
X68156855Y-99980546D01*
X68173575Y-99999842D01*
X68303500Y-100185395D01*
X68303505Y-100185401D01*
X68470599Y-100352495D01*
X68567384Y-100420264D01*
X68664165Y-100488032D01*
X68664167Y-100488033D01*
X68664170Y-100488035D01*
X68878337Y-100587903D01*
X69106592Y-100649063D01*
X69294918Y-100665539D01*
X69341999Y-100669659D01*
X69342000Y-100669659D01*
X69342001Y-100669659D01*
X69381234Y-100666226D01*
X69577408Y-100649063D01*
X69805663Y-100587903D01*
X70019830Y-100488035D01*
X70213401Y-100352495D01*
X70380495Y-100185401D01*
X70510730Y-99999405D01*
X70565307Y-99955781D01*
X70634805Y-99948587D01*
X70697160Y-99980110D01*
X70713879Y-99999405D01*
X70843890Y-100185078D01*
X71010917Y-100352105D01*
X71204421Y-100487600D01*
X71418507Y-100587429D01*
X71418516Y-100587433D01*
X71632000Y-100644634D01*
X71632000Y-99926301D01*
X71651685Y-99859262D01*
X71704489Y-99813507D01*
X71773647Y-99803563D01*
X71846237Y-99814000D01*
X71846238Y-99814000D01*
X71917762Y-99814000D01*
X71917763Y-99814000D01*
X71990353Y-99803563D01*
X72059512Y-99813507D01*
X72112315Y-99859262D01*
X72132000Y-99926301D01*
X72132000Y-100644633D01*
X72345483Y-100587433D01*
X72345492Y-100587429D01*
X72559578Y-100487600D01*
X72753082Y-100352105D01*
X72920105Y-100185082D01*
X73050119Y-99999405D01*
X73104696Y-99955781D01*
X73174195Y-99948588D01*
X73236549Y-99980110D01*
X73253269Y-99999405D01*
X73383505Y-100185401D01*
X73550599Y-100352495D01*
X73647384Y-100420264D01*
X73744165Y-100488032D01*
X73744167Y-100488033D01*
X73744170Y-100488035D01*
X73958337Y-100587903D01*
X74186592Y-100649063D01*
X74374918Y-100665539D01*
X74421999Y-100669659D01*
X74422000Y-100669659D01*
X74422001Y-100669659D01*
X74461234Y-100666226D01*
X74657408Y-100649063D01*
X74885663Y-100587903D01*
X75099830Y-100488035D01*
X75293401Y-100352495D01*
X75460495Y-100185401D01*
X75594252Y-99994375D01*
X75648829Y-99950752D01*
X75695827Y-99941500D01*
X76117033Y-99941500D01*
X76132681Y-99943227D01*
X76132708Y-99942946D01*
X76140475Y-99943680D01*
X76140476Y-99943679D01*
X76140477Y-99943680D01*
X76209860Y-99941500D01*
X76239476Y-99941500D01*
X76246378Y-99940627D01*
X76252190Y-99940169D01*
X76298943Y-99938701D01*
X76318272Y-99933084D01*
X76337328Y-99929137D01*
X76357293Y-99926616D01*
X76400770Y-99909401D01*
X76406276Y-99907516D01*
X76451191Y-99894468D01*
X76468515Y-99884221D01*
X76485983Y-99875663D01*
X76504703Y-99868253D01*
X76542542Y-99840759D01*
X76547391Y-99837574D01*
X76587656Y-99813763D01*
X76601897Y-99799520D01*
X76616678Y-99786897D01*
X76632967Y-99775063D01*
X76632969Y-99775059D01*
X76632971Y-99775059D01*
X76644845Y-99760703D01*
X76662776Y-99739028D01*
X76666689Y-99734728D01*
X80487599Y-95913819D01*
X80548923Y-95880334D01*
X80575281Y-95877500D01*
X81705033Y-95877500D01*
X81720681Y-95879227D01*
X81720708Y-95878946D01*
X81728475Y-95879680D01*
X81728476Y-95879679D01*
X81728477Y-95879680D01*
X81797860Y-95877500D01*
X81827476Y-95877500D01*
X81834378Y-95876627D01*
X81840190Y-95876169D01*
X81886943Y-95874701D01*
X81906272Y-95869084D01*
X81925328Y-95865137D01*
X81945293Y-95862616D01*
X81988770Y-95845401D01*
X81994276Y-95843516D01*
X82039191Y-95830468D01*
X82056515Y-95820221D01*
X82073983Y-95811663D01*
X82092703Y-95804253D01*
X82130542Y-95776759D01*
X82135391Y-95773574D01*
X82175656Y-95749763D01*
X82189897Y-95735520D01*
X82204678Y-95722897D01*
X82220967Y-95711063D01*
X82220969Y-95711059D01*
X82220971Y-95711059D01*
X82232845Y-95696703D01*
X82250776Y-95675028D01*
X82254689Y-95670728D01*
X83443043Y-94482374D01*
X83455325Y-94472537D01*
X83455144Y-94472318D01*
X83461152Y-94467346D01*
X83461162Y-94467340D01*
X83508677Y-94416741D01*
X83529623Y-94395796D01*
X83533892Y-94390290D01*
X83537676Y-94385859D01*
X83569693Y-94351767D01*
X83579389Y-94334128D01*
X83590073Y-94317861D01*
X83602408Y-94301962D01*
X83620978Y-94259046D01*
X83623534Y-94253827D01*
X83646072Y-94212834D01*
X83651081Y-94193322D01*
X83657378Y-94174932D01*
X83665373Y-94156459D01*
X83672689Y-94110257D01*
X83673864Y-94104583D01*
X83685500Y-94059272D01*
X83685500Y-94039140D01*
X83687027Y-94019741D01*
X83687555Y-94016408D01*
X83690175Y-93999867D01*
X83685775Y-93953321D01*
X83685500Y-93947483D01*
X83685500Y-92713826D01*
X83705185Y-92646787D01*
X83738375Y-92612252D01*
X83929401Y-92478495D01*
X84096495Y-92311401D01*
X84230252Y-92120375D01*
X84284829Y-92076752D01*
X84331827Y-92067500D01*
X86023033Y-92067500D01*
X86038681Y-92069227D01*
X86038708Y-92068946D01*
X86046475Y-92069680D01*
X86046476Y-92069679D01*
X86046477Y-92069680D01*
X86115860Y-92067500D01*
X86145476Y-92067500D01*
X86152378Y-92066627D01*
X86158190Y-92066169D01*
X86204943Y-92064701D01*
X86224272Y-92059084D01*
X86243328Y-92055137D01*
X86263293Y-92052616D01*
X86306770Y-92035401D01*
X86312276Y-92033516D01*
X86357191Y-92020468D01*
X86374515Y-92010221D01*
X86391983Y-92001663D01*
X86410703Y-91994253D01*
X86448542Y-91966759D01*
X86453391Y-91963574D01*
X86493656Y-91939763D01*
X86507897Y-91925520D01*
X86522678Y-91912897D01*
X86538967Y-91901063D01*
X86538969Y-91901059D01*
X86538971Y-91901059D01*
X86550845Y-91886703D01*
X86568776Y-91865028D01*
X86572689Y-91860728D01*
X96647643Y-81785774D01*
X96659925Y-81775937D01*
X96659744Y-81775718D01*
X96665752Y-81770746D01*
X96665762Y-81770740D01*
X96713277Y-81720141D01*
X96734223Y-81699196D01*
X96738492Y-81693690D01*
X96742276Y-81689259D01*
X96774293Y-81655167D01*
X96783989Y-81637528D01*
X96794673Y-81621261D01*
X96807008Y-81605362D01*
X96825578Y-81562446D01*
X96828134Y-81557227D01*
X96850672Y-81516234D01*
X96855678Y-81496734D01*
X96861982Y-81478324D01*
X96869970Y-81459865D01*
X96869973Y-81459859D01*
X96877287Y-81413680D01*
X96878468Y-81407970D01*
X96890100Y-81362672D01*
X96890100Y-81342535D01*
X96891627Y-81323135D01*
X96894774Y-81303267D01*
X96890375Y-81256729D01*
X96890100Y-81250891D01*
X96890100Y-76884499D01*
X96909785Y-76817460D01*
X96962589Y-76771705D01*
X97014100Y-76760499D01*
X97160471Y-76760499D01*
X97160472Y-76760499D01*
X97220083Y-76754091D01*
X97354931Y-76703796D01*
X97470146Y-76617546D01*
X97556396Y-76502331D01*
X97605410Y-76370916D01*
X97647281Y-76314984D01*
X97712745Y-76290566D01*
X97781018Y-76305417D01*
X97809273Y-76326569D01*
X97931199Y-76448495D01*
X98027984Y-76516264D01*
X98124765Y-76584032D01*
X98124767Y-76584033D01*
X98124770Y-76584035D01*
X98338937Y-76683903D01*
X98338943Y-76683904D01*
X98338944Y-76683905D01*
X98393885Y-76698626D01*
X98567192Y-76745063D01*
X98743634Y-76760500D01*
X98802599Y-76765659D01*
X98802600Y-76765659D01*
X98802601Y-76765659D01*
X98861566Y-76760500D01*
X99038008Y-76745063D01*
X99266263Y-76683903D01*
X99480430Y-76584035D01*
X99674001Y-76448495D01*
X99841095Y-76281401D01*
X99971024Y-76095842D01*
X100025602Y-76052217D01*
X100095100Y-76045023D01*
X100157455Y-76076546D01*
X100174175Y-76095842D01*
X100303881Y-76281082D01*
X100304105Y-76281401D01*
X100471199Y-76448495D01*
X100567984Y-76516264D01*
X100664765Y-76584032D01*
X100664767Y-76584033D01*
X100664770Y-76584035D01*
X100878937Y-76683903D01*
X100878943Y-76683904D01*
X100878944Y-76683905D01*
X100933885Y-76698626D01*
X101107192Y-76745063D01*
X101283634Y-76760500D01*
X101342599Y-76765659D01*
X101342600Y-76765659D01*
X101342601Y-76765659D01*
X101401566Y-76760500D01*
X101578008Y-76745063D01*
X101806263Y-76683903D01*
X102020430Y-76584035D01*
X102214001Y-76448495D01*
X102381095Y-76281401D01*
X102511330Y-76095405D01*
X102565907Y-76051781D01*
X102635405Y-76044587D01*
X102697760Y-76076110D01*
X102714479Y-76095405D01*
X102844490Y-76281078D01*
X103011517Y-76448105D01*
X103205021Y-76583600D01*
X103419107Y-76683429D01*
X103419116Y-76683433D01*
X103632600Y-76740634D01*
X103632600Y-76022301D01*
X103652285Y-75955262D01*
X103705089Y-75909507D01*
X103774247Y-75899563D01*
X103846837Y-75910000D01*
X103846838Y-75910000D01*
X103918362Y-75910000D01*
X103918363Y-75910000D01*
X103990952Y-75899563D01*
X104060110Y-75909507D01*
X104112914Y-75955261D01*
X104132599Y-76022301D01*
X104132599Y-76740633D01*
X104346083Y-76683433D01*
X104346092Y-76683429D01*
X104560178Y-76583600D01*
X104753682Y-76448105D01*
X104920705Y-76281082D01*
X105056200Y-76087578D01*
X105156029Y-75873492D01*
X105156032Y-75873486D01*
X105213236Y-75660000D01*
X104495947Y-75660000D01*
X104428908Y-75640315D01*
X104383153Y-75587511D01*
X104373209Y-75518353D01*
X104376969Y-75501067D01*
X104382600Y-75481888D01*
X104382600Y-75338111D01*
X104376969Y-75318933D01*
X104376970Y-75249064D01*
X104414745Y-75190286D01*
X104478301Y-75161262D01*
X104495947Y-75160000D01*
X105213236Y-75160000D01*
X105213235Y-75159999D01*
X105156032Y-74946513D01*
X105156029Y-74946507D01*
X105056200Y-74732422D01*
X105056199Y-74732420D01*
X104920713Y-74538926D01*
X104920708Y-74538920D01*
X104753682Y-74371894D01*
X104560178Y-74236399D01*
X104346092Y-74136570D01*
X104346086Y-74136567D01*
X104132599Y-74079364D01*
X104132599Y-74797698D01*
X104112914Y-74864737D01*
X104060110Y-74910492D01*
X103990953Y-74920436D01*
X103918364Y-74910000D01*
X103918363Y-74910000D01*
X103846837Y-74910000D01*
X103846833Y-74910000D01*
X103774245Y-74920436D01*
X103705087Y-74910492D01*
X103652284Y-74864736D01*
X103632600Y-74797698D01*
X103632600Y-74079364D01*
X103632599Y-74079364D01*
X103419113Y-74136567D01*
X103419107Y-74136570D01*
X103205022Y-74236399D01*
X103205020Y-74236400D01*
X103011526Y-74371886D01*
X103011520Y-74371891D01*
X102844491Y-74538920D01*
X102844490Y-74538922D01*
X102714480Y-74724595D01*
X102659903Y-74768219D01*
X102590404Y-74775412D01*
X102528050Y-74743890D01*
X102511330Y-74724594D01*
X102381094Y-74538597D01*
X102214002Y-74371506D01*
X102213995Y-74371501D01*
X102020434Y-74235967D01*
X102020430Y-74235965D01*
X102020430Y-74235964D01*
X101806263Y-74136097D01*
X101806259Y-74136096D01*
X101806255Y-74136094D01*
X101578013Y-74074938D01*
X101578003Y-74074936D01*
X101342601Y-74054341D01*
X101342599Y-74054341D01*
X101107196Y-74074936D01*
X101107186Y-74074938D01*
X100878944Y-74136094D01*
X100878935Y-74136098D01*
X100664771Y-74235964D01*
X100664769Y-74235965D01*
X100471197Y-74371505D01*
X100304105Y-74538597D01*
X100174175Y-74724158D01*
X100119598Y-74767783D01*
X100050100Y-74774977D01*
X99987745Y-74743454D01*
X99971025Y-74724158D01*
X99841094Y-74538597D01*
X99674002Y-74371506D01*
X99674001Y-74371505D01*
X99482976Y-74237748D01*
X99439352Y-74183171D01*
X99430100Y-74136173D01*
X99430100Y-72752177D01*
X99432770Y-72731039D01*
X99432522Y-72731008D01*
X99433499Y-72723275D01*
X99433500Y-72723272D01*
X99433500Y-72703135D01*
X99435027Y-72683735D01*
X99436961Y-72671523D01*
X99438174Y-72663867D01*
X99433775Y-72617329D01*
X99433500Y-72611491D01*
X99433500Y-72472964D01*
X99435228Y-72457313D01*
X99434946Y-72457287D01*
X99435680Y-72449524D01*
X99433500Y-72380140D01*
X99433500Y-72350530D01*
X99433500Y-72350524D01*
X99432626Y-72343607D01*
X99432169Y-72337792D01*
X99431744Y-72324256D01*
X99430701Y-72291057D01*
X99425084Y-72271727D01*
X99421138Y-72252668D01*
X99418617Y-72232711D01*
X99418616Y-72232709D01*
X99418616Y-72232707D01*
X99401403Y-72189234D01*
X99399514Y-72183713D01*
X99386467Y-72138807D01*
X99376225Y-72121489D01*
X99367662Y-72104011D01*
X99360253Y-72085297D01*
X99360253Y-72085296D01*
X99332771Y-72047472D01*
X99329567Y-72042596D01*
X99305763Y-72002344D01*
X99305761Y-72002342D01*
X99305759Y-72002339D01*
X99291531Y-71988112D01*
X99278896Y-71973320D01*
X99267063Y-71957033D01*
X99267060Y-71957031D01*
X99267060Y-71957030D01*
X99267059Y-71957029D01*
X99231035Y-71927228D01*
X99226713Y-71923294D01*
X98292376Y-70988957D01*
X98282531Y-70976668D01*
X98282313Y-70976849D01*
X98277340Y-70970838D01*
X98256438Y-70951210D01*
X98226741Y-70923322D01*
X98216268Y-70912849D01*
X98205797Y-70902377D01*
X98200296Y-70898111D01*
X98195848Y-70894312D01*
X98174273Y-70874051D01*
X98161767Y-70862307D01*
X98161766Y-70862306D01*
X98161763Y-70862304D01*
X98144122Y-70852606D01*
X98127857Y-70841922D01*
X98111963Y-70829593D01*
X98111962Y-70829592D01*
X98089212Y-70819747D01*
X98069054Y-70811023D01*
X98063807Y-70808453D01*
X98022837Y-70785929D01*
X98022828Y-70785926D01*
X98003334Y-70780920D01*
X97984933Y-70774620D01*
X97966459Y-70766626D01*
X97966452Y-70766624D01*
X97920287Y-70759313D01*
X97914563Y-70758128D01*
X97869279Y-70746500D01*
X97869272Y-70746500D01*
X97849142Y-70746500D01*
X97829743Y-70744973D01*
X97809868Y-70741825D01*
X97809867Y-70741825D01*
X97763321Y-70746225D01*
X97757483Y-70746500D01*
X34880967Y-70746500D01*
X34865318Y-70744772D01*
X34865292Y-70745054D01*
X34857524Y-70744319D01*
X34788141Y-70746500D01*
X34758522Y-70746500D01*
X34751618Y-70747371D01*
X34745800Y-70747829D01*
X34699060Y-70749298D01*
X34699054Y-70749299D01*
X34679719Y-70754916D01*
X34660680Y-70758859D01*
X34640715Y-70761382D01*
X34640701Y-70761385D01*
X34597235Y-70778594D01*
X34591710Y-70780485D01*
X34546809Y-70793531D01*
X34546806Y-70793533D01*
X34529480Y-70803779D01*
X34512010Y-70812337D01*
X34493298Y-70819745D01*
X34455463Y-70847233D01*
X34450580Y-70850440D01*
X34410346Y-70874234D01*
X34396106Y-70888474D01*
X34381320Y-70901102D01*
X34365033Y-70912936D01*
X34365032Y-70912936D01*
X34335227Y-70948963D01*
X34331295Y-70953285D01*
X34114046Y-71170533D01*
X34052723Y-71204018D01*
X33983031Y-71199034D01*
X33927098Y-71157162D01*
X33902681Y-71091698D01*
X33905076Y-71057065D01*
X33905670Y-71054266D01*
X33905674Y-71054256D01*
X33925460Y-70866000D01*
X33905674Y-70677744D01*
X33847179Y-70497716D01*
X33752533Y-70333784D01*
X33625871Y-70193112D01*
X33625870Y-70193111D01*
X33472734Y-70081851D01*
X33472729Y-70081848D01*
X33299807Y-70004857D01*
X33299802Y-70004855D01*
X33154000Y-69973865D01*
X33114646Y-69965500D01*
X32925354Y-69965500D01*
X32892897Y-69972398D01*
X32740197Y-70004855D01*
X32740192Y-70004857D01*
X32567270Y-70081848D01*
X32567265Y-70081851D01*
X32414135Y-70193106D01*
X32414132Y-70193108D01*
X32412175Y-70195281D01*
X32410200Y-70197474D01*
X32350714Y-70234121D01*
X32318053Y-70238500D01*
X31832967Y-70238500D01*
X31817319Y-70236772D01*
X31817293Y-70237054D01*
X31809525Y-70236319D01*
X31740154Y-70238500D01*
X31710521Y-70238500D01*
X31703607Y-70239373D01*
X31697790Y-70239830D01*
X31651058Y-70241299D01*
X31651054Y-70241300D01*
X31631722Y-70246916D01*
X31612682Y-70250859D01*
X31592712Y-70253382D01*
X31592708Y-70253383D01*
X31549237Y-70270594D01*
X31543710Y-70272486D01*
X31498812Y-70285530D01*
X31498805Y-70285533D01*
X31481480Y-70295779D01*
X31464010Y-70304337D01*
X31445298Y-70311745D01*
X31407463Y-70339233D01*
X31402580Y-70342440D01*
X31362346Y-70366234D01*
X31348106Y-70380474D01*
X31333320Y-70393102D01*
X31317033Y-70404936D01*
X31317032Y-70404936D01*
X31287227Y-70440963D01*
X31283295Y-70445284D01*
X30184180Y-71544400D01*
X30122857Y-71577885D01*
X30053165Y-71572901D01*
X29997232Y-71531029D01*
X29972815Y-71465565D01*
X29972499Y-71456719D01*
X29972499Y-41322000D01*
X101073364Y-41322000D01*
X101130567Y-41535486D01*
X101130570Y-41535492D01*
X101230399Y-41749578D01*
X101365894Y-41943082D01*
X101532917Y-42110105D01*
X101726421Y-42245600D01*
X101940507Y-42345429D01*
X101940516Y-42345433D01*
X102154000Y-42402634D01*
X102154000Y-41684301D01*
X102173685Y-41617262D01*
X102226489Y-41571507D01*
X102295647Y-41561563D01*
X102368237Y-41572000D01*
X102368238Y-41572000D01*
X102439762Y-41572000D01*
X102439763Y-41572000D01*
X102512353Y-41561563D01*
X102581512Y-41571507D01*
X102634315Y-41617262D01*
X102654000Y-41684301D01*
X102654000Y-42402633D01*
X102867483Y-42345433D01*
X102867492Y-42345429D01*
X103081578Y-42245600D01*
X103275082Y-42110105D01*
X103442105Y-41943082D01*
X103572119Y-41757405D01*
X103626696Y-41713781D01*
X103696195Y-41706588D01*
X103758549Y-41738110D01*
X103775269Y-41757405D01*
X103905505Y-41943401D01*
X104072599Y-42110495D01*
X104169384Y-42178265D01*
X104266165Y-42246032D01*
X104266167Y-42246033D01*
X104266170Y-42246035D01*
X104480337Y-42345903D01*
X104708592Y-42407063D01*
X104896918Y-42423539D01*
X104943999Y-42427659D01*
X104944000Y-42427659D01*
X104944001Y-42427659D01*
X104983234Y-42424226D01*
X105179408Y-42407063D01*
X105407663Y-42345903D01*
X105621830Y-42246035D01*
X105815401Y-42110495D01*
X105982495Y-41943401D01*
X106118035Y-41749830D01*
X106217903Y-41535663D01*
X106279063Y-41307408D01*
X106299659Y-41072000D01*
X106279063Y-40836592D01*
X106217903Y-40608337D01*
X106118035Y-40394171D01*
X106112731Y-40386595D01*
X105982494Y-40200597D01*
X105815402Y-40033506D01*
X105815395Y-40033501D01*
X105621834Y-39897967D01*
X105621830Y-39897965D01*
X105621830Y-39897964D01*
X105407663Y-39798097D01*
X105407659Y-39798096D01*
X105407655Y-39798094D01*
X105179413Y-39736938D01*
X105179403Y-39736936D01*
X104944001Y-39716341D01*
X104943999Y-39716341D01*
X104708596Y-39736936D01*
X104708586Y-39736938D01*
X104480344Y-39798094D01*
X104480335Y-39798098D01*
X104266171Y-39897964D01*
X104266169Y-39897965D01*
X104072597Y-40033505D01*
X103905508Y-40200594D01*
X103775269Y-40386595D01*
X103720692Y-40430219D01*
X103651193Y-40437412D01*
X103588839Y-40405890D01*
X103572119Y-40386594D01*
X103442113Y-40200926D01*
X103442108Y-40200920D01*
X103275082Y-40033894D01*
X103081578Y-39898399D01*
X102867492Y-39798570D01*
X102867486Y-39798567D01*
X102654000Y-39741364D01*
X102654000Y-40459698D01*
X102634315Y-40526737D01*
X102581511Y-40572492D01*
X102512355Y-40582436D01*
X102439766Y-40572000D01*
X102439763Y-40572000D01*
X102368237Y-40572000D01*
X102368233Y-40572000D01*
X102295645Y-40582436D01*
X102226487Y-40572492D01*
X102173684Y-40526736D01*
X102154000Y-40459698D01*
X102154000Y-39741364D01*
X102153999Y-39741364D01*
X101940513Y-39798567D01*
X101940507Y-39798570D01*
X101726422Y-39898399D01*
X101726420Y-39898400D01*
X101532926Y-40033886D01*
X101532920Y-40033891D01*
X101365891Y-40200920D01*
X101365886Y-40200926D01*
X101230400Y-40394420D01*
X101230399Y-40394422D01*
X101130570Y-40608507D01*
X101130567Y-40608513D01*
X101073364Y-40821999D01*
X101073364Y-40822000D01*
X101790653Y-40822000D01*
X101857692Y-40841685D01*
X101903447Y-40894489D01*
X101913391Y-40963647D01*
X101909631Y-40980933D01*
X101904000Y-41000111D01*
X101904000Y-41143888D01*
X101909631Y-41163067D01*
X101909630Y-41232936D01*
X101871855Y-41291714D01*
X101808299Y-41320738D01*
X101790653Y-41322000D01*
X101073364Y-41322000D01*
X29972499Y-41322000D01*
X29972499Y-26797000D01*
X30779323Y-26797000D01*
X30798012Y-26998697D01*
X30853446Y-27193524D01*
X30853451Y-27193537D01*
X30943736Y-27374852D01*
X31065808Y-27536502D01*
X31168674Y-27630276D01*
X31215502Y-27672965D01*
X31387723Y-27779600D01*
X31419022Y-27791725D01*
X31422031Y-27792994D01*
X31424526Y-27793857D01*
X31576606Y-27852774D01*
X31609298Y-27858885D01*
X31612488Y-27859570D01*
X31618849Y-27861114D01*
X31629121Y-27862590D01*
X31775719Y-27889995D01*
X31775720Y-27889995D01*
X31810854Y-27889995D01*
X31818994Y-27890577D01*
X31819000Y-27890458D01*
X31824895Y-27890738D01*
X31824899Y-27890739D01*
X31824902Y-27890738D01*
X31824907Y-27890739D01*
X31832450Y-27890380D01*
X31832463Y-27890383D01*
X31839125Y-27890065D01*
X31842078Y-27889995D01*
X31978278Y-27889995D01*
X31978281Y-27889995D01*
X32021220Y-27881968D01*
X32029641Y-27880985D01*
X32032832Y-27880834D01*
X32032838Y-27880832D01*
X32035224Y-27880719D01*
X32035278Y-27880714D01*
X32068060Y-27879151D01*
X32098532Y-27867515D01*
X32177394Y-27852774D01*
X32221927Y-27835521D01*
X32229537Y-27833125D01*
X32233289Y-27832204D01*
X32235133Y-27831757D01*
X32235137Y-27831754D01*
X32240859Y-27830368D01*
X32240875Y-27830363D01*
X32267350Y-27823940D01*
X32293854Y-27807656D01*
X32353088Y-27784709D01*
X32366275Y-27779601D01*
X32366280Y-27779598D01*
X32410562Y-27752179D01*
X32417420Y-27748508D01*
X32424490Y-27745280D01*
X32424493Y-27745277D01*
X32430161Y-27742689D01*
X32431585Y-27742484D01*
X32435274Y-27740354D01*
X32452723Y-27732385D01*
X32474585Y-27712537D01*
X32538498Y-27672965D01*
X32580199Y-27634949D01*
X32585989Y-27630276D01*
X32593589Y-27624864D01*
X32596581Y-27623828D01*
X32603699Y-27617661D01*
X32617608Y-27607755D01*
X32634429Y-27585511D01*
X32688193Y-27536500D01*
X32724878Y-27487920D01*
X32729475Y-27482510D01*
X32732961Y-27478854D01*
X32737108Y-27476459D01*
X32745883Y-27465302D01*
X32756140Y-27454545D01*
X32767809Y-27431070D01*
X32810264Y-27374852D01*
X32836881Y-27321395D01*
X32844465Y-27313215D01*
X32845858Y-27309738D01*
X32856661Y-27288782D01*
X32863490Y-27278155D01*
X32870135Y-27254614D01*
X32900551Y-27193532D01*
X32900553Y-27193527D01*
X32901137Y-27191474D01*
X32917239Y-27134880D01*
X32924037Y-27124103D01*
X32925385Y-27117113D01*
X32932026Y-27094492D01*
X32935867Y-27084897D01*
X32937878Y-27062342D01*
X32955987Y-26998698D01*
X32962912Y-26923964D01*
X32963762Y-26917991D01*
X32967021Y-26901084D01*
X32967021Y-26901081D01*
X32967997Y-26896016D01*
X32967999Y-26896001D01*
X32970766Y-26881642D01*
X32968749Y-26860968D01*
X32974677Y-26797000D01*
X111043323Y-26797000D01*
X111062012Y-26998697D01*
X111117446Y-27193524D01*
X111117451Y-27193537D01*
X111207736Y-27374852D01*
X111329808Y-27536502D01*
X111432674Y-27630276D01*
X111479502Y-27672965D01*
X111651723Y-27779600D01*
X111683022Y-27791725D01*
X111686031Y-27792994D01*
X111688526Y-27793857D01*
X111840606Y-27852774D01*
X111873298Y-27858885D01*
X111876488Y-27859570D01*
X111882849Y-27861114D01*
X111893121Y-27862590D01*
X112039719Y-27889995D01*
X112039720Y-27889995D01*
X112074854Y-27889995D01*
X112082994Y-27890577D01*
X112083000Y-27890458D01*
X112088895Y-27890738D01*
X112088899Y-27890739D01*
X112088902Y-27890738D01*
X112088907Y-27890739D01*
X112096450Y-27890380D01*
X112096463Y-27890383D01*
X112103125Y-27890065D01*
X112106078Y-27889995D01*
X112242278Y-27889995D01*
X112242281Y-27889995D01*
X112285220Y-27881968D01*
X112293641Y-27880985D01*
X112296832Y-27880834D01*
X112296838Y-27880832D01*
X112299224Y-27880719D01*
X112299278Y-27880714D01*
X112332060Y-27879151D01*
X112362532Y-27867515D01*
X112441394Y-27852774D01*
X112485927Y-27835521D01*
X112493537Y-27833125D01*
X112497289Y-27832204D01*
X112499133Y-27831757D01*
X112499137Y-27831754D01*
X112504859Y-27830368D01*
X112504875Y-27830363D01*
X112531350Y-27823940D01*
X112557854Y-27807656D01*
X112617088Y-27784709D01*
X112630275Y-27779601D01*
X112630280Y-27779598D01*
X112674562Y-27752179D01*
X112681420Y-27748508D01*
X112688490Y-27745280D01*
X112688493Y-27745277D01*
X112694161Y-27742689D01*
X112695585Y-27742484D01*
X112699274Y-27740354D01*
X112716723Y-27732385D01*
X112738585Y-27712537D01*
X112802498Y-27672965D01*
X112844199Y-27634949D01*
X112849989Y-27630276D01*
X112857589Y-27624864D01*
X112860581Y-27623828D01*
X112867699Y-27617661D01*
X112881608Y-27607755D01*
X112898429Y-27585511D01*
X112952193Y-27536500D01*
X112988878Y-27487920D01*
X112993475Y-27482510D01*
X112996961Y-27478854D01*
X113001108Y-27476459D01*
X113009883Y-27465302D01*
X113020140Y-27454545D01*
X113031809Y-27431070D01*
X113074264Y-27374852D01*
X113100881Y-27321395D01*
X113108465Y-27313215D01*
X113109858Y-27309738D01*
X113120661Y-27288782D01*
X113127490Y-27278155D01*
X113134135Y-27254614D01*
X113164551Y-27193532D01*
X113164553Y-27193527D01*
X113165137Y-27191474D01*
X113181239Y-27134880D01*
X113188037Y-27124103D01*
X113189385Y-27117113D01*
X113196026Y-27094492D01*
X113199867Y-27084897D01*
X113201878Y-27062342D01*
X113219987Y-26998698D01*
X113226912Y-26923964D01*
X113227762Y-26917991D01*
X113231021Y-26901084D01*
X113231021Y-26901081D01*
X113231997Y-26896016D01*
X113231999Y-26896001D01*
X113234766Y-26881642D01*
X113232749Y-26860968D01*
X113238677Y-26797000D01*
X113232749Y-26733030D01*
X113235772Y-26717577D01*
X113231301Y-26694377D01*
X113231297Y-26694354D01*
X113231021Y-26692923D01*
X113231021Y-26692916D01*
X113227760Y-26676000D01*
X113226913Y-26670055D01*
X113219987Y-26595302D01*
X113201878Y-26531656D01*
X113202022Y-26514481D01*
X113196026Y-26499504D01*
X113189383Y-26476883D01*
X113188849Y-26474112D01*
X113181239Y-26459119D01*
X113169113Y-26416500D01*
X113164553Y-26400473D01*
X113134132Y-26339380D01*
X113130876Y-26321112D01*
X113120660Y-26305216D01*
X113109868Y-26284283D01*
X113100881Y-26272603D01*
X113074264Y-26219148D01*
X113031809Y-26162929D01*
X113024778Y-26144316D01*
X113009883Y-26128695D01*
X113002995Y-26119936D01*
X112996957Y-26115139D01*
X112993475Y-26111488D01*
X112988866Y-26106063D01*
X112952193Y-26057500D01*
X112952190Y-26057497D01*
X112898427Y-26008484D01*
X112887432Y-25990390D01*
X112867695Y-25976334D01*
X112862134Y-25971515D01*
X112857591Y-25969136D01*
X112852453Y-25965478D01*
X112849995Y-25963728D01*
X112844193Y-25959045D01*
X112802498Y-25921035D01*
X112738584Y-25881461D01*
X112723613Y-25864759D01*
X112699274Y-25853644D01*
X112696407Y-25851989D01*
X112694168Y-25851312D01*
X112681437Y-25845498D01*
X112674547Y-25841811D01*
X112630277Y-25814400D01*
X112630276Y-25814399D01*
X112557851Y-25786342D01*
X112539109Y-25771939D01*
X112493772Y-25760941D01*
X112485985Y-25758500D01*
X112461820Y-25749139D01*
X112441394Y-25741226D01*
X112441388Y-25741224D01*
X112441382Y-25741223D01*
X112362526Y-25726482D01*
X112340419Y-25715241D01*
X112293652Y-25713013D01*
X112285202Y-25712027D01*
X112242286Y-25704005D01*
X112242281Y-25704005D01*
X112106003Y-25704005D01*
X112103053Y-25703935D01*
X112088899Y-25703260D01*
X112083000Y-25703542D01*
X112082994Y-25703422D01*
X112074854Y-25704005D01*
X112039719Y-25704005D01*
X111919479Y-25726482D01*
X111893122Y-25731409D01*
X111882846Y-25732886D01*
X111876480Y-25734430D01*
X111873265Y-25735120D01*
X111840608Y-25741225D01*
X111840604Y-25741226D01*
X111688530Y-25800140D01*
X111686031Y-25801005D01*
X111683019Y-25802274D01*
X111651727Y-25814398D01*
X111651716Y-25814404D01*
X111479503Y-25921033D01*
X111479501Y-25921035D01*
X111329808Y-26057497D01*
X111207736Y-26219147D01*
X111117451Y-26400462D01*
X111117446Y-26400475D01*
X111062012Y-26595302D01*
X111043323Y-26796999D01*
X111043323Y-26797000D01*
X32974677Y-26797000D01*
X32968749Y-26733030D01*
X32971772Y-26717577D01*
X32967301Y-26694377D01*
X32967297Y-26694354D01*
X32967021Y-26692923D01*
X32967021Y-26692916D01*
X32963760Y-26676000D01*
X32962913Y-26670055D01*
X32955987Y-26595302D01*
X32937878Y-26531656D01*
X32938022Y-26514481D01*
X32932026Y-26499504D01*
X32925383Y-26476883D01*
X32924849Y-26474112D01*
X32917239Y-26459119D01*
X32905113Y-26416500D01*
X32900553Y-26400473D01*
X32870132Y-26339380D01*
X32866876Y-26321112D01*
X32856660Y-26305216D01*
X32845868Y-26284283D01*
X32836881Y-26272603D01*
X32810264Y-26219148D01*
X32767809Y-26162929D01*
X32760778Y-26144316D01*
X32745883Y-26128695D01*
X32738995Y-26119936D01*
X32732957Y-26115139D01*
X32729475Y-26111488D01*
X32724866Y-26106063D01*
X32688193Y-26057500D01*
X32688190Y-26057497D01*
X32634427Y-26008484D01*
X32623432Y-25990390D01*
X32603695Y-25976334D01*
X32598134Y-25971515D01*
X32593591Y-25969136D01*
X32588453Y-25965478D01*
X32585995Y-25963728D01*
X32580193Y-25959045D01*
X32538498Y-25921035D01*
X32474584Y-25881461D01*
X32459613Y-25864759D01*
X32435274Y-25853644D01*
X32432407Y-25851989D01*
X32430168Y-25851312D01*
X32417437Y-25845498D01*
X32410547Y-25841811D01*
X32366277Y-25814400D01*
X32366276Y-25814399D01*
X32293851Y-25786342D01*
X32275109Y-25771939D01*
X32229772Y-25760941D01*
X32221985Y-25758500D01*
X32197820Y-25749139D01*
X32177394Y-25741226D01*
X32177388Y-25741224D01*
X32177382Y-25741223D01*
X32098526Y-25726482D01*
X32076419Y-25715241D01*
X32029652Y-25713013D01*
X32021202Y-25712027D01*
X31978286Y-25704005D01*
X31978281Y-25704005D01*
X31842003Y-25704005D01*
X31839053Y-25703935D01*
X31824899Y-25703260D01*
X31819000Y-25703542D01*
X31818994Y-25703422D01*
X31810854Y-25704005D01*
X31775719Y-25704005D01*
X31655479Y-25726482D01*
X31629122Y-25731409D01*
X31618846Y-25732886D01*
X31612480Y-25734430D01*
X31609265Y-25735120D01*
X31576608Y-25741225D01*
X31576604Y-25741226D01*
X31424530Y-25800140D01*
X31422031Y-25801005D01*
X31419019Y-25802274D01*
X31387727Y-25814398D01*
X31387716Y-25814404D01*
X31215503Y-25921033D01*
X31215501Y-25921035D01*
X31065808Y-26057497D01*
X30943736Y-26219147D01*
X30853451Y-26400462D01*
X30853446Y-26400475D01*
X30798012Y-26595302D01*
X30779323Y-26796999D01*
X30779323Y-26797000D01*
X29972499Y-26797000D01*
X29972499Y-26418213D01*
X29972657Y-26413789D01*
X29977482Y-26346326D01*
X29989333Y-26195760D01*
X29990560Y-26187445D01*
X30003341Y-26128695D01*
X30011429Y-26091509D01*
X30023466Y-26041378D01*
X30039959Y-25972677D01*
X30042157Y-25965478D01*
X30044558Y-25959041D01*
X30078588Y-25867802D01*
X30123372Y-25759687D01*
X30126237Y-25753701D01*
X30130065Y-25746691D01*
X30176727Y-25661234D01*
X30178211Y-25658671D01*
X30237754Y-25561506D01*
X30240924Y-25556834D01*
X30304656Y-25471699D01*
X30307060Y-25468694D01*
X30380534Y-25382667D01*
X30383792Y-25379143D01*
X30459143Y-25303792D01*
X30462667Y-25300534D01*
X30548694Y-25227060D01*
X30551699Y-25224656D01*
X30636834Y-25160924D01*
X30641506Y-25157754D01*
X30738671Y-25098211D01*
X30741234Y-25096727D01*
X30833704Y-25046235D01*
X30839687Y-25043372D01*
X30947802Y-24998588D01*
X31045482Y-24962155D01*
X31052678Y-24959959D01*
X31171492Y-24931433D01*
X31267451Y-24910559D01*
X31275762Y-24909333D01*
X31426231Y-24897489D01*
X31493791Y-24892657D01*
X31498214Y-24892500D01*
X32257901Y-24892500D01*
X112519786Y-24892500D01*
X112524207Y-24892657D01*
G37*
%TD.AperFunction*%
%TA.AperFunction,Conductor*%
G36*
X39768014Y-82516963D02*
G01*
X39816709Y-82567069D01*
X39830584Y-82635547D01*
X39815422Y-82683768D01*
X39815462Y-82683786D01*
X39815310Y-82684126D01*
X39814428Y-82686933D01*
X39812821Y-82689715D01*
X39812818Y-82689722D01*
X39754327Y-82869740D01*
X39754326Y-82869744D01*
X39734540Y-83058000D01*
X39754326Y-83246256D01*
X39754327Y-83246259D01*
X39812818Y-83426277D01*
X39812821Y-83426284D01*
X39907467Y-83590216D01*
X39980651Y-83671494D01*
X40010880Y-83734484D01*
X40012500Y-83754465D01*
X40012500Y-84270719D01*
X39992815Y-84337758D01*
X39976181Y-84358400D01*
X39419400Y-84915181D01*
X39358077Y-84948666D01*
X39331719Y-84951500D01*
X39275354Y-84951500D01*
X39264689Y-84953767D01*
X39090197Y-84990855D01*
X39090192Y-84990857D01*
X38917270Y-85067848D01*
X38917265Y-85067851D01*
X38764129Y-85179111D01*
X38637466Y-85319785D01*
X38542821Y-85483715D01*
X38542818Y-85483722D01*
X38484327Y-85663740D01*
X38484326Y-85663744D01*
X38464540Y-85852000D01*
X38484326Y-86040256D01*
X38484327Y-86040259D01*
X38542818Y-86220277D01*
X38542821Y-86220284D01*
X38637467Y-86384216D01*
X38764128Y-86524887D01*
X38764129Y-86524888D01*
X38917265Y-86636148D01*
X38917270Y-86636151D01*
X39090192Y-86713142D01*
X39090197Y-86713144D01*
X39275354Y-86752500D01*
X39275355Y-86752500D01*
X39464644Y-86752500D01*
X39464646Y-86752500D01*
X39649803Y-86713144D01*
X39822730Y-86636151D01*
X39975871Y-86524888D01*
X40102533Y-86384216D01*
X40197179Y-86220284D01*
X40255674Y-86040256D01*
X40272989Y-85875505D01*
X40299572Y-85810894D01*
X40308619Y-85800798D01*
X41025043Y-85084374D01*
X41037325Y-85074537D01*
X41037144Y-85074318D01*
X41043152Y-85069346D01*
X41043162Y-85069340D01*
X41090677Y-85018741D01*
X41111623Y-84997796D01*
X41115892Y-84992290D01*
X41119676Y-84987859D01*
X41151693Y-84953767D01*
X41161389Y-84936128D01*
X41172073Y-84919861D01*
X41184408Y-84903962D01*
X41202978Y-84861046D01*
X41205534Y-84855827D01*
X41228072Y-84814834D01*
X41233081Y-84795322D01*
X41239378Y-84776932D01*
X41247373Y-84758459D01*
X41254689Y-84712257D01*
X41255864Y-84706583D01*
X41267500Y-84661272D01*
X41267500Y-84641141D01*
X41269027Y-84621741D01*
X41272175Y-84601867D01*
X41267775Y-84555321D01*
X41267500Y-84549483D01*
X41267500Y-83754465D01*
X41287185Y-83687426D01*
X41299343Y-83671500D01*
X41372533Y-83590216D01*
X41467179Y-83426284D01*
X41510515Y-83292907D01*
X41549952Y-83235234D01*
X41614311Y-83208035D01*
X41683157Y-83219949D01*
X41716126Y-83243546D01*
X46834182Y-88361601D01*
X46867666Y-88422922D01*
X46870500Y-88449280D01*
X46870500Y-90166173D01*
X46850815Y-90233212D01*
X46817624Y-90267748D01*
X46626594Y-90401508D01*
X46459508Y-90568594D01*
X46329574Y-90754159D01*
X46274997Y-90797784D01*
X46205498Y-90804976D01*
X46143144Y-90773454D01*
X46126424Y-90754158D01*
X45996494Y-90568597D01*
X45829402Y-90401506D01*
X45829395Y-90401501D01*
X45635834Y-90265967D01*
X45635830Y-90265965D01*
X45635828Y-90265964D01*
X45421663Y-90166097D01*
X45421659Y-90166096D01*
X45421655Y-90166094D01*
X45193413Y-90104938D01*
X45193403Y-90104936D01*
X44958001Y-90084341D01*
X44957999Y-90084341D01*
X44722596Y-90104936D01*
X44722586Y-90104938D01*
X44494344Y-90166094D01*
X44494335Y-90166098D01*
X44280171Y-90265964D01*
X44280169Y-90265965D01*
X44086597Y-90401505D01*
X43919505Y-90568597D01*
X43789575Y-90754158D01*
X43734998Y-90797783D01*
X43665500Y-90804977D01*
X43603145Y-90773454D01*
X43586425Y-90754158D01*
X43456494Y-90568597D01*
X43289402Y-90401506D01*
X43289395Y-90401501D01*
X43095834Y-90265967D01*
X43095830Y-90265965D01*
X43095829Y-90265964D01*
X42881663Y-90166097D01*
X42881659Y-90166096D01*
X42881655Y-90166094D01*
X42653413Y-90104938D01*
X42653403Y-90104936D01*
X42418001Y-90084341D01*
X42417999Y-90084341D01*
X42182596Y-90104936D01*
X42182586Y-90104938D01*
X41954344Y-90166094D01*
X41954335Y-90166098D01*
X41740171Y-90265964D01*
X41740169Y-90265965D01*
X41546597Y-90401505D01*
X41379505Y-90568597D01*
X41249575Y-90754158D01*
X41194998Y-90797783D01*
X41125500Y-90804977D01*
X41063145Y-90773454D01*
X41046425Y-90754158D01*
X40916494Y-90568597D01*
X40749402Y-90401506D01*
X40749395Y-90401501D01*
X40555834Y-90265967D01*
X40555830Y-90265965D01*
X40555828Y-90265964D01*
X40341663Y-90166097D01*
X40341659Y-90166096D01*
X40341655Y-90166094D01*
X40113413Y-90104938D01*
X40113403Y-90104936D01*
X39878001Y-90084341D01*
X39877999Y-90084341D01*
X39642596Y-90104936D01*
X39642586Y-90104938D01*
X39414344Y-90166094D01*
X39414335Y-90166098D01*
X39200171Y-90265964D01*
X39200169Y-90265965D01*
X39006597Y-90401505D01*
X38839508Y-90568594D01*
X38709574Y-90754159D01*
X38654997Y-90797784D01*
X38585498Y-90804976D01*
X38523144Y-90773454D01*
X38506424Y-90754158D01*
X38376494Y-90568597D01*
X38209402Y-90401506D01*
X38209395Y-90401501D01*
X38015834Y-90265967D01*
X38015830Y-90265965D01*
X38015829Y-90265964D01*
X37801663Y-90166097D01*
X37801659Y-90166096D01*
X37801655Y-90166094D01*
X37573413Y-90104938D01*
X37573403Y-90104936D01*
X37338001Y-90084341D01*
X37337999Y-90084341D01*
X37102596Y-90104936D01*
X37102586Y-90104938D01*
X36874344Y-90166094D01*
X36874335Y-90166098D01*
X36660171Y-90265964D01*
X36660169Y-90265965D01*
X36466597Y-90401505D01*
X36299505Y-90568597D01*
X36169575Y-90754158D01*
X36114998Y-90797783D01*
X36045500Y-90804977D01*
X35983145Y-90773454D01*
X35966425Y-90754158D01*
X35836494Y-90568597D01*
X35669402Y-90401506D01*
X35669395Y-90401501D01*
X35475834Y-90265967D01*
X35475830Y-90265965D01*
X35475828Y-90265964D01*
X35261663Y-90166097D01*
X35261659Y-90166096D01*
X35261655Y-90166094D01*
X35033413Y-90104938D01*
X35033403Y-90104936D01*
X34798001Y-90084341D01*
X34797999Y-90084341D01*
X34562596Y-90104936D01*
X34562586Y-90104938D01*
X34334344Y-90166094D01*
X34334335Y-90166098D01*
X34120171Y-90265964D01*
X34120169Y-90265965D01*
X33926597Y-90401505D01*
X33759505Y-90568597D01*
X33623965Y-90762169D01*
X33623964Y-90762171D01*
X33524098Y-90976335D01*
X33524094Y-90976344D01*
X33462938Y-91204586D01*
X33462936Y-91204596D01*
X33442341Y-91439999D01*
X33442341Y-91440000D01*
X33462936Y-91675403D01*
X33462938Y-91675413D01*
X33524094Y-91903655D01*
X33524096Y-91903659D01*
X33524097Y-91903663D01*
X33603801Y-92074588D01*
X33623965Y-92117830D01*
X33623967Y-92117834D01*
X33732281Y-92272521D01*
X33759505Y-92311401D01*
X33926599Y-92478495D01*
X34015464Y-92540719D01*
X34120165Y-92614032D01*
X34120167Y-92614033D01*
X34120170Y-92614035D01*
X34334337Y-92713903D01*
X34562592Y-92775063D01*
X34750918Y-92791539D01*
X34797999Y-92795659D01*
X34798000Y-92795659D01*
X34798001Y-92795659D01*
X34837234Y-92792226D01*
X35033408Y-92775063D01*
X35261663Y-92713903D01*
X35475830Y-92614035D01*
X35669401Y-92478495D01*
X35836495Y-92311401D01*
X35966426Y-92125840D01*
X36021001Y-92082217D01*
X36090499Y-92075023D01*
X36152854Y-92106546D01*
X36169574Y-92125841D01*
X36299505Y-92311401D01*
X36466599Y-92478495D01*
X36555464Y-92540719D01*
X36660165Y-92614032D01*
X36660167Y-92614033D01*
X36660170Y-92614035D01*
X36874337Y-92713903D01*
X37102592Y-92775063D01*
X37290918Y-92791539D01*
X37337999Y-92795659D01*
X37338000Y-92795659D01*
X37338001Y-92795659D01*
X37377234Y-92792226D01*
X37573408Y-92775063D01*
X37801663Y-92713903D01*
X38015830Y-92614035D01*
X38209401Y-92478495D01*
X38376495Y-92311401D01*
X38506426Y-92125840D01*
X38561001Y-92082217D01*
X38630499Y-92075023D01*
X38692854Y-92106546D01*
X38709574Y-92125841D01*
X38839505Y-92311401D01*
X39006599Y-92478495D01*
X39095464Y-92540719D01*
X39200165Y-92614032D01*
X39200167Y-92614033D01*
X39200170Y-92614035D01*
X39414337Y-92713903D01*
X39642592Y-92775063D01*
X39830918Y-92791539D01*
X39877999Y-92795659D01*
X39878000Y-92795659D01*
X39878001Y-92795659D01*
X39917234Y-92792226D01*
X40113408Y-92775063D01*
X40341663Y-92713903D01*
X40555830Y-92614035D01*
X40749401Y-92478495D01*
X40916495Y-92311401D01*
X41046426Y-92125841D01*
X41101002Y-92082217D01*
X41170500Y-92075023D01*
X41232855Y-92106546D01*
X41249575Y-92125842D01*
X41379500Y-92311395D01*
X41379505Y-92311401D01*
X41546599Y-92478495D01*
X41635464Y-92540719D01*
X41740165Y-92614032D01*
X41740167Y-92614033D01*
X41740170Y-92614035D01*
X41954337Y-92713903D01*
X42182592Y-92775063D01*
X42370918Y-92791539D01*
X42417999Y-92795659D01*
X42418000Y-92795659D01*
X42418001Y-92795659D01*
X42457234Y-92792226D01*
X42653408Y-92775063D01*
X42881663Y-92713903D01*
X43095830Y-92614035D01*
X43289401Y-92478495D01*
X43456495Y-92311401D01*
X43586426Y-92125841D01*
X43641002Y-92082217D01*
X43710500Y-92075023D01*
X43772855Y-92106546D01*
X43789575Y-92125842D01*
X43919500Y-92311395D01*
X43919505Y-92311401D01*
X44086599Y-92478495D01*
X44175464Y-92540719D01*
X44280165Y-92614032D01*
X44280167Y-92614033D01*
X44280170Y-92614035D01*
X44494337Y-92713903D01*
X44722592Y-92775063D01*
X44910918Y-92791539D01*
X44957999Y-92795659D01*
X44958000Y-92795659D01*
X44958001Y-92795659D01*
X44997234Y-92792226D01*
X45193408Y-92775063D01*
X45421663Y-92713903D01*
X45635830Y-92614035D01*
X45829401Y-92478495D01*
X45996495Y-92311401D01*
X46126426Y-92125841D01*
X46181002Y-92082217D01*
X46250500Y-92075023D01*
X46312855Y-92106546D01*
X46329575Y-92125842D01*
X46459500Y-92311395D01*
X46459505Y-92311401D01*
X46626599Y-92478495D01*
X46715464Y-92540719D01*
X46820165Y-92614032D01*
X46820167Y-92614033D01*
X46820170Y-92614035D01*
X47034337Y-92713903D01*
X47262592Y-92775063D01*
X47450918Y-92791539D01*
X47497999Y-92795659D01*
X47498000Y-92795659D01*
X47498001Y-92795659D01*
X47537234Y-92792226D01*
X47733408Y-92775063D01*
X47961663Y-92713903D01*
X48175830Y-92614035D01*
X48369401Y-92478495D01*
X48536495Y-92311401D01*
X48666426Y-92125841D01*
X48721002Y-92082217D01*
X48790500Y-92075023D01*
X48852855Y-92106546D01*
X48869575Y-92125842D01*
X48999500Y-92311395D01*
X48999505Y-92311401D01*
X49166599Y-92478495D01*
X49255464Y-92540719D01*
X49360165Y-92614032D01*
X49360167Y-92614033D01*
X49360170Y-92614035D01*
X49574337Y-92713903D01*
X49802592Y-92775063D01*
X49990918Y-92791539D01*
X50037999Y-92795659D01*
X50038000Y-92795659D01*
X50038001Y-92795659D01*
X50077234Y-92792226D01*
X50273408Y-92775063D01*
X50501663Y-92713903D01*
X50715830Y-92614035D01*
X50909401Y-92478495D01*
X51076495Y-92311401D01*
X51206426Y-92125841D01*
X51261002Y-92082217D01*
X51330500Y-92075023D01*
X51392855Y-92106546D01*
X51409575Y-92125842D01*
X51539500Y-92311395D01*
X51539505Y-92311401D01*
X51706599Y-92478495D01*
X51795464Y-92540719D01*
X51900165Y-92614032D01*
X51900167Y-92614033D01*
X51900170Y-92614035D01*
X52114337Y-92713903D01*
X52342592Y-92775063D01*
X52530918Y-92791539D01*
X52577999Y-92795659D01*
X52578000Y-92795659D01*
X52578001Y-92795659D01*
X52617234Y-92792226D01*
X52813408Y-92775063D01*
X53041663Y-92713903D01*
X53255830Y-92614035D01*
X53449401Y-92478495D01*
X53616495Y-92311401D01*
X53746426Y-92125841D01*
X53801002Y-92082217D01*
X53870500Y-92075023D01*
X53932855Y-92106546D01*
X53949575Y-92125842D01*
X54079500Y-92311395D01*
X54079505Y-92311401D01*
X54246599Y-92478495D01*
X54335464Y-92540719D01*
X54440165Y-92614032D01*
X54440167Y-92614033D01*
X54440170Y-92614035D01*
X54654337Y-92713903D01*
X54882592Y-92775063D01*
X55070918Y-92791539D01*
X55117999Y-92795659D01*
X55118000Y-92795659D01*
X55118001Y-92795659D01*
X55157234Y-92792226D01*
X55353408Y-92775063D01*
X55581663Y-92713903D01*
X55795830Y-92614035D01*
X55989401Y-92478495D01*
X56156495Y-92311401D01*
X56286426Y-92125841D01*
X56341002Y-92082217D01*
X56410500Y-92075023D01*
X56472855Y-92106546D01*
X56489575Y-92125842D01*
X56619500Y-92311395D01*
X56619505Y-92311401D01*
X56786599Y-92478495D01*
X56875464Y-92540719D01*
X56980165Y-92614032D01*
X56980167Y-92614033D01*
X56980170Y-92614035D01*
X57194337Y-92713903D01*
X57422592Y-92775063D01*
X57610918Y-92791539D01*
X57657999Y-92795659D01*
X57658000Y-92795659D01*
X57658001Y-92795659D01*
X57697234Y-92792226D01*
X57893408Y-92775063D01*
X58121663Y-92713903D01*
X58335830Y-92614035D01*
X58529401Y-92478495D01*
X58696495Y-92311401D01*
X58826426Y-92125841D01*
X58881002Y-92082217D01*
X58950500Y-92075023D01*
X59012855Y-92106546D01*
X59029575Y-92125842D01*
X59159500Y-92311395D01*
X59159505Y-92311401D01*
X59326599Y-92478495D01*
X59517624Y-92612252D01*
X59561248Y-92666828D01*
X59570500Y-92713826D01*
X59570500Y-94176718D01*
X59550815Y-94243757D01*
X59534181Y-94264399D01*
X57780953Y-96017626D01*
X57768669Y-96027469D01*
X57768849Y-96027687D01*
X57762838Y-96032659D01*
X57715322Y-96083258D01*
X57694375Y-96104205D01*
X57690106Y-96109709D01*
X57686315Y-96114147D01*
X57654308Y-96148230D01*
X57654305Y-96148234D01*
X57644606Y-96165877D01*
X57633928Y-96182133D01*
X57621594Y-96198034D01*
X57621589Y-96198042D01*
X57603025Y-96240943D01*
X57600454Y-96246191D01*
X57577927Y-96287167D01*
X57572920Y-96306668D01*
X57566621Y-96325064D01*
X57559893Y-96340612D01*
X57558625Y-96343544D01*
X57558624Y-96343546D01*
X57551312Y-96389716D01*
X57550127Y-96395438D01*
X57538500Y-96440723D01*
X57538500Y-96460858D01*
X57536973Y-96480257D01*
X57533825Y-96500131D01*
X57538225Y-96546677D01*
X57538500Y-96552515D01*
X57538500Y-106622718D01*
X57518815Y-106689757D01*
X57502181Y-106710399D01*
X42109415Y-122103164D01*
X42048092Y-122136649D01*
X41989641Y-122135258D01*
X41891413Y-122108938D01*
X41891403Y-122108936D01*
X41656001Y-122088341D01*
X41655999Y-122088341D01*
X41420596Y-122108936D01*
X41420586Y-122108938D01*
X41192344Y-122170094D01*
X41192335Y-122170098D01*
X40978171Y-122269964D01*
X40978169Y-122269965D01*
X40784597Y-122405505D01*
X40617505Y-122572597D01*
X40487575Y-122758158D01*
X40432998Y-122801783D01*
X40363500Y-122808977D01*
X40301145Y-122777454D01*
X40284425Y-122758158D01*
X40154494Y-122572597D01*
X39987402Y-122405506D01*
X39987395Y-122405501D01*
X39793834Y-122269967D01*
X39793830Y-122269965D01*
X39793830Y-122269964D01*
X39579663Y-122170097D01*
X39579659Y-122170096D01*
X39579655Y-122170094D01*
X39351413Y-122108938D01*
X39351403Y-122108936D01*
X39116001Y-122088341D01*
X39115999Y-122088341D01*
X38880596Y-122108936D01*
X38880586Y-122108938D01*
X38652344Y-122170094D01*
X38652335Y-122170098D01*
X38438171Y-122269964D01*
X38438169Y-122269965D01*
X38244597Y-122405505D01*
X38077508Y-122572594D01*
X37947269Y-122758595D01*
X37892692Y-122802219D01*
X37823193Y-122809412D01*
X37760839Y-122777890D01*
X37744119Y-122758594D01*
X37614113Y-122572926D01*
X37614108Y-122572920D01*
X37447082Y-122405894D01*
X37253578Y-122270399D01*
X37039492Y-122170570D01*
X37039486Y-122170567D01*
X36826000Y-122113364D01*
X36826000Y-122831698D01*
X36806315Y-122898737D01*
X36753511Y-122944492D01*
X36684355Y-122954436D01*
X36611766Y-122944000D01*
X36611763Y-122944000D01*
X36540237Y-122944000D01*
X36540233Y-122944000D01*
X36467645Y-122954436D01*
X36398487Y-122944492D01*
X36345684Y-122898736D01*
X36326000Y-122831698D01*
X36326000Y-122113364D01*
X36325999Y-122113364D01*
X36112513Y-122170567D01*
X36112507Y-122170570D01*
X35898422Y-122270399D01*
X35898420Y-122270400D01*
X35704926Y-122405886D01*
X35704920Y-122405891D01*
X35537891Y-122572920D01*
X35537886Y-122572926D01*
X35402400Y-122766420D01*
X35402399Y-122766422D01*
X35302570Y-122980507D01*
X35302567Y-122980513D01*
X35245364Y-123193999D01*
X35245364Y-123194000D01*
X35962653Y-123194000D01*
X36029692Y-123213685D01*
X36075447Y-123266489D01*
X36085391Y-123335647D01*
X36081631Y-123352933D01*
X36076000Y-123372111D01*
X36076000Y-123515888D01*
X36081631Y-123535067D01*
X36081630Y-123604936D01*
X36043855Y-123663714D01*
X35980299Y-123692738D01*
X35962653Y-123694000D01*
X35245364Y-123694000D01*
X35302567Y-123907486D01*
X35302570Y-123907492D01*
X35402399Y-124121578D01*
X35537894Y-124315082D01*
X35704917Y-124482105D01*
X35898421Y-124617600D01*
X36112507Y-124717429D01*
X36112516Y-124717433D01*
X36326000Y-124774634D01*
X36326000Y-124056301D01*
X36345685Y-123989262D01*
X36398489Y-123943507D01*
X36467647Y-123933563D01*
X36540237Y-123944000D01*
X36540238Y-123944000D01*
X36611762Y-123944000D01*
X36611763Y-123944000D01*
X36684353Y-123933563D01*
X36753512Y-123943507D01*
X36806315Y-123989262D01*
X36826000Y-124056301D01*
X36826000Y-124774633D01*
X37039483Y-124717433D01*
X37039492Y-124717429D01*
X37253578Y-124617600D01*
X37447082Y-124482105D01*
X37614105Y-124315082D01*
X37744119Y-124129405D01*
X37798696Y-124085781D01*
X37868195Y-124078588D01*
X37930549Y-124110110D01*
X37947269Y-124129405D01*
X38077505Y-124315401D01*
X38244599Y-124482495D01*
X38341384Y-124550264D01*
X38438165Y-124618032D01*
X38438167Y-124618033D01*
X38438170Y-124618035D01*
X38652337Y-124717903D01*
X38880592Y-124779063D01*
X39068918Y-124795539D01*
X39115999Y-124799659D01*
X39116000Y-124799659D01*
X39116001Y-124799659D01*
X39155234Y-124796226D01*
X39351408Y-124779063D01*
X39579663Y-124717903D01*
X39793830Y-124618035D01*
X39987401Y-124482495D01*
X40154495Y-124315401D01*
X40284424Y-124129842D01*
X40339002Y-124086217D01*
X40408500Y-124079023D01*
X40470855Y-124110546D01*
X40487575Y-124129842D01*
X40617500Y-124315395D01*
X40617505Y-124315401D01*
X40784599Y-124482495D01*
X40881384Y-124550265D01*
X40978165Y-124618032D01*
X40978167Y-124618033D01*
X40978170Y-124618035D01*
X41192337Y-124717903D01*
X41420592Y-124779063D01*
X41608918Y-124795539D01*
X41655999Y-124799659D01*
X41656000Y-124799659D01*
X41656001Y-124799659D01*
X41695234Y-124796226D01*
X41891408Y-124779063D01*
X42119663Y-124717903D01*
X42333830Y-124618035D01*
X42527401Y-124482495D01*
X42694495Y-124315401D01*
X42824424Y-124129842D01*
X42879002Y-124086217D01*
X42948500Y-124079023D01*
X43010855Y-124110546D01*
X43027575Y-124129842D01*
X43157500Y-124315395D01*
X43157505Y-124315401D01*
X43324599Y-124482495D01*
X43421384Y-124550264D01*
X43518165Y-124618032D01*
X43518167Y-124618033D01*
X43518170Y-124618035D01*
X43732337Y-124717903D01*
X43960592Y-124779063D01*
X44148918Y-124795539D01*
X44195999Y-124799659D01*
X44196000Y-124799659D01*
X44196001Y-124799659D01*
X44235234Y-124796226D01*
X44431408Y-124779063D01*
X44659663Y-124717903D01*
X44873830Y-124618035D01*
X45067401Y-124482495D01*
X45234495Y-124315401D01*
X45370035Y-124121830D01*
X45469903Y-123907663D01*
X45531063Y-123679408D01*
X45551659Y-123444000D01*
X45531063Y-123208592D01*
X45515928Y-123152107D01*
X45504741Y-123110356D01*
X45506404Y-123040506D01*
X45536833Y-122990584D01*
X48645043Y-119882374D01*
X48657325Y-119872537D01*
X48657144Y-119872318D01*
X48663152Y-119867346D01*
X48663162Y-119867340D01*
X48710677Y-119816741D01*
X48731623Y-119795796D01*
X48735892Y-119790290D01*
X48739676Y-119785859D01*
X48771693Y-119751767D01*
X48781389Y-119734128D01*
X48792073Y-119717861D01*
X48804408Y-119701962D01*
X48822983Y-119659034D01*
X48825534Y-119653827D01*
X48848072Y-119612834D01*
X48853078Y-119593334D01*
X48859376Y-119574936D01*
X48867374Y-119556458D01*
X48874688Y-119510276D01*
X48875870Y-119504565D01*
X48887500Y-119459272D01*
X48887500Y-119439141D01*
X48889027Y-119419741D01*
X48889762Y-119415102D01*
X48892175Y-119399867D01*
X48887775Y-119353321D01*
X48887500Y-119347483D01*
X48887500Y-118806465D01*
X48907185Y-118739426D01*
X48919343Y-118723500D01*
X48992533Y-118642216D01*
X49087179Y-118478284D01*
X49145674Y-118298256D01*
X49165460Y-118110000D01*
X49145674Y-117921744D01*
X49087179Y-117741716D01*
X48992533Y-117577784D01*
X48865871Y-117437112D01*
X48800555Y-117389657D01*
X48757889Y-117334327D01*
X48751910Y-117264714D01*
X48784516Y-117202919D01*
X48785689Y-117201728D01*
X56799972Y-109187445D01*
X56861293Y-109153962D01*
X56930985Y-109158946D01*
X56986918Y-109200818D01*
X57010971Y-109262164D01*
X57026326Y-109408256D01*
X57026327Y-109408259D01*
X57084818Y-109588277D01*
X57084821Y-109588284D01*
X57179467Y-109752216D01*
X57247159Y-109827395D01*
X57306129Y-109892888D01*
X57459265Y-110004148D01*
X57459270Y-110004151D01*
X57632192Y-110081142D01*
X57632197Y-110081144D01*
X57817354Y-110120500D01*
X57873719Y-110120500D01*
X57940758Y-110140185D01*
X57961400Y-110156819D01*
X59187624Y-111383043D01*
X59197471Y-111395333D01*
X59197689Y-111395154D01*
X59202657Y-111401160D01*
X59253257Y-111448677D01*
X59274201Y-111469620D01*
X59274207Y-111469626D01*
X59279697Y-111473883D01*
X59284148Y-111477684D01*
X59318235Y-111509695D01*
X59318237Y-111509696D01*
X59335867Y-111519387D01*
X59352135Y-111530072D01*
X59368038Y-111542408D01*
X59410945Y-111560975D01*
X59416181Y-111563539D01*
X59441089Y-111577233D01*
X59457158Y-111586068D01*
X59457160Y-111586069D01*
X59457166Y-111586072D01*
X59476240Y-111590969D01*
X59476660Y-111591077D01*
X59495064Y-111597377D01*
X59513542Y-111605374D01*
X59557038Y-111612262D01*
X59559724Y-111612688D01*
X59565429Y-111613869D01*
X59610728Y-111625500D01*
X59630858Y-111625500D01*
X59650257Y-111627027D01*
X59670133Y-111630175D01*
X59712779Y-111626143D01*
X59716679Y-111625775D01*
X59722517Y-111625500D01*
X68268719Y-111625500D01*
X68335758Y-111645185D01*
X68356400Y-111661819D01*
X94332181Y-137637600D01*
X94365666Y-137698923D01*
X94368500Y-137725281D01*
X94368500Y-140458173D01*
X94348815Y-140525212D01*
X94315624Y-140559748D01*
X94124594Y-140693508D01*
X93957505Y-140860597D01*
X93827575Y-141046158D01*
X93772998Y-141089783D01*
X93703500Y-141096977D01*
X93641145Y-141065454D01*
X93624425Y-141046158D01*
X93494494Y-140860597D01*
X93327402Y-140693506D01*
X93327395Y-140693501D01*
X93133834Y-140557967D01*
X93133830Y-140557965D01*
X93133828Y-140557964D01*
X92919663Y-140458097D01*
X92919659Y-140458096D01*
X92919655Y-140458094D01*
X92691413Y-140396938D01*
X92691403Y-140396936D01*
X92456001Y-140376341D01*
X92455999Y-140376341D01*
X92220596Y-140396936D01*
X92220586Y-140396938D01*
X91992344Y-140458094D01*
X91992335Y-140458098D01*
X91778171Y-140557964D01*
X91778169Y-140557965D01*
X91584597Y-140693505D01*
X91417505Y-140860597D01*
X91287575Y-141046158D01*
X91232998Y-141089783D01*
X91163500Y-141096977D01*
X91101145Y-141065454D01*
X91084425Y-141046158D01*
X90954494Y-140860597D01*
X90787402Y-140693506D01*
X90787395Y-140693501D01*
X90593834Y-140557967D01*
X90593830Y-140557965D01*
X90593828Y-140557964D01*
X90379663Y-140458097D01*
X90379659Y-140458096D01*
X90379655Y-140458094D01*
X90151413Y-140396938D01*
X90151403Y-140396936D01*
X89916001Y-140376341D01*
X89915999Y-140376341D01*
X89680596Y-140396936D01*
X89680586Y-140396938D01*
X89452344Y-140458094D01*
X89452335Y-140458098D01*
X89238171Y-140557964D01*
X89238169Y-140557965D01*
X89044600Y-140693503D01*
X88922284Y-140815819D01*
X88860961Y-140849303D01*
X88791269Y-140844319D01*
X88735336Y-140802447D01*
X88718421Y-140771470D01*
X88669354Y-140639913D01*
X88669350Y-140639906D01*
X88583190Y-140524812D01*
X88583187Y-140524809D01*
X88468093Y-140438649D01*
X88468086Y-140438645D01*
X88333379Y-140388403D01*
X88333372Y-140388401D01*
X88273844Y-140382000D01*
X87626000Y-140382000D01*
X87626000Y-141119698D01*
X87606315Y-141186737D01*
X87553511Y-141232492D01*
X87484355Y-141242436D01*
X87411766Y-141232000D01*
X87411763Y-141232000D01*
X87340237Y-141232000D01*
X87340233Y-141232000D01*
X87267645Y-141242436D01*
X87198487Y-141232492D01*
X87145684Y-141186736D01*
X87126000Y-141119698D01*
X87126000Y-140382000D01*
X86478155Y-140382000D01*
X86418627Y-140388401D01*
X86418620Y-140388403D01*
X86283913Y-140438645D01*
X86283906Y-140438649D01*
X86168812Y-140524809D01*
X86168809Y-140524812D01*
X86082649Y-140639906D01*
X86082645Y-140639913D01*
X86032403Y-140774620D01*
X86032401Y-140774627D01*
X86026000Y-140834155D01*
X86026000Y-141482000D01*
X86762653Y-141482000D01*
X86829692Y-141501685D01*
X86875447Y-141554489D01*
X86885391Y-141623647D01*
X86881631Y-141640933D01*
X86876000Y-141660111D01*
X86876000Y-141803888D01*
X86881631Y-141823067D01*
X86881630Y-141892936D01*
X86843855Y-141951714D01*
X86780299Y-141980738D01*
X86762653Y-141982000D01*
X86026000Y-141982000D01*
X86026000Y-142629844D01*
X86032401Y-142689372D01*
X86032403Y-142689379D01*
X86082645Y-142824086D01*
X86082649Y-142824093D01*
X86168809Y-142939187D01*
X86168812Y-142939190D01*
X86283906Y-143025350D01*
X86283913Y-143025354D01*
X86418620Y-143075596D01*
X86418627Y-143075598D01*
X86478155Y-143081999D01*
X86478172Y-143082000D01*
X87126000Y-143082000D01*
X87126000Y-142344301D01*
X87145685Y-142277262D01*
X87198489Y-142231507D01*
X87267647Y-142221563D01*
X87340237Y-142232000D01*
X87340238Y-142232000D01*
X87411762Y-142232000D01*
X87411763Y-142232000D01*
X87484353Y-142221563D01*
X87553512Y-142231507D01*
X87606315Y-142277262D01*
X87626000Y-142344301D01*
X87626000Y-143082000D01*
X88273828Y-143082000D01*
X88273844Y-143081999D01*
X88333372Y-143075598D01*
X88333379Y-143075596D01*
X88468086Y-143025354D01*
X88468093Y-143025350D01*
X88583187Y-142939190D01*
X88583190Y-142939187D01*
X88669350Y-142824093D01*
X88669354Y-142824086D01*
X88718422Y-142692529D01*
X88760293Y-142636595D01*
X88825757Y-142612178D01*
X88894030Y-142627030D01*
X88922285Y-142648181D01*
X89044599Y-142770495D01*
X89121135Y-142824086D01*
X89238165Y-142906032D01*
X89238167Y-142906033D01*
X89238170Y-142906035D01*
X89452337Y-143005903D01*
X89680592Y-143067063D01*
X89851319Y-143082000D01*
X89915999Y-143087659D01*
X89916000Y-143087659D01*
X89916001Y-143087659D01*
X89980681Y-143082000D01*
X90151408Y-143067063D01*
X90379663Y-143005903D01*
X90593830Y-142906035D01*
X90787401Y-142770495D01*
X90954495Y-142603401D01*
X91084426Y-142417840D01*
X91139001Y-142374217D01*
X91208499Y-142367023D01*
X91270854Y-142398546D01*
X91287574Y-142417841D01*
X91332321Y-142481746D01*
X91417505Y-142603401D01*
X91584599Y-142770495D01*
X91661135Y-142824086D01*
X91778165Y-142906032D01*
X91778167Y-142906033D01*
X91778170Y-142906035D01*
X91992337Y-143005903D01*
X92220592Y-143067063D01*
X92391319Y-143082000D01*
X92455999Y-143087659D01*
X92456000Y-143087659D01*
X92456001Y-143087659D01*
X92520681Y-143082000D01*
X92691408Y-143067063D01*
X92919663Y-143005903D01*
X93133830Y-142906035D01*
X93327401Y-142770495D01*
X93494495Y-142603401D01*
X93624426Y-142417841D01*
X93679002Y-142374217D01*
X93748500Y-142367023D01*
X93810855Y-142398546D01*
X93827575Y-142417842D01*
X93957281Y-142603082D01*
X93957505Y-142603401D01*
X94124599Y-142770495D01*
X94201135Y-142824086D01*
X94318165Y-142906032D01*
X94318167Y-142906033D01*
X94318170Y-142906035D01*
X94532337Y-143005903D01*
X94760592Y-143067063D01*
X94931319Y-143082000D01*
X94995999Y-143087659D01*
X94996000Y-143087659D01*
X94996001Y-143087659D01*
X95060681Y-143082000D01*
X95231408Y-143067063D01*
X95459663Y-143005903D01*
X95673830Y-142906035D01*
X95867401Y-142770495D01*
X96034495Y-142603401D01*
X96164426Y-142417840D01*
X96219001Y-142374217D01*
X96288499Y-142367023D01*
X96350854Y-142398546D01*
X96367574Y-142417841D01*
X96412321Y-142481746D01*
X96497505Y-142603401D01*
X96664599Y-142770495D01*
X96855624Y-142904252D01*
X96899248Y-142958828D01*
X96908500Y-143005826D01*
X96908500Y-143706718D01*
X96888815Y-143773757D01*
X96872181Y-143794399D01*
X95534400Y-145132181D01*
X95473077Y-145165666D01*
X95446719Y-145168500D01*
X82607281Y-145168500D01*
X82540242Y-145148815D01*
X82519600Y-145132181D01*
X67304376Y-129916957D01*
X67294531Y-129904668D01*
X67294313Y-129904849D01*
X67289340Y-129898838D01*
X67289340Y-129898837D01*
X67238741Y-129851322D01*
X67228268Y-129840849D01*
X67217797Y-129830377D01*
X67212296Y-129826111D01*
X67207848Y-129822312D01*
X67173768Y-129790308D01*
X67173763Y-129790304D01*
X67156122Y-129780606D01*
X67139857Y-129769922D01*
X67123963Y-129757593D01*
X67123962Y-129757592D01*
X67108804Y-129751032D01*
X67081054Y-129739023D01*
X67075807Y-129736453D01*
X67034837Y-129713929D01*
X67034828Y-129713926D01*
X67015334Y-129708920D01*
X66996933Y-129702620D01*
X66978459Y-129694626D01*
X66978452Y-129694624D01*
X66932287Y-129687313D01*
X66926563Y-129686128D01*
X66881279Y-129674500D01*
X66881272Y-129674500D01*
X66861142Y-129674500D01*
X66841743Y-129672973D01*
X66821868Y-129669825D01*
X66821867Y-129669825D01*
X66775321Y-129674225D01*
X66769483Y-129674500D01*
X38157282Y-129674500D01*
X38090243Y-129654815D01*
X38069601Y-129638181D01*
X34699819Y-126268399D01*
X34666334Y-126207076D01*
X34663500Y-126180718D01*
X34663500Y-120961280D01*
X34683185Y-120894241D01*
X34699819Y-120873599D01*
X35021600Y-120551819D01*
X35082923Y-120518334D01*
X35109281Y-120515500D01*
X38525033Y-120515500D01*
X38540681Y-120517227D01*
X38540708Y-120516946D01*
X38548475Y-120517680D01*
X38548476Y-120517679D01*
X38548477Y-120517680D01*
X38617860Y-120515500D01*
X38647476Y-120515500D01*
X38654378Y-120514627D01*
X38660190Y-120514169D01*
X38706943Y-120512701D01*
X38726272Y-120507084D01*
X38745328Y-120503137D01*
X38765293Y-120500616D01*
X38808770Y-120483401D01*
X38814276Y-120481516D01*
X38859191Y-120468468D01*
X38876515Y-120458221D01*
X38893983Y-120449663D01*
X38912703Y-120442253D01*
X38950542Y-120414759D01*
X38955391Y-120411574D01*
X38995656Y-120387763D01*
X39009897Y-120373520D01*
X39024678Y-120360897D01*
X39040967Y-120349063D01*
X39040969Y-120349059D01*
X39040971Y-120349059D01*
X39052845Y-120334703D01*
X39070776Y-120313028D01*
X39074689Y-120308728D01*
X45851043Y-113532374D01*
X45863325Y-113522537D01*
X45863144Y-113522318D01*
X45869156Y-113517343D01*
X45869162Y-113517340D01*
X45892919Y-113492040D01*
X45916677Y-113466742D01*
X45927149Y-113456269D01*
X45937624Y-113445795D01*
X45941895Y-113440288D01*
X45945675Y-113435860D01*
X45977693Y-113401767D01*
X45987388Y-113384130D01*
X45998072Y-113367863D01*
X46010408Y-113351962D01*
X46028976Y-113309051D01*
X46031542Y-113303814D01*
X46054071Y-113262835D01*
X46054072Y-113262834D01*
X46059078Y-113243334D01*
X46065376Y-113224936D01*
X46073374Y-113206458D01*
X46080688Y-113160276D01*
X46081870Y-113154565D01*
X46093500Y-113109272D01*
X46093500Y-113089141D01*
X46095027Y-113069741D01*
X46098175Y-113049867D01*
X46093775Y-113003321D01*
X46093500Y-112997483D01*
X46093500Y-108032963D01*
X46095228Y-108017313D01*
X46094946Y-108017287D01*
X46095680Y-108009524D01*
X46093500Y-107940153D01*
X46093500Y-107910528D01*
X46093500Y-107910524D01*
X46092627Y-107903614D01*
X46092168Y-107897785D01*
X46090700Y-107851057D01*
X46085082Y-107831720D01*
X46081138Y-107812674D01*
X46078616Y-107792707D01*
X46061403Y-107749233D01*
X46059515Y-107743716D01*
X46046467Y-107698805D01*
X46036223Y-107681484D01*
X46027661Y-107664007D01*
X46020253Y-107645298D01*
X46020253Y-107645297D01*
X46009325Y-107630256D01*
X45992764Y-107607462D01*
X45989561Y-107602585D01*
X45978821Y-107584425D01*
X45965763Y-107562344D01*
X45965761Y-107562342D01*
X45965759Y-107562339D01*
X45951531Y-107548112D01*
X45938896Y-107533320D01*
X45927063Y-107517033D01*
X45905029Y-107498805D01*
X45865923Y-107440906D01*
X45860751Y-107416230D01*
X45843674Y-107253744D01*
X45791716Y-107093834D01*
X45783171Y-107067535D01*
X45785777Y-107066688D01*
X45778108Y-107009407D01*
X45807748Y-106946136D01*
X45866890Y-106908934D01*
X45936756Y-106909611D01*
X45966205Y-106924270D01*
X45966391Y-106923933D01*
X45990867Y-106937387D01*
X46007135Y-106948072D01*
X46023038Y-106960408D01*
X46023040Y-106960409D01*
X46023042Y-106960410D01*
X46044380Y-106969643D01*
X46065943Y-106978974D01*
X46071190Y-106981545D01*
X46092283Y-106993141D01*
X46112166Y-107004072D01*
X46131667Y-107009079D01*
X46150065Y-107015378D01*
X46168541Y-107023373D01*
X46214740Y-107030690D01*
X46220414Y-107031865D01*
X46265728Y-107043500D01*
X46285864Y-107043500D01*
X46305263Y-107045027D01*
X46325133Y-107048174D01*
X46371671Y-107043774D01*
X46377508Y-107043500D01*
X48410173Y-107043500D01*
X48477212Y-107063185D01*
X48511747Y-107096375D01*
X48547434Y-107147341D01*
X48645505Y-107287401D01*
X48812597Y-107454493D01*
X48812603Y-107454498D01*
X48998158Y-107584425D01*
X49041783Y-107639002D01*
X49048977Y-107708500D01*
X49017454Y-107770855D01*
X48998158Y-107787575D01*
X48812597Y-107917505D01*
X48645505Y-108084597D01*
X48509965Y-108278169D01*
X48509964Y-108278171D01*
X48410098Y-108492335D01*
X48410094Y-108492344D01*
X48348938Y-108720586D01*
X48348936Y-108720596D01*
X48328341Y-108955999D01*
X48328341Y-108956000D01*
X48348936Y-109191403D01*
X48348938Y-109191413D01*
X48410094Y-109419655D01*
X48410096Y-109419659D01*
X48410097Y-109419663D01*
X48509965Y-109633829D01*
X48509965Y-109633830D01*
X48509967Y-109633834D01*
X48592858Y-109752214D01*
X48645505Y-109827401D01*
X48812599Y-109994495D01*
X48909384Y-110062265D01*
X49006165Y-110130032D01*
X49006167Y-110130033D01*
X49006170Y-110130035D01*
X49220337Y-110229903D01*
X49448592Y-110291063D01*
X49636918Y-110307539D01*
X49683999Y-110311659D01*
X49684000Y-110311659D01*
X49684001Y-110311659D01*
X49723234Y-110308226D01*
X49919408Y-110291063D01*
X50147663Y-110229903D01*
X50361830Y-110130035D01*
X50555401Y-109994495D01*
X50722495Y-109827401D01*
X50858035Y-109633830D01*
X50957903Y-109419663D01*
X51019063Y-109191408D01*
X51039659Y-108956000D01*
X51019063Y-108720592D01*
X50957903Y-108492337D01*
X50858035Y-108278171D01*
X50821611Y-108226151D01*
X50722494Y-108084597D01*
X50555402Y-107917506D01*
X50555401Y-107917505D01*
X50377174Y-107792709D01*
X50369841Y-107787574D01*
X50326216Y-107732997D01*
X50319024Y-107663498D01*
X50350546Y-107601144D01*
X50369836Y-107584428D01*
X50555401Y-107454495D01*
X50722495Y-107287401D01*
X50858035Y-107093830D01*
X50957903Y-106879663D01*
X51019063Y-106651408D01*
X51039659Y-106416000D01*
X51019063Y-106180592D01*
X50957903Y-105952337D01*
X50858035Y-105738171D01*
X50722495Y-105544599D01*
X50722494Y-105544597D01*
X50555402Y-105377506D01*
X50555396Y-105377501D01*
X50369842Y-105247575D01*
X50326217Y-105192998D01*
X50319023Y-105123500D01*
X50350546Y-105061145D01*
X50369842Y-105044425D01*
X50392026Y-105028891D01*
X50555401Y-104914495D01*
X50722495Y-104747401D01*
X50858035Y-104553830D01*
X50957903Y-104339663D01*
X51019063Y-104111408D01*
X51039659Y-103876000D01*
X51019063Y-103640592D01*
X50957903Y-103412337D01*
X50858035Y-103198171D01*
X50722495Y-103004599D01*
X50722494Y-103004597D01*
X50555402Y-102837506D01*
X50555401Y-102837505D01*
X50369405Y-102707269D01*
X50325781Y-102652692D01*
X50318588Y-102583193D01*
X50350110Y-102520839D01*
X50369405Y-102504119D01*
X50555082Y-102374105D01*
X50722105Y-102207082D01*
X50857600Y-102013578D01*
X50957429Y-101799492D01*
X50957432Y-101799486D01*
X51014636Y-101586000D01*
X50297347Y-101586000D01*
X50230308Y-101566315D01*
X50184553Y-101513511D01*
X50174609Y-101444353D01*
X50178369Y-101427067D01*
X50184000Y-101407888D01*
X50184000Y-101264111D01*
X50178369Y-101244933D01*
X50178370Y-101175064D01*
X50216145Y-101116286D01*
X50279701Y-101087262D01*
X50297347Y-101086000D01*
X51014636Y-101086000D01*
X51014635Y-101085999D01*
X50957432Y-100872513D01*
X50957429Y-100872507D01*
X50857600Y-100658422D01*
X50857599Y-100658420D01*
X50722113Y-100464926D01*
X50722108Y-100464920D01*
X50555082Y-100297894D01*
X50361578Y-100162399D01*
X50147492Y-100062570D01*
X50147486Y-100062567D01*
X49934000Y-100005364D01*
X49934000Y-100723698D01*
X49914315Y-100790737D01*
X49861511Y-100836492D01*
X49792355Y-100846436D01*
X49719766Y-100836000D01*
X49719763Y-100836000D01*
X49648237Y-100836000D01*
X49575646Y-100846437D01*
X49506487Y-100836493D01*
X49453683Y-100790738D01*
X49433999Y-100723699D01*
X49433999Y-100005364D01*
X49433998Y-100005364D01*
X49220505Y-100062570D01*
X49006422Y-100162399D01*
X49006420Y-100162400D01*
X48812926Y-100297886D01*
X48812920Y-100297891D01*
X48645891Y-100464920D01*
X48645886Y-100464926D01*
X48510400Y-100658420D01*
X48510399Y-100658422D01*
X48410570Y-100872507D01*
X48410567Y-100872513D01*
X48353364Y-101085999D01*
X48353364Y-101086000D01*
X49070653Y-101086000D01*
X49137692Y-101105685D01*
X49183447Y-101158489D01*
X49193391Y-101227647D01*
X49189631Y-101244933D01*
X49184000Y-101264111D01*
X49184000Y-101407888D01*
X49189631Y-101427067D01*
X49189630Y-101496936D01*
X49151855Y-101555714D01*
X49088299Y-101584738D01*
X49070653Y-101586000D01*
X48353364Y-101586000D01*
X48410567Y-101799486D01*
X48410570Y-101799492D01*
X48510399Y-102013578D01*
X48645894Y-102207082D01*
X48812917Y-102374105D01*
X48998595Y-102504119D01*
X49042219Y-102558696D01*
X49049412Y-102628195D01*
X49017890Y-102690549D01*
X48998595Y-102707269D01*
X48812594Y-102837508D01*
X48645505Y-103004597D01*
X48511749Y-103195623D01*
X48457172Y-103239248D01*
X48410174Y-103248500D01*
X46529281Y-103248500D01*
X46462242Y-103228815D01*
X46441600Y-103212181D01*
X36824376Y-93594957D01*
X36814531Y-93582668D01*
X36814313Y-93582849D01*
X36809340Y-93576838D01*
X36803346Y-93571209D01*
X36758741Y-93529322D01*
X36744789Y-93515370D01*
X36737797Y-93508377D01*
X36732296Y-93504111D01*
X36727848Y-93500312D01*
X36693768Y-93468308D01*
X36693763Y-93468304D01*
X36676122Y-93458606D01*
X36659857Y-93447922D01*
X36643963Y-93435593D01*
X36643962Y-93435592D01*
X36628804Y-93429032D01*
X36601054Y-93417023D01*
X36595807Y-93414453D01*
X36554837Y-93391929D01*
X36554828Y-93391926D01*
X36535334Y-93386920D01*
X36516933Y-93380620D01*
X36498459Y-93372626D01*
X36498452Y-93372624D01*
X36452287Y-93365313D01*
X36446563Y-93364128D01*
X36401279Y-93352500D01*
X36401272Y-93352500D01*
X36381142Y-93352500D01*
X36361743Y-93350973D01*
X36341868Y-93347825D01*
X36341867Y-93347825D01*
X36295321Y-93352225D01*
X36289483Y-93352500D01*
X33839281Y-93352500D01*
X33772242Y-93332815D01*
X33751600Y-93316181D01*
X33175819Y-92740400D01*
X33142334Y-92679077D01*
X33139500Y-92652719D01*
X33139500Y-88011361D01*
X33159185Y-87944322D01*
X33211989Y-87898567D01*
X33281147Y-87888623D01*
X33325501Y-87903974D01*
X33329260Y-87906143D01*
X33329270Y-87906151D01*
X33458620Y-87963742D01*
X33502192Y-87983142D01*
X33502197Y-87983144D01*
X33687354Y-88022500D01*
X33687355Y-88022500D01*
X33876644Y-88022500D01*
X33876646Y-88022500D01*
X34061803Y-87983144D01*
X34234730Y-87906151D01*
X34387871Y-87794888D01*
X34514533Y-87654216D01*
X34609179Y-87490284D01*
X34667674Y-87310256D01*
X34684989Y-87145505D01*
X34711572Y-87080894D01*
X34720619Y-87070798D01*
X39066599Y-82724819D01*
X39127923Y-82691334D01*
X39154281Y-82688500D01*
X39210644Y-82688500D01*
X39210646Y-82688500D01*
X39395803Y-82649144D01*
X39568730Y-82572151D01*
X39634154Y-82524617D01*
X39699960Y-82501138D01*
X39768014Y-82516963D01*
G37*
%TD.AperFunction*%
%TA.AperFunction,Conductor*%
G36*
X80695512Y-91939507D02*
G01*
X80748315Y-91985262D01*
X80768000Y-92052301D01*
X80768000Y-92770633D01*
X80981483Y-92713433D01*
X80981492Y-92713429D01*
X81195578Y-92613600D01*
X81389082Y-92478105D01*
X81556105Y-92311082D01*
X81686119Y-92125405D01*
X81740696Y-92081781D01*
X81810195Y-92074588D01*
X81872549Y-92106110D01*
X81889269Y-92125405D01*
X82019505Y-92311401D01*
X82186599Y-92478495D01*
X82377624Y-92612252D01*
X82421248Y-92666828D01*
X82430500Y-92713826D01*
X82430500Y-93668719D01*
X82410815Y-93735758D01*
X82394181Y-93756400D01*
X81564400Y-94586181D01*
X81503077Y-94619666D01*
X81476719Y-94622500D01*
X80346967Y-94622500D01*
X80331318Y-94620772D01*
X80331292Y-94621054D01*
X80323524Y-94620319D01*
X80254140Y-94622500D01*
X80224522Y-94622500D01*
X80217618Y-94623371D01*
X80211800Y-94623829D01*
X80165057Y-94625298D01*
X80145713Y-94630918D01*
X80126669Y-94634862D01*
X80123709Y-94635235D01*
X80106707Y-94637384D01*
X80106703Y-94637385D01*
X80106700Y-94637386D01*
X80063235Y-94654594D01*
X80057710Y-94656485D01*
X80012809Y-94669531D01*
X80012806Y-94669533D01*
X79995480Y-94679779D01*
X79978010Y-94688337D01*
X79959298Y-94695745D01*
X79921463Y-94723233D01*
X79916580Y-94726440D01*
X79876346Y-94750234D01*
X79862106Y-94764474D01*
X79847320Y-94777102D01*
X79831033Y-94788936D01*
X79831032Y-94788936D01*
X79801227Y-94824963D01*
X79797295Y-94829284D01*
X75976400Y-98650181D01*
X75915077Y-98683666D01*
X75888719Y-98686500D01*
X75695826Y-98686500D01*
X75628787Y-98666815D01*
X75594251Y-98633623D01*
X75460494Y-98442597D01*
X75293402Y-98275506D01*
X75293395Y-98275501D01*
X75099834Y-98139967D01*
X75099830Y-98139965D01*
X75099829Y-98139964D01*
X74885663Y-98040097D01*
X74885659Y-98040096D01*
X74885655Y-98040094D01*
X74657413Y-97978938D01*
X74657403Y-97978936D01*
X74422001Y-97958341D01*
X74421999Y-97958341D01*
X74186596Y-97978936D01*
X74186586Y-97978938D01*
X73958344Y-98040094D01*
X73958335Y-98040098D01*
X73744171Y-98139964D01*
X73744169Y-98139965D01*
X73550597Y-98275505D01*
X73383508Y-98442594D01*
X73253269Y-98628595D01*
X73198692Y-98672219D01*
X73129193Y-98679412D01*
X73066839Y-98647890D01*
X73050119Y-98628594D01*
X72920113Y-98442926D01*
X72920108Y-98442920D01*
X72753082Y-98275894D01*
X72559578Y-98140399D01*
X72345492Y-98040570D01*
X72345486Y-98040567D01*
X72132000Y-97983364D01*
X72132000Y-98701698D01*
X72112315Y-98768737D01*
X72059511Y-98814492D01*
X71990355Y-98824436D01*
X71917766Y-98814000D01*
X71917763Y-98814000D01*
X71846237Y-98814000D01*
X71846233Y-98814000D01*
X71773645Y-98824436D01*
X71704487Y-98814492D01*
X71651684Y-98768736D01*
X71632000Y-98701698D01*
X71632000Y-97983364D01*
X71631999Y-97983364D01*
X71418513Y-98040567D01*
X71418507Y-98040570D01*
X71204422Y-98140399D01*
X71204420Y-98140400D01*
X71010926Y-98275886D01*
X71010920Y-98275891D01*
X70843891Y-98442920D01*
X70843890Y-98442922D01*
X70713880Y-98628595D01*
X70659303Y-98672219D01*
X70589804Y-98679412D01*
X70527450Y-98647890D01*
X70510730Y-98628594D01*
X70380494Y-98442597D01*
X70213402Y-98275506D01*
X70213401Y-98275505D01*
X70022376Y-98141748D01*
X69978752Y-98087171D01*
X69969500Y-98040173D01*
X69969500Y-95815280D01*
X69989185Y-95748241D01*
X70005815Y-95727603D01*
X70743043Y-94990374D01*
X70755325Y-94980537D01*
X70755144Y-94980318D01*
X70761152Y-94975346D01*
X70761162Y-94975340D01*
X70808677Y-94924741D01*
X70829623Y-94903796D01*
X70833892Y-94898290D01*
X70837676Y-94893859D01*
X70869693Y-94859767D01*
X70879389Y-94842128D01*
X70890073Y-94825861D01*
X70902408Y-94809962D01*
X70920983Y-94767034D01*
X70923534Y-94761827D01*
X70946072Y-94720834D01*
X70951078Y-94701334D01*
X70957376Y-94682936D01*
X70965374Y-94664458D01*
X70972688Y-94618276D01*
X70973870Y-94612565D01*
X70985500Y-94567272D01*
X70985500Y-94547141D01*
X70987027Y-94527741D01*
X70987555Y-94524408D01*
X70990175Y-94507867D01*
X70985775Y-94461321D01*
X70985500Y-94455483D01*
X70985500Y-92713826D01*
X71005185Y-92646787D01*
X71038375Y-92612252D01*
X71229401Y-92478495D01*
X71396495Y-92311401D01*
X71526426Y-92125841D01*
X71581002Y-92082217D01*
X71650500Y-92075023D01*
X71712855Y-92106546D01*
X71729575Y-92125842D01*
X71859500Y-92311395D01*
X71859505Y-92311401D01*
X72026599Y-92478495D01*
X72115464Y-92540719D01*
X72220165Y-92614032D01*
X72220167Y-92614033D01*
X72220170Y-92614035D01*
X72434337Y-92713903D01*
X72662592Y-92775063D01*
X72850918Y-92791539D01*
X72897999Y-92795659D01*
X72898000Y-92795659D01*
X72898001Y-92795659D01*
X72937234Y-92792226D01*
X73133408Y-92775063D01*
X73361663Y-92713903D01*
X73575830Y-92614035D01*
X73769401Y-92478495D01*
X73936495Y-92311401D01*
X74066426Y-92125841D01*
X74121002Y-92082217D01*
X74190500Y-92075023D01*
X74252855Y-92106546D01*
X74269575Y-92125842D01*
X74399500Y-92311395D01*
X74399505Y-92311401D01*
X74566599Y-92478495D01*
X74655464Y-92540719D01*
X74760165Y-92614032D01*
X74760167Y-92614033D01*
X74760170Y-92614035D01*
X74974337Y-92713903D01*
X75202592Y-92775063D01*
X75390918Y-92791539D01*
X75437999Y-92795659D01*
X75438000Y-92795659D01*
X75438001Y-92795659D01*
X75477234Y-92792226D01*
X75673408Y-92775063D01*
X75901663Y-92713903D01*
X76115830Y-92614035D01*
X76309401Y-92478495D01*
X76476495Y-92311401D01*
X76606426Y-92125841D01*
X76661002Y-92082217D01*
X76730500Y-92075023D01*
X76792855Y-92106546D01*
X76809575Y-92125842D01*
X76939500Y-92311395D01*
X76939505Y-92311401D01*
X77106599Y-92478495D01*
X77195464Y-92540719D01*
X77300165Y-92614032D01*
X77300167Y-92614033D01*
X77300170Y-92614035D01*
X77514337Y-92713903D01*
X77742592Y-92775063D01*
X77930918Y-92791539D01*
X77977999Y-92795659D01*
X77978000Y-92795659D01*
X77978001Y-92795659D01*
X78017234Y-92792226D01*
X78213408Y-92775063D01*
X78441663Y-92713903D01*
X78655830Y-92614035D01*
X78849401Y-92478495D01*
X79016495Y-92311401D01*
X79146730Y-92125405D01*
X79201307Y-92081781D01*
X79270805Y-92074587D01*
X79333160Y-92106110D01*
X79349879Y-92125405D01*
X79479890Y-92311078D01*
X79646917Y-92478105D01*
X79840421Y-92613600D01*
X80054507Y-92713429D01*
X80054516Y-92713433D01*
X80268000Y-92770634D01*
X80268000Y-92052301D01*
X80287685Y-91985262D01*
X80340489Y-91939507D01*
X80409647Y-91929563D01*
X80482237Y-91940000D01*
X80482238Y-91940000D01*
X80553762Y-91940000D01*
X80553763Y-91940000D01*
X80626353Y-91929563D01*
X80695512Y-91939507D01*
G37*
%TD.AperFunction*%
%TA.AperFunction,Conductor*%
G36*
X57204000Y-72021185D02*
G01*
X57249755Y-72073989D01*
X57258817Y-72129502D01*
X57260540Y-72129502D01*
X57260540Y-72135997D01*
X57260540Y-72136000D01*
X57280326Y-72324256D01*
X57280327Y-72324259D01*
X57338818Y-72504277D01*
X57338821Y-72504284D01*
X57433467Y-72668216D01*
X57520023Y-72764346D01*
X57560129Y-72808888D01*
X57713265Y-72920148D01*
X57713270Y-72920151D01*
X57886192Y-72997142D01*
X57886197Y-72997144D01*
X58071354Y-73036500D01*
X58071355Y-73036500D01*
X58260644Y-73036500D01*
X58260646Y-73036500D01*
X58445803Y-72997144D01*
X58618730Y-72920151D01*
X58771871Y-72808888D01*
X58775799Y-72804525D01*
X58835286Y-72767879D01*
X58867947Y-72763500D01*
X60902719Y-72763500D01*
X60969758Y-72783185D01*
X60990400Y-72799819D01*
X62823241Y-74632660D01*
X62856726Y-74693983D01*
X62851742Y-74763675D01*
X62809870Y-74819608D01*
X62744406Y-74844025D01*
X62739682Y-74844193D01*
X62502596Y-74864936D01*
X62502586Y-74864938D01*
X62274344Y-74926094D01*
X62274335Y-74926098D01*
X62060171Y-75025964D01*
X62060169Y-75025965D01*
X61866597Y-75161505D01*
X61699505Y-75328597D01*
X61569575Y-75514158D01*
X61514998Y-75557783D01*
X61445500Y-75564977D01*
X61383145Y-75533454D01*
X61366425Y-75514158D01*
X61236494Y-75328597D01*
X61069402Y-75161506D01*
X61069395Y-75161501D01*
X61067251Y-75160000D01*
X61030521Y-75134281D01*
X60875834Y-75025967D01*
X60875830Y-75025965D01*
X60788083Y-74985048D01*
X60661663Y-74926097D01*
X60661659Y-74926096D01*
X60661655Y-74926094D01*
X60433413Y-74864938D01*
X60433403Y-74864936D01*
X60198001Y-74844341D01*
X60197999Y-74844341D01*
X59962596Y-74864936D01*
X59962586Y-74864938D01*
X59734344Y-74926094D01*
X59734335Y-74926098D01*
X59520171Y-75025964D01*
X59520169Y-75025965D01*
X59326597Y-75161505D01*
X59159505Y-75328597D01*
X59029575Y-75514158D01*
X58974998Y-75557783D01*
X58905500Y-75564977D01*
X58843145Y-75533454D01*
X58826425Y-75514158D01*
X58696494Y-75328597D01*
X58529402Y-75161506D01*
X58529395Y-75161501D01*
X58527251Y-75160000D01*
X58490521Y-75134281D01*
X58335834Y-75025967D01*
X58335830Y-75025965D01*
X58248083Y-74985048D01*
X58121663Y-74926097D01*
X58121659Y-74926096D01*
X58121655Y-74926094D01*
X57893413Y-74864938D01*
X57893403Y-74864936D01*
X57658001Y-74844341D01*
X57657999Y-74844341D01*
X57422596Y-74864936D01*
X57422586Y-74864938D01*
X57194344Y-74926094D01*
X57194335Y-74926098D01*
X56980171Y-75025964D01*
X56980169Y-75025965D01*
X56786597Y-75161505D01*
X56619505Y-75328597D01*
X56489575Y-75514158D01*
X56434998Y-75557783D01*
X56365500Y-75564977D01*
X56303145Y-75533454D01*
X56286425Y-75514158D01*
X56156494Y-75328597D01*
X55989402Y-75161506D01*
X55989395Y-75161501D01*
X55987251Y-75160000D01*
X55950521Y-75134281D01*
X55795834Y-75025967D01*
X55795830Y-75025965D01*
X55708083Y-74985048D01*
X55581663Y-74926097D01*
X55581659Y-74926096D01*
X55581655Y-74926094D01*
X55353413Y-74864938D01*
X55353403Y-74864936D01*
X55118001Y-74844341D01*
X55117999Y-74844341D01*
X54882596Y-74864936D01*
X54882586Y-74864938D01*
X54654344Y-74926094D01*
X54654335Y-74926098D01*
X54440171Y-75025964D01*
X54440169Y-75025965D01*
X54246597Y-75161505D01*
X54079505Y-75328597D01*
X53949575Y-75514158D01*
X53894998Y-75557783D01*
X53825500Y-75564977D01*
X53763145Y-75533454D01*
X53746425Y-75514158D01*
X53616494Y-75328597D01*
X53449402Y-75161506D01*
X53449395Y-75161501D01*
X53447251Y-75160000D01*
X53410521Y-75134281D01*
X53255834Y-75025967D01*
X53255830Y-75025965D01*
X53168083Y-74985048D01*
X53041663Y-74926097D01*
X53041659Y-74926096D01*
X53041655Y-74926094D01*
X52813413Y-74864938D01*
X52813403Y-74864936D01*
X52578001Y-74844341D01*
X52577999Y-74844341D01*
X52342596Y-74864936D01*
X52342586Y-74864938D01*
X52114344Y-74926094D01*
X52114335Y-74926098D01*
X51900171Y-75025964D01*
X51900169Y-75025965D01*
X51706597Y-75161505D01*
X51539505Y-75328597D01*
X51409575Y-75514158D01*
X51354998Y-75557783D01*
X51285500Y-75564977D01*
X51223145Y-75533454D01*
X51206425Y-75514158D01*
X51076494Y-75328597D01*
X50909402Y-75161506D01*
X50909395Y-75161501D01*
X50907251Y-75160000D01*
X50870521Y-75134281D01*
X50715834Y-75025967D01*
X50715830Y-75025965D01*
X50628083Y-74985048D01*
X50501663Y-74926097D01*
X50501659Y-74926096D01*
X50501655Y-74926094D01*
X50273413Y-74864938D01*
X50273403Y-74864936D01*
X50038001Y-74844341D01*
X50037999Y-74844341D01*
X49802596Y-74864936D01*
X49802586Y-74864938D01*
X49574344Y-74926094D01*
X49574335Y-74926098D01*
X49360171Y-75025964D01*
X49360169Y-75025965D01*
X49166597Y-75161505D01*
X48999505Y-75328597D01*
X48869575Y-75514158D01*
X48814998Y-75557783D01*
X48745500Y-75564977D01*
X48683145Y-75533454D01*
X48666425Y-75514158D01*
X48536494Y-75328597D01*
X48369402Y-75161506D01*
X48369395Y-75161501D01*
X48367251Y-75160000D01*
X48330521Y-75134281D01*
X48175834Y-75025967D01*
X48175830Y-75025965D01*
X48088083Y-74985048D01*
X47961663Y-74926097D01*
X47961659Y-74926096D01*
X47961655Y-74926094D01*
X47733413Y-74864938D01*
X47733403Y-74864936D01*
X47498001Y-74844341D01*
X47497999Y-74844341D01*
X47262596Y-74864936D01*
X47262586Y-74864938D01*
X47034344Y-74926094D01*
X47034335Y-74926098D01*
X46820171Y-75025964D01*
X46820169Y-75025965D01*
X46626597Y-75161505D01*
X46459505Y-75328597D01*
X46329575Y-75514158D01*
X46274998Y-75557783D01*
X46205500Y-75564977D01*
X46143145Y-75533454D01*
X46126425Y-75514158D01*
X45996494Y-75328597D01*
X45829402Y-75161506D01*
X45829395Y-75161501D01*
X45827251Y-75160000D01*
X45790521Y-75134281D01*
X45635834Y-75025967D01*
X45635830Y-75025965D01*
X45548083Y-74985048D01*
X45421663Y-74926097D01*
X45421659Y-74926096D01*
X45421655Y-74926094D01*
X45193413Y-74864938D01*
X45193403Y-74864936D01*
X44958001Y-74844341D01*
X44957999Y-74844341D01*
X44722596Y-74864936D01*
X44722586Y-74864938D01*
X44494344Y-74926094D01*
X44494335Y-74926098D01*
X44280171Y-75025964D01*
X44280169Y-75025965D01*
X44086597Y-75161505D01*
X43919508Y-75328594D01*
X43789574Y-75514159D01*
X43734997Y-75557784D01*
X43665498Y-75564976D01*
X43603144Y-75533454D01*
X43586424Y-75514158D01*
X43456494Y-75328597D01*
X43289402Y-75161506D01*
X43289395Y-75161501D01*
X43287251Y-75160000D01*
X43250521Y-75134281D01*
X43095834Y-75025967D01*
X43095830Y-75025965D01*
X43008083Y-74985048D01*
X42881663Y-74926097D01*
X42881659Y-74926096D01*
X42881655Y-74926094D01*
X42653413Y-74864938D01*
X42653403Y-74864936D01*
X42418001Y-74844341D01*
X42417999Y-74844341D01*
X42182596Y-74864936D01*
X42182586Y-74864938D01*
X41954344Y-74926094D01*
X41954335Y-74926098D01*
X41740171Y-75025964D01*
X41740169Y-75025965D01*
X41546597Y-75161505D01*
X41379505Y-75328597D01*
X41249575Y-75514158D01*
X41194998Y-75557783D01*
X41125500Y-75564977D01*
X41063145Y-75533454D01*
X41046425Y-75514158D01*
X40916494Y-75328597D01*
X40749402Y-75161506D01*
X40749395Y-75161501D01*
X40747251Y-75160000D01*
X40710521Y-75134281D01*
X40555834Y-75025967D01*
X40555830Y-75025965D01*
X40468083Y-74985048D01*
X40341663Y-74926097D01*
X40341659Y-74926096D01*
X40341655Y-74926094D01*
X40113413Y-74864938D01*
X40113403Y-74864936D01*
X39878001Y-74844341D01*
X39877999Y-74844341D01*
X39642596Y-74864936D01*
X39642586Y-74864938D01*
X39414344Y-74926094D01*
X39414335Y-74926098D01*
X39200171Y-75025964D01*
X39200169Y-75025965D01*
X39006597Y-75161505D01*
X38839508Y-75328594D01*
X38709269Y-75514595D01*
X38654692Y-75558219D01*
X38585193Y-75565412D01*
X38522839Y-75533890D01*
X38506119Y-75514594D01*
X38376113Y-75328926D01*
X38376108Y-75328920D01*
X38209082Y-75161894D01*
X38015578Y-75026399D01*
X37801492Y-74926570D01*
X37801486Y-74926567D01*
X37588000Y-74869364D01*
X37588000Y-75587698D01*
X37568315Y-75654737D01*
X37515511Y-75700492D01*
X37446355Y-75710436D01*
X37373766Y-75700000D01*
X37373763Y-75700000D01*
X37302237Y-75700000D01*
X37302233Y-75700000D01*
X37229645Y-75710436D01*
X37160487Y-75700492D01*
X37107684Y-75654736D01*
X37088000Y-75587698D01*
X37088000Y-74869364D01*
X37087999Y-74869364D01*
X36874513Y-74926567D01*
X36874507Y-74926570D01*
X36660422Y-75026399D01*
X36660420Y-75026400D01*
X36466926Y-75161886D01*
X36466920Y-75161891D01*
X36299891Y-75328920D01*
X36299890Y-75328922D01*
X36169880Y-75514595D01*
X36115303Y-75558219D01*
X36045804Y-75565412D01*
X35983450Y-75533890D01*
X35966730Y-75514594D01*
X35836494Y-75328597D01*
X35669402Y-75161506D01*
X35669395Y-75161501D01*
X35667251Y-75160000D01*
X35630521Y-75134281D01*
X35475834Y-75025967D01*
X35475830Y-75025965D01*
X35388083Y-74985048D01*
X35261663Y-74926097D01*
X35261659Y-74926096D01*
X35261655Y-74926094D01*
X35033413Y-74864938D01*
X35033403Y-74864936D01*
X34798001Y-74844341D01*
X34797999Y-74844341D01*
X34562596Y-74864936D01*
X34562586Y-74864938D01*
X34334344Y-74926094D01*
X34334335Y-74926098D01*
X34120171Y-75025964D01*
X34120169Y-75025965D01*
X33926597Y-75161505D01*
X33759505Y-75328597D01*
X33623965Y-75522169D01*
X33623964Y-75522171D01*
X33524098Y-75736335D01*
X33524094Y-75736344D01*
X33462938Y-75964586D01*
X33462936Y-75964596D01*
X33442341Y-76199999D01*
X33442341Y-76200000D01*
X33462936Y-76435403D01*
X33462938Y-76435413D01*
X33524094Y-76663655D01*
X33524096Y-76663659D01*
X33524097Y-76663663D01*
X33603801Y-76834588D01*
X33623965Y-76877830D01*
X33623967Y-76877834D01*
X33732281Y-77032521D01*
X33759505Y-77071401D01*
X33926599Y-77238495D01*
X34023384Y-77306265D01*
X34120165Y-77374032D01*
X34120167Y-77374033D01*
X34120170Y-77374035D01*
X34334337Y-77473903D01*
X34334343Y-77473904D01*
X34334344Y-77473905D01*
X34389285Y-77488626D01*
X34562592Y-77535063D01*
X34750918Y-77551539D01*
X34797999Y-77555659D01*
X34798000Y-77555659D01*
X34798001Y-77555659D01*
X34837234Y-77552226D01*
X35033408Y-77535063D01*
X35261663Y-77473903D01*
X35475830Y-77374035D01*
X35669401Y-77238495D01*
X35836495Y-77071401D01*
X35966730Y-76885405D01*
X36021307Y-76841781D01*
X36090805Y-76834587D01*
X36153160Y-76866110D01*
X36169879Y-76885405D01*
X36299890Y-77071078D01*
X36466917Y-77238105D01*
X36660421Y-77373600D01*
X36874507Y-77473429D01*
X36874516Y-77473433D01*
X37088000Y-77530634D01*
X37088000Y-76812301D01*
X37107685Y-76745262D01*
X37160489Y-76699507D01*
X37229647Y-76689563D01*
X37302237Y-76700000D01*
X37302238Y-76700000D01*
X37373762Y-76700000D01*
X37373763Y-76700000D01*
X37446353Y-76689563D01*
X37515512Y-76699507D01*
X37568315Y-76745262D01*
X37588000Y-76812301D01*
X37588000Y-77530633D01*
X37801483Y-77473433D01*
X37801492Y-77473429D01*
X38015578Y-77373600D01*
X38209082Y-77238105D01*
X38376105Y-77071082D01*
X38506119Y-76885405D01*
X38560696Y-76841781D01*
X38630195Y-76834588D01*
X38692549Y-76866110D01*
X38709269Y-76885405D01*
X38839505Y-77071401D01*
X39006599Y-77238495D01*
X39103384Y-77306265D01*
X39200165Y-77374032D01*
X39200167Y-77374033D01*
X39200170Y-77374035D01*
X39414337Y-77473903D01*
X39414343Y-77473904D01*
X39414344Y-77473905D01*
X39469285Y-77488626D01*
X39642592Y-77535063D01*
X39830918Y-77551539D01*
X39877999Y-77555659D01*
X39878000Y-77555659D01*
X39878001Y-77555659D01*
X39917234Y-77552226D01*
X40113408Y-77535063D01*
X40341663Y-77473903D01*
X40555830Y-77374035D01*
X40749401Y-77238495D01*
X40916495Y-77071401D01*
X41046424Y-76885842D01*
X41101002Y-76842217D01*
X41170500Y-76835023D01*
X41232855Y-76866546D01*
X41249575Y-76885842D01*
X41379500Y-77071395D01*
X41379505Y-77071401D01*
X41546599Y-77238495D01*
X41643384Y-77306265D01*
X41740165Y-77374032D01*
X41740167Y-77374033D01*
X41740170Y-77374035D01*
X41954337Y-77473903D01*
X41954343Y-77473904D01*
X41954344Y-77473905D01*
X42009285Y-77488626D01*
X42182592Y-77535063D01*
X42370918Y-77551539D01*
X42417999Y-77555659D01*
X42418000Y-77555659D01*
X42418001Y-77555659D01*
X42457234Y-77552226D01*
X42653408Y-77535063D01*
X42881663Y-77473903D01*
X43095830Y-77374035D01*
X43289401Y-77238495D01*
X43456495Y-77071401D01*
X43586424Y-76885842D01*
X43641002Y-76842217D01*
X43710500Y-76835023D01*
X43772855Y-76866546D01*
X43789575Y-76885842D01*
X43919500Y-77071395D01*
X43919505Y-77071401D01*
X44086599Y-77238495D01*
X44183384Y-77306265D01*
X44280165Y-77374032D01*
X44280167Y-77374033D01*
X44280170Y-77374035D01*
X44494337Y-77473903D01*
X44494343Y-77473904D01*
X44494344Y-77473905D01*
X44549285Y-77488626D01*
X44722592Y-77535063D01*
X44910918Y-77551539D01*
X44957999Y-77555659D01*
X44958000Y-77555659D01*
X44958001Y-77555659D01*
X44997234Y-77552226D01*
X45193408Y-77535063D01*
X45421663Y-77473903D01*
X45635830Y-77374035D01*
X45829401Y-77238495D01*
X45996495Y-77071401D01*
X46126424Y-76885842D01*
X46181002Y-76842217D01*
X46250500Y-76835023D01*
X46312855Y-76866546D01*
X46329575Y-76885842D01*
X46459500Y-77071395D01*
X46459505Y-77071401D01*
X46626599Y-77238495D01*
X46723384Y-77306265D01*
X46820165Y-77374032D01*
X46820167Y-77374033D01*
X46820170Y-77374035D01*
X47034337Y-77473903D01*
X47034343Y-77473904D01*
X47034344Y-77473905D01*
X47089285Y-77488626D01*
X47262592Y-77535063D01*
X47450918Y-77551539D01*
X47497999Y-77555659D01*
X47498000Y-77555659D01*
X47498001Y-77555659D01*
X47537234Y-77552226D01*
X47733408Y-77535063D01*
X47961663Y-77473903D01*
X48175830Y-77374035D01*
X48369401Y-77238495D01*
X48536495Y-77071401D01*
X48666424Y-76885842D01*
X48721002Y-76842217D01*
X48790500Y-76835023D01*
X48852855Y-76866546D01*
X48869575Y-76885842D01*
X48999500Y-77071395D01*
X48999505Y-77071401D01*
X49166599Y-77238495D01*
X49263384Y-77306265D01*
X49360165Y-77374032D01*
X49360167Y-77374033D01*
X49360170Y-77374035D01*
X49574337Y-77473903D01*
X49574343Y-77473904D01*
X49574344Y-77473905D01*
X49629285Y-77488626D01*
X49802592Y-77535063D01*
X49990918Y-77551539D01*
X50037999Y-77555659D01*
X50038000Y-77555659D01*
X50038001Y-77555659D01*
X50077234Y-77552226D01*
X50273408Y-77535063D01*
X50501663Y-77473903D01*
X50715830Y-77374035D01*
X50909401Y-77238495D01*
X51076495Y-77071401D01*
X51206424Y-76885842D01*
X51261002Y-76842217D01*
X51330500Y-76835023D01*
X51392855Y-76866546D01*
X51409575Y-76885842D01*
X51539500Y-77071395D01*
X51539505Y-77071401D01*
X51706599Y-77238495D01*
X51803384Y-77306265D01*
X51900165Y-77374032D01*
X51900167Y-77374033D01*
X51900170Y-77374035D01*
X52114337Y-77473903D01*
X52114343Y-77473904D01*
X52114344Y-77473905D01*
X52169285Y-77488626D01*
X52342592Y-77535063D01*
X52530918Y-77551539D01*
X52577999Y-77555659D01*
X52578000Y-77555659D01*
X52578001Y-77555659D01*
X52617234Y-77552226D01*
X52813408Y-77535063D01*
X53041663Y-77473903D01*
X53255830Y-77374035D01*
X53449401Y-77238495D01*
X53616495Y-77071401D01*
X53746424Y-76885842D01*
X53801002Y-76842217D01*
X53870500Y-76835023D01*
X53932855Y-76866546D01*
X53949575Y-76885842D01*
X54079500Y-77071395D01*
X54079505Y-77071401D01*
X54246599Y-77238495D01*
X54343384Y-77306265D01*
X54440165Y-77374032D01*
X54440167Y-77374033D01*
X54440170Y-77374035D01*
X54654337Y-77473903D01*
X54654343Y-77473904D01*
X54654344Y-77473905D01*
X54709285Y-77488626D01*
X54882592Y-77535063D01*
X55070918Y-77551539D01*
X55117999Y-77555659D01*
X55118000Y-77555659D01*
X55118001Y-77555659D01*
X55157234Y-77552226D01*
X55353408Y-77535063D01*
X55581663Y-77473903D01*
X55795830Y-77374035D01*
X55989401Y-77238495D01*
X56156495Y-77071401D01*
X56286424Y-76885842D01*
X56341002Y-76842217D01*
X56410500Y-76835023D01*
X56472855Y-76866546D01*
X56489575Y-76885842D01*
X56619500Y-77071395D01*
X56619505Y-77071401D01*
X56786599Y-77238495D01*
X56883384Y-77306265D01*
X56980165Y-77374032D01*
X56980167Y-77374033D01*
X56980170Y-77374035D01*
X57194337Y-77473903D01*
X57194343Y-77473904D01*
X57194344Y-77473905D01*
X57249285Y-77488626D01*
X57422592Y-77535063D01*
X57610918Y-77551539D01*
X57657999Y-77555659D01*
X57658000Y-77555659D01*
X57658001Y-77555659D01*
X57697234Y-77552226D01*
X57893408Y-77535063D01*
X58121663Y-77473903D01*
X58335830Y-77374035D01*
X58529401Y-77238495D01*
X58696495Y-77071401D01*
X58826424Y-76885842D01*
X58881002Y-76842217D01*
X58950500Y-76835023D01*
X59012855Y-76866546D01*
X59029575Y-76885842D01*
X59159500Y-77071395D01*
X59159505Y-77071401D01*
X59326599Y-77238495D01*
X59517624Y-77372252D01*
X59561248Y-77426828D01*
X59570500Y-77473826D01*
X59570500Y-77895032D01*
X59568772Y-77910681D01*
X59569054Y-77910708D01*
X59568319Y-77918475D01*
X59570500Y-77987859D01*
X59570500Y-78017477D01*
X59571371Y-78024380D01*
X59571829Y-78030199D01*
X59573298Y-78076942D01*
X59578916Y-78096275D01*
X59582861Y-78115327D01*
X59583164Y-78117722D01*
X59585383Y-78135287D01*
X59585386Y-78135299D01*
X59602595Y-78178765D01*
X59604487Y-78184293D01*
X59617530Y-78229187D01*
X59617530Y-78229188D01*
X59627777Y-78246515D01*
X59636335Y-78263985D01*
X59643745Y-78282701D01*
X59671229Y-78320529D01*
X59674437Y-78325413D01*
X59698234Y-78365652D01*
X59698240Y-78365660D01*
X59712469Y-78379888D01*
X59725109Y-78394687D01*
X59736934Y-78410964D01*
X59736936Y-78410965D01*
X59736937Y-78410967D01*
X59772957Y-78440765D01*
X59777268Y-78444687D01*
X60006837Y-78674256D01*
X60203624Y-78871043D01*
X60213471Y-78883333D01*
X60213689Y-78883154D01*
X60218657Y-78889160D01*
X60269257Y-78936677D01*
X60290201Y-78957620D01*
X60290207Y-78957626D01*
X60295697Y-78961883D01*
X60300148Y-78965684D01*
X60334235Y-78997695D01*
X60334237Y-78997696D01*
X60351867Y-79007387D01*
X60368135Y-79018072D01*
X60384038Y-79030408D01*
X60384040Y-79030409D01*
X60384042Y-79030410D01*
X60405380Y-79039643D01*
X60426943Y-79048974D01*
X60432190Y-79051545D01*
X60453734Y-79063389D01*
X60473166Y-79074072D01*
X60492667Y-79079079D01*
X60511065Y-79085378D01*
X60529541Y-79093373D01*
X60575740Y-79100690D01*
X60581414Y-79101865D01*
X60626728Y-79113500D01*
X60646864Y-79113500D01*
X60666263Y-79115027D01*
X60686133Y-79118174D01*
X60732670Y-79113774D01*
X60738507Y-79113500D01*
X69656053Y-79113500D01*
X69723092Y-79133185D01*
X69748199Y-79154523D01*
X69750087Y-79156620D01*
X69752132Y-79158891D01*
X69752135Y-79158893D01*
X69905265Y-79270148D01*
X69905270Y-79270151D01*
X70078192Y-79347142D01*
X70078197Y-79347144D01*
X70263354Y-79386500D01*
X70263355Y-79386500D01*
X70452644Y-79386500D01*
X70452646Y-79386500D01*
X70637803Y-79347144D01*
X70810730Y-79270151D01*
X70963871Y-79158888D01*
X71090533Y-79018216D01*
X71185179Y-78854284D01*
X71243674Y-78674256D01*
X71263460Y-78486000D01*
X71243674Y-78297744D01*
X71185179Y-78117716D01*
X71090533Y-77953784D01*
X70963871Y-77813112D01*
X70963870Y-77813111D01*
X70810734Y-77701851D01*
X70805107Y-77698603D01*
X70806262Y-77696601D01*
X70761080Y-77658183D01*
X70740770Y-77591330D01*
X70759828Y-77524110D01*
X70812202Y-77477864D01*
X70820982Y-77474219D01*
X70821655Y-77473905D01*
X70821663Y-77473903D01*
X71035830Y-77374035D01*
X71229401Y-77238495D01*
X71396495Y-77071401D01*
X71526424Y-76885842D01*
X71581002Y-76842217D01*
X71650500Y-76835023D01*
X71712855Y-76866546D01*
X71729575Y-76885842D01*
X71859500Y-77071395D01*
X71859505Y-77071401D01*
X72026599Y-77238495D01*
X72123384Y-77306265D01*
X72220165Y-77374032D01*
X72220167Y-77374033D01*
X72220170Y-77374035D01*
X72434337Y-77473903D01*
X72434343Y-77473904D01*
X72434344Y-77473905D01*
X72489285Y-77488626D01*
X72662592Y-77535063D01*
X72850918Y-77551539D01*
X72897999Y-77555659D01*
X72898000Y-77555659D01*
X72898001Y-77555659D01*
X72937234Y-77552226D01*
X73133408Y-77535063D01*
X73361663Y-77473903D01*
X73575830Y-77374035D01*
X73769401Y-77238495D01*
X73936495Y-77071401D01*
X74066424Y-76885842D01*
X74121002Y-76842217D01*
X74190500Y-76835023D01*
X74252855Y-76866546D01*
X74269575Y-76885842D01*
X74399500Y-77071395D01*
X74399505Y-77071401D01*
X74566599Y-77238495D01*
X74663384Y-77306265D01*
X74760165Y-77374032D01*
X74760167Y-77374033D01*
X74760170Y-77374035D01*
X74974337Y-77473903D01*
X74974343Y-77473904D01*
X74974344Y-77473905D01*
X75029285Y-77488626D01*
X75202592Y-77535063D01*
X75390918Y-77551539D01*
X75437999Y-77555659D01*
X75438000Y-77555659D01*
X75438001Y-77555659D01*
X75477234Y-77552226D01*
X75673408Y-77535063D01*
X75901663Y-77473903D01*
X76115830Y-77374035D01*
X76309401Y-77238495D01*
X76476495Y-77071401D01*
X76606424Y-76885842D01*
X76661002Y-76842217D01*
X76730500Y-76835023D01*
X76792855Y-76866546D01*
X76809575Y-76885842D01*
X76939500Y-77071395D01*
X76939505Y-77071401D01*
X77106599Y-77238495D01*
X77203384Y-77306265D01*
X77300165Y-77374032D01*
X77300167Y-77374033D01*
X77300170Y-77374035D01*
X77514337Y-77473903D01*
X77514343Y-77473904D01*
X77514344Y-77473905D01*
X77569285Y-77488626D01*
X77742592Y-77535063D01*
X77930918Y-77551539D01*
X77977999Y-77555659D01*
X77978000Y-77555659D01*
X77978001Y-77555659D01*
X78017234Y-77552226D01*
X78213408Y-77535063D01*
X78441663Y-77473903D01*
X78655830Y-77374035D01*
X78849401Y-77238495D01*
X79016495Y-77071401D01*
X79146424Y-76885842D01*
X79201002Y-76842217D01*
X79270500Y-76835023D01*
X79332855Y-76866546D01*
X79349575Y-76885842D01*
X79479500Y-77071395D01*
X79479505Y-77071401D01*
X79646599Y-77238495D01*
X79743384Y-77306264D01*
X79840165Y-77374032D01*
X79840167Y-77374033D01*
X79840170Y-77374035D01*
X80054337Y-77473903D01*
X80054343Y-77473904D01*
X80054344Y-77473905D01*
X80109285Y-77488626D01*
X80282592Y-77535063D01*
X80470918Y-77551539D01*
X80517999Y-77555659D01*
X80518000Y-77555659D01*
X80518001Y-77555659D01*
X80557234Y-77552226D01*
X80753408Y-77535063D01*
X80981663Y-77473903D01*
X81195830Y-77374035D01*
X81389401Y-77238495D01*
X81556495Y-77071401D01*
X81686424Y-76885842D01*
X81741002Y-76842217D01*
X81810500Y-76835023D01*
X81872855Y-76866546D01*
X81889575Y-76885842D01*
X82019500Y-77071395D01*
X82019505Y-77071401D01*
X82186599Y-77238495D01*
X82283384Y-77306264D01*
X82380165Y-77374032D01*
X82380167Y-77374033D01*
X82380170Y-77374035D01*
X82594337Y-77473903D01*
X82594343Y-77473904D01*
X82594344Y-77473905D01*
X82649285Y-77488626D01*
X82822592Y-77535063D01*
X83010918Y-77551539D01*
X83057999Y-77555659D01*
X83058000Y-77555659D01*
X83058001Y-77555659D01*
X83097234Y-77552226D01*
X83293408Y-77535063D01*
X83521663Y-77473903D01*
X83735830Y-77374035D01*
X83929401Y-77238495D01*
X84096495Y-77071401D01*
X84232035Y-76877830D01*
X84331903Y-76663663D01*
X84393063Y-76435408D01*
X84413659Y-76200000D01*
X84393063Y-75964592D01*
X84331903Y-75736337D01*
X84232035Y-75522171D01*
X84226731Y-75514595D01*
X84096494Y-75328597D01*
X83929402Y-75161506D01*
X83929395Y-75161501D01*
X83927251Y-75160000D01*
X83890521Y-75134281D01*
X83735834Y-75025967D01*
X83735830Y-75025965D01*
X83648083Y-74985048D01*
X83521663Y-74926097D01*
X83521659Y-74926096D01*
X83521655Y-74926094D01*
X83293413Y-74864938D01*
X83293403Y-74864936D01*
X83058001Y-74844341D01*
X83057999Y-74844341D01*
X82822596Y-74864936D01*
X82822586Y-74864938D01*
X82594344Y-74926094D01*
X82594335Y-74926098D01*
X82380171Y-75025964D01*
X82380169Y-75025965D01*
X82186597Y-75161505D01*
X82019505Y-75328597D01*
X81889575Y-75514158D01*
X81834998Y-75557783D01*
X81765500Y-75564977D01*
X81703145Y-75533454D01*
X81686425Y-75514158D01*
X81556494Y-75328597D01*
X81389402Y-75161506D01*
X81389395Y-75161501D01*
X81387251Y-75160000D01*
X81350521Y-75134281D01*
X81195834Y-75025967D01*
X81195830Y-75025965D01*
X81108083Y-74985048D01*
X80981663Y-74926097D01*
X80981659Y-74926096D01*
X80981655Y-74926094D01*
X80753413Y-74864938D01*
X80753403Y-74864936D01*
X80518001Y-74844341D01*
X80517999Y-74844341D01*
X80282596Y-74864936D01*
X80282586Y-74864938D01*
X80054344Y-74926094D01*
X80054335Y-74926098D01*
X79840171Y-75025964D01*
X79840169Y-75025965D01*
X79646597Y-75161505D01*
X79479505Y-75328597D01*
X79349575Y-75514158D01*
X79294998Y-75557783D01*
X79225500Y-75564977D01*
X79163145Y-75533454D01*
X79146425Y-75514158D01*
X79016494Y-75328597D01*
X78849402Y-75161506D01*
X78849395Y-75161501D01*
X78847251Y-75160000D01*
X78810521Y-75134281D01*
X78655834Y-75025967D01*
X78655830Y-75025965D01*
X78568083Y-74985048D01*
X78441663Y-74926097D01*
X78441659Y-74926096D01*
X78441655Y-74926094D01*
X78213413Y-74864938D01*
X78213403Y-74864936D01*
X77978001Y-74844341D01*
X77977999Y-74844341D01*
X77742596Y-74864936D01*
X77742586Y-74864938D01*
X77514344Y-74926094D01*
X77514335Y-74926098D01*
X77300171Y-75025964D01*
X77300169Y-75025965D01*
X77106597Y-75161505D01*
X76939505Y-75328597D01*
X76809575Y-75514158D01*
X76754998Y-75557783D01*
X76685500Y-75564977D01*
X76623145Y-75533454D01*
X76606425Y-75514158D01*
X76476494Y-75328597D01*
X76309402Y-75161506D01*
X76309395Y-75161501D01*
X76307251Y-75160000D01*
X76270521Y-75134281D01*
X76115834Y-75025967D01*
X76115830Y-75025965D01*
X76028083Y-74985048D01*
X75901663Y-74926097D01*
X75901659Y-74926096D01*
X75901655Y-74926094D01*
X75673413Y-74864938D01*
X75673403Y-74864936D01*
X75438001Y-74844341D01*
X75437999Y-74844341D01*
X75202596Y-74864936D01*
X75202586Y-74864938D01*
X74974344Y-74926094D01*
X74974335Y-74926098D01*
X74760171Y-75025964D01*
X74760169Y-75025965D01*
X74566597Y-75161505D01*
X74399505Y-75328597D01*
X74269575Y-75514158D01*
X74214998Y-75557783D01*
X74145500Y-75564977D01*
X74083145Y-75533454D01*
X74066425Y-75514158D01*
X73936494Y-75328597D01*
X73769402Y-75161506D01*
X73769395Y-75161501D01*
X73767251Y-75160000D01*
X73730521Y-75134281D01*
X73575834Y-75025967D01*
X73575830Y-75025965D01*
X73488083Y-74985048D01*
X73361663Y-74926097D01*
X73361659Y-74926096D01*
X73361655Y-74926094D01*
X73133413Y-74864938D01*
X73133403Y-74864936D01*
X72898001Y-74844341D01*
X72897999Y-74844341D01*
X72662596Y-74864936D01*
X72662586Y-74864938D01*
X72434344Y-74926094D01*
X72434335Y-74926098D01*
X72220171Y-75025964D01*
X72220169Y-75025965D01*
X72026597Y-75161505D01*
X71859505Y-75328597D01*
X71729575Y-75514158D01*
X71674998Y-75557783D01*
X71605500Y-75564977D01*
X71543145Y-75533454D01*
X71526425Y-75514158D01*
X71396494Y-75328597D01*
X71229402Y-75161506D01*
X71229395Y-75161501D01*
X71227251Y-75160000D01*
X71190521Y-75134281D01*
X71035834Y-75025967D01*
X71035830Y-75025965D01*
X70948083Y-74985048D01*
X70821663Y-74926097D01*
X70821659Y-74926096D01*
X70821655Y-74926094D01*
X70593413Y-74864938D01*
X70593403Y-74864936D01*
X70358001Y-74844341D01*
X70357999Y-74844341D01*
X70122596Y-74864936D01*
X70122586Y-74864938D01*
X69894344Y-74926094D01*
X69894335Y-74926098D01*
X69680171Y-75025964D01*
X69680169Y-75025965D01*
X69486597Y-75161505D01*
X69319505Y-75328597D01*
X69189575Y-75514158D01*
X69134998Y-75557783D01*
X69065500Y-75564977D01*
X69003145Y-75533454D01*
X68986425Y-75514158D01*
X68856494Y-75328597D01*
X68689402Y-75161506D01*
X68689395Y-75161501D01*
X68687251Y-75160000D01*
X68650521Y-75134281D01*
X68495834Y-75025967D01*
X68495830Y-75025965D01*
X68408083Y-74985048D01*
X68281663Y-74926097D01*
X68281659Y-74926096D01*
X68281655Y-74926094D01*
X68053413Y-74864938D01*
X68053403Y-74864936D01*
X67818001Y-74844341D01*
X67817999Y-74844341D01*
X67582596Y-74864936D01*
X67582586Y-74864938D01*
X67354344Y-74926094D01*
X67354335Y-74926098D01*
X67140171Y-75025964D01*
X67140169Y-75025965D01*
X66946597Y-75161505D01*
X66779505Y-75328597D01*
X66649575Y-75514158D01*
X66594998Y-75557783D01*
X66525500Y-75564977D01*
X66463145Y-75533454D01*
X66446425Y-75514158D01*
X66316494Y-75328597D01*
X66149402Y-75161506D01*
X66149395Y-75161501D01*
X66147251Y-75160000D01*
X66110521Y-75134281D01*
X65955834Y-75025967D01*
X65955830Y-75025965D01*
X65868083Y-74985048D01*
X65741663Y-74926097D01*
X65741659Y-74926096D01*
X65741655Y-74926094D01*
X65513413Y-74864938D01*
X65513403Y-74864936D01*
X65278001Y-74844341D01*
X65277999Y-74844341D01*
X65042596Y-74864936D01*
X65042583Y-74864939D01*
X64944356Y-74891258D01*
X64874507Y-74889595D01*
X64824583Y-74859164D01*
X64737600Y-74772181D01*
X64704115Y-74710858D01*
X64709099Y-74641166D01*
X64750971Y-74585233D01*
X64816435Y-74560816D01*
X64825281Y-74560500D01*
X64864644Y-74560500D01*
X64864646Y-74560500D01*
X65049803Y-74521144D01*
X65222730Y-74444151D01*
X65375871Y-74332888D01*
X65502533Y-74192216D01*
X65597179Y-74028284D01*
X65655674Y-73848256D01*
X65675460Y-73660000D01*
X65655674Y-73471744D01*
X65597179Y-73291716D01*
X65502533Y-73127784D01*
X65397470Y-73011100D01*
X65374330Y-72973781D01*
X65365401Y-72951227D01*
X65363515Y-72945717D01*
X65350468Y-72900808D01*
X65340225Y-72883489D01*
X65331662Y-72866011D01*
X65324253Y-72847297D01*
X65324253Y-72847296D01*
X65296771Y-72809472D01*
X65293567Y-72804596D01*
X65269763Y-72764344D01*
X65269761Y-72764342D01*
X65269759Y-72764339D01*
X65255531Y-72750112D01*
X65242896Y-72735320D01*
X65231063Y-72719033D01*
X65231060Y-72719031D01*
X65231060Y-72719030D01*
X65231059Y-72719029D01*
X65195035Y-72689228D01*
X65190713Y-72685294D01*
X64718600Y-72213181D01*
X64685115Y-72151858D01*
X64690099Y-72082166D01*
X64731971Y-72026233D01*
X64797435Y-72001816D01*
X64806281Y-72001500D01*
X97478719Y-72001500D01*
X97545758Y-72021185D01*
X97566400Y-72037819D01*
X98138781Y-72610200D01*
X98172266Y-72671523D01*
X98175100Y-72697881D01*
X98175100Y-74136173D01*
X98155415Y-74203212D01*
X98122224Y-74237748D01*
X97931197Y-74371505D01*
X97809273Y-74493430D01*
X97747950Y-74526914D01*
X97678258Y-74521930D01*
X97622325Y-74480058D01*
X97605410Y-74449081D01*
X97556397Y-74317671D01*
X97556393Y-74317664D01*
X97470147Y-74202455D01*
X97470144Y-74202452D01*
X97354935Y-74116206D01*
X97354928Y-74116202D01*
X97220082Y-74065908D01*
X97220083Y-74065908D01*
X97160483Y-74059501D01*
X97160481Y-74059500D01*
X97160473Y-74059500D01*
X97160464Y-74059500D01*
X95364729Y-74059500D01*
X95364723Y-74059501D01*
X95305116Y-74065908D01*
X95170271Y-74116202D01*
X95170264Y-74116206D01*
X95055055Y-74202452D01*
X95055052Y-74202455D01*
X94968806Y-74317664D01*
X94968802Y-74317671D01*
X94918508Y-74452517D01*
X94912101Y-74512116D01*
X94912100Y-74512135D01*
X94912100Y-76307870D01*
X94912101Y-76307876D01*
X94918508Y-76367483D01*
X94968802Y-76502328D01*
X94968806Y-76502335D01*
X95055052Y-76617544D01*
X95055055Y-76617547D01*
X95170264Y-76703793D01*
X95170271Y-76703797D01*
X95215218Y-76720561D01*
X95305117Y-76754091D01*
X95364727Y-76760500D01*
X95511100Y-76760499D01*
X95578139Y-76780183D01*
X95623894Y-76832987D01*
X95635100Y-76884499D01*
X95635100Y-80972119D01*
X95615415Y-81039158D01*
X95598781Y-81059800D01*
X85882400Y-90776181D01*
X85821077Y-90809666D01*
X85794719Y-90812500D01*
X84331826Y-90812500D01*
X84264787Y-90792815D01*
X84230251Y-90759623D01*
X84096494Y-90568597D01*
X83929402Y-90401506D01*
X83929395Y-90401501D01*
X83735834Y-90265967D01*
X83735830Y-90265965D01*
X83735828Y-90265964D01*
X83521663Y-90166097D01*
X83521659Y-90166096D01*
X83521655Y-90166094D01*
X83293413Y-90104938D01*
X83293403Y-90104936D01*
X83058001Y-90084341D01*
X83057999Y-90084341D01*
X82822596Y-90104936D01*
X82822586Y-90104938D01*
X82594344Y-90166094D01*
X82594335Y-90166098D01*
X82380171Y-90265964D01*
X82380169Y-90265965D01*
X82186597Y-90401505D01*
X82019508Y-90568594D01*
X81889269Y-90754595D01*
X81834692Y-90798219D01*
X81765193Y-90805412D01*
X81702839Y-90773890D01*
X81686119Y-90754594D01*
X81556113Y-90568926D01*
X81556108Y-90568920D01*
X81389082Y-90401894D01*
X81195578Y-90266399D01*
X80981492Y-90166570D01*
X80981486Y-90166567D01*
X80768000Y-90109364D01*
X80768000Y-90827698D01*
X80748315Y-90894737D01*
X80695511Y-90940492D01*
X80626355Y-90950436D01*
X80553766Y-90940000D01*
X80553763Y-90940000D01*
X80482237Y-90940000D01*
X80482233Y-90940000D01*
X80409645Y-90950436D01*
X80340487Y-90940492D01*
X80287684Y-90894736D01*
X80268000Y-90827698D01*
X80268000Y-90109364D01*
X80267999Y-90109364D01*
X80054513Y-90166567D01*
X80054507Y-90166570D01*
X79840422Y-90266399D01*
X79840420Y-90266400D01*
X79646926Y-90401886D01*
X79646920Y-90401891D01*
X79479891Y-90568920D01*
X79479890Y-90568922D01*
X79349880Y-90754595D01*
X79295303Y-90798219D01*
X79225804Y-90805412D01*
X79163450Y-90773890D01*
X79146730Y-90754594D01*
X79016494Y-90568597D01*
X78849402Y-90401506D01*
X78849395Y-90401501D01*
X78655834Y-90265967D01*
X78655830Y-90265965D01*
X78655828Y-90265964D01*
X78441663Y-90166097D01*
X78441659Y-90166096D01*
X78441655Y-90166094D01*
X78213413Y-90104938D01*
X78213403Y-90104936D01*
X77978001Y-90084341D01*
X77977999Y-90084341D01*
X77742596Y-90104936D01*
X77742586Y-90104938D01*
X77514344Y-90166094D01*
X77514335Y-90166098D01*
X77300171Y-90265964D01*
X77300169Y-90265965D01*
X77106597Y-90401505D01*
X76939505Y-90568597D01*
X76809575Y-90754158D01*
X76754998Y-90797783D01*
X76685500Y-90804977D01*
X76623145Y-90773454D01*
X76606425Y-90754158D01*
X76476494Y-90568597D01*
X76309402Y-90401506D01*
X76309395Y-90401501D01*
X76115834Y-90265967D01*
X76115830Y-90265965D01*
X76115828Y-90265964D01*
X75901663Y-90166097D01*
X75901659Y-90166096D01*
X75901655Y-90166094D01*
X75673413Y-90104938D01*
X75673403Y-90104936D01*
X75438001Y-90084341D01*
X75437999Y-90084341D01*
X75202596Y-90104936D01*
X75202586Y-90104938D01*
X74974344Y-90166094D01*
X74974335Y-90166098D01*
X74760171Y-90265964D01*
X74760169Y-90265965D01*
X74566597Y-90401505D01*
X74399505Y-90568597D01*
X74269575Y-90754158D01*
X74214998Y-90797783D01*
X74145500Y-90804977D01*
X74083145Y-90773454D01*
X74066425Y-90754158D01*
X73936494Y-90568597D01*
X73769402Y-90401506D01*
X73769395Y-90401501D01*
X73575834Y-90265967D01*
X73575830Y-90265965D01*
X73575829Y-90265964D01*
X73361663Y-90166097D01*
X73361659Y-90166096D01*
X73361655Y-90166094D01*
X73133413Y-90104938D01*
X73133403Y-90104936D01*
X72898001Y-90084341D01*
X72897999Y-90084341D01*
X72662596Y-90104936D01*
X72662586Y-90104938D01*
X72434344Y-90166094D01*
X72434335Y-90166098D01*
X72220171Y-90265964D01*
X72220169Y-90265965D01*
X72026597Y-90401505D01*
X71859505Y-90568597D01*
X71729575Y-90754158D01*
X71674998Y-90797783D01*
X71605500Y-90804977D01*
X71543145Y-90773454D01*
X71526425Y-90754158D01*
X71396494Y-90568597D01*
X71229402Y-90401506D01*
X71229395Y-90401501D01*
X71035834Y-90265967D01*
X71035830Y-90265965D01*
X71035828Y-90265964D01*
X70821663Y-90166097D01*
X70821659Y-90166096D01*
X70821655Y-90166094D01*
X70593413Y-90104938D01*
X70593403Y-90104936D01*
X70358001Y-90084341D01*
X70357999Y-90084341D01*
X70122596Y-90104936D01*
X70122586Y-90104938D01*
X69894344Y-90166094D01*
X69894335Y-90166098D01*
X69680171Y-90265964D01*
X69680169Y-90265965D01*
X69486597Y-90401505D01*
X69319505Y-90568597D01*
X69189575Y-90754158D01*
X69134998Y-90797783D01*
X69065500Y-90804977D01*
X69003145Y-90773454D01*
X68986425Y-90754158D01*
X68856494Y-90568597D01*
X68689402Y-90401506D01*
X68689395Y-90401501D01*
X68495834Y-90265967D01*
X68495830Y-90265965D01*
X68495829Y-90265964D01*
X68281663Y-90166097D01*
X68281659Y-90166096D01*
X68281655Y-90166094D01*
X68053413Y-90104938D01*
X68053403Y-90104936D01*
X67818001Y-90084341D01*
X67817999Y-90084341D01*
X67582596Y-90104936D01*
X67582586Y-90104938D01*
X67354344Y-90166094D01*
X67354335Y-90166098D01*
X67140171Y-90265964D01*
X67140169Y-90265965D01*
X66946597Y-90401505D01*
X66779508Y-90568594D01*
X66649574Y-90754159D01*
X66594997Y-90797784D01*
X66525498Y-90804976D01*
X66463144Y-90773454D01*
X66446424Y-90754158D01*
X66316494Y-90568597D01*
X66149402Y-90401506D01*
X66149395Y-90401501D01*
X65955834Y-90265967D01*
X65955830Y-90265965D01*
X65955828Y-90265964D01*
X65741663Y-90166097D01*
X65741659Y-90166096D01*
X65741655Y-90166094D01*
X65513413Y-90104938D01*
X65513403Y-90104936D01*
X65278001Y-90084341D01*
X65277999Y-90084341D01*
X65042596Y-90104936D01*
X65042586Y-90104938D01*
X64814344Y-90166094D01*
X64814335Y-90166098D01*
X64600171Y-90265964D01*
X64600169Y-90265965D01*
X64406597Y-90401505D01*
X64239505Y-90568597D01*
X64109575Y-90754158D01*
X64054998Y-90797783D01*
X63985500Y-90804977D01*
X63923145Y-90773454D01*
X63906425Y-90754158D01*
X63776494Y-90568597D01*
X63609402Y-90401506D01*
X63609395Y-90401501D01*
X63415834Y-90265967D01*
X63415830Y-90265965D01*
X63415829Y-90265964D01*
X63201663Y-90166097D01*
X63201659Y-90166096D01*
X63201655Y-90166094D01*
X62973413Y-90104938D01*
X62973403Y-90104936D01*
X62738001Y-90084341D01*
X62737999Y-90084341D01*
X62502596Y-90104936D01*
X62502586Y-90104938D01*
X62274344Y-90166094D01*
X62274335Y-90166098D01*
X62060171Y-90265964D01*
X62060169Y-90265965D01*
X61866597Y-90401505D01*
X61699505Y-90568597D01*
X61569575Y-90754158D01*
X61514998Y-90797783D01*
X61445500Y-90804977D01*
X61383145Y-90773454D01*
X61366425Y-90754158D01*
X61236494Y-90568597D01*
X61069402Y-90401506D01*
X61069395Y-90401501D01*
X60875834Y-90265967D01*
X60875830Y-90265965D01*
X60875828Y-90265964D01*
X60661663Y-90166097D01*
X60661659Y-90166096D01*
X60661655Y-90166094D01*
X60433413Y-90104938D01*
X60433403Y-90104936D01*
X60198001Y-90084341D01*
X60197999Y-90084341D01*
X59962596Y-90104936D01*
X59962586Y-90104938D01*
X59734344Y-90166094D01*
X59734335Y-90166098D01*
X59520171Y-90265964D01*
X59520169Y-90265965D01*
X59326597Y-90401505D01*
X59159505Y-90568597D01*
X59029575Y-90754158D01*
X58974998Y-90797783D01*
X58905500Y-90804977D01*
X58843145Y-90773454D01*
X58826425Y-90754158D01*
X58696494Y-90568597D01*
X58529402Y-90401506D01*
X58529395Y-90401501D01*
X58335834Y-90265967D01*
X58335830Y-90265965D01*
X58335829Y-90265964D01*
X58121663Y-90166097D01*
X58121659Y-90166096D01*
X58121655Y-90166094D01*
X57893413Y-90104938D01*
X57893403Y-90104936D01*
X57658001Y-90084341D01*
X57657999Y-90084341D01*
X57422596Y-90104936D01*
X57422586Y-90104938D01*
X57194344Y-90166094D01*
X57194335Y-90166098D01*
X56980171Y-90265964D01*
X56980169Y-90265965D01*
X56786597Y-90401505D01*
X56619505Y-90568597D01*
X56489575Y-90754158D01*
X56434998Y-90797783D01*
X56365500Y-90804977D01*
X56303145Y-90773454D01*
X56286425Y-90754158D01*
X56156494Y-90568597D01*
X55989402Y-90401506D01*
X55989395Y-90401501D01*
X55795834Y-90265967D01*
X55795830Y-90265965D01*
X55795828Y-90265964D01*
X55581663Y-90166097D01*
X55581659Y-90166096D01*
X55581655Y-90166094D01*
X55353413Y-90104938D01*
X55353403Y-90104936D01*
X55118001Y-90084341D01*
X55117999Y-90084341D01*
X54882596Y-90104936D01*
X54882586Y-90104938D01*
X54654344Y-90166094D01*
X54654335Y-90166098D01*
X54440171Y-90265964D01*
X54440169Y-90265965D01*
X54246597Y-90401505D01*
X54079508Y-90568594D01*
X53949574Y-90754159D01*
X53894997Y-90797784D01*
X53825498Y-90804976D01*
X53763144Y-90773454D01*
X53746424Y-90754158D01*
X53616494Y-90568597D01*
X53449402Y-90401506D01*
X53449395Y-90401501D01*
X53255834Y-90265967D01*
X53255830Y-90265965D01*
X53255829Y-90265964D01*
X53041663Y-90166097D01*
X53041659Y-90166096D01*
X53041655Y-90166094D01*
X52813413Y-90104938D01*
X52813403Y-90104936D01*
X52578001Y-90084341D01*
X52577999Y-90084341D01*
X52342596Y-90104936D01*
X52342586Y-90104938D01*
X52114344Y-90166094D01*
X52114335Y-90166098D01*
X51900171Y-90265964D01*
X51900169Y-90265965D01*
X51706597Y-90401505D01*
X51539505Y-90568597D01*
X51409575Y-90754158D01*
X51354998Y-90797783D01*
X51285500Y-90804977D01*
X51223145Y-90773454D01*
X51206425Y-90754158D01*
X51076494Y-90568597D01*
X50909402Y-90401506D01*
X50909395Y-90401501D01*
X50715834Y-90265967D01*
X50715830Y-90265965D01*
X50715828Y-90265964D01*
X50501663Y-90166097D01*
X50501659Y-90166096D01*
X50501655Y-90166094D01*
X50273413Y-90104938D01*
X50273403Y-90104936D01*
X50038001Y-90084341D01*
X50037999Y-90084341D01*
X49802596Y-90104936D01*
X49802586Y-90104938D01*
X49574344Y-90166094D01*
X49574335Y-90166098D01*
X49360171Y-90265964D01*
X49360169Y-90265965D01*
X49166597Y-90401505D01*
X48999505Y-90568597D01*
X48869575Y-90754158D01*
X48814998Y-90797783D01*
X48745500Y-90804977D01*
X48683145Y-90773454D01*
X48666425Y-90754158D01*
X48536494Y-90568597D01*
X48369402Y-90401506D01*
X48369401Y-90401505D01*
X48178376Y-90267748D01*
X48134752Y-90213171D01*
X48125500Y-90166173D01*
X48125500Y-88220964D01*
X48127228Y-88205313D01*
X48126946Y-88205287D01*
X48127680Y-88197524D01*
X48125500Y-88128140D01*
X48125500Y-88098530D01*
X48125500Y-88098524D01*
X48124626Y-88091607D01*
X48124169Y-88085792D01*
X48122701Y-88039057D01*
X48117084Y-88019727D01*
X48113138Y-88000668D01*
X48110617Y-87980711D01*
X48110616Y-87980709D01*
X48110616Y-87980707D01*
X48093403Y-87937234D01*
X48091514Y-87931713D01*
X48078467Y-87886807D01*
X48068225Y-87869489D01*
X48059662Y-87852011D01*
X48052253Y-87833297D01*
X48052253Y-87833296D01*
X48024771Y-87795472D01*
X48021567Y-87790596D01*
X47997763Y-87750344D01*
X47997761Y-87750342D01*
X47997759Y-87750339D01*
X47983531Y-87736112D01*
X47970896Y-87721320D01*
X47959063Y-87705033D01*
X47959060Y-87705031D01*
X47959060Y-87705030D01*
X47959059Y-87705029D01*
X47923035Y-87675228D01*
X47918713Y-87671294D01*
X39618376Y-79370957D01*
X39608531Y-79358668D01*
X39608313Y-79358849D01*
X39603340Y-79352838D01*
X39603340Y-79352837D01*
X39552741Y-79305322D01*
X39542268Y-79294849D01*
X39531797Y-79284377D01*
X39526296Y-79280111D01*
X39521848Y-79276312D01*
X39487768Y-79244308D01*
X39487763Y-79244304D01*
X39470122Y-79234606D01*
X39453857Y-79223922D01*
X39437963Y-79211593D01*
X39437962Y-79211592D01*
X39422804Y-79205032D01*
X39395054Y-79193023D01*
X39389807Y-79190453D01*
X39348837Y-79167929D01*
X39348828Y-79167926D01*
X39329334Y-79162920D01*
X39310933Y-79156620D01*
X39292459Y-79148626D01*
X39292452Y-79148624D01*
X39246287Y-79141313D01*
X39240563Y-79140128D01*
X39195279Y-79128500D01*
X39195272Y-79128500D01*
X39175142Y-79128500D01*
X39155743Y-79126973D01*
X39135868Y-79123825D01*
X39135867Y-79123825D01*
X39089321Y-79128225D01*
X39083483Y-79128500D01*
X33839281Y-79128500D01*
X33772242Y-79108815D01*
X33751600Y-79092181D01*
X32667819Y-78008400D01*
X32634334Y-77947077D01*
X32631500Y-77920719D01*
X32631500Y-74479280D01*
X32651185Y-74412241D01*
X32667814Y-74391604D01*
X35021599Y-72037819D01*
X35082923Y-72004334D01*
X35109281Y-72001500D01*
X57136961Y-72001500D01*
X57204000Y-72021185D01*
G37*
%TD.AperFunction*%
%TD*%
M02*
