%TF.GenerationSoftware,KiCad,Pcbnew,7.0.7*%
%TF.CreationDate,2023-09-27T10:02:53+02:00*%
%TF.ProjectId,EEE4022S_KiCad,45454534-3032-4325-935f-4b694361642e,rev?*%
%TF.SameCoordinates,Original*%
%TF.FileFunction,Copper,L2,Bot*%
%TF.FilePolarity,Positive*%
%FSLAX46Y46*%
G04 Gerber Fmt 4.6, Leading zero omitted, Abs format (unit mm)*
G04 Created by KiCad (PCBNEW 7.0.7) date 2023-09-27 10:02:53*
%MOMM*%
%LPD*%
G01*
G04 APERTURE LIST*
%TA.AperFunction,ComponentPad*%
%ADD10O,1.700000X1.700000*%
%TD*%
%TA.AperFunction,ComponentPad*%
%ADD11R,1.700000X1.700000*%
%TD*%
%TA.AperFunction,ViaPad*%
%ADD12C,0.800000*%
%TD*%
%TA.AperFunction,Conductor*%
%ADD13C,0.254000*%
%TD*%
G04 APERTURE END LIST*
D10*
%TO.P,U5,1,TXD*%
%TO.N,A3*%
X49684000Y-108956000D03*
%TO.P,U5,2,RXD*%
%TO.N,A2*%
X49684000Y-106416000D03*
%TO.P,U5,3,+5V*%
%TO.N,5V*%
X49684000Y-103876000D03*
%TO.P,U5,4,GND*%
%TO.N,GND*%
X49684000Y-101336000D03*
%TD*%
D11*
%TO.P,U3,1,VCC*%
%TO.N,3V3*%
X96262600Y-75410000D03*
D10*
%TO.P,U3,2,RX*%
%TO.N,Net-(U1-A9)*%
X98802600Y-75410000D03*
%TO.P,U3,3,TX*%
%TO.N,Net-(U1-A10)*%
X101342600Y-75410000D03*
%TO.P,U3,4,GND*%
%TO.N,GND*%
X103882600Y-75410000D03*
%TD*%
%TO.P,U6,*%
%TO.N,*%
X33020000Y-143764000D03*
X35560000Y-143764000D03*
%TO.P,U6,1,GND*%
%TO.N,GND*%
X33020000Y-136144000D03*
%TO.P,U6,2,PIN*%
%TO.N,B13*%
X35560000Y-136144000D03*
%TD*%
%TO.P,U4,1,CS*%
%TO.N,unconnected-(U4-CS-Pad1)*%
X61722000Y-99314000D03*
%TO.P,U4,2,ADDR/MISO*%
%TO.N,unconnected-(U4-ADDR{slash}MISO-Pad2)*%
X64262000Y-99314000D03*
%TO.P,U4,3,SCL/SCK*%
%TO.N,B6*%
X66802000Y-99314000D03*
%TO.P,U4,4,SDA/MOSI*%
%TO.N,B7*%
X69342000Y-99314000D03*
%TO.P,U4,5,GND*%
%TO.N,GND*%
X71882000Y-99314000D03*
%TO.P,U4,6,VCC*%
%TO.N,3V3*%
X74422000Y-99314000D03*
%TD*%
%TO.P,U7,*%
%TO.N,*%
X45212000Y-143764000D03*
X47752000Y-143764000D03*
%TO.P,U7,1,GND*%
%TO.N,GND*%
X45212000Y-136144000D03*
%TO.P,U7,2,PIN*%
%TO.N,A5*%
X47752000Y-136144000D03*
%TD*%
%TO.P,B1,1,5V_Out*%
%TO.N,5V*%
X104944000Y-41072000D03*
%TO.P,B1,2,GND*%
%TO.N,GND*%
X102404000Y-41072000D03*
%TD*%
%TO.P,U1,1,VB*%
%TO.N,unconnected-(U1-VB-Pad1)*%
X83058000Y-76200000D03*
%TO.P,U1,2,C13*%
%TO.N,unconnected-(U1-C13-Pad2)*%
X80518000Y-76200000D03*
%TO.P,U1,3,C14*%
%TO.N,unconnected-(U1-C14-Pad3)*%
X77978000Y-76200000D03*
%TO.P,U1,4,C15*%
%TO.N,unconnected-(U1-C15-Pad4)*%
X75438000Y-76200000D03*
%TO.P,U1,5,R*%
%TO.N,unconnected-(U1-R-Pad5)*%
X72898000Y-76200000D03*
%TO.P,U1,6,A0*%
%TO.N,unconnected-(U1-A0-Pad6)*%
X70358000Y-76200000D03*
%TO.P,U1,7,A1*%
%TO.N,unconnected-(U1-A1-Pad7)*%
X67818000Y-76200000D03*
%TO.P,U1,8,A2*%
%TO.N,A2*%
X65278000Y-76200000D03*
%TO.P,U1,9,A3*%
%TO.N,A3*%
X62738000Y-76200000D03*
%TO.P,U1,10,A4*%
%TO.N,A4*%
X60198000Y-76200000D03*
%TO.P,U1,11,A5*%
%TO.N,A5*%
X57658000Y-76200000D03*
%TO.P,U1,12,A6*%
%TO.N,unconnected-(U1-A6-Pad12)*%
X55118000Y-76200000D03*
%TO.P,U1,13,A7*%
%TO.N,unconnected-(U1-A7-Pad13)*%
X52578000Y-76200000D03*
%TO.P,U1,14,B0*%
%TO.N,unconnected-(U1-B0-Pad14)*%
X50038000Y-76200000D03*
%TO.P,U1,15,B1*%
%TO.N,unconnected-(U1-B1-Pad15)*%
X47498000Y-76200000D03*
%TO.P,U1,16,B2*%
%TO.N,unconnected-(U1-B2-Pad16)*%
X44958000Y-76200000D03*
%TO.P,U1,17,B10*%
%TO.N,B10*%
X42418000Y-76200000D03*
%TO.P,U1,18,3V3*%
%TO.N,unconnected-(U1-3V3-Pad18)*%
X39878000Y-76200000D03*
%TO.P,U1,19,G*%
%TO.N,GND*%
X37338000Y-76200000D03*
%TO.P,U1,20,5V*%
%TO.N,5V*%
X34798000Y-76200000D03*
%TO.P,U1,21,3V3*%
%TO.N,3V3*%
X83058000Y-91440000D03*
%TO.P,U1,22,G*%
%TO.N,GND*%
X80518000Y-91440000D03*
%TO.P,U1,23,5V*%
%TO.N,unconnected-(U1-5V-Pad23)*%
X77978000Y-91440000D03*
%TO.P,U1,24,B9*%
%TO.N,B9*%
X75438000Y-91440000D03*
%TO.P,U1,25,B8*%
%TO.N,B8*%
X72898000Y-91440000D03*
%TO.P,U1,26,B7*%
%TO.N,B7*%
X70358000Y-91440000D03*
%TO.P,U1,27,B6*%
%TO.N,B6*%
X67818000Y-91440000D03*
%TO.P,U1,28,B5*%
%TO.N,B5*%
X65278000Y-91440000D03*
%TO.P,U1,29,B4*%
%TO.N,B4*%
X62738000Y-91440000D03*
%TO.P,U1,30,B3*%
%TO.N,B3*%
X60198000Y-91440000D03*
%TO.P,U1,31,A15*%
%TO.N,unconnected-(U1-A15-Pad31)*%
X57658000Y-91440000D03*
%TO.P,U1,32,A12*%
%TO.N,unconnected-(U1-A12-Pad32)*%
X55118000Y-91440000D03*
%TO.P,U1,33,A11*%
%TO.N,unconnected-(U1-A11-Pad33)*%
X52578000Y-91440000D03*
%TO.P,U1,34,A10*%
%TO.N,Net-(U1-A10)*%
X50038000Y-91440000D03*
%TO.P,U1,35,A9*%
%TO.N,Net-(U1-A9)*%
X47498000Y-91440000D03*
%TO.P,U1,36,A8*%
%TO.N,unconnected-(U1-A8-Pad36)*%
X44958000Y-91440000D03*
%TO.P,U1,37,B15*%
%TO.N,unconnected-(U1-B15-Pad37)*%
X42418000Y-91440000D03*
%TO.P,U1,38,B14*%
%TO.N,unconnected-(U1-B14-Pad38)*%
X39878000Y-91440000D03*
%TO.P,U1,39,B13*%
%TO.N,B13*%
X37338000Y-91440000D03*
%TO.P,U1,40,B12*%
%TO.N,B12*%
X34798000Y-91440000D03*
%TD*%
%TO.P,U8,1,GND*%
%TO.N,GND*%
X36576000Y-123444000D03*
%TO.P,U8,2,VCC*%
%TO.N,5V*%
X39116000Y-123444000D03*
%TO.P,U8,3,SCL*%
%TO.N,B3*%
X41656000Y-123444000D03*
%TO.P,U8,4,SDA*%
%TO.N,B10*%
X44196000Y-123444000D03*
%TD*%
D11*
%TO.P,U2,1,GND*%
%TO.N,GND*%
X87376000Y-141732000D03*
D10*
%TO.P,U2,2,NSS*%
%TO.N,A4*%
X89916000Y-141732000D03*
%TO.P,U2,3,MOSI*%
%TO.N,B5*%
X92456000Y-141732000D03*
%TO.P,U2,4,MISO*%
%TO.N,B4*%
X94996000Y-141732000D03*
%TO.P,U2,5,SCK*%
%TO.N,B12*%
X97536000Y-141732000D03*
%TO.P,U2,6,DIO5*%
%TO.N,unconnected-(U2-DIO5-Pad6)*%
X100076000Y-141732000D03*
%TO.P,U2,7,DIO4*%
%TO.N,unconnected-(U2-DIO4-Pad7)*%
X102616000Y-141732000D03*
%TO.P,U2,8,GND*%
%TO.N,GND*%
X105156000Y-141732000D03*
D11*
%TO.P,U2,9,GND*%
X87376000Y-167132000D03*
D10*
%TO.P,U2,10,GND*%
X89916000Y-167132000D03*
%TO.P,U2,11,3.3V*%
%TO.N,3V3*%
X92456000Y-167132000D03*
%TO.P,U2,12,RST*%
%TO.N,B8*%
X94996000Y-167132000D03*
%TO.P,U2,13,DIO0*%
%TO.N,B9*%
X97536000Y-167132000D03*
%TO.P,U2,14,DIO1*%
%TO.N,unconnected-(U2-DIO1-Pad14)*%
X100076000Y-167132000D03*
%TO.P,U2,15,DIO2*%
%TO.N,unconnected-(U2-DIO2-Pad15)*%
X102616000Y-167132000D03*
%TO.P,U2,16,DIO3*%
%TO.N,unconnected-(U2-DIO3-Pad16)*%
X105156000Y-167132000D03*
%TD*%
D12*
%TO.N,5V*%
X36576000Y-80772000D03*
%TO.N,GND*%
X32258000Y-133604000D03*
%TO.N,A2*%
X32258000Y-72136000D03*
X58166000Y-72136000D03*
%TO.N,A3*%
X39370000Y-85852000D03*
X40640000Y-83058000D03*
%TO.N,A4*%
X70358000Y-78486000D03*
%TO.N,A5*%
X33020000Y-70866000D03*
X63754000Y-72136000D03*
X64770000Y-73660000D03*
%TO.N,B10*%
X39116000Y-81788000D03*
X33782000Y-87122000D03*
X48260000Y-118110000D03*
%TO.N,3V3*%
X64262000Y-133096000D03*
%TO.N,B8*%
X64262000Y-94742000D03*
X66548000Y-133096000D03*
X66548000Y-109220000D03*
%TO.N,B4*%
X61722000Y-96774000D03*
X57912000Y-109220000D03*
%TO.N,B13*%
X36068000Y-99568000D03*
%TO.N,B12*%
X44958000Y-107442000D03*
%TD*%
D13*
%TO.N,5V*%
X36576000Y-79248000D02*
X34798000Y-77470000D01*
X34798000Y-77470000D02*
X34798000Y-76200000D01*
X36576000Y-80772000D02*
X36576000Y-79248000D01*
%TO.N,GND*%
X32258000Y-127762000D02*
X36576000Y-123444000D01*
X32258000Y-133604000D02*
X32258000Y-127762000D01*
%TO.N,A2*%
X32258000Y-72136000D02*
X58166000Y-72136000D01*
%TO.N,A3*%
X33274000Y-89154000D02*
X36068000Y-89154000D01*
X36068000Y-89154000D02*
X39370000Y-85852000D01*
X33020000Y-89154000D02*
X33274000Y-89154000D01*
X60198000Y-78740000D02*
X62738000Y-76200000D01*
X44958000Y-78740000D02*
X60198000Y-78740000D01*
X41392000Y-108956000D02*
X41148000Y-108712000D01*
X32512000Y-89662000D02*
X33020000Y-89154000D01*
X41148000Y-108712000D02*
X32512000Y-100076000D01*
X40640000Y-83058000D02*
X44958000Y-78740000D01*
X49684000Y-108956000D02*
X41392000Y-108956000D01*
X32512000Y-100076000D02*
X32512000Y-89662000D01*
%TO.N,A4*%
X84074000Y-143764000D02*
X87376000Y-147066000D01*
X83058000Y-78486000D02*
X70358000Y-78486000D01*
X85598000Y-138430000D02*
X84074000Y-139954000D01*
X87376000Y-147066000D02*
X106172000Y-147066000D01*
X89916000Y-139700000D02*
X88646000Y-138430000D01*
X88646000Y-138430000D02*
X85598000Y-138430000D01*
X106172000Y-147066000D02*
X112268000Y-140970000D01*
X89916000Y-141732000D02*
X89916000Y-139700000D01*
X70358000Y-78486000D02*
X70612000Y-78486000D01*
X112268000Y-140970000D02*
X112268000Y-107696000D01*
X84074000Y-139954000D02*
X84074000Y-143764000D01*
X112268000Y-107696000D02*
X83058000Y-78486000D01*
%TO.N,A5*%
X62484000Y-70866000D02*
X63754000Y-72136000D01*
X57658000Y-74930000D02*
X57658000Y-76200000D01*
X33020000Y-70866000D02*
X62484000Y-70866000D01*
X64770000Y-73660000D02*
X64262000Y-74168000D01*
X58420000Y-74168000D02*
X57658000Y-74930000D01*
X64262000Y-74168000D02*
X58420000Y-74168000D01*
%TO.N,B10*%
X30734000Y-100584000D02*
X30734000Y-90170000D01*
X48260000Y-118110000D02*
X30734000Y-100584000D01*
X42418000Y-78486000D02*
X42418000Y-76200000D01*
X30734000Y-90170000D02*
X33782000Y-87122000D01*
X39116000Y-81788000D02*
X42418000Y-78486000D01*
%TO.N,3V3*%
X64262000Y-109474000D02*
X74422000Y-99314000D01*
X64262000Y-133096000D02*
X64262000Y-109474000D01*
%TO.N,B9*%
X75438000Y-93218000D02*
X75438000Y-91440000D01*
X73152000Y-94234000D02*
X74422000Y-94234000D01*
X59436000Y-95504000D02*
X71882000Y-95504000D01*
X53086000Y-101854000D02*
X59436000Y-95504000D01*
X80264000Y-159258000D02*
X53086000Y-132080000D01*
X74422000Y-94234000D02*
X75438000Y-93218000D01*
X93472000Y-159258000D02*
X80264000Y-159258000D01*
X53086000Y-132080000D02*
X53086000Y-101854000D01*
X71882000Y-95504000D02*
X73152000Y-94234000D01*
X97536000Y-167132000D02*
X97536000Y-163322000D01*
X97536000Y-163322000D02*
X93472000Y-159258000D01*
%TO.N,B8*%
X66548000Y-133096000D02*
X66548000Y-109220000D01*
X72898000Y-93218000D02*
X72898000Y-91440000D01*
X71374000Y-94742000D02*
X72898000Y-93218000D01*
X64262000Y-94742000D02*
X71374000Y-94742000D01*
%TO.N,B5*%
X92456000Y-141732000D02*
X92456000Y-94488000D01*
X66040000Y-87376000D02*
X65278000Y-88138000D01*
X85344000Y-87376000D02*
X66040000Y-87376000D01*
X65278000Y-88138000D02*
X65278000Y-91440000D01*
X92456000Y-94488000D02*
X85344000Y-87376000D01*
%TO.N,B4*%
X57912000Y-109220000D02*
X55372000Y-106680000D01*
X55372000Y-102362000D02*
X60960000Y-96774000D01*
X55372000Y-106680000D02*
X55372000Y-102362000D01*
X60960000Y-96774000D02*
X61722000Y-96774000D01*
%TO.N,Net-(U1-A10)*%
X30988000Y-76962000D02*
X30988000Y-74676000D01*
X32766000Y-72898000D02*
X100838000Y-72898000D01*
X50038000Y-87884000D02*
X46990000Y-84836000D01*
X101342600Y-73402600D02*
X101342600Y-75410000D01*
X30988000Y-74676000D02*
X32766000Y-72898000D01*
X46990000Y-84836000D02*
X38862000Y-84836000D01*
X100838000Y-72898000D02*
X101342600Y-73402600D01*
X38862000Y-84836000D02*
X30988000Y-76962000D01*
X50038000Y-91440000D02*
X50038000Y-87884000D01*
%TO.N,B13*%
X36068000Y-99568000D02*
X36068000Y-94742000D01*
X36068000Y-94742000D02*
X37338000Y-93472000D01*
X37338000Y-93472000D02*
X37338000Y-91440000D01*
%TO.N,B12*%
X38100000Y-103632000D02*
X41148000Y-103632000D01*
X34798000Y-100330000D02*
X38100000Y-103632000D01*
X41148000Y-103632000D02*
X44958000Y-107442000D01*
X34798000Y-91440000D02*
X34798000Y-100330000D01*
%TD*%
%TA.AperFunction,Conductor*%
%TO.N,5V*%
G36*
X112524207Y-24892657D02*
G01*
X112572129Y-24896085D01*
X112591629Y-24897480D01*
X112615386Y-24899349D01*
X112742233Y-24909332D01*
X112750552Y-24910560D01*
X112805602Y-24922535D01*
X112846479Y-24931427D01*
X112965320Y-24959959D01*
X112972519Y-24962157D01*
X113008335Y-24975515D01*
X113070181Y-24998582D01*
X113128505Y-25022742D01*
X113178307Y-25043371D01*
X113184297Y-25046237D01*
X113229528Y-25070934D01*
X113276730Y-25096708D01*
X113279363Y-25098232D01*
X113376472Y-25157741D01*
X113381185Y-25160939D01*
X113466268Y-25224632D01*
X113469334Y-25227085D01*
X113555305Y-25300511D01*
X113558881Y-25303817D01*
X113634181Y-25379117D01*
X113637487Y-25382693D01*
X113710901Y-25468649D01*
X113713373Y-25471738D01*
X113777053Y-25556805D01*
X113780264Y-25561536D01*
X113835220Y-25651217D01*
X113839753Y-25658614D01*
X113841306Y-25661296D01*
X113891761Y-25753701D01*
X113894627Y-25759690D01*
X113939423Y-25867834D01*
X113975841Y-25965479D01*
X113978039Y-25972677D01*
X114006573Y-26091525D01*
X114027439Y-26187446D01*
X114028666Y-26195769D01*
X114040519Y-26346368D01*
X114045342Y-26413791D01*
X114045500Y-26418216D01*
X114045502Y-172717785D01*
X114045344Y-172722209D01*
X114040522Y-172789633D01*
X114028669Y-172940232D01*
X114027441Y-172948555D01*
X114006573Y-173044488D01*
X113978042Y-173163323D01*
X113975844Y-173170521D01*
X113939428Y-173268159D01*
X113894629Y-173376313D01*
X113891763Y-173382304D01*
X113841315Y-173474693D01*
X113839762Y-173477374D01*
X113780272Y-173574454D01*
X113777040Y-173579217D01*
X113713399Y-173664231D01*
X113710910Y-173667343D01*
X113637483Y-173753315D01*
X113634177Y-173756891D01*
X113558891Y-173832177D01*
X113555315Y-173835483D01*
X113469343Y-173908910D01*
X113466231Y-173911399D01*
X113381217Y-173975040D01*
X113376454Y-173978272D01*
X113279374Y-174037762D01*
X113276693Y-174039315D01*
X113184304Y-174089763D01*
X113178313Y-174092629D01*
X113070159Y-174137428D01*
X112972521Y-174173844D01*
X112965323Y-174176042D01*
X112846488Y-174204573D01*
X112750554Y-174225441D01*
X112742231Y-174226669D01*
X112621773Y-174236150D01*
X112591717Y-174238516D01*
X112575566Y-174239671D01*
X112524211Y-174243343D01*
X112519788Y-174243501D01*
X31498215Y-174243501D01*
X31493790Y-174243343D01*
X31426367Y-174238520D01*
X31275768Y-174226667D01*
X31267445Y-174225440D01*
X31171497Y-174204568D01*
X31052689Y-174176044D01*
X31045489Y-174173846D01*
X30947823Y-174137419D01*
X30839692Y-174092629D01*
X30833701Y-174089763D01*
X30741292Y-174039304D01*
X30738611Y-174037751D01*
X30641555Y-173978276D01*
X30636791Y-173975044D01*
X30551752Y-173911384D01*
X30548652Y-173908903D01*
X30462677Y-173835474D01*
X30459111Y-173832177D01*
X30383821Y-173756887D01*
X30380519Y-173753315D01*
X30307089Y-173667340D01*
X30304614Y-173664246D01*
X30304603Y-173664231D01*
X30240945Y-173579194D01*
X30237727Y-173574451D01*
X30191717Y-173499368D01*
X30178247Y-173477387D01*
X30176694Y-173474706D01*
X30126235Y-173382297D01*
X30123369Y-173376306D01*
X30078580Y-173268176D01*
X30053775Y-173201672D01*
X30042150Y-173170504D01*
X30039957Y-173163319D01*
X30011432Y-173044507D01*
X29990559Y-172948553D01*
X29989331Y-172940234D01*
X29977487Y-172789750D01*
X29972654Y-172722180D01*
X29972499Y-172717815D01*
X29972499Y-172466000D01*
X30652323Y-172466000D01*
X30671012Y-172667697D01*
X30726446Y-172862524D01*
X30726451Y-172862537D01*
X30816736Y-173043852D01*
X30938808Y-173205502D01*
X31041674Y-173299276D01*
X31088502Y-173341965D01*
X31260723Y-173448600D01*
X31292022Y-173460725D01*
X31295031Y-173461994D01*
X31297526Y-173462857D01*
X31449606Y-173521774D01*
X31482298Y-173527885D01*
X31485488Y-173528570D01*
X31491849Y-173530114D01*
X31502121Y-173531590D01*
X31648719Y-173558995D01*
X31648720Y-173558995D01*
X31683854Y-173558995D01*
X31691994Y-173559577D01*
X31692000Y-173559458D01*
X31697895Y-173559738D01*
X31697899Y-173559739D01*
X31697902Y-173559738D01*
X31697907Y-173559739D01*
X31705450Y-173559380D01*
X31705463Y-173559383D01*
X31712125Y-173559065D01*
X31715078Y-173558995D01*
X31851278Y-173558995D01*
X31851281Y-173558995D01*
X31894220Y-173550968D01*
X31902641Y-173549985D01*
X31905832Y-173549834D01*
X31905838Y-173549832D01*
X31908224Y-173549719D01*
X31908278Y-173549714D01*
X31941060Y-173548151D01*
X31971532Y-173536515D01*
X32050394Y-173521774D01*
X32094927Y-173504521D01*
X32102537Y-173502125D01*
X32106289Y-173501204D01*
X32108133Y-173500757D01*
X32108137Y-173500754D01*
X32113859Y-173499368D01*
X32113875Y-173499363D01*
X32140350Y-173492940D01*
X32166854Y-173476656D01*
X32229251Y-173452484D01*
X32239275Y-173448601D01*
X32239280Y-173448598D01*
X32283562Y-173421179D01*
X32290420Y-173417508D01*
X32297490Y-173414280D01*
X32297493Y-173414277D01*
X32303161Y-173411689D01*
X32304585Y-173411484D01*
X32308274Y-173409354D01*
X32325723Y-173401385D01*
X32347585Y-173381537D01*
X32411498Y-173341965D01*
X32453199Y-173303949D01*
X32458989Y-173299276D01*
X32466589Y-173293864D01*
X32469581Y-173292828D01*
X32476699Y-173286661D01*
X32490608Y-173276755D01*
X32507429Y-173254511D01*
X32561193Y-173205500D01*
X32597878Y-173156920D01*
X32602475Y-173151510D01*
X32605961Y-173147854D01*
X32610108Y-173145459D01*
X32618883Y-173134302D01*
X32629140Y-173123545D01*
X32640809Y-173100070D01*
X32683264Y-173043852D01*
X32709881Y-172990395D01*
X32717465Y-172982215D01*
X32718858Y-172978738D01*
X32729661Y-172957782D01*
X32736490Y-172947155D01*
X32743135Y-172923614D01*
X32773551Y-172862532D01*
X32773553Y-172862527D01*
X32774137Y-172860474D01*
X32790239Y-172803880D01*
X32797037Y-172793103D01*
X32798385Y-172786113D01*
X32805026Y-172763492D01*
X32808867Y-172753897D01*
X32810878Y-172731342D01*
X32828987Y-172667698D01*
X32835912Y-172592964D01*
X32836762Y-172586991D01*
X32840021Y-172570084D01*
X32840021Y-172570081D01*
X32840997Y-172565016D01*
X32840999Y-172565001D01*
X32843766Y-172550642D01*
X32841749Y-172529968D01*
X32847677Y-172466000D01*
X111043323Y-172466000D01*
X111062012Y-172667697D01*
X111117446Y-172862524D01*
X111117451Y-172862537D01*
X111207736Y-173043852D01*
X111329808Y-173205502D01*
X111432674Y-173299276D01*
X111479502Y-173341965D01*
X111651723Y-173448600D01*
X111683022Y-173460725D01*
X111686031Y-173461994D01*
X111688526Y-173462857D01*
X111840606Y-173521774D01*
X111873298Y-173527885D01*
X111876488Y-173528570D01*
X111882848Y-173530114D01*
X111882849Y-173530114D01*
X111893121Y-173531590D01*
X112039719Y-173558995D01*
X112039720Y-173558995D01*
X112074854Y-173558995D01*
X112082994Y-173559577D01*
X112083000Y-173559458D01*
X112088895Y-173559738D01*
X112088899Y-173559739D01*
X112088902Y-173559738D01*
X112088907Y-173559739D01*
X112096450Y-173559380D01*
X112096463Y-173559383D01*
X112103125Y-173559065D01*
X112106078Y-173558995D01*
X112242278Y-173558995D01*
X112242281Y-173558995D01*
X112285220Y-173550968D01*
X112293641Y-173549985D01*
X112296832Y-173549834D01*
X112296838Y-173549832D01*
X112299224Y-173549719D01*
X112299278Y-173549714D01*
X112332060Y-173548151D01*
X112362532Y-173536515D01*
X112441394Y-173521774D01*
X112485927Y-173504521D01*
X112493537Y-173502125D01*
X112497289Y-173501204D01*
X112499133Y-173500757D01*
X112499137Y-173500754D01*
X112504859Y-173499368D01*
X112504875Y-173499363D01*
X112531350Y-173492940D01*
X112557854Y-173476656D01*
X112620251Y-173452484D01*
X112630275Y-173448601D01*
X112630280Y-173448598D01*
X112674562Y-173421179D01*
X112681420Y-173417508D01*
X112688490Y-173414280D01*
X112688493Y-173414277D01*
X112694161Y-173411689D01*
X112695585Y-173411484D01*
X112699274Y-173409354D01*
X112716723Y-173401385D01*
X112738585Y-173381537D01*
X112802498Y-173341965D01*
X112844199Y-173303949D01*
X112849989Y-173299276D01*
X112857589Y-173293864D01*
X112860581Y-173292828D01*
X112867699Y-173286661D01*
X112881608Y-173276755D01*
X112898429Y-173254511D01*
X112952193Y-173205500D01*
X112988878Y-173156920D01*
X112993475Y-173151510D01*
X112996961Y-173147854D01*
X113001108Y-173145459D01*
X113009883Y-173134302D01*
X113020140Y-173123545D01*
X113031809Y-173100070D01*
X113074264Y-173043852D01*
X113100881Y-172990395D01*
X113108465Y-172982215D01*
X113109858Y-172978738D01*
X113120661Y-172957782D01*
X113127490Y-172947155D01*
X113134135Y-172923614D01*
X113164551Y-172862532D01*
X113164553Y-172862527D01*
X113165137Y-172860474D01*
X113181239Y-172803880D01*
X113188037Y-172793103D01*
X113189385Y-172786113D01*
X113196026Y-172763492D01*
X113199867Y-172753897D01*
X113201878Y-172731342D01*
X113219987Y-172667698D01*
X113226912Y-172592964D01*
X113227762Y-172586991D01*
X113231021Y-172570084D01*
X113231021Y-172570081D01*
X113231997Y-172565016D01*
X113231999Y-172565001D01*
X113234766Y-172550642D01*
X113232749Y-172529968D01*
X113238677Y-172466000D01*
X113232749Y-172402030D01*
X113235772Y-172386577D01*
X113231301Y-172363377D01*
X113231297Y-172363354D01*
X113231021Y-172361923D01*
X113231021Y-172361916D01*
X113227760Y-172345000D01*
X113226913Y-172339055D01*
X113219987Y-172264302D01*
X113201878Y-172200656D01*
X113202022Y-172183481D01*
X113196026Y-172168504D01*
X113189383Y-172145883D01*
X113188849Y-172143112D01*
X113181239Y-172128119D01*
X113165137Y-172071526D01*
X113164553Y-172069473D01*
X113134132Y-172008380D01*
X113130876Y-171990112D01*
X113120660Y-171974216D01*
X113109868Y-171953283D01*
X113100881Y-171941603D01*
X113074264Y-171888148D01*
X113031809Y-171831929D01*
X113024778Y-171813316D01*
X113009883Y-171797695D01*
X113002995Y-171788936D01*
X112996957Y-171784139D01*
X112993475Y-171780488D01*
X112988866Y-171775063D01*
X112952193Y-171726500D01*
X112952190Y-171726497D01*
X112898427Y-171677484D01*
X112887432Y-171659390D01*
X112867695Y-171645334D01*
X112862134Y-171640515D01*
X112857591Y-171638136D01*
X112853625Y-171635312D01*
X112849995Y-171632728D01*
X112844193Y-171628045D01*
X112802498Y-171590035D01*
X112738584Y-171550461D01*
X112723613Y-171533759D01*
X112699274Y-171522644D01*
X112696407Y-171520989D01*
X112694168Y-171520312D01*
X112681437Y-171514498D01*
X112674547Y-171510811D01*
X112630277Y-171483400D01*
X112630276Y-171483399D01*
X112557851Y-171455342D01*
X112539109Y-171440939D01*
X112493772Y-171429941D01*
X112485985Y-171427500D01*
X112461820Y-171418139D01*
X112441394Y-171410226D01*
X112441388Y-171410224D01*
X112441382Y-171410223D01*
X112362526Y-171395482D01*
X112340419Y-171384241D01*
X112293652Y-171382013D01*
X112285202Y-171381027D01*
X112242286Y-171373005D01*
X112242281Y-171373005D01*
X112106003Y-171373005D01*
X112103053Y-171372935D01*
X112088899Y-171372260D01*
X112083000Y-171372542D01*
X112082994Y-171372422D01*
X112074854Y-171373005D01*
X112039719Y-171373005D01*
X111919479Y-171395482D01*
X111893122Y-171400409D01*
X111882846Y-171401886D01*
X111876480Y-171403430D01*
X111873265Y-171404120D01*
X111840608Y-171410225D01*
X111840604Y-171410226D01*
X111688530Y-171469140D01*
X111686031Y-171470005D01*
X111683019Y-171471274D01*
X111651727Y-171483398D01*
X111651716Y-171483404D01*
X111479503Y-171590033D01*
X111479501Y-171590035D01*
X111329808Y-171726497D01*
X111207736Y-171888147D01*
X111117451Y-172069462D01*
X111117446Y-172069475D01*
X111062012Y-172264302D01*
X111043323Y-172465999D01*
X111043323Y-172466000D01*
X32847677Y-172466000D01*
X32841749Y-172402030D01*
X32844772Y-172386577D01*
X32840301Y-172363377D01*
X32840297Y-172363354D01*
X32840021Y-172361923D01*
X32840021Y-172361916D01*
X32836760Y-172345000D01*
X32835913Y-172339055D01*
X32828987Y-172264302D01*
X32810878Y-172200656D01*
X32811022Y-172183481D01*
X32805026Y-172168504D01*
X32798383Y-172145883D01*
X32797849Y-172143112D01*
X32790239Y-172128119D01*
X32774137Y-172071526D01*
X32773553Y-172069473D01*
X32743132Y-172008380D01*
X32739876Y-171990112D01*
X32729660Y-171974216D01*
X32718868Y-171953283D01*
X32709881Y-171941603D01*
X32683264Y-171888148D01*
X32640809Y-171831929D01*
X32633778Y-171813316D01*
X32618883Y-171797695D01*
X32611995Y-171788936D01*
X32605957Y-171784139D01*
X32602475Y-171780488D01*
X32597866Y-171775063D01*
X32561193Y-171726500D01*
X32561190Y-171726497D01*
X32507427Y-171677484D01*
X32496432Y-171659390D01*
X32476695Y-171645334D01*
X32471134Y-171640515D01*
X32466591Y-171638136D01*
X32462625Y-171635312D01*
X32458995Y-171632728D01*
X32453193Y-171628045D01*
X32411498Y-171590035D01*
X32347584Y-171550461D01*
X32332613Y-171533759D01*
X32308274Y-171522644D01*
X32305407Y-171520989D01*
X32303168Y-171520312D01*
X32290437Y-171514498D01*
X32283547Y-171510811D01*
X32239277Y-171483400D01*
X32239276Y-171483399D01*
X32166851Y-171455342D01*
X32148109Y-171440939D01*
X32102772Y-171429941D01*
X32094985Y-171427500D01*
X32070820Y-171418139D01*
X32050394Y-171410226D01*
X32050388Y-171410224D01*
X32050382Y-171410223D01*
X31971526Y-171395482D01*
X31949419Y-171384241D01*
X31902652Y-171382013D01*
X31894202Y-171381027D01*
X31851286Y-171373005D01*
X31851281Y-171373005D01*
X31715003Y-171373005D01*
X31712053Y-171372935D01*
X31697899Y-171372260D01*
X31692000Y-171372542D01*
X31691994Y-171372422D01*
X31683854Y-171373005D01*
X31648719Y-171373005D01*
X31528479Y-171395482D01*
X31502122Y-171400409D01*
X31491846Y-171401886D01*
X31485480Y-171403430D01*
X31482265Y-171404120D01*
X31449608Y-171410225D01*
X31449604Y-171410226D01*
X31297530Y-171469140D01*
X31295031Y-171470005D01*
X31292019Y-171471274D01*
X31260727Y-171483398D01*
X31260716Y-171483404D01*
X31088503Y-171590033D01*
X31088501Y-171590035D01*
X30938808Y-171726497D01*
X30816736Y-171888147D01*
X30726451Y-172069462D01*
X30726446Y-172069475D01*
X30671012Y-172264302D01*
X30652323Y-172465999D01*
X30652323Y-172466000D01*
X29972499Y-172466000D01*
X29972498Y-143764000D01*
X31664341Y-143764000D01*
X31684936Y-143999403D01*
X31684938Y-143999413D01*
X31746094Y-144227655D01*
X31746096Y-144227659D01*
X31746097Y-144227663D01*
X31750000Y-144236032D01*
X31845965Y-144441830D01*
X31845967Y-144441834D01*
X31954281Y-144596521D01*
X31981505Y-144635401D01*
X32148599Y-144802495D01*
X32245384Y-144870264D01*
X32342165Y-144938032D01*
X32342167Y-144938033D01*
X32342170Y-144938035D01*
X32556337Y-145037903D01*
X32784592Y-145099063D01*
X32972918Y-145115539D01*
X33019999Y-145119659D01*
X33020000Y-145119659D01*
X33020001Y-145119659D01*
X33059234Y-145116226D01*
X33255408Y-145099063D01*
X33483663Y-145037903D01*
X33697830Y-144938035D01*
X33891401Y-144802495D01*
X34058495Y-144635401D01*
X34188424Y-144449842D01*
X34243002Y-144406217D01*
X34312500Y-144399023D01*
X34374855Y-144430546D01*
X34391575Y-144449842D01*
X34521500Y-144635395D01*
X34521505Y-144635401D01*
X34688599Y-144802495D01*
X34785384Y-144870265D01*
X34882165Y-144938032D01*
X34882167Y-144938033D01*
X34882170Y-144938035D01*
X35096337Y-145037903D01*
X35324592Y-145099063D01*
X35512918Y-145115539D01*
X35559999Y-145119659D01*
X35560000Y-145119659D01*
X35560001Y-145119659D01*
X35599234Y-145116226D01*
X35795408Y-145099063D01*
X36023663Y-145037903D01*
X36237830Y-144938035D01*
X36431401Y-144802495D01*
X36598495Y-144635401D01*
X36734035Y-144441830D01*
X36833903Y-144227663D01*
X36895063Y-143999408D01*
X36915659Y-143764000D01*
X43856341Y-143764000D01*
X43876936Y-143999403D01*
X43876938Y-143999413D01*
X43938094Y-144227655D01*
X43938096Y-144227659D01*
X43938097Y-144227663D01*
X43942000Y-144236032D01*
X44037965Y-144441830D01*
X44037967Y-144441834D01*
X44146281Y-144596521D01*
X44173505Y-144635401D01*
X44340599Y-144802495D01*
X44437384Y-144870264D01*
X44534165Y-144938032D01*
X44534167Y-144938033D01*
X44534170Y-144938035D01*
X44748337Y-145037903D01*
X44976592Y-145099063D01*
X45164918Y-145115539D01*
X45211999Y-145119659D01*
X45212000Y-145119659D01*
X45212001Y-145119659D01*
X45251234Y-145116226D01*
X45447408Y-145099063D01*
X45675663Y-145037903D01*
X45889830Y-144938035D01*
X46083401Y-144802495D01*
X46250495Y-144635401D01*
X46380424Y-144449842D01*
X46435002Y-144406217D01*
X46504500Y-144399023D01*
X46566855Y-144430546D01*
X46583575Y-144449842D01*
X46713500Y-144635395D01*
X46713505Y-144635401D01*
X46880599Y-144802495D01*
X46977384Y-144870265D01*
X47074165Y-144938032D01*
X47074167Y-144938033D01*
X47074170Y-144938035D01*
X47288337Y-145037903D01*
X47516592Y-145099063D01*
X47704918Y-145115539D01*
X47751999Y-145119659D01*
X47752000Y-145119659D01*
X47752001Y-145119659D01*
X47791234Y-145116226D01*
X47987408Y-145099063D01*
X48215663Y-145037903D01*
X48429830Y-144938035D01*
X48623401Y-144802495D01*
X48790495Y-144635401D01*
X48926035Y-144441830D01*
X49025903Y-144227663D01*
X49087063Y-143999408D01*
X49107659Y-143764000D01*
X49087063Y-143528592D01*
X49025903Y-143300337D01*
X48926035Y-143086171D01*
X48923464Y-143082498D01*
X48790494Y-142892597D01*
X48623402Y-142725506D01*
X48623395Y-142725501D01*
X48429834Y-142589967D01*
X48429830Y-142589965D01*
X48429830Y-142589964D01*
X48215663Y-142490097D01*
X48215659Y-142490096D01*
X48215655Y-142490094D01*
X47987413Y-142428938D01*
X47987403Y-142428936D01*
X47752001Y-142408341D01*
X47751999Y-142408341D01*
X47516596Y-142428936D01*
X47516586Y-142428938D01*
X47288344Y-142490094D01*
X47288335Y-142490098D01*
X47074171Y-142589964D01*
X47074169Y-142589965D01*
X46880597Y-142725505D01*
X46713508Y-142892594D01*
X46583574Y-143078160D01*
X46528997Y-143121784D01*
X46459498Y-143128977D01*
X46397144Y-143097455D01*
X46380429Y-143078164D01*
X46250495Y-142892599D01*
X46250493Y-142892596D01*
X46083402Y-142725506D01*
X46083395Y-142725501D01*
X45889834Y-142589967D01*
X45889830Y-142589965D01*
X45889828Y-142589964D01*
X45675663Y-142490097D01*
X45675659Y-142490096D01*
X45675655Y-142490094D01*
X45447413Y-142428938D01*
X45447403Y-142428936D01*
X45212001Y-142408341D01*
X45211999Y-142408341D01*
X44976596Y-142428936D01*
X44976586Y-142428938D01*
X44748344Y-142490094D01*
X44748335Y-142490098D01*
X44534171Y-142589964D01*
X44534169Y-142589965D01*
X44340597Y-142725505D01*
X44173505Y-142892597D01*
X44037965Y-143086169D01*
X44037964Y-143086171D01*
X43938098Y-143300335D01*
X43938094Y-143300344D01*
X43876938Y-143528586D01*
X43876936Y-143528596D01*
X43856341Y-143763999D01*
X43856341Y-143764000D01*
X36915659Y-143764000D01*
X36895063Y-143528592D01*
X36833903Y-143300337D01*
X36734035Y-143086171D01*
X36731464Y-143082498D01*
X36598494Y-142892597D01*
X36431402Y-142725506D01*
X36431395Y-142725501D01*
X36237834Y-142589967D01*
X36237830Y-142589965D01*
X36237829Y-142589964D01*
X36023663Y-142490097D01*
X36023659Y-142490096D01*
X36023655Y-142490094D01*
X35795413Y-142428938D01*
X35795403Y-142428936D01*
X35560001Y-142408341D01*
X35559999Y-142408341D01*
X35324596Y-142428936D01*
X35324586Y-142428938D01*
X35096344Y-142490094D01*
X35096335Y-142490098D01*
X34882171Y-142589964D01*
X34882169Y-142589965D01*
X34688597Y-142725505D01*
X34521505Y-142892597D01*
X34391575Y-143078158D01*
X34336998Y-143121783D01*
X34267500Y-143128977D01*
X34205145Y-143097454D01*
X34188425Y-143078158D01*
X34058494Y-142892597D01*
X33891402Y-142725506D01*
X33891395Y-142725501D01*
X33697834Y-142589967D01*
X33697830Y-142589965D01*
X33697828Y-142589964D01*
X33483663Y-142490097D01*
X33483659Y-142490096D01*
X33483655Y-142490094D01*
X33255413Y-142428938D01*
X33255403Y-142428936D01*
X33020001Y-142408341D01*
X33019999Y-142408341D01*
X32784596Y-142428936D01*
X32784586Y-142428938D01*
X32556344Y-142490094D01*
X32556335Y-142490098D01*
X32342171Y-142589964D01*
X32342169Y-142589965D01*
X32148597Y-142725505D01*
X31981505Y-142892597D01*
X31845965Y-143086169D01*
X31845964Y-143086171D01*
X31746098Y-143300335D01*
X31746094Y-143300344D01*
X31684938Y-143528586D01*
X31684936Y-143528596D01*
X31664341Y-143763999D01*
X31664341Y-143764000D01*
X29972498Y-143764000D01*
X29972498Y-136144000D01*
X31664341Y-136144000D01*
X31684936Y-136379403D01*
X31684938Y-136379413D01*
X31746094Y-136607655D01*
X31746096Y-136607659D01*
X31746097Y-136607663D01*
X31750000Y-136616032D01*
X31845965Y-136821830D01*
X31845967Y-136821834D01*
X31954281Y-136976521D01*
X31981505Y-137015401D01*
X32148599Y-137182495D01*
X32245384Y-137250265D01*
X32342165Y-137318032D01*
X32342167Y-137318033D01*
X32342170Y-137318035D01*
X32556337Y-137417903D01*
X32784592Y-137479063D01*
X32972918Y-137495539D01*
X33019999Y-137499659D01*
X33020000Y-137499659D01*
X33020001Y-137499659D01*
X33059234Y-137496226D01*
X33255408Y-137479063D01*
X33483663Y-137417903D01*
X33697830Y-137318035D01*
X33891401Y-137182495D01*
X34058495Y-137015401D01*
X34188424Y-136829842D01*
X34243002Y-136786217D01*
X34312500Y-136779023D01*
X34374855Y-136810546D01*
X34391575Y-136829842D01*
X34521500Y-137015395D01*
X34521505Y-137015401D01*
X34688599Y-137182495D01*
X34785384Y-137250264D01*
X34882165Y-137318032D01*
X34882167Y-137318033D01*
X34882170Y-137318035D01*
X35096337Y-137417903D01*
X35324592Y-137479063D01*
X35512918Y-137495539D01*
X35559999Y-137499659D01*
X35560000Y-137499659D01*
X35560001Y-137499659D01*
X35599234Y-137496226D01*
X35795408Y-137479063D01*
X36023663Y-137417903D01*
X36237830Y-137318035D01*
X36431401Y-137182495D01*
X36598495Y-137015401D01*
X36734035Y-136821830D01*
X36833903Y-136607663D01*
X36895063Y-136379408D01*
X36915659Y-136144000D01*
X43856341Y-136144000D01*
X43876936Y-136379403D01*
X43876938Y-136379413D01*
X43938094Y-136607655D01*
X43938096Y-136607659D01*
X43938097Y-136607663D01*
X43942000Y-136616032D01*
X44037965Y-136821830D01*
X44037967Y-136821834D01*
X44146281Y-136976521D01*
X44173505Y-137015401D01*
X44340599Y-137182495D01*
X44437384Y-137250265D01*
X44534165Y-137318032D01*
X44534167Y-137318033D01*
X44534170Y-137318035D01*
X44748337Y-137417903D01*
X44976592Y-137479063D01*
X45164918Y-137495539D01*
X45211999Y-137499659D01*
X45212000Y-137499659D01*
X45212001Y-137499659D01*
X45251234Y-137496226D01*
X45447408Y-137479063D01*
X45675663Y-137417903D01*
X45889830Y-137318035D01*
X46083401Y-137182495D01*
X46250495Y-137015401D01*
X46380424Y-136829842D01*
X46435002Y-136786217D01*
X46504500Y-136779023D01*
X46566855Y-136810546D01*
X46583575Y-136829842D01*
X46713500Y-137015395D01*
X46713505Y-137015401D01*
X46880599Y-137182495D01*
X46977384Y-137250264D01*
X47074165Y-137318032D01*
X47074167Y-137318033D01*
X47074170Y-137318035D01*
X47288337Y-137417903D01*
X47516592Y-137479063D01*
X47704918Y-137495539D01*
X47751999Y-137499659D01*
X47752000Y-137499659D01*
X47752001Y-137499659D01*
X47791234Y-137496226D01*
X47987408Y-137479063D01*
X48215663Y-137417903D01*
X48429830Y-137318035D01*
X48623401Y-137182495D01*
X48790495Y-137015401D01*
X48926035Y-136821830D01*
X49025903Y-136607663D01*
X49087063Y-136379408D01*
X49107659Y-136144000D01*
X49087063Y-135908592D01*
X49025903Y-135680337D01*
X48926035Y-135466171D01*
X48920425Y-135458158D01*
X48790494Y-135272597D01*
X48623402Y-135105506D01*
X48623395Y-135105501D01*
X48429834Y-134969967D01*
X48429830Y-134969965D01*
X48429830Y-134969964D01*
X48215663Y-134870097D01*
X48215659Y-134870096D01*
X48215655Y-134870094D01*
X47987413Y-134808938D01*
X47987403Y-134808936D01*
X47752001Y-134788341D01*
X47751999Y-134788341D01*
X47516596Y-134808936D01*
X47516586Y-134808938D01*
X47288344Y-134870094D01*
X47288335Y-134870098D01*
X47074171Y-134969964D01*
X47074169Y-134969965D01*
X46880597Y-135105505D01*
X46713508Y-135272594D01*
X46583574Y-135458160D01*
X46528997Y-135501784D01*
X46459498Y-135508977D01*
X46397144Y-135477455D01*
X46380429Y-135458164D01*
X46250495Y-135272599D01*
X46250493Y-135272596D01*
X46083402Y-135105506D01*
X46083395Y-135105501D01*
X45889834Y-134969967D01*
X45889830Y-134969965D01*
X45889829Y-134969964D01*
X45675663Y-134870097D01*
X45675659Y-134870096D01*
X45675655Y-134870094D01*
X45447413Y-134808938D01*
X45447403Y-134808936D01*
X45212001Y-134788341D01*
X45211999Y-134788341D01*
X44976596Y-134808936D01*
X44976586Y-134808938D01*
X44748344Y-134870094D01*
X44748335Y-134870098D01*
X44534171Y-134969964D01*
X44534169Y-134969965D01*
X44340597Y-135105505D01*
X44173505Y-135272597D01*
X44037965Y-135466169D01*
X44037964Y-135466171D01*
X43938098Y-135680335D01*
X43938094Y-135680344D01*
X43876938Y-135908586D01*
X43876936Y-135908596D01*
X43856341Y-136143999D01*
X43856341Y-136144000D01*
X36915659Y-136144000D01*
X36895063Y-135908592D01*
X36833903Y-135680337D01*
X36734035Y-135466171D01*
X36728425Y-135458158D01*
X36598494Y-135272597D01*
X36431402Y-135105506D01*
X36431395Y-135105501D01*
X36237834Y-134969967D01*
X36237830Y-134969965D01*
X36237830Y-134969964D01*
X36023663Y-134870097D01*
X36023659Y-134870096D01*
X36023655Y-134870094D01*
X35795413Y-134808938D01*
X35795403Y-134808936D01*
X35560001Y-134788341D01*
X35559999Y-134788341D01*
X35324596Y-134808936D01*
X35324586Y-134808938D01*
X35096344Y-134870094D01*
X35096335Y-134870098D01*
X34882171Y-134969964D01*
X34882169Y-134969965D01*
X34688597Y-135105505D01*
X34521505Y-135272597D01*
X34391575Y-135458158D01*
X34336998Y-135501783D01*
X34267500Y-135508977D01*
X34205145Y-135477454D01*
X34188425Y-135458158D01*
X34058494Y-135272597D01*
X33891402Y-135105506D01*
X33891395Y-135105501D01*
X33697834Y-134969967D01*
X33697830Y-134969965D01*
X33697830Y-134969964D01*
X33483663Y-134870097D01*
X33483659Y-134870096D01*
X33483655Y-134870094D01*
X33255413Y-134808938D01*
X33255403Y-134808936D01*
X33020001Y-134788341D01*
X33019999Y-134788341D01*
X32784596Y-134808936D01*
X32784586Y-134808938D01*
X32556344Y-134870094D01*
X32556335Y-134870098D01*
X32342171Y-134969964D01*
X32342169Y-134969965D01*
X32148597Y-135105505D01*
X31981505Y-135272597D01*
X31845965Y-135466169D01*
X31845964Y-135466171D01*
X31746098Y-135680335D01*
X31746094Y-135680344D01*
X31684938Y-135908586D01*
X31684936Y-135908596D01*
X31664341Y-136143999D01*
X31664341Y-136144000D01*
X29972498Y-136144000D01*
X29972498Y-133604000D01*
X31352540Y-133604000D01*
X31372326Y-133792256D01*
X31372327Y-133792259D01*
X31430818Y-133972277D01*
X31430821Y-133972284D01*
X31525467Y-134136216D01*
X31652128Y-134276887D01*
X31652129Y-134276888D01*
X31805265Y-134388148D01*
X31805270Y-134388151D01*
X31978192Y-134465142D01*
X31978197Y-134465144D01*
X32163354Y-134504500D01*
X32163355Y-134504500D01*
X32352644Y-134504500D01*
X32352646Y-134504500D01*
X32537803Y-134465144D01*
X32710730Y-134388151D01*
X32863871Y-134276888D01*
X32990533Y-134136216D01*
X33085179Y-133972284D01*
X33143674Y-133792256D01*
X33163460Y-133604000D01*
X33143674Y-133415744D01*
X33085179Y-133235716D01*
X32990533Y-133071784D01*
X32917348Y-132990504D01*
X32887119Y-132927515D01*
X32885499Y-132907546D01*
X32885499Y-128073279D01*
X32905184Y-128006241D01*
X32921813Y-127985604D01*
X36122584Y-124784833D01*
X36183905Y-124751350D01*
X36242356Y-124752741D01*
X36284107Y-124763928D01*
X36340592Y-124779063D01*
X36528918Y-124795539D01*
X36575999Y-124799659D01*
X36576000Y-124799659D01*
X36576001Y-124799659D01*
X36615234Y-124796226D01*
X36811408Y-124779063D01*
X37039663Y-124717903D01*
X37253830Y-124618035D01*
X37447401Y-124482495D01*
X37614495Y-124315401D01*
X37744730Y-124129405D01*
X37799307Y-124085781D01*
X37868805Y-124078587D01*
X37931160Y-124110110D01*
X37947879Y-124129405D01*
X38077890Y-124315078D01*
X38244917Y-124482105D01*
X38438421Y-124617600D01*
X38652507Y-124717429D01*
X38652516Y-124717433D01*
X38866000Y-124774634D01*
X38866000Y-124056301D01*
X38885685Y-123989262D01*
X38938489Y-123943507D01*
X39007647Y-123933563D01*
X39080237Y-123944000D01*
X39080238Y-123944000D01*
X39151762Y-123944000D01*
X39151763Y-123944000D01*
X39224353Y-123933563D01*
X39293512Y-123943507D01*
X39346315Y-123989262D01*
X39366000Y-124056301D01*
X39366000Y-124774633D01*
X39579483Y-124717433D01*
X39579492Y-124717429D01*
X39793578Y-124617600D01*
X39987082Y-124482105D01*
X40154105Y-124315082D01*
X40284119Y-124129405D01*
X40338696Y-124085781D01*
X40408195Y-124078588D01*
X40470549Y-124110110D01*
X40487269Y-124129405D01*
X40617505Y-124315401D01*
X40784599Y-124482495D01*
X40881384Y-124550265D01*
X40978165Y-124618032D01*
X40978167Y-124618033D01*
X40978170Y-124618035D01*
X41192337Y-124717903D01*
X41420592Y-124779063D01*
X41608918Y-124795539D01*
X41655999Y-124799659D01*
X41656000Y-124799659D01*
X41656001Y-124799659D01*
X41695234Y-124796226D01*
X41891408Y-124779063D01*
X42119663Y-124717903D01*
X42333830Y-124618035D01*
X42527401Y-124482495D01*
X42694495Y-124315401D01*
X42824424Y-124129842D01*
X42879002Y-124086217D01*
X42948500Y-124079023D01*
X43010855Y-124110546D01*
X43027575Y-124129842D01*
X43157500Y-124315395D01*
X43157505Y-124315401D01*
X43324599Y-124482495D01*
X43421384Y-124550264D01*
X43518165Y-124618032D01*
X43518167Y-124618033D01*
X43518170Y-124618035D01*
X43732337Y-124717903D01*
X43960592Y-124779063D01*
X44148918Y-124795539D01*
X44195999Y-124799659D01*
X44196000Y-124799659D01*
X44196001Y-124799659D01*
X44235234Y-124796226D01*
X44431408Y-124779063D01*
X44659663Y-124717903D01*
X44873830Y-124618035D01*
X45067401Y-124482495D01*
X45234495Y-124315401D01*
X45370035Y-124121830D01*
X45469903Y-123907663D01*
X45531063Y-123679408D01*
X45551659Y-123444000D01*
X45531063Y-123208592D01*
X45469903Y-122980337D01*
X45370035Y-122766171D01*
X45364731Y-122758595D01*
X45234494Y-122572597D01*
X45067402Y-122405506D01*
X45067395Y-122405501D01*
X44873834Y-122269967D01*
X44873830Y-122269965D01*
X44873829Y-122269964D01*
X44659663Y-122170097D01*
X44659659Y-122170096D01*
X44659655Y-122170094D01*
X44431413Y-122108938D01*
X44431403Y-122108936D01*
X44196001Y-122088341D01*
X44195999Y-122088341D01*
X43960596Y-122108936D01*
X43960586Y-122108938D01*
X43732344Y-122170094D01*
X43732335Y-122170098D01*
X43518171Y-122269964D01*
X43518169Y-122269965D01*
X43324597Y-122405505D01*
X43157505Y-122572597D01*
X43027575Y-122758158D01*
X42972998Y-122801783D01*
X42903500Y-122808977D01*
X42841145Y-122777454D01*
X42824425Y-122758158D01*
X42694494Y-122572597D01*
X42527402Y-122405506D01*
X42527395Y-122405501D01*
X42333834Y-122269967D01*
X42333830Y-122269965D01*
X42333828Y-122269964D01*
X42119663Y-122170097D01*
X42119659Y-122170096D01*
X42119655Y-122170094D01*
X41891413Y-122108938D01*
X41891403Y-122108936D01*
X41656001Y-122088341D01*
X41655999Y-122088341D01*
X41420596Y-122108936D01*
X41420586Y-122108938D01*
X41192344Y-122170094D01*
X41192335Y-122170098D01*
X40978171Y-122269964D01*
X40978169Y-122269965D01*
X40784597Y-122405505D01*
X40617508Y-122572594D01*
X40487269Y-122758595D01*
X40432692Y-122802219D01*
X40363193Y-122809412D01*
X40300839Y-122777890D01*
X40284119Y-122758594D01*
X40154113Y-122572926D01*
X40154108Y-122572920D01*
X39987082Y-122405894D01*
X39793578Y-122270399D01*
X39579492Y-122170570D01*
X39579486Y-122170567D01*
X39366000Y-122113364D01*
X39366000Y-122831698D01*
X39346315Y-122898737D01*
X39293511Y-122944492D01*
X39224355Y-122954436D01*
X39151766Y-122944000D01*
X39151763Y-122944000D01*
X39080237Y-122944000D01*
X39080233Y-122944000D01*
X39007645Y-122954436D01*
X38938487Y-122944492D01*
X38885684Y-122898736D01*
X38866000Y-122831698D01*
X38866000Y-122113364D01*
X38865999Y-122113364D01*
X38652513Y-122170567D01*
X38652507Y-122170570D01*
X38438422Y-122270399D01*
X38438420Y-122270400D01*
X38244926Y-122405886D01*
X38244920Y-122405891D01*
X38077891Y-122572920D01*
X38077890Y-122572922D01*
X37947880Y-122758595D01*
X37893303Y-122802219D01*
X37823804Y-122809412D01*
X37761450Y-122777890D01*
X37744730Y-122758594D01*
X37614494Y-122572597D01*
X37447402Y-122405506D01*
X37447395Y-122405501D01*
X37253834Y-122269967D01*
X37253830Y-122269965D01*
X37253828Y-122269964D01*
X37039663Y-122170097D01*
X37039659Y-122170096D01*
X37039655Y-122170094D01*
X36811413Y-122108938D01*
X36811403Y-122108936D01*
X36576001Y-122088341D01*
X36575999Y-122088341D01*
X36340596Y-122108936D01*
X36340586Y-122108938D01*
X36112344Y-122170094D01*
X36112335Y-122170098D01*
X35898171Y-122269964D01*
X35898169Y-122269965D01*
X35704597Y-122405505D01*
X35537505Y-122572597D01*
X35401965Y-122766169D01*
X35401964Y-122766171D01*
X35302098Y-122980335D01*
X35302094Y-122980344D01*
X35240938Y-123208586D01*
X35240936Y-123208596D01*
X35220341Y-123443999D01*
X35220341Y-123444000D01*
X35240936Y-123679403D01*
X35240938Y-123679413D01*
X35267258Y-123777641D01*
X35265595Y-123847491D01*
X35235164Y-123897415D01*
X31872953Y-127259626D01*
X31860669Y-127269469D01*
X31860849Y-127269687D01*
X31854838Y-127274659D01*
X31807322Y-127325258D01*
X31786375Y-127346205D01*
X31782106Y-127351709D01*
X31778315Y-127356147D01*
X31746308Y-127390230D01*
X31746305Y-127390234D01*
X31736606Y-127407877D01*
X31725928Y-127424133D01*
X31713594Y-127440034D01*
X31713589Y-127440042D01*
X31695025Y-127482943D01*
X31692454Y-127488191D01*
X31669927Y-127529167D01*
X31664920Y-127548668D01*
X31658621Y-127567064D01*
X31651893Y-127582612D01*
X31650625Y-127585544D01*
X31650624Y-127585546D01*
X31643312Y-127631716D01*
X31642127Y-127637438D01*
X31630500Y-127682723D01*
X31630500Y-127702858D01*
X31628973Y-127722257D01*
X31625825Y-127742131D01*
X31630225Y-127788677D01*
X31630500Y-127794515D01*
X31630500Y-132907534D01*
X31610815Y-132974573D01*
X31598650Y-132990506D01*
X31525466Y-133071785D01*
X31430821Y-133235715D01*
X31430818Y-133235722D01*
X31372327Y-133415740D01*
X31372326Y-133415744D01*
X31352540Y-133604000D01*
X29972498Y-133604000D01*
X29972498Y-100985079D01*
X29992183Y-100918044D01*
X30044987Y-100872289D01*
X30114145Y-100862345D01*
X30177701Y-100891370D01*
X30196814Y-100912195D01*
X30207227Y-100926527D01*
X30210437Y-100931413D01*
X30234234Y-100971652D01*
X30234240Y-100971660D01*
X30248469Y-100985888D01*
X30261109Y-101000687D01*
X30272934Y-101016964D01*
X30272936Y-101016965D01*
X30272937Y-101016967D01*
X30308957Y-101046765D01*
X30313268Y-101050687D01*
X38817961Y-109555380D01*
X47321371Y-118058790D01*
X47354856Y-118120113D01*
X47357010Y-118133505D01*
X47374326Y-118298256D01*
X47374327Y-118298259D01*
X47432818Y-118478277D01*
X47432821Y-118478284D01*
X47527467Y-118642216D01*
X47654128Y-118782888D01*
X47654129Y-118782888D01*
X47807265Y-118894148D01*
X47807270Y-118894151D01*
X47980192Y-118971142D01*
X47980197Y-118971144D01*
X48165354Y-119010500D01*
X48165355Y-119010500D01*
X48354644Y-119010500D01*
X48354646Y-119010500D01*
X48539803Y-118971144D01*
X48712730Y-118894151D01*
X48865871Y-118782888D01*
X48992533Y-118642216D01*
X49087179Y-118478284D01*
X49145674Y-118298256D01*
X49165460Y-118110000D01*
X49145674Y-117921744D01*
X49087179Y-117741716D01*
X48992533Y-117577784D01*
X48865871Y-117437112D01*
X48865870Y-117437111D01*
X48712734Y-117325851D01*
X48712729Y-117325848D01*
X48539807Y-117248857D01*
X48539802Y-117248855D01*
X48394001Y-117217865D01*
X48354646Y-117209500D01*
X48354645Y-117209500D01*
X48298281Y-117209500D01*
X48231242Y-117189815D01*
X48210600Y-117173181D01*
X31397818Y-100360400D01*
X31364333Y-100299077D01*
X31361499Y-100272719D01*
X31361499Y-95924717D01*
X31361499Y-90481277D01*
X31381184Y-90414242D01*
X31397813Y-90393605D01*
X31672821Y-90118597D01*
X31734142Y-90085114D01*
X31803834Y-90090098D01*
X31859767Y-90131970D01*
X31884184Y-90197434D01*
X31884500Y-90206280D01*
X31884500Y-99993032D01*
X31882772Y-100008681D01*
X31883054Y-100008708D01*
X31882319Y-100016475D01*
X31884500Y-100085859D01*
X31884500Y-100115477D01*
X31885371Y-100122380D01*
X31885829Y-100128199D01*
X31887298Y-100174942D01*
X31892916Y-100194275D01*
X31896862Y-100213329D01*
X31899383Y-100233287D01*
X31899386Y-100233299D01*
X31916595Y-100276765D01*
X31918487Y-100282293D01*
X31931530Y-100327187D01*
X31931530Y-100327188D01*
X31941777Y-100344515D01*
X31950335Y-100361985D01*
X31957745Y-100380701D01*
X31985229Y-100418529D01*
X31988437Y-100423413D01*
X32012234Y-100463652D01*
X32012240Y-100463660D01*
X32026469Y-100477888D01*
X32039106Y-100492684D01*
X32042778Y-100497738D01*
X32050934Y-100508964D01*
X32050936Y-100508965D01*
X32050937Y-100508967D01*
X32080567Y-100533479D01*
X32086957Y-100538765D01*
X32091268Y-100542687D01*
X36462687Y-104914105D01*
X40630795Y-109082213D01*
X40630796Y-109082215D01*
X40889624Y-109341043D01*
X40899471Y-109353333D01*
X40899689Y-109353154D01*
X40904657Y-109359160D01*
X40955257Y-109406677D01*
X40976201Y-109427620D01*
X40976207Y-109427626D01*
X40981697Y-109431883D01*
X40986148Y-109435684D01*
X41020235Y-109467695D01*
X41020237Y-109467696D01*
X41037868Y-109477388D01*
X41054137Y-109488074D01*
X41070037Y-109500407D01*
X41070037Y-109500408D01*
X41112944Y-109518975D01*
X41118193Y-109521547D01*
X41159161Y-109544070D01*
X41159164Y-109544071D01*
X41159166Y-109544072D01*
X41178659Y-109549076D01*
X41197067Y-109555379D01*
X41215541Y-109563374D01*
X41247890Y-109568497D01*
X41261723Y-109570688D01*
X41267438Y-109571871D01*
X41312728Y-109583500D01*
X41332858Y-109583500D01*
X41352255Y-109585026D01*
X41372133Y-109588175D01*
X41414779Y-109584143D01*
X41418679Y-109583775D01*
X41424517Y-109583500D01*
X48410173Y-109583500D01*
X48477212Y-109603185D01*
X48511747Y-109636375D01*
X48645505Y-109827401D01*
X48812599Y-109994495D01*
X48909384Y-110062265D01*
X49006165Y-110130032D01*
X49006167Y-110130033D01*
X49006170Y-110130035D01*
X49220337Y-110229903D01*
X49448592Y-110291063D01*
X49636918Y-110307539D01*
X49683999Y-110311659D01*
X49684000Y-110311659D01*
X49684001Y-110311659D01*
X49723234Y-110308226D01*
X49919408Y-110291063D01*
X50147663Y-110229903D01*
X50361830Y-110130035D01*
X50555401Y-109994495D01*
X50722495Y-109827401D01*
X50858035Y-109633830D01*
X50957903Y-109419663D01*
X51019063Y-109191408D01*
X51039659Y-108956000D01*
X51019063Y-108720592D01*
X50957903Y-108492337D01*
X50858035Y-108278171D01*
X50842519Y-108256011D01*
X50722494Y-108084597D01*
X50555402Y-107917506D01*
X50555401Y-107917505D01*
X50369842Y-107787575D01*
X50369841Y-107787574D01*
X50326216Y-107732997D01*
X50319024Y-107663498D01*
X50350546Y-107601144D01*
X50369836Y-107584428D01*
X50555401Y-107454495D01*
X50722495Y-107287401D01*
X50858035Y-107093830D01*
X50957903Y-106879663D01*
X51019063Y-106651408D01*
X51039659Y-106416000D01*
X51019063Y-106180592D01*
X50957903Y-105952337D01*
X50858035Y-105738171D01*
X50722495Y-105544599D01*
X50722494Y-105544597D01*
X50555402Y-105377506D01*
X50555401Y-105377505D01*
X50369405Y-105247269D01*
X50325781Y-105192692D01*
X50318588Y-105123193D01*
X50350110Y-105060839D01*
X50369405Y-105044119D01*
X50555082Y-104914105D01*
X50722105Y-104747082D01*
X50857600Y-104553578D01*
X50957429Y-104339492D01*
X50957432Y-104339486D01*
X51014636Y-104126000D01*
X50297347Y-104126000D01*
X50230308Y-104106315D01*
X50184553Y-104053511D01*
X50174609Y-103984353D01*
X50178369Y-103967067D01*
X50184000Y-103947888D01*
X50184000Y-103804111D01*
X50178369Y-103784933D01*
X50178370Y-103715064D01*
X50216145Y-103656286D01*
X50279701Y-103627262D01*
X50297347Y-103626000D01*
X51014636Y-103626000D01*
X51014635Y-103625999D01*
X50957432Y-103412513D01*
X50957429Y-103412507D01*
X50857600Y-103198422D01*
X50857599Y-103198420D01*
X50722113Y-103004926D01*
X50722108Y-103004920D01*
X50555078Y-102837890D01*
X50369405Y-102707879D01*
X50325780Y-102653302D01*
X50318588Y-102583804D01*
X50350110Y-102521449D01*
X50369406Y-102504730D01*
X50555401Y-102374495D01*
X50722495Y-102207401D01*
X50858035Y-102013830D01*
X50957903Y-101799663D01*
X51019063Y-101571408D01*
X51039659Y-101336000D01*
X51019063Y-101100592D01*
X50957903Y-100872337D01*
X50858035Y-100658171D01*
X50855700Y-100654835D01*
X50722494Y-100464597D01*
X50555402Y-100297506D01*
X50555395Y-100297501D01*
X50361834Y-100161967D01*
X50361830Y-100161965D01*
X50361829Y-100161964D01*
X50147663Y-100062097D01*
X50147659Y-100062096D01*
X50147655Y-100062094D01*
X49919413Y-100000938D01*
X49919403Y-100000936D01*
X49684001Y-99980341D01*
X49683999Y-99980341D01*
X49448596Y-100000936D01*
X49448586Y-100000938D01*
X49220344Y-100062094D01*
X49220335Y-100062098D01*
X49006171Y-100161964D01*
X49006169Y-100161965D01*
X48812597Y-100297505D01*
X48645505Y-100464597D01*
X48509965Y-100658169D01*
X48509964Y-100658171D01*
X48410098Y-100872335D01*
X48410094Y-100872344D01*
X48348938Y-101100586D01*
X48348936Y-101100596D01*
X48328341Y-101335999D01*
X48328341Y-101336000D01*
X48348936Y-101571403D01*
X48348938Y-101571413D01*
X48410094Y-101799655D01*
X48410096Y-101799659D01*
X48410097Y-101799663D01*
X48482073Y-101954015D01*
X48509965Y-102013830D01*
X48509967Y-102013834D01*
X48645501Y-102207395D01*
X48645506Y-102207402D01*
X48812597Y-102374493D01*
X48812603Y-102374498D01*
X48998594Y-102504730D01*
X49042219Y-102559307D01*
X49049413Y-102628805D01*
X49017890Y-102691160D01*
X48998595Y-102707880D01*
X48812922Y-102837890D01*
X48812920Y-102837891D01*
X48645891Y-103004920D01*
X48645886Y-103004926D01*
X48510400Y-103198420D01*
X48510399Y-103198422D01*
X48410570Y-103412507D01*
X48410567Y-103412513D01*
X48353364Y-103625999D01*
X48353364Y-103626000D01*
X49070653Y-103626000D01*
X49137692Y-103645685D01*
X49183447Y-103698489D01*
X49193391Y-103767647D01*
X49189631Y-103784933D01*
X49184000Y-103804111D01*
X49184000Y-103947888D01*
X49189631Y-103967067D01*
X49189630Y-104036936D01*
X49151855Y-104095714D01*
X49088299Y-104124738D01*
X49070653Y-104126000D01*
X48353364Y-104126000D01*
X48410567Y-104339486D01*
X48410570Y-104339492D01*
X48510399Y-104553578D01*
X48645894Y-104747082D01*
X48812917Y-104914105D01*
X48998595Y-105044119D01*
X49042219Y-105098696D01*
X49049412Y-105168195D01*
X49017890Y-105230549D01*
X48998595Y-105247269D01*
X48812594Y-105377508D01*
X48645505Y-105544597D01*
X48509965Y-105738169D01*
X48509964Y-105738171D01*
X48410098Y-105952335D01*
X48410094Y-105952344D01*
X48348938Y-106180586D01*
X48348936Y-106180596D01*
X48328341Y-106415999D01*
X48328341Y-106416000D01*
X48348936Y-106651403D01*
X48348938Y-106651413D01*
X48410094Y-106879655D01*
X48410096Y-106879659D01*
X48410097Y-106879663D01*
X48504396Y-107081888D01*
X48509965Y-107093830D01*
X48509967Y-107093834D01*
X48645501Y-107287395D01*
X48645506Y-107287402D01*
X48812597Y-107454493D01*
X48812603Y-107454498D01*
X48998158Y-107584425D01*
X49041783Y-107639002D01*
X49048977Y-107708500D01*
X49017454Y-107770855D01*
X48998158Y-107787575D01*
X48812597Y-107917505D01*
X48645505Y-108084597D01*
X48511749Y-108275623D01*
X48457172Y-108319248D01*
X48410174Y-108328500D01*
X45649662Y-108328500D01*
X45582623Y-108308815D01*
X45536868Y-108256011D01*
X45526924Y-108186853D01*
X45555949Y-108123297D01*
X45560210Y-108118953D01*
X45563868Y-108114889D01*
X45563871Y-108114888D01*
X45690533Y-107974216D01*
X45785179Y-107810284D01*
X45843674Y-107630256D01*
X45863460Y-107442000D01*
X45843674Y-107253744D01*
X45785179Y-107073716D01*
X45690533Y-106909784D01*
X45563871Y-106769112D01*
X45563870Y-106769111D01*
X45410734Y-106657851D01*
X45410729Y-106657848D01*
X45237807Y-106580857D01*
X45237802Y-106580855D01*
X45092001Y-106549865D01*
X45052646Y-106541500D01*
X45052645Y-106541500D01*
X44996282Y-106541500D01*
X44929243Y-106521815D01*
X44908601Y-106505181D01*
X41650376Y-103246957D01*
X41640531Y-103234668D01*
X41640313Y-103234849D01*
X41635340Y-103228837D01*
X41584742Y-103181322D01*
X41563798Y-103160378D01*
X41558296Y-103156111D01*
X41553848Y-103152312D01*
X41519768Y-103120308D01*
X41519763Y-103120304D01*
X41502122Y-103110606D01*
X41485857Y-103099922D01*
X41469963Y-103087593D01*
X41469962Y-103087592D01*
X41454804Y-103081032D01*
X41427054Y-103069023D01*
X41421807Y-103066453D01*
X41380837Y-103043929D01*
X41380828Y-103043926D01*
X41361334Y-103038920D01*
X41342933Y-103032620D01*
X41324459Y-103024626D01*
X41324452Y-103024624D01*
X41278287Y-103017313D01*
X41272563Y-103016128D01*
X41227279Y-103004500D01*
X41227272Y-103004500D01*
X41207142Y-103004500D01*
X41187743Y-103002973D01*
X41167868Y-102999825D01*
X41167867Y-102999825D01*
X41121321Y-103004225D01*
X41115483Y-103004500D01*
X38411281Y-103004500D01*
X38344242Y-102984815D01*
X38323600Y-102968181D01*
X36035600Y-100680181D01*
X36002115Y-100618858D01*
X36007099Y-100549166D01*
X36048971Y-100493233D01*
X36114435Y-100468816D01*
X36123281Y-100468500D01*
X36162644Y-100468500D01*
X36162646Y-100468500D01*
X36347803Y-100429144D01*
X36520730Y-100352151D01*
X36673871Y-100240888D01*
X36800533Y-100100216D01*
X36895179Y-99936284D01*
X36953674Y-99756256D01*
X36973460Y-99568000D01*
X36953674Y-99379744D01*
X36895179Y-99199716D01*
X36800533Y-99035784D01*
X36727350Y-98954506D01*
X36697120Y-98891515D01*
X36695500Y-98871534D01*
X36695500Y-95053280D01*
X36715185Y-94986241D01*
X36731814Y-94965603D01*
X37723043Y-93974374D01*
X37735325Y-93964537D01*
X37735144Y-93964318D01*
X37741152Y-93959346D01*
X37741162Y-93959340D01*
X37788677Y-93908741D01*
X37809623Y-93887796D01*
X37813892Y-93882290D01*
X37817676Y-93877859D01*
X37849693Y-93843767D01*
X37859389Y-93826128D01*
X37870073Y-93809861D01*
X37882408Y-93793962D01*
X37900978Y-93751046D01*
X37903534Y-93745827D01*
X37926072Y-93704834D01*
X37931081Y-93685322D01*
X37937378Y-93666932D01*
X37945373Y-93648459D01*
X37952689Y-93602257D01*
X37953864Y-93596583D01*
X37965500Y-93551272D01*
X37965500Y-93531141D01*
X37967027Y-93511741D01*
X37970175Y-93491867D01*
X37965775Y-93445321D01*
X37965500Y-93439483D01*
X37965500Y-92713826D01*
X37985185Y-92646787D01*
X38018375Y-92612252D01*
X38209401Y-92478495D01*
X38376495Y-92311401D01*
X38506426Y-92125840D01*
X38561001Y-92082217D01*
X38630499Y-92075023D01*
X38692854Y-92106546D01*
X38709574Y-92125841D01*
X38839505Y-92311401D01*
X39006599Y-92478495D01*
X39103384Y-92546264D01*
X39200165Y-92614032D01*
X39200167Y-92614033D01*
X39200170Y-92614035D01*
X39414337Y-92713903D01*
X39642592Y-92775063D01*
X39830918Y-92791539D01*
X39877999Y-92795659D01*
X39878000Y-92795659D01*
X39878001Y-92795659D01*
X39917234Y-92792226D01*
X40113408Y-92775063D01*
X40341663Y-92713903D01*
X40555830Y-92614035D01*
X40749401Y-92478495D01*
X40916495Y-92311401D01*
X41046426Y-92125841D01*
X41101002Y-92082217D01*
X41170500Y-92075023D01*
X41232855Y-92106546D01*
X41249575Y-92125842D01*
X41379500Y-92311395D01*
X41379505Y-92311401D01*
X41546599Y-92478495D01*
X41643384Y-92546264D01*
X41740165Y-92614032D01*
X41740167Y-92614033D01*
X41740170Y-92614035D01*
X41954337Y-92713903D01*
X42182592Y-92775063D01*
X42370918Y-92791539D01*
X42417999Y-92795659D01*
X42418000Y-92795659D01*
X42418001Y-92795659D01*
X42457234Y-92792226D01*
X42653408Y-92775063D01*
X42881663Y-92713903D01*
X43095830Y-92614035D01*
X43289401Y-92478495D01*
X43456495Y-92311401D01*
X43586426Y-92125841D01*
X43641002Y-92082217D01*
X43710500Y-92075023D01*
X43772855Y-92106546D01*
X43789575Y-92125842D01*
X43919500Y-92311395D01*
X43919505Y-92311401D01*
X44086599Y-92478495D01*
X44183384Y-92546264D01*
X44280165Y-92614032D01*
X44280167Y-92614033D01*
X44280170Y-92614035D01*
X44494337Y-92713903D01*
X44722592Y-92775063D01*
X44910918Y-92791539D01*
X44957999Y-92795659D01*
X44958000Y-92795659D01*
X44958001Y-92795659D01*
X44997234Y-92792226D01*
X45193408Y-92775063D01*
X45421663Y-92713903D01*
X45635830Y-92614035D01*
X45829401Y-92478495D01*
X45996495Y-92311401D01*
X46126426Y-92125841D01*
X46181002Y-92082217D01*
X46250500Y-92075023D01*
X46312855Y-92106546D01*
X46329575Y-92125842D01*
X46459500Y-92311395D01*
X46459505Y-92311401D01*
X46626599Y-92478495D01*
X46723384Y-92546264D01*
X46820165Y-92614032D01*
X46820167Y-92614033D01*
X46820170Y-92614035D01*
X47034337Y-92713903D01*
X47262592Y-92775063D01*
X47450918Y-92791539D01*
X47497999Y-92795659D01*
X47498000Y-92795659D01*
X47498001Y-92795659D01*
X47537234Y-92792226D01*
X47733408Y-92775063D01*
X47961663Y-92713903D01*
X48175830Y-92614035D01*
X48369401Y-92478495D01*
X48536495Y-92311401D01*
X48666426Y-92125841D01*
X48721002Y-92082217D01*
X48790500Y-92075023D01*
X48852855Y-92106546D01*
X48869575Y-92125842D01*
X48999500Y-92311395D01*
X48999505Y-92311401D01*
X49166599Y-92478495D01*
X49263384Y-92546264D01*
X49360165Y-92614032D01*
X49360167Y-92614033D01*
X49360170Y-92614035D01*
X49574337Y-92713903D01*
X49802592Y-92775063D01*
X49990918Y-92791539D01*
X50037999Y-92795659D01*
X50038000Y-92795659D01*
X50038001Y-92795659D01*
X50077234Y-92792226D01*
X50273408Y-92775063D01*
X50501663Y-92713903D01*
X50715830Y-92614035D01*
X50909401Y-92478495D01*
X51076495Y-92311401D01*
X51206426Y-92125841D01*
X51261002Y-92082217D01*
X51330500Y-92075023D01*
X51392855Y-92106546D01*
X51409575Y-92125842D01*
X51539500Y-92311395D01*
X51539505Y-92311401D01*
X51706599Y-92478495D01*
X51803384Y-92546264D01*
X51900165Y-92614032D01*
X51900167Y-92614033D01*
X51900170Y-92614035D01*
X52114337Y-92713903D01*
X52342592Y-92775063D01*
X52530918Y-92791539D01*
X52577999Y-92795659D01*
X52578000Y-92795659D01*
X52578001Y-92795659D01*
X52617234Y-92792226D01*
X52813408Y-92775063D01*
X53041663Y-92713903D01*
X53255830Y-92614035D01*
X53449401Y-92478495D01*
X53616495Y-92311401D01*
X53746426Y-92125841D01*
X53801002Y-92082217D01*
X53870500Y-92075023D01*
X53932855Y-92106546D01*
X53949575Y-92125842D01*
X54079500Y-92311395D01*
X54079505Y-92311401D01*
X54246599Y-92478495D01*
X54343384Y-92546264D01*
X54440165Y-92614032D01*
X54440167Y-92614033D01*
X54440170Y-92614035D01*
X54654337Y-92713903D01*
X54882592Y-92775063D01*
X55070918Y-92791539D01*
X55117999Y-92795659D01*
X55118000Y-92795659D01*
X55118001Y-92795659D01*
X55157234Y-92792226D01*
X55353408Y-92775063D01*
X55581663Y-92713903D01*
X55795830Y-92614035D01*
X55989401Y-92478495D01*
X56156495Y-92311401D01*
X56286426Y-92125841D01*
X56341002Y-92082217D01*
X56410500Y-92075023D01*
X56472855Y-92106546D01*
X56489575Y-92125842D01*
X56619500Y-92311395D01*
X56619505Y-92311401D01*
X56786599Y-92478495D01*
X56883384Y-92546264D01*
X56980165Y-92614032D01*
X56980167Y-92614033D01*
X56980170Y-92614035D01*
X57194337Y-92713903D01*
X57422592Y-92775063D01*
X57610918Y-92791539D01*
X57657999Y-92795659D01*
X57658000Y-92795659D01*
X57658001Y-92795659D01*
X57697234Y-92792226D01*
X57893408Y-92775063D01*
X58121663Y-92713903D01*
X58335830Y-92614035D01*
X58529401Y-92478495D01*
X58696495Y-92311401D01*
X58826426Y-92125841D01*
X58881002Y-92082217D01*
X58950500Y-92075023D01*
X59012855Y-92106546D01*
X59029575Y-92125842D01*
X59159500Y-92311395D01*
X59159505Y-92311401D01*
X59326599Y-92478495D01*
X59423384Y-92546264D01*
X59520165Y-92614032D01*
X59520167Y-92614033D01*
X59520170Y-92614035D01*
X59734337Y-92713903D01*
X59962592Y-92775063D01*
X60150918Y-92791539D01*
X60197999Y-92795659D01*
X60198000Y-92795659D01*
X60198001Y-92795659D01*
X60237234Y-92792226D01*
X60433408Y-92775063D01*
X60661663Y-92713903D01*
X60875830Y-92614035D01*
X61069401Y-92478495D01*
X61236495Y-92311401D01*
X61366426Y-92125841D01*
X61421002Y-92082217D01*
X61490500Y-92075023D01*
X61552855Y-92106546D01*
X61569575Y-92125842D01*
X61699500Y-92311395D01*
X61699505Y-92311401D01*
X61866599Y-92478495D01*
X61963384Y-92546264D01*
X62060165Y-92614032D01*
X62060167Y-92614033D01*
X62060170Y-92614035D01*
X62274337Y-92713903D01*
X62502592Y-92775063D01*
X62690918Y-92791539D01*
X62737999Y-92795659D01*
X62738000Y-92795659D01*
X62738001Y-92795659D01*
X62777234Y-92792226D01*
X62973408Y-92775063D01*
X63201663Y-92713903D01*
X63415830Y-92614035D01*
X63609401Y-92478495D01*
X63776495Y-92311401D01*
X63906426Y-92125841D01*
X63961002Y-92082217D01*
X64030500Y-92075023D01*
X64092855Y-92106546D01*
X64109575Y-92125842D01*
X64239500Y-92311395D01*
X64239505Y-92311401D01*
X64406599Y-92478495D01*
X64503384Y-92546264D01*
X64600165Y-92614032D01*
X64600167Y-92614033D01*
X64600170Y-92614035D01*
X64814337Y-92713903D01*
X65042592Y-92775063D01*
X65230918Y-92791539D01*
X65277999Y-92795659D01*
X65278000Y-92795659D01*
X65278001Y-92795659D01*
X65317234Y-92792226D01*
X65513408Y-92775063D01*
X65741663Y-92713903D01*
X65955830Y-92614035D01*
X66149401Y-92478495D01*
X66316495Y-92311401D01*
X66446426Y-92125841D01*
X66501002Y-92082217D01*
X66570500Y-92075023D01*
X66632855Y-92106546D01*
X66649575Y-92125842D01*
X66779500Y-92311395D01*
X66779505Y-92311401D01*
X66946599Y-92478495D01*
X67043384Y-92546264D01*
X67140165Y-92614032D01*
X67140167Y-92614033D01*
X67140170Y-92614035D01*
X67354337Y-92713903D01*
X67582592Y-92775063D01*
X67770918Y-92791539D01*
X67817999Y-92795659D01*
X67818000Y-92795659D01*
X67818001Y-92795659D01*
X67857234Y-92792226D01*
X68053408Y-92775063D01*
X68281663Y-92713903D01*
X68495830Y-92614035D01*
X68689401Y-92478495D01*
X68856495Y-92311401D01*
X68986426Y-92125841D01*
X69041002Y-92082217D01*
X69110500Y-92075023D01*
X69172855Y-92106546D01*
X69189575Y-92125842D01*
X69319500Y-92311395D01*
X69319505Y-92311401D01*
X69486599Y-92478495D01*
X69583384Y-92546265D01*
X69680165Y-92614032D01*
X69680167Y-92614033D01*
X69680170Y-92614035D01*
X69894337Y-92713903D01*
X70122592Y-92775063D01*
X70310918Y-92791539D01*
X70357999Y-92795659D01*
X70358000Y-92795659D01*
X70358001Y-92795659D01*
X70397234Y-92792226D01*
X70593408Y-92775063D01*
X70821663Y-92713903D01*
X71035830Y-92614035D01*
X71229401Y-92478495D01*
X71396495Y-92311401D01*
X71526426Y-92125841D01*
X71581002Y-92082217D01*
X71650500Y-92075023D01*
X71712855Y-92106546D01*
X71729575Y-92125842D01*
X71859500Y-92311395D01*
X71859505Y-92311401D01*
X72026599Y-92478495D01*
X72217624Y-92612252D01*
X72261248Y-92666828D01*
X72270500Y-92713826D01*
X72270500Y-92906718D01*
X72250815Y-92973757D01*
X72234181Y-92994399D01*
X71150400Y-94078181D01*
X71089077Y-94111666D01*
X71062719Y-94114500D01*
X64963947Y-94114500D01*
X64896908Y-94094815D01*
X64871800Y-94073476D01*
X64867871Y-94069112D01*
X64867869Y-94069111D01*
X64867867Y-94069108D01*
X64867864Y-94069106D01*
X64714734Y-93957851D01*
X64714729Y-93957848D01*
X64541807Y-93880857D01*
X64541802Y-93880855D01*
X64367311Y-93843767D01*
X64356646Y-93841500D01*
X64167354Y-93841500D01*
X64156689Y-93843767D01*
X63982197Y-93880855D01*
X63982192Y-93880857D01*
X63809270Y-93957848D01*
X63809265Y-93957851D01*
X63656129Y-94069111D01*
X63529466Y-94209785D01*
X63434821Y-94373715D01*
X63434818Y-94373722D01*
X63378347Y-94547523D01*
X63376326Y-94553744D01*
X63359735Y-94711600D01*
X63356540Y-94742002D01*
X63356540Y-94748498D01*
X63354641Y-94748498D01*
X63343718Y-94808258D01*
X63295990Y-94859286D01*
X63232961Y-94876500D01*
X59518967Y-94876500D01*
X59503319Y-94874772D01*
X59503293Y-94875054D01*
X59495525Y-94874319D01*
X59426154Y-94876500D01*
X59396521Y-94876500D01*
X59389607Y-94877373D01*
X59383790Y-94877830D01*
X59337058Y-94879299D01*
X59337054Y-94879300D01*
X59317722Y-94884916D01*
X59298682Y-94888859D01*
X59278712Y-94891382D01*
X59278708Y-94891383D01*
X59235237Y-94908594D01*
X59229710Y-94910486D01*
X59184812Y-94923530D01*
X59184805Y-94923533D01*
X59167480Y-94933779D01*
X59150010Y-94942337D01*
X59131298Y-94949745D01*
X59093463Y-94977233D01*
X59088580Y-94980440D01*
X59048346Y-95004234D01*
X59034106Y-95018474D01*
X59019320Y-95031102D01*
X59003033Y-95042936D01*
X59003032Y-95042936D01*
X58973227Y-95078963D01*
X58969295Y-95083285D01*
X52700953Y-101351626D01*
X52688669Y-101361469D01*
X52688849Y-101361687D01*
X52682838Y-101366659D01*
X52635322Y-101417258D01*
X52614375Y-101438205D01*
X52610106Y-101443709D01*
X52606315Y-101448147D01*
X52574308Y-101482230D01*
X52574305Y-101482234D01*
X52564606Y-101499877D01*
X52553928Y-101516133D01*
X52541594Y-101532034D01*
X52541589Y-101532042D01*
X52523025Y-101574943D01*
X52520454Y-101580191D01*
X52497927Y-101621167D01*
X52492920Y-101640668D01*
X52486621Y-101659064D01*
X52479893Y-101674612D01*
X52478625Y-101677544D01*
X52478624Y-101677546D01*
X52471312Y-101723716D01*
X52470127Y-101729438D01*
X52458500Y-101774723D01*
X52458500Y-101794858D01*
X52456973Y-101814255D01*
X52453825Y-101834133D01*
X52457186Y-101869687D01*
X52458225Y-101880677D01*
X52458500Y-101886515D01*
X52458500Y-131997032D01*
X52456772Y-132012681D01*
X52457054Y-132012708D01*
X52456319Y-132020475D01*
X52458500Y-132089859D01*
X52458500Y-132119477D01*
X52459371Y-132126380D01*
X52459829Y-132132199D01*
X52461298Y-132178942D01*
X52466916Y-132198275D01*
X52470862Y-132217329D01*
X52473383Y-132237287D01*
X52473386Y-132237299D01*
X52490595Y-132280765D01*
X52492487Y-132286293D01*
X52505530Y-132331187D01*
X52505530Y-132331188D01*
X52515777Y-132348515D01*
X52524335Y-132365985D01*
X52531745Y-132384701D01*
X52559229Y-132422529D01*
X52562437Y-132427413D01*
X52586234Y-132467652D01*
X52586240Y-132467660D01*
X52600469Y-132481888D01*
X52613109Y-132496687D01*
X52624934Y-132512964D01*
X52624936Y-132512965D01*
X52624937Y-132512967D01*
X52660957Y-132542765D01*
X52665268Y-132546687D01*
X66520762Y-146402181D01*
X79761624Y-159643043D01*
X79771471Y-159655333D01*
X79771689Y-159655154D01*
X79776657Y-159661160D01*
X79827257Y-159708677D01*
X79848201Y-159729620D01*
X79848207Y-159729626D01*
X79853697Y-159733883D01*
X79858148Y-159737684D01*
X79892235Y-159769695D01*
X79892237Y-159769696D01*
X79909867Y-159779387D01*
X79926135Y-159790072D01*
X79942038Y-159802408D01*
X79942040Y-159802409D01*
X79942042Y-159802410D01*
X79963380Y-159811643D01*
X79984943Y-159820974D01*
X79990190Y-159823545D01*
X80011734Y-159835389D01*
X80031166Y-159846072D01*
X80050667Y-159851079D01*
X80069061Y-159857376D01*
X80087541Y-159865373D01*
X80133716Y-159872685D01*
X80139419Y-159873866D01*
X80184728Y-159885500D01*
X80204859Y-159885500D01*
X80224256Y-159887026D01*
X80244133Y-159890175D01*
X80287064Y-159886116D01*
X80290679Y-159885775D01*
X80296517Y-159885500D01*
X93160719Y-159885500D01*
X93227758Y-159905185D01*
X93248400Y-159921819D01*
X96872181Y-163545600D01*
X96905666Y-163606923D01*
X96908500Y-163633281D01*
X96908500Y-165858173D01*
X96888815Y-165925212D01*
X96855624Y-165959748D01*
X96664594Y-166093508D01*
X96497505Y-166260597D01*
X96367575Y-166446158D01*
X96312998Y-166489783D01*
X96243500Y-166496977D01*
X96181145Y-166465454D01*
X96164425Y-166446158D01*
X96034494Y-166260597D01*
X95867402Y-166093506D01*
X95867395Y-166093501D01*
X95673834Y-165957967D01*
X95673830Y-165957965D01*
X95673828Y-165957964D01*
X95459663Y-165858097D01*
X95459659Y-165858096D01*
X95459655Y-165858094D01*
X95231413Y-165796938D01*
X95231403Y-165796936D01*
X94996001Y-165776341D01*
X94995999Y-165776341D01*
X94760596Y-165796936D01*
X94760586Y-165796938D01*
X94532344Y-165858094D01*
X94532335Y-165858098D01*
X94318171Y-165957964D01*
X94318169Y-165957965D01*
X94124597Y-166093505D01*
X93957505Y-166260597D01*
X93827575Y-166446158D01*
X93772998Y-166489783D01*
X93703500Y-166496977D01*
X93641145Y-166465454D01*
X93624425Y-166446158D01*
X93494494Y-166260597D01*
X93327402Y-166093506D01*
X93327395Y-166093501D01*
X93133834Y-165957967D01*
X93133830Y-165957965D01*
X93133828Y-165957964D01*
X92919663Y-165858097D01*
X92919659Y-165858096D01*
X92919655Y-165858094D01*
X92691413Y-165796938D01*
X92691403Y-165796936D01*
X92456001Y-165776341D01*
X92455999Y-165776341D01*
X92220596Y-165796936D01*
X92220586Y-165796938D01*
X91992344Y-165858094D01*
X91992335Y-165858098D01*
X91778171Y-165957964D01*
X91778169Y-165957965D01*
X91584597Y-166093505D01*
X91417505Y-166260597D01*
X91287575Y-166446158D01*
X91232998Y-166489783D01*
X91163500Y-166496977D01*
X91101145Y-166465454D01*
X91084425Y-166446158D01*
X90954494Y-166260597D01*
X90787402Y-166093506D01*
X90787395Y-166093501D01*
X90593834Y-165957967D01*
X90593830Y-165957965D01*
X90593828Y-165957964D01*
X90379663Y-165858097D01*
X90379659Y-165858096D01*
X90379655Y-165858094D01*
X90151413Y-165796938D01*
X90151403Y-165796936D01*
X89916001Y-165776341D01*
X89915999Y-165776341D01*
X89680596Y-165796936D01*
X89680586Y-165796938D01*
X89452344Y-165858094D01*
X89452335Y-165858098D01*
X89238171Y-165957964D01*
X89238169Y-165957965D01*
X89044600Y-166093503D01*
X88922673Y-166215430D01*
X88861350Y-166248914D01*
X88791658Y-166243930D01*
X88735725Y-166202058D01*
X88718810Y-166171081D01*
X88669797Y-166039671D01*
X88669793Y-166039664D01*
X88583547Y-165924455D01*
X88583544Y-165924452D01*
X88468335Y-165838206D01*
X88468328Y-165838202D01*
X88333482Y-165787908D01*
X88333483Y-165787908D01*
X88273883Y-165781501D01*
X88273881Y-165781500D01*
X88273873Y-165781500D01*
X88273864Y-165781500D01*
X86478129Y-165781500D01*
X86478123Y-165781501D01*
X86418516Y-165787908D01*
X86283671Y-165838202D01*
X86283664Y-165838206D01*
X86168455Y-165924452D01*
X86168452Y-165924455D01*
X86082206Y-166039664D01*
X86082202Y-166039671D01*
X86031908Y-166174517D01*
X86025501Y-166234116D01*
X86025500Y-166234135D01*
X86025500Y-168029870D01*
X86025501Y-168029876D01*
X86031908Y-168089483D01*
X86082202Y-168224328D01*
X86082206Y-168224335D01*
X86168452Y-168339544D01*
X86168455Y-168339547D01*
X86283664Y-168425793D01*
X86283671Y-168425797D01*
X86418517Y-168476091D01*
X86418516Y-168476091D01*
X86425444Y-168476835D01*
X86478127Y-168482500D01*
X88273872Y-168482499D01*
X88333483Y-168476091D01*
X88468331Y-168425796D01*
X88583546Y-168339546D01*
X88669796Y-168224331D01*
X88718810Y-168092916D01*
X88760681Y-168036984D01*
X88826145Y-168012566D01*
X88894418Y-168027417D01*
X88922673Y-168048569D01*
X89044599Y-168170495D01*
X89141384Y-168238264D01*
X89238165Y-168306032D01*
X89238167Y-168306033D01*
X89238170Y-168306035D01*
X89452337Y-168405903D01*
X89680592Y-168467063D01*
X89857034Y-168482500D01*
X89915999Y-168487659D01*
X89916000Y-168487659D01*
X89916001Y-168487659D01*
X89974966Y-168482500D01*
X90151408Y-168467063D01*
X90379663Y-168405903D01*
X90593830Y-168306035D01*
X90787401Y-168170495D01*
X90954495Y-168003401D01*
X91084426Y-167817841D01*
X91139002Y-167774217D01*
X91208500Y-167767023D01*
X91270855Y-167798546D01*
X91287575Y-167817842D01*
X91417500Y-168003395D01*
X91417505Y-168003401D01*
X91584599Y-168170495D01*
X91681384Y-168238264D01*
X91778165Y-168306032D01*
X91778167Y-168306033D01*
X91778170Y-168306035D01*
X91992337Y-168405903D01*
X92220592Y-168467063D01*
X92397034Y-168482500D01*
X92455999Y-168487659D01*
X92456000Y-168487659D01*
X92456001Y-168487659D01*
X92514966Y-168482500D01*
X92691408Y-168467063D01*
X92919663Y-168405903D01*
X93133830Y-168306035D01*
X93327401Y-168170495D01*
X93494495Y-168003401D01*
X93624426Y-167817840D01*
X93679001Y-167774217D01*
X93748499Y-167767023D01*
X93810854Y-167798546D01*
X93827574Y-167817841D01*
X93957505Y-168003401D01*
X94124599Y-168170495D01*
X94221384Y-168238264D01*
X94318165Y-168306032D01*
X94318167Y-168306033D01*
X94318170Y-168306035D01*
X94532337Y-168405903D01*
X94760592Y-168467063D01*
X94937034Y-168482500D01*
X94995999Y-168487659D01*
X94996000Y-168487659D01*
X94996001Y-168487659D01*
X95054966Y-168482500D01*
X95231408Y-168467063D01*
X95459663Y-168405903D01*
X95673830Y-168306035D01*
X95867401Y-168170495D01*
X96034495Y-168003401D01*
X96164426Y-167817841D01*
X96219002Y-167774217D01*
X96288500Y-167767023D01*
X96350855Y-167798546D01*
X96367575Y-167817842D01*
X96497500Y-168003395D01*
X96497505Y-168003401D01*
X96664599Y-168170495D01*
X96761384Y-168238264D01*
X96858165Y-168306032D01*
X96858167Y-168306033D01*
X96858170Y-168306035D01*
X97072337Y-168405903D01*
X97300592Y-168467063D01*
X97477034Y-168482500D01*
X97535999Y-168487659D01*
X97536000Y-168487659D01*
X97536001Y-168487659D01*
X97594966Y-168482500D01*
X97771408Y-168467063D01*
X97999663Y-168405903D01*
X98213830Y-168306035D01*
X98407401Y-168170495D01*
X98574495Y-168003401D01*
X98704426Y-167817840D01*
X98759001Y-167774217D01*
X98828499Y-167767023D01*
X98890854Y-167798546D01*
X98907574Y-167817841D01*
X99037505Y-168003401D01*
X99204599Y-168170495D01*
X99301384Y-168238264D01*
X99398165Y-168306032D01*
X99398167Y-168306033D01*
X99398170Y-168306035D01*
X99612337Y-168405903D01*
X99840592Y-168467063D01*
X100017034Y-168482500D01*
X100075999Y-168487659D01*
X100076000Y-168487659D01*
X100076001Y-168487659D01*
X100134966Y-168482500D01*
X100311408Y-168467063D01*
X100539663Y-168405903D01*
X100753830Y-168306035D01*
X100947401Y-168170495D01*
X101114495Y-168003401D01*
X101244426Y-167817841D01*
X101299002Y-167774217D01*
X101368500Y-167767023D01*
X101430855Y-167798546D01*
X101447575Y-167817842D01*
X101577500Y-168003395D01*
X101577505Y-168003401D01*
X101744599Y-168170495D01*
X101841384Y-168238264D01*
X101938165Y-168306032D01*
X101938167Y-168306033D01*
X101938170Y-168306035D01*
X102152337Y-168405903D01*
X102380592Y-168467063D01*
X102557034Y-168482500D01*
X102615999Y-168487659D01*
X102616000Y-168487659D01*
X102616001Y-168487659D01*
X102674966Y-168482500D01*
X102851408Y-168467063D01*
X103079663Y-168405903D01*
X103293830Y-168306035D01*
X103487401Y-168170495D01*
X103654495Y-168003401D01*
X103784426Y-167817840D01*
X103839001Y-167774217D01*
X103908499Y-167767023D01*
X103970854Y-167798546D01*
X103987574Y-167817841D01*
X104117505Y-168003401D01*
X104284599Y-168170495D01*
X104381384Y-168238264D01*
X104478165Y-168306032D01*
X104478167Y-168306033D01*
X104478170Y-168306035D01*
X104692337Y-168405903D01*
X104920592Y-168467063D01*
X105097034Y-168482500D01*
X105155999Y-168487659D01*
X105156000Y-168487659D01*
X105156001Y-168487659D01*
X105214966Y-168482500D01*
X105391408Y-168467063D01*
X105619663Y-168405903D01*
X105833830Y-168306035D01*
X106027401Y-168170495D01*
X106194495Y-168003401D01*
X106330035Y-167809830D01*
X106429903Y-167595663D01*
X106491063Y-167367408D01*
X106511659Y-167132000D01*
X106491063Y-166896592D01*
X106429903Y-166668337D01*
X106330035Y-166454171D01*
X106324425Y-166446158D01*
X106194494Y-166260597D01*
X106027402Y-166093506D01*
X106027395Y-166093501D01*
X105833834Y-165957967D01*
X105833830Y-165957965D01*
X105833828Y-165957964D01*
X105619663Y-165858097D01*
X105619659Y-165858096D01*
X105619655Y-165858094D01*
X105391413Y-165796938D01*
X105391403Y-165796936D01*
X105156001Y-165776341D01*
X105155999Y-165776341D01*
X104920596Y-165796936D01*
X104920586Y-165796938D01*
X104692344Y-165858094D01*
X104692335Y-165858098D01*
X104478171Y-165957964D01*
X104478169Y-165957965D01*
X104284597Y-166093505D01*
X104117505Y-166260597D01*
X103987575Y-166446158D01*
X103932998Y-166489783D01*
X103863500Y-166496977D01*
X103801145Y-166465454D01*
X103784425Y-166446158D01*
X103654494Y-166260597D01*
X103487402Y-166093506D01*
X103487395Y-166093501D01*
X103293834Y-165957967D01*
X103293830Y-165957965D01*
X103293828Y-165957964D01*
X103079663Y-165858097D01*
X103079659Y-165858096D01*
X103079655Y-165858094D01*
X102851413Y-165796938D01*
X102851403Y-165796936D01*
X102616001Y-165776341D01*
X102615999Y-165776341D01*
X102380596Y-165796936D01*
X102380586Y-165796938D01*
X102152344Y-165858094D01*
X102152335Y-165858098D01*
X101938171Y-165957964D01*
X101938169Y-165957965D01*
X101744597Y-166093505D01*
X101577508Y-166260594D01*
X101447574Y-166446159D01*
X101392997Y-166489784D01*
X101323498Y-166496976D01*
X101261144Y-166465454D01*
X101244424Y-166446158D01*
X101114494Y-166260597D01*
X100947402Y-166093506D01*
X100947395Y-166093501D01*
X100753834Y-165957967D01*
X100753830Y-165957965D01*
X100753828Y-165957964D01*
X100539663Y-165858097D01*
X100539659Y-165858096D01*
X100539655Y-165858094D01*
X100311413Y-165796938D01*
X100311403Y-165796936D01*
X100076001Y-165776341D01*
X100075999Y-165776341D01*
X99840596Y-165796936D01*
X99840586Y-165796938D01*
X99612344Y-165858094D01*
X99612335Y-165858098D01*
X99398171Y-165957964D01*
X99398169Y-165957965D01*
X99204597Y-166093505D01*
X99037505Y-166260597D01*
X98907575Y-166446158D01*
X98852998Y-166489783D01*
X98783500Y-166496977D01*
X98721145Y-166465454D01*
X98704425Y-166446158D01*
X98574494Y-166260597D01*
X98407402Y-166093506D01*
X98407396Y-166093501D01*
X98216376Y-165959748D01*
X98172751Y-165905171D01*
X98163500Y-165858178D01*
X98163500Y-163404963D01*
X98165228Y-163389313D01*
X98164946Y-163389287D01*
X98165680Y-163381524D01*
X98163500Y-163312140D01*
X98163500Y-163282530D01*
X98163500Y-163282524D01*
X98162626Y-163275607D01*
X98162169Y-163269792D01*
X98160701Y-163223057D01*
X98155084Y-163203727D01*
X98151138Y-163184668D01*
X98148617Y-163164711D01*
X98148616Y-163164709D01*
X98148616Y-163164707D01*
X98131403Y-163121234D01*
X98129514Y-163115713D01*
X98116467Y-163070807D01*
X98106225Y-163053489D01*
X98097662Y-163036011D01*
X98090253Y-163017297D01*
X98090253Y-163017296D01*
X98062771Y-162979472D01*
X98059567Y-162974596D01*
X98035763Y-162934344D01*
X98035761Y-162934342D01*
X98035759Y-162934339D01*
X98021531Y-162920112D01*
X98008896Y-162905320D01*
X97997063Y-162889033D01*
X97997060Y-162889031D01*
X97997060Y-162889030D01*
X97997059Y-162889029D01*
X97961035Y-162859228D01*
X97956713Y-162855294D01*
X93974376Y-158872957D01*
X93964531Y-158860668D01*
X93964313Y-158860849D01*
X93959340Y-158854838D01*
X93959340Y-158854837D01*
X93908741Y-158807322D01*
X93898268Y-158796849D01*
X93887797Y-158786377D01*
X93882296Y-158782111D01*
X93877848Y-158778312D01*
X93843768Y-158746308D01*
X93843763Y-158746304D01*
X93826122Y-158736606D01*
X93809857Y-158725922D01*
X93793963Y-158713593D01*
X93793962Y-158713592D01*
X93778804Y-158707032D01*
X93751054Y-158695023D01*
X93745807Y-158692453D01*
X93704837Y-158669929D01*
X93704828Y-158669926D01*
X93685334Y-158664920D01*
X93666933Y-158658620D01*
X93648459Y-158650626D01*
X93648452Y-158650624D01*
X93602287Y-158643313D01*
X93596563Y-158642128D01*
X93551279Y-158630500D01*
X93551272Y-158630500D01*
X93531142Y-158630500D01*
X93511743Y-158628973D01*
X93491868Y-158625825D01*
X93491867Y-158625825D01*
X93445321Y-158630225D01*
X93439483Y-158630500D01*
X80575281Y-158630500D01*
X80508242Y-158610815D01*
X80487600Y-158594181D01*
X53749818Y-131856399D01*
X53716333Y-131795076D01*
X53713499Y-131768727D01*
X53713499Y-102165280D01*
X53733184Y-102098242D01*
X53749818Y-102077600D01*
X59659600Y-96167819D01*
X59720923Y-96134334D01*
X59747281Y-96131500D01*
X60413616Y-96131500D01*
X60480655Y-96151185D01*
X60526410Y-96203989D01*
X60536354Y-96273147D01*
X60509156Y-96334545D01*
X60497226Y-96348964D01*
X60493295Y-96353285D01*
X54986953Y-101859626D01*
X54974669Y-101869469D01*
X54974849Y-101869687D01*
X54968838Y-101874659D01*
X54921322Y-101925258D01*
X54900375Y-101946205D01*
X54896106Y-101951709D01*
X54892315Y-101956147D01*
X54860308Y-101990230D01*
X54860305Y-101990234D01*
X54850606Y-102007877D01*
X54839928Y-102024133D01*
X54827594Y-102040034D01*
X54827589Y-102040042D01*
X54809025Y-102082943D01*
X54806454Y-102088191D01*
X54783927Y-102129167D01*
X54778920Y-102148668D01*
X54772621Y-102167064D01*
X54765893Y-102182612D01*
X54764625Y-102185544D01*
X54764624Y-102185546D01*
X54757312Y-102231716D01*
X54756127Y-102237438D01*
X54744500Y-102282723D01*
X54744500Y-102302858D01*
X54742973Y-102322257D01*
X54739825Y-102342131D01*
X54744225Y-102388677D01*
X54744500Y-102394515D01*
X54744500Y-106597032D01*
X54742772Y-106612681D01*
X54743054Y-106612708D01*
X54742319Y-106620475D01*
X54744500Y-106689859D01*
X54744500Y-106719477D01*
X54745371Y-106726380D01*
X54745829Y-106732199D01*
X54747298Y-106778942D01*
X54752916Y-106798275D01*
X54756862Y-106817329D01*
X54759383Y-106837287D01*
X54759386Y-106837299D01*
X54776595Y-106880765D01*
X54778487Y-106886293D01*
X54791530Y-106931187D01*
X54791530Y-106931188D01*
X54801777Y-106948515D01*
X54810335Y-106965985D01*
X54817745Y-106984701D01*
X54845229Y-107022529D01*
X54848437Y-107027413D01*
X54872234Y-107067652D01*
X54872240Y-107067660D01*
X54886469Y-107081888D01*
X54899109Y-107096687D01*
X54910934Y-107112964D01*
X54910936Y-107112965D01*
X54910937Y-107112967D01*
X54946957Y-107142765D01*
X54951268Y-107146687D01*
X55976424Y-108171843D01*
X56973371Y-109168790D01*
X57006856Y-109230113D01*
X57009010Y-109243505D01*
X57026326Y-109408256D01*
X57026327Y-109408259D01*
X57084818Y-109588277D01*
X57084821Y-109588284D01*
X57179467Y-109752216D01*
X57306129Y-109892887D01*
X57306129Y-109892888D01*
X57459265Y-110004148D01*
X57459270Y-110004151D01*
X57632192Y-110081142D01*
X57632197Y-110081144D01*
X57817354Y-110120500D01*
X57817355Y-110120500D01*
X58006644Y-110120500D01*
X58006646Y-110120500D01*
X58191803Y-110081144D01*
X58364730Y-110004151D01*
X58517871Y-109892888D01*
X58644533Y-109752216D01*
X58739179Y-109588284D01*
X58797674Y-109408256D01*
X58817460Y-109220000D01*
X58797674Y-109031744D01*
X58739179Y-108851716D01*
X58644533Y-108687784D01*
X58517871Y-108547112D01*
X58517870Y-108547111D01*
X58364734Y-108435851D01*
X58364729Y-108435848D01*
X58191807Y-108358857D01*
X58191802Y-108358855D01*
X58044528Y-108327552D01*
X58006646Y-108319500D01*
X58006645Y-108319500D01*
X57950281Y-108319500D01*
X57883242Y-108299815D01*
X57862600Y-108283181D01*
X56035818Y-106456399D01*
X56002333Y-106395076D01*
X55999499Y-106368718D01*
X55999499Y-104553578D01*
X55999499Y-102673277D01*
X56019184Y-102606242D01*
X56035813Y-102585605D01*
X59307417Y-99314000D01*
X60366341Y-99314000D01*
X60386936Y-99549403D01*
X60386938Y-99549413D01*
X60448094Y-99777655D01*
X60448096Y-99777659D01*
X60448097Y-99777663D01*
X60528004Y-99949023D01*
X60547965Y-99991830D01*
X60547967Y-99991834D01*
X60639377Y-100122380D01*
X60683505Y-100185401D01*
X60850599Y-100352495D01*
X60893021Y-100382199D01*
X61044165Y-100488032D01*
X61044167Y-100488033D01*
X61044170Y-100488035D01*
X61258337Y-100587903D01*
X61486592Y-100649063D01*
X61674918Y-100665539D01*
X61721999Y-100669659D01*
X61722000Y-100669659D01*
X61722001Y-100669659D01*
X61761234Y-100666226D01*
X61957408Y-100649063D01*
X62185663Y-100587903D01*
X62399830Y-100488035D01*
X62593401Y-100352495D01*
X62760495Y-100185401D01*
X62890424Y-99999842D01*
X62945002Y-99956217D01*
X63014500Y-99949023D01*
X63076855Y-99980546D01*
X63093575Y-99999842D01*
X63223500Y-100185395D01*
X63223505Y-100185401D01*
X63390599Y-100352495D01*
X63433021Y-100382199D01*
X63584165Y-100488032D01*
X63584167Y-100488033D01*
X63584170Y-100488035D01*
X63798337Y-100587903D01*
X64026592Y-100649063D01*
X64214918Y-100665539D01*
X64261999Y-100669659D01*
X64262000Y-100669659D01*
X64262001Y-100669659D01*
X64301234Y-100666226D01*
X64497408Y-100649063D01*
X64725663Y-100587903D01*
X64939830Y-100488035D01*
X65133401Y-100352495D01*
X65300495Y-100185401D01*
X65430424Y-99999842D01*
X65485002Y-99956217D01*
X65554500Y-99949023D01*
X65616855Y-99980546D01*
X65633575Y-99999842D01*
X65763500Y-100185395D01*
X65763505Y-100185401D01*
X65930599Y-100352495D01*
X65973021Y-100382199D01*
X66124165Y-100488032D01*
X66124167Y-100488033D01*
X66124170Y-100488035D01*
X66338337Y-100587903D01*
X66566592Y-100649063D01*
X66754918Y-100665539D01*
X66801999Y-100669659D01*
X66802000Y-100669659D01*
X66802001Y-100669659D01*
X66841234Y-100666226D01*
X67037408Y-100649063D01*
X67265663Y-100587903D01*
X67479830Y-100488035D01*
X67673401Y-100352495D01*
X67840495Y-100185401D01*
X67970424Y-99999842D01*
X68025002Y-99956217D01*
X68094500Y-99949023D01*
X68156855Y-99980546D01*
X68173575Y-99999842D01*
X68303500Y-100185395D01*
X68303505Y-100185401D01*
X68470599Y-100352495D01*
X68513021Y-100382199D01*
X68664165Y-100488032D01*
X68664167Y-100488033D01*
X68664170Y-100488035D01*
X68878337Y-100587903D01*
X69106592Y-100649063D01*
X69294918Y-100665539D01*
X69341999Y-100669659D01*
X69342000Y-100669659D01*
X69342001Y-100669659D01*
X69381234Y-100666226D01*
X69577408Y-100649063D01*
X69805663Y-100587903D01*
X70019830Y-100488035D01*
X70213401Y-100352495D01*
X70380495Y-100185401D01*
X70510424Y-99999842D01*
X70565002Y-99956217D01*
X70634500Y-99949023D01*
X70696855Y-99980546D01*
X70713575Y-99999842D01*
X70843500Y-100185395D01*
X70843505Y-100185401D01*
X71010599Y-100352495D01*
X71053021Y-100382199D01*
X71204165Y-100488032D01*
X71204167Y-100488033D01*
X71204170Y-100488035D01*
X71418337Y-100587903D01*
X71646592Y-100649063D01*
X71844705Y-100666396D01*
X71887394Y-100670131D01*
X71887238Y-100671913D01*
X71946598Y-100689344D01*
X71992353Y-100742148D01*
X72002297Y-100811306D01*
X71973272Y-100874862D01*
X71967240Y-100881340D01*
X63876953Y-108971626D01*
X63864669Y-108981469D01*
X63864849Y-108981687D01*
X63858838Y-108986659D01*
X63811322Y-109037258D01*
X63790375Y-109058205D01*
X63786106Y-109063709D01*
X63782315Y-109068147D01*
X63750308Y-109102230D01*
X63750305Y-109102234D01*
X63740606Y-109119877D01*
X63729928Y-109136133D01*
X63717594Y-109152034D01*
X63717589Y-109152042D01*
X63699025Y-109194943D01*
X63696454Y-109200191D01*
X63673927Y-109241167D01*
X63668920Y-109260668D01*
X63662621Y-109279064D01*
X63655893Y-109294612D01*
X63654625Y-109297544D01*
X63654624Y-109297546D01*
X63647312Y-109343716D01*
X63646127Y-109349438D01*
X63634500Y-109394723D01*
X63634500Y-109414858D01*
X63632973Y-109434257D01*
X63629825Y-109454131D01*
X63629824Y-109454132D01*
X63634224Y-109500675D01*
X63634499Y-109506512D01*
X63634498Y-132399534D01*
X63614813Y-132466573D01*
X63602649Y-132482505D01*
X63529468Y-132563782D01*
X63529464Y-132563787D01*
X63434821Y-132727715D01*
X63434818Y-132727722D01*
X63376394Y-132907534D01*
X63376326Y-132907744D01*
X63356540Y-133096000D01*
X63376326Y-133284256D01*
X63376327Y-133284259D01*
X63434818Y-133464277D01*
X63434821Y-133464284D01*
X63529467Y-133628216D01*
X63656128Y-133768887D01*
X63656129Y-133768888D01*
X63809265Y-133880148D01*
X63809270Y-133880151D01*
X63982192Y-133957142D01*
X63982197Y-133957144D01*
X64167354Y-133996500D01*
X64167355Y-133996500D01*
X64356644Y-133996500D01*
X64356646Y-133996500D01*
X64541803Y-133957144D01*
X64714730Y-133880151D01*
X64867871Y-133768888D01*
X64994533Y-133628216D01*
X65089179Y-133464284D01*
X65147674Y-133284256D01*
X65167460Y-133096000D01*
X65147674Y-132907744D01*
X65089179Y-132727716D01*
X64994533Y-132563784D01*
X64921350Y-132482506D01*
X64891120Y-132419515D01*
X64889500Y-132399534D01*
X64889500Y-122088341D01*
X64889500Y-109785276D01*
X64909184Y-109718241D01*
X64925813Y-109697604D01*
X65435972Y-109187445D01*
X65497293Y-109153962D01*
X65566985Y-109158946D01*
X65622918Y-109200818D01*
X65646971Y-109262164D01*
X65662326Y-109408256D01*
X65662327Y-109408259D01*
X65720818Y-109588277D01*
X65720821Y-109588284D01*
X65795851Y-109718241D01*
X65815467Y-109752216D01*
X65888651Y-109833494D01*
X65918880Y-109896484D01*
X65920500Y-109916465D01*
X65920500Y-132399534D01*
X65900815Y-132466573D01*
X65888650Y-132482506D01*
X65815466Y-132563785D01*
X65720821Y-132727715D01*
X65720818Y-132727722D01*
X65662394Y-132907534D01*
X65662326Y-132907744D01*
X65642540Y-133096000D01*
X65662326Y-133284256D01*
X65662327Y-133284259D01*
X65720818Y-133464277D01*
X65720821Y-133464284D01*
X65815467Y-133628216D01*
X65942128Y-133768887D01*
X65942129Y-133768888D01*
X66095265Y-133880148D01*
X66095270Y-133880151D01*
X66268192Y-133957142D01*
X66268197Y-133957144D01*
X66453354Y-133996500D01*
X66453355Y-133996500D01*
X66642644Y-133996500D01*
X66642646Y-133996500D01*
X66827803Y-133957144D01*
X67000730Y-133880151D01*
X67153871Y-133768888D01*
X67280533Y-133628216D01*
X67375179Y-133464284D01*
X67433674Y-133284256D01*
X67453460Y-133096000D01*
X67433674Y-132907744D01*
X67375179Y-132727716D01*
X67280533Y-132563784D01*
X67207350Y-132482506D01*
X67177120Y-132419515D01*
X67175500Y-132399534D01*
X67175500Y-109916465D01*
X67195185Y-109849426D01*
X67207343Y-109833500D01*
X67280533Y-109752216D01*
X67375179Y-109588284D01*
X67433674Y-109408256D01*
X67453460Y-109220000D01*
X67433674Y-109031744D01*
X67375179Y-108851716D01*
X67280533Y-108687784D01*
X67153871Y-108547112D01*
X67153870Y-108547111D01*
X67000734Y-108435851D01*
X67000729Y-108435848D01*
X66827807Y-108358857D01*
X66827802Y-108358855D01*
X66680528Y-108327552D01*
X66642646Y-108319500D01*
X66603280Y-108319500D01*
X66536241Y-108299815D01*
X66490486Y-108247011D01*
X66480542Y-108177853D01*
X66509567Y-108114297D01*
X66515599Y-108107819D01*
X70194653Y-104428765D01*
X73968584Y-100654833D01*
X74029905Y-100621350D01*
X74088356Y-100622741D01*
X74127689Y-100633280D01*
X74186592Y-100649063D01*
X74374918Y-100665539D01*
X74421999Y-100669659D01*
X74422000Y-100669659D01*
X74422001Y-100669659D01*
X74461234Y-100666226D01*
X74657408Y-100649063D01*
X74885663Y-100587903D01*
X75099830Y-100488035D01*
X75293401Y-100352495D01*
X75460495Y-100185401D01*
X75596035Y-99991830D01*
X75695903Y-99777663D01*
X75757063Y-99549408D01*
X75777659Y-99314000D01*
X75757063Y-99078592D01*
X75710626Y-98905285D01*
X75695905Y-98850344D01*
X75695904Y-98850343D01*
X75695903Y-98850337D01*
X75596035Y-98636171D01*
X75590425Y-98628158D01*
X75460494Y-98442597D01*
X75293402Y-98275506D01*
X75293395Y-98275501D01*
X75099834Y-98139967D01*
X75099830Y-98139965D01*
X75099829Y-98139964D01*
X74885663Y-98040097D01*
X74885659Y-98040096D01*
X74885655Y-98040094D01*
X74657413Y-97978938D01*
X74657403Y-97978936D01*
X74422001Y-97958341D01*
X74421999Y-97958341D01*
X74186596Y-97978936D01*
X74186586Y-97978938D01*
X73958344Y-98040094D01*
X73958335Y-98040098D01*
X73744171Y-98139964D01*
X73744169Y-98139965D01*
X73550597Y-98275505D01*
X73383505Y-98442597D01*
X73253575Y-98628158D01*
X73198998Y-98671783D01*
X73129500Y-98678977D01*
X73067145Y-98647454D01*
X73050425Y-98628158D01*
X72920494Y-98442597D01*
X72753402Y-98275506D01*
X72753395Y-98275501D01*
X72559834Y-98139967D01*
X72559830Y-98139965D01*
X72559829Y-98139964D01*
X72345663Y-98040097D01*
X72345659Y-98040096D01*
X72345655Y-98040094D01*
X72117413Y-97978938D01*
X72117403Y-97978936D01*
X71882001Y-97958341D01*
X71881999Y-97958341D01*
X71646596Y-97978936D01*
X71646586Y-97978938D01*
X71418344Y-98040094D01*
X71418335Y-98040098D01*
X71204171Y-98139964D01*
X71204169Y-98139965D01*
X71010597Y-98275505D01*
X70843505Y-98442597D01*
X70713575Y-98628158D01*
X70658998Y-98671783D01*
X70589500Y-98678977D01*
X70527145Y-98647454D01*
X70510425Y-98628158D01*
X70380494Y-98442597D01*
X70213402Y-98275506D01*
X70213395Y-98275501D01*
X70019834Y-98139967D01*
X70019830Y-98139965D01*
X70019829Y-98139964D01*
X69805663Y-98040097D01*
X69805659Y-98040096D01*
X69805655Y-98040094D01*
X69577413Y-97978938D01*
X69577403Y-97978936D01*
X69342001Y-97958341D01*
X69341999Y-97958341D01*
X69106596Y-97978936D01*
X69106586Y-97978938D01*
X68878344Y-98040094D01*
X68878335Y-98040098D01*
X68664171Y-98139964D01*
X68664169Y-98139965D01*
X68470597Y-98275505D01*
X68303505Y-98442597D01*
X68173575Y-98628158D01*
X68118998Y-98671783D01*
X68049500Y-98678977D01*
X67987145Y-98647454D01*
X67970425Y-98628158D01*
X67840494Y-98442597D01*
X67673402Y-98275506D01*
X67673395Y-98275501D01*
X67479834Y-98139967D01*
X67479830Y-98139965D01*
X67479830Y-98139964D01*
X67265663Y-98040097D01*
X67265659Y-98040096D01*
X67265655Y-98040094D01*
X67037413Y-97978938D01*
X67037403Y-97978936D01*
X66802001Y-97958341D01*
X66801999Y-97958341D01*
X66566596Y-97978936D01*
X66566586Y-97978938D01*
X66338344Y-98040094D01*
X66338335Y-98040098D01*
X66124171Y-98139964D01*
X66124169Y-98139965D01*
X65930597Y-98275505D01*
X65763505Y-98442597D01*
X65633575Y-98628158D01*
X65578998Y-98671783D01*
X65509500Y-98678977D01*
X65447145Y-98647454D01*
X65430425Y-98628158D01*
X65300494Y-98442597D01*
X65133402Y-98275506D01*
X65133395Y-98275501D01*
X64939834Y-98139967D01*
X64939830Y-98139965D01*
X64939829Y-98139964D01*
X64725663Y-98040097D01*
X64725659Y-98040096D01*
X64725655Y-98040094D01*
X64497413Y-97978938D01*
X64497403Y-97978936D01*
X64262001Y-97958341D01*
X64261999Y-97958341D01*
X64026596Y-97978936D01*
X64026586Y-97978938D01*
X63798344Y-98040094D01*
X63798335Y-98040098D01*
X63584171Y-98139964D01*
X63584169Y-98139965D01*
X63390597Y-98275505D01*
X63223505Y-98442597D01*
X63093575Y-98628158D01*
X63038998Y-98671783D01*
X62969500Y-98678977D01*
X62907145Y-98647454D01*
X62890425Y-98628158D01*
X62760494Y-98442597D01*
X62593402Y-98275506D01*
X62593395Y-98275501D01*
X62399834Y-98139967D01*
X62399830Y-98139965D01*
X62399829Y-98139964D01*
X62185663Y-98040097D01*
X62185659Y-98040096D01*
X62185655Y-98040094D01*
X61957413Y-97978938D01*
X61957403Y-97978936D01*
X61722001Y-97958341D01*
X61721999Y-97958341D01*
X61486596Y-97978936D01*
X61486586Y-97978938D01*
X61258344Y-98040094D01*
X61258335Y-98040098D01*
X61044171Y-98139964D01*
X61044169Y-98139965D01*
X60850597Y-98275505D01*
X60683505Y-98442597D01*
X60547965Y-98636169D01*
X60547964Y-98636171D01*
X60448098Y-98850335D01*
X60448094Y-98850344D01*
X60386938Y-99078586D01*
X60386936Y-99078596D01*
X60366341Y-99313999D01*
X60366341Y-99314000D01*
X59307417Y-99314000D01*
X61075069Y-97546348D01*
X61136390Y-97512865D01*
X61206082Y-97517849D01*
X61235633Y-97533713D01*
X61269269Y-97558151D01*
X61442192Y-97635142D01*
X61442197Y-97635144D01*
X61627354Y-97674500D01*
X61627355Y-97674500D01*
X61816644Y-97674500D01*
X61816646Y-97674500D01*
X62001803Y-97635144D01*
X62174730Y-97558151D01*
X62327871Y-97446888D01*
X62454533Y-97306216D01*
X62549179Y-97142284D01*
X62607674Y-96962256D01*
X62627460Y-96774000D01*
X62607674Y-96585744D01*
X62549179Y-96405716D01*
X62498247Y-96317499D01*
X62481775Y-96249599D01*
X62504628Y-96183572D01*
X62559550Y-96140382D01*
X62605635Y-96131500D01*
X71799033Y-96131500D01*
X71814681Y-96133227D01*
X71814708Y-96132946D01*
X71822475Y-96133680D01*
X71822476Y-96133679D01*
X71822477Y-96133680D01*
X71891860Y-96131500D01*
X71921476Y-96131500D01*
X71928378Y-96130627D01*
X71934190Y-96130169D01*
X71980943Y-96128701D01*
X72000272Y-96123084D01*
X72019328Y-96119137D01*
X72039293Y-96116616D01*
X72082770Y-96099401D01*
X72088276Y-96097516D01*
X72133191Y-96084468D01*
X72150515Y-96074221D01*
X72167983Y-96065663D01*
X72186703Y-96058253D01*
X72224542Y-96030759D01*
X72229391Y-96027574D01*
X72269656Y-96003763D01*
X72283897Y-95989520D01*
X72298678Y-95976897D01*
X72314967Y-95965063D01*
X72314969Y-95965059D01*
X72314971Y-95965059D01*
X72326845Y-95950703D01*
X72344776Y-95929028D01*
X72348689Y-95924728D01*
X73375599Y-94897819D01*
X73436923Y-94864334D01*
X73463281Y-94861500D01*
X74339033Y-94861500D01*
X74354681Y-94863227D01*
X74354708Y-94862946D01*
X74362475Y-94863680D01*
X74362476Y-94863679D01*
X74362477Y-94863680D01*
X74431860Y-94861500D01*
X74461476Y-94861500D01*
X74468378Y-94860627D01*
X74474190Y-94860169D01*
X74520943Y-94858701D01*
X74540272Y-94853084D01*
X74559328Y-94849137D01*
X74579293Y-94846616D01*
X74622770Y-94829401D01*
X74628276Y-94827516D01*
X74673191Y-94814468D01*
X74690515Y-94804221D01*
X74707983Y-94795663D01*
X74726703Y-94788253D01*
X74764542Y-94760759D01*
X74769391Y-94757574D01*
X74809656Y-94733763D01*
X74823897Y-94719520D01*
X74838678Y-94706897D01*
X74854967Y-94695063D01*
X74854969Y-94695059D01*
X74854971Y-94695059D01*
X74866845Y-94680703D01*
X74884776Y-94659028D01*
X74888689Y-94654728D01*
X75823043Y-93720374D01*
X75835325Y-93710537D01*
X75835144Y-93710318D01*
X75841152Y-93705346D01*
X75841162Y-93705340D01*
X75888677Y-93654741D01*
X75909623Y-93633796D01*
X75913892Y-93628290D01*
X75917676Y-93623859D01*
X75949693Y-93589767D01*
X75959389Y-93572128D01*
X75970073Y-93555861D01*
X75982408Y-93539962D01*
X76000983Y-93497034D01*
X76003534Y-93491827D01*
X76026072Y-93450834D01*
X76031078Y-93431334D01*
X76037376Y-93412936D01*
X76045374Y-93394458D01*
X76052688Y-93348276D01*
X76053872Y-93342556D01*
X76065500Y-93297272D01*
X76065500Y-93277135D01*
X76067027Y-93257741D01*
X76067028Y-93257735D01*
X76070175Y-93237867D01*
X76065775Y-93191321D01*
X76065500Y-93185483D01*
X76065500Y-92713826D01*
X76085185Y-92646787D01*
X76118375Y-92612252D01*
X76309401Y-92478495D01*
X76476495Y-92311401D01*
X76606426Y-92125841D01*
X76661002Y-92082217D01*
X76730500Y-92075023D01*
X76792855Y-92106546D01*
X76809575Y-92125842D01*
X76939500Y-92311395D01*
X76939505Y-92311401D01*
X77106599Y-92478495D01*
X77203384Y-92546265D01*
X77300165Y-92614032D01*
X77300167Y-92614033D01*
X77300170Y-92614035D01*
X77514337Y-92713903D01*
X77742592Y-92775063D01*
X77930918Y-92791539D01*
X77977999Y-92795659D01*
X77978000Y-92795659D01*
X77978001Y-92795659D01*
X78017234Y-92792226D01*
X78213408Y-92775063D01*
X78441663Y-92713903D01*
X78655830Y-92614035D01*
X78849401Y-92478495D01*
X79016495Y-92311401D01*
X79146426Y-92125841D01*
X79201002Y-92082217D01*
X79270500Y-92075023D01*
X79332855Y-92106546D01*
X79349575Y-92125842D01*
X79479500Y-92311395D01*
X79479505Y-92311401D01*
X79646599Y-92478495D01*
X79743384Y-92546265D01*
X79840165Y-92614032D01*
X79840167Y-92614033D01*
X79840170Y-92614035D01*
X80054337Y-92713903D01*
X80282592Y-92775063D01*
X80470918Y-92791539D01*
X80517999Y-92795659D01*
X80518000Y-92795659D01*
X80518001Y-92795659D01*
X80557234Y-92792226D01*
X80753408Y-92775063D01*
X80981663Y-92713903D01*
X81195830Y-92614035D01*
X81389401Y-92478495D01*
X81556495Y-92311401D01*
X81686426Y-92125841D01*
X81741002Y-92082217D01*
X81810500Y-92075023D01*
X81872855Y-92106546D01*
X81889575Y-92125842D01*
X82019500Y-92311395D01*
X82019505Y-92311401D01*
X82186599Y-92478495D01*
X82283384Y-92546265D01*
X82380165Y-92614032D01*
X82380167Y-92614033D01*
X82380170Y-92614035D01*
X82594337Y-92713903D01*
X82822592Y-92775063D01*
X83010918Y-92791539D01*
X83057999Y-92795659D01*
X83058000Y-92795659D01*
X83058001Y-92795659D01*
X83097234Y-92792226D01*
X83293408Y-92775063D01*
X83521663Y-92713903D01*
X83735830Y-92614035D01*
X83929401Y-92478495D01*
X84096495Y-92311401D01*
X84232035Y-92117830D01*
X84331903Y-91903663D01*
X84393063Y-91675408D01*
X84413659Y-91440000D01*
X84393063Y-91204592D01*
X84331903Y-90976337D01*
X84232035Y-90762171D01*
X84226425Y-90754158D01*
X84096494Y-90568597D01*
X83929402Y-90401506D01*
X83929395Y-90401501D01*
X83918111Y-90393600D01*
X83890521Y-90374281D01*
X83735834Y-90265967D01*
X83735830Y-90265965D01*
X83735828Y-90265964D01*
X83521663Y-90166097D01*
X83521659Y-90166096D01*
X83521655Y-90166094D01*
X83293413Y-90104938D01*
X83293403Y-90104936D01*
X83058001Y-90084341D01*
X83057999Y-90084341D01*
X82822596Y-90104936D01*
X82822586Y-90104938D01*
X82594344Y-90166094D01*
X82594335Y-90166098D01*
X82380171Y-90265964D01*
X82380169Y-90265965D01*
X82186597Y-90401505D01*
X82019505Y-90568597D01*
X81889575Y-90754158D01*
X81834998Y-90797783D01*
X81765500Y-90804977D01*
X81703145Y-90773454D01*
X81686425Y-90754158D01*
X81556494Y-90568597D01*
X81389402Y-90401506D01*
X81389395Y-90401501D01*
X81378111Y-90393600D01*
X81350521Y-90374281D01*
X81195834Y-90265967D01*
X81195830Y-90265965D01*
X81195828Y-90265964D01*
X80981663Y-90166097D01*
X80981659Y-90166096D01*
X80981655Y-90166094D01*
X80753413Y-90104938D01*
X80753403Y-90104936D01*
X80518001Y-90084341D01*
X80517999Y-90084341D01*
X80282596Y-90104936D01*
X80282586Y-90104938D01*
X80054344Y-90166094D01*
X80054335Y-90166098D01*
X79840171Y-90265964D01*
X79840169Y-90265965D01*
X79646597Y-90401505D01*
X79479505Y-90568597D01*
X79349575Y-90754158D01*
X79294998Y-90797783D01*
X79225500Y-90804977D01*
X79163145Y-90773454D01*
X79146425Y-90754158D01*
X79016494Y-90568597D01*
X78849402Y-90401506D01*
X78849395Y-90401501D01*
X78838111Y-90393600D01*
X78810521Y-90374281D01*
X78655834Y-90265967D01*
X78655830Y-90265965D01*
X78655828Y-90265964D01*
X78441663Y-90166097D01*
X78441659Y-90166096D01*
X78441655Y-90166094D01*
X78213413Y-90104938D01*
X78213403Y-90104936D01*
X77978001Y-90084341D01*
X77977999Y-90084341D01*
X77742596Y-90104936D01*
X77742586Y-90104938D01*
X77514344Y-90166094D01*
X77514335Y-90166098D01*
X77300171Y-90265964D01*
X77300169Y-90265965D01*
X77106597Y-90401505D01*
X76939505Y-90568597D01*
X76809575Y-90754158D01*
X76754998Y-90797783D01*
X76685500Y-90804977D01*
X76623145Y-90773454D01*
X76606425Y-90754158D01*
X76476494Y-90568597D01*
X76309402Y-90401506D01*
X76309395Y-90401501D01*
X76298111Y-90393600D01*
X76270521Y-90374281D01*
X76115834Y-90265967D01*
X76115830Y-90265965D01*
X76115828Y-90265964D01*
X75901663Y-90166097D01*
X75901659Y-90166096D01*
X75901655Y-90166094D01*
X75673413Y-90104938D01*
X75673403Y-90104936D01*
X75438001Y-90084341D01*
X75437999Y-90084341D01*
X75202596Y-90104936D01*
X75202586Y-90104938D01*
X74974344Y-90166094D01*
X74974335Y-90166098D01*
X74760171Y-90265964D01*
X74760169Y-90265965D01*
X74566597Y-90401505D01*
X74399505Y-90568597D01*
X74269575Y-90754158D01*
X74214998Y-90797783D01*
X74145500Y-90804977D01*
X74083145Y-90773454D01*
X74066425Y-90754158D01*
X73936494Y-90568597D01*
X73769402Y-90401506D01*
X73769395Y-90401501D01*
X73758111Y-90393600D01*
X73730521Y-90374281D01*
X73575834Y-90265967D01*
X73575830Y-90265965D01*
X73575829Y-90265964D01*
X73361663Y-90166097D01*
X73361659Y-90166096D01*
X73361655Y-90166094D01*
X73133413Y-90104938D01*
X73133403Y-90104936D01*
X72898001Y-90084341D01*
X72897999Y-90084341D01*
X72662596Y-90104936D01*
X72662586Y-90104938D01*
X72434344Y-90166094D01*
X72434335Y-90166098D01*
X72220171Y-90265964D01*
X72220169Y-90265965D01*
X72026597Y-90401505D01*
X71859505Y-90568597D01*
X71729575Y-90754158D01*
X71674998Y-90797783D01*
X71605500Y-90804977D01*
X71543145Y-90773454D01*
X71526425Y-90754158D01*
X71396494Y-90568597D01*
X71229402Y-90401506D01*
X71229395Y-90401501D01*
X71218111Y-90393600D01*
X71190521Y-90374281D01*
X71035834Y-90265967D01*
X71035830Y-90265965D01*
X71035828Y-90265964D01*
X70821663Y-90166097D01*
X70821659Y-90166096D01*
X70821655Y-90166094D01*
X70593413Y-90104938D01*
X70593403Y-90104936D01*
X70358001Y-90084341D01*
X70357999Y-90084341D01*
X70122596Y-90104936D01*
X70122586Y-90104938D01*
X69894344Y-90166094D01*
X69894335Y-90166098D01*
X69680171Y-90265964D01*
X69680169Y-90265965D01*
X69486597Y-90401505D01*
X69319505Y-90568597D01*
X69189575Y-90754158D01*
X69134998Y-90797783D01*
X69065500Y-90804977D01*
X69003145Y-90773454D01*
X68986425Y-90754158D01*
X68856494Y-90568597D01*
X68689402Y-90401506D01*
X68689395Y-90401501D01*
X68678111Y-90393600D01*
X68650521Y-90374281D01*
X68495834Y-90265967D01*
X68495830Y-90265965D01*
X68495829Y-90265964D01*
X68281663Y-90166097D01*
X68281659Y-90166096D01*
X68281655Y-90166094D01*
X68053413Y-90104938D01*
X68053403Y-90104936D01*
X67818001Y-90084341D01*
X67817999Y-90084341D01*
X67582596Y-90104936D01*
X67582586Y-90104938D01*
X67354344Y-90166094D01*
X67354335Y-90166098D01*
X67140171Y-90265964D01*
X67140169Y-90265965D01*
X66946597Y-90401505D01*
X66779508Y-90568594D01*
X66649574Y-90754159D01*
X66594997Y-90797784D01*
X66525498Y-90804976D01*
X66463144Y-90773454D01*
X66446424Y-90754158D01*
X66316494Y-90568597D01*
X66149402Y-90401506D01*
X66149401Y-90401505D01*
X66149395Y-90401501D01*
X65958375Y-90267747D01*
X65914752Y-90213171D01*
X65905500Y-90166173D01*
X65905500Y-89574717D01*
X65905500Y-88449277D01*
X65925184Y-88382242D01*
X65941813Y-88361605D01*
X66263599Y-88039818D01*
X66324923Y-88006334D01*
X66351281Y-88003500D01*
X85032719Y-88003500D01*
X85099758Y-88023185D01*
X85120400Y-88039819D01*
X91792181Y-94711600D01*
X91825666Y-94772923D01*
X91828500Y-94799281D01*
X91828500Y-140458173D01*
X91808815Y-140525212D01*
X91775624Y-140559748D01*
X91584594Y-140693508D01*
X91417505Y-140860597D01*
X91287575Y-141046158D01*
X91232998Y-141089783D01*
X91163500Y-141096977D01*
X91101145Y-141065454D01*
X91084425Y-141046158D01*
X90954494Y-140860597D01*
X90787402Y-140693506D01*
X90787401Y-140693505D01*
X90596376Y-140559748D01*
X90552752Y-140505171D01*
X90543500Y-140458173D01*
X90543500Y-139782964D01*
X90545228Y-139767314D01*
X90544946Y-139767288D01*
X90545680Y-139759525D01*
X90543500Y-139690154D01*
X90543500Y-139660528D01*
X90543500Y-139660524D01*
X90542627Y-139653614D01*
X90542168Y-139647785D01*
X90540700Y-139601057D01*
X90540357Y-139599877D01*
X90535082Y-139581720D01*
X90531138Y-139562674D01*
X90528616Y-139542707D01*
X90511402Y-139499231D01*
X90509513Y-139493710D01*
X90496468Y-139448808D01*
X90486225Y-139431489D01*
X90477662Y-139414011D01*
X90470253Y-139395297D01*
X90470253Y-139395296D01*
X90442771Y-139357472D01*
X90439567Y-139352596D01*
X90415763Y-139312344D01*
X90415761Y-139312342D01*
X90415759Y-139312339D01*
X90401531Y-139298112D01*
X90388896Y-139283320D01*
X90377063Y-139267033D01*
X90377060Y-139267031D01*
X90377060Y-139267030D01*
X90377059Y-139267029D01*
X90341035Y-139237228D01*
X90336713Y-139233294D01*
X89148376Y-138044957D01*
X89138531Y-138032668D01*
X89138313Y-138032849D01*
X89133340Y-138026838D01*
X89112438Y-138007210D01*
X89082741Y-137979322D01*
X89072268Y-137968849D01*
X89061797Y-137958377D01*
X89056296Y-137954111D01*
X89051848Y-137950312D01*
X89017768Y-137918308D01*
X89017763Y-137918304D01*
X89000122Y-137908606D01*
X88983857Y-137897922D01*
X88967963Y-137885593D01*
X88967962Y-137885592D01*
X88952804Y-137879032D01*
X88925054Y-137867023D01*
X88919807Y-137864453D01*
X88878837Y-137841929D01*
X88878828Y-137841926D01*
X88859334Y-137836920D01*
X88840933Y-137830620D01*
X88822459Y-137822626D01*
X88822452Y-137822624D01*
X88776287Y-137815313D01*
X88770563Y-137814128D01*
X88725279Y-137802500D01*
X88725272Y-137802500D01*
X88705142Y-137802500D01*
X88685743Y-137800973D01*
X88665868Y-137797825D01*
X88665867Y-137797825D01*
X88619321Y-137802225D01*
X88613483Y-137802500D01*
X85680965Y-137802500D01*
X85665314Y-137800772D01*
X85665288Y-137801054D01*
X85657525Y-137800319D01*
X85588154Y-137802500D01*
X85558521Y-137802500D01*
X85551607Y-137803373D01*
X85545790Y-137803830D01*
X85499058Y-137805299D01*
X85499054Y-137805300D01*
X85479722Y-137810916D01*
X85460682Y-137814859D01*
X85440708Y-137817383D01*
X85440701Y-137817385D01*
X85397239Y-137834592D01*
X85391712Y-137836485D01*
X85346809Y-137849531D01*
X85346808Y-137849531D01*
X85329474Y-137859782D01*
X85312012Y-137868336D01*
X85293300Y-137875745D01*
X85293295Y-137875748D01*
X85255473Y-137903226D01*
X85250591Y-137906433D01*
X85210341Y-137930238D01*
X85196107Y-137944472D01*
X85181318Y-137957104D01*
X85165032Y-137968937D01*
X85135227Y-138004963D01*
X85131295Y-138009285D01*
X83688953Y-139451626D01*
X83676669Y-139461469D01*
X83676849Y-139461687D01*
X83670838Y-139466659D01*
X83623322Y-139517258D01*
X83602375Y-139538205D01*
X83598106Y-139543709D01*
X83594315Y-139548147D01*
X83562308Y-139582230D01*
X83562305Y-139582234D01*
X83552606Y-139599877D01*
X83541928Y-139616133D01*
X83529594Y-139632034D01*
X83529589Y-139632042D01*
X83511025Y-139674943D01*
X83508454Y-139680191D01*
X83485927Y-139721167D01*
X83480920Y-139740668D01*
X83474621Y-139759064D01*
X83467893Y-139774612D01*
X83466625Y-139777544D01*
X83466624Y-139777546D01*
X83459312Y-139823716D01*
X83458127Y-139829438D01*
X83446500Y-139874723D01*
X83446500Y-139894858D01*
X83444973Y-139914257D01*
X83441825Y-139934131D01*
X83446225Y-139980677D01*
X83446500Y-139986515D01*
X83446500Y-143681032D01*
X83444772Y-143696681D01*
X83445054Y-143696708D01*
X83444319Y-143704475D01*
X83446500Y-143773859D01*
X83446500Y-143803477D01*
X83447371Y-143810380D01*
X83447829Y-143816199D01*
X83449298Y-143862942D01*
X83454916Y-143882275D01*
X83458862Y-143901329D01*
X83461383Y-143921287D01*
X83461386Y-143921299D01*
X83478595Y-143964765D01*
X83480487Y-143970293D01*
X83493530Y-144015187D01*
X83493530Y-144015188D01*
X83503777Y-144032515D01*
X83512335Y-144049985D01*
X83519745Y-144068701D01*
X83547229Y-144106529D01*
X83550437Y-144111413D01*
X83574234Y-144151652D01*
X83574240Y-144151660D01*
X83588469Y-144165888D01*
X83601109Y-144180687D01*
X83612934Y-144196964D01*
X83612936Y-144196965D01*
X83612937Y-144196967D01*
X83648957Y-144226765D01*
X83653268Y-144230687D01*
X85824762Y-146402181D01*
X86873624Y-147451043D01*
X86883471Y-147463333D01*
X86883689Y-147463154D01*
X86888657Y-147469160D01*
X86939257Y-147516677D01*
X86960201Y-147537620D01*
X86960207Y-147537626D01*
X86965697Y-147541883D01*
X86970148Y-147545684D01*
X87004235Y-147577695D01*
X87004237Y-147577696D01*
X87021867Y-147587387D01*
X87038135Y-147598072D01*
X87054038Y-147610408D01*
X87054040Y-147610409D01*
X87054042Y-147610410D01*
X87075380Y-147619643D01*
X87096943Y-147628974D01*
X87102190Y-147631545D01*
X87110703Y-147636225D01*
X87143166Y-147654072D01*
X87162667Y-147659079D01*
X87181061Y-147665376D01*
X87199541Y-147673373D01*
X87245716Y-147680685D01*
X87251419Y-147681866D01*
X87296728Y-147693500D01*
X87316859Y-147693500D01*
X87336256Y-147695026D01*
X87356133Y-147698175D01*
X87399064Y-147694116D01*
X87402679Y-147693775D01*
X87408517Y-147693500D01*
X106089033Y-147693500D01*
X106104681Y-147695227D01*
X106104708Y-147694946D01*
X106112475Y-147695680D01*
X106112476Y-147695679D01*
X106112477Y-147695680D01*
X106181860Y-147693500D01*
X106211476Y-147693500D01*
X106218378Y-147692627D01*
X106224190Y-147692169D01*
X106270943Y-147690701D01*
X106290272Y-147685084D01*
X106309328Y-147681137D01*
X106329293Y-147678616D01*
X106372770Y-147661401D01*
X106378276Y-147659516D01*
X106423191Y-147646468D01*
X106440515Y-147636221D01*
X106457983Y-147627663D01*
X106476703Y-147620253D01*
X106514542Y-147592759D01*
X106519391Y-147589574D01*
X106559656Y-147565763D01*
X106573897Y-147551520D01*
X106588678Y-147538897D01*
X106604967Y-147527063D01*
X106604969Y-147527059D01*
X106604971Y-147527059D01*
X106616845Y-147512703D01*
X106634776Y-147491028D01*
X106638689Y-147486728D01*
X112653043Y-141472374D01*
X112665325Y-141462537D01*
X112665144Y-141462318D01*
X112671152Y-141457346D01*
X112671162Y-141457340D01*
X112718677Y-141406741D01*
X112739623Y-141385796D01*
X112743892Y-141380290D01*
X112747676Y-141375859D01*
X112779693Y-141341767D01*
X112789389Y-141324128D01*
X112800073Y-141307861D01*
X112812408Y-141291962D01*
X112830983Y-141249034D01*
X112833534Y-141243827D01*
X112856072Y-141202834D01*
X112861078Y-141183334D01*
X112867376Y-141164936D01*
X112875374Y-141146458D01*
X112882688Y-141100276D01*
X112883870Y-141094565D01*
X112895500Y-141049272D01*
X112895499Y-141029144D01*
X112897027Y-141009742D01*
X112900174Y-140989872D01*
X112900175Y-140989869D01*
X112895775Y-140943321D01*
X112895500Y-140937483D01*
X112895500Y-107778964D01*
X112897228Y-107763314D01*
X112896946Y-107763288D01*
X112897680Y-107755525D01*
X112895500Y-107686154D01*
X112895500Y-107656528D01*
X112895500Y-107656524D01*
X112894627Y-107649614D01*
X112894168Y-107643785D01*
X112892700Y-107597057D01*
X112890660Y-107590035D01*
X112887082Y-107577720D01*
X112883138Y-107558674D01*
X112880616Y-107538707D01*
X112863402Y-107495231D01*
X112861513Y-107489710D01*
X112848468Y-107444808D01*
X112838225Y-107427489D01*
X112829662Y-107410011D01*
X112822253Y-107391297D01*
X112822253Y-107391296D01*
X112794771Y-107353472D01*
X112791567Y-107348596D01*
X112767763Y-107308344D01*
X112767761Y-107308342D01*
X112767759Y-107308339D01*
X112753531Y-107294112D01*
X112740896Y-107279320D01*
X112729063Y-107263033D01*
X112729060Y-107263031D01*
X112729060Y-107263030D01*
X112729059Y-107263029D01*
X112693035Y-107233228D01*
X112688713Y-107229294D01*
X83560376Y-78100957D01*
X83550531Y-78088668D01*
X83550313Y-78088849D01*
X83545340Y-78082838D01*
X83538251Y-78076181D01*
X83494741Y-78035322D01*
X83484268Y-78024849D01*
X83473797Y-78014377D01*
X83468296Y-78010111D01*
X83463848Y-78006312D01*
X83429768Y-77974308D01*
X83429763Y-77974304D01*
X83412122Y-77964606D01*
X83395857Y-77953922D01*
X83395680Y-77953785D01*
X83379962Y-77941592D01*
X83364804Y-77935032D01*
X83337054Y-77923023D01*
X83331807Y-77920453D01*
X83290837Y-77897929D01*
X83290828Y-77897926D01*
X83271334Y-77892920D01*
X83252933Y-77886620D01*
X83234459Y-77878626D01*
X83234452Y-77878624D01*
X83188287Y-77871313D01*
X83182563Y-77870128D01*
X83137279Y-77858500D01*
X83137272Y-77858500D01*
X83117142Y-77858500D01*
X83097743Y-77856973D01*
X83077868Y-77853825D01*
X83077867Y-77853825D01*
X83031321Y-77858225D01*
X83025483Y-77858500D01*
X71059947Y-77858500D01*
X70992908Y-77838815D01*
X70967800Y-77817476D01*
X70963871Y-77813112D01*
X70963869Y-77813111D01*
X70963867Y-77813108D01*
X70963864Y-77813106D01*
X70810734Y-77701851D01*
X70805107Y-77698603D01*
X70806262Y-77696601D01*
X70761080Y-77658183D01*
X70740770Y-77591330D01*
X70759828Y-77524110D01*
X70812202Y-77477864D01*
X70820982Y-77474219D01*
X70821655Y-77473905D01*
X70821663Y-77473903D01*
X71035830Y-77374035D01*
X71229401Y-77238495D01*
X71396495Y-77071401D01*
X71526424Y-76885842D01*
X71581002Y-76842217D01*
X71650500Y-76835023D01*
X71712855Y-76866546D01*
X71729575Y-76885842D01*
X71859500Y-77071395D01*
X71859505Y-77071401D01*
X72026599Y-77238495D01*
X72120905Y-77304529D01*
X72220165Y-77374032D01*
X72220167Y-77374033D01*
X72220170Y-77374035D01*
X72434337Y-77473903D01*
X72434343Y-77473904D01*
X72434344Y-77473905D01*
X72489285Y-77488626D01*
X72662592Y-77535063D01*
X72850918Y-77551539D01*
X72897999Y-77555659D01*
X72898000Y-77555659D01*
X72898001Y-77555659D01*
X72937234Y-77552226D01*
X73133408Y-77535063D01*
X73361663Y-77473903D01*
X73575830Y-77374035D01*
X73769401Y-77238495D01*
X73936495Y-77071401D01*
X74066424Y-76885842D01*
X74121002Y-76842217D01*
X74190500Y-76835023D01*
X74252855Y-76866546D01*
X74269575Y-76885842D01*
X74399500Y-77071395D01*
X74399505Y-77071401D01*
X74566599Y-77238495D01*
X74660905Y-77304529D01*
X74760165Y-77374032D01*
X74760167Y-77374033D01*
X74760170Y-77374035D01*
X74974337Y-77473903D01*
X74974343Y-77473904D01*
X74974344Y-77473905D01*
X75029285Y-77488626D01*
X75202592Y-77535063D01*
X75390918Y-77551539D01*
X75437999Y-77555659D01*
X75438000Y-77555659D01*
X75438001Y-77555659D01*
X75477234Y-77552226D01*
X75673408Y-77535063D01*
X75901663Y-77473903D01*
X76115830Y-77374035D01*
X76309401Y-77238495D01*
X76476495Y-77071401D01*
X76606424Y-76885842D01*
X76661002Y-76842217D01*
X76730500Y-76835023D01*
X76792855Y-76866546D01*
X76809575Y-76885842D01*
X76939500Y-77071395D01*
X76939505Y-77071401D01*
X77106599Y-77238495D01*
X77200905Y-77304529D01*
X77300165Y-77374032D01*
X77300167Y-77374033D01*
X77300170Y-77374035D01*
X77514337Y-77473903D01*
X77514343Y-77473904D01*
X77514344Y-77473905D01*
X77569285Y-77488626D01*
X77742592Y-77535063D01*
X77930918Y-77551539D01*
X77977999Y-77555659D01*
X77978000Y-77555659D01*
X77978001Y-77555659D01*
X78017234Y-77552226D01*
X78213408Y-77535063D01*
X78441663Y-77473903D01*
X78655830Y-77374035D01*
X78849401Y-77238495D01*
X79016495Y-77071401D01*
X79146424Y-76885842D01*
X79201002Y-76842217D01*
X79270500Y-76835023D01*
X79332855Y-76866546D01*
X79349575Y-76885842D01*
X79479500Y-77071395D01*
X79479505Y-77071401D01*
X79646599Y-77238495D01*
X79740905Y-77304529D01*
X79840165Y-77374032D01*
X79840167Y-77374033D01*
X79840170Y-77374035D01*
X80054337Y-77473903D01*
X80054343Y-77473904D01*
X80054344Y-77473905D01*
X80109285Y-77488626D01*
X80282592Y-77535063D01*
X80470918Y-77551539D01*
X80517999Y-77555659D01*
X80518000Y-77555659D01*
X80518001Y-77555659D01*
X80557234Y-77552226D01*
X80753408Y-77535063D01*
X80981663Y-77473903D01*
X81195830Y-77374035D01*
X81389401Y-77238495D01*
X81556495Y-77071401D01*
X81686424Y-76885842D01*
X81741002Y-76842217D01*
X81810500Y-76835023D01*
X81872855Y-76866546D01*
X81889575Y-76885842D01*
X82019500Y-77071395D01*
X82019505Y-77071401D01*
X82186599Y-77238495D01*
X82280905Y-77304529D01*
X82380165Y-77374032D01*
X82380167Y-77374033D01*
X82380170Y-77374035D01*
X82594337Y-77473903D01*
X82594343Y-77473904D01*
X82594344Y-77473905D01*
X82649285Y-77488626D01*
X82822592Y-77535063D01*
X83010918Y-77551539D01*
X83057999Y-77555659D01*
X83058000Y-77555659D01*
X83058001Y-77555659D01*
X83097234Y-77552226D01*
X83293408Y-77535063D01*
X83521663Y-77473903D01*
X83735830Y-77374035D01*
X83929401Y-77238495D01*
X84096495Y-77071401D01*
X84232035Y-76877830D01*
X84331903Y-76663663D01*
X84393063Y-76435408D01*
X84413659Y-76200000D01*
X84393063Y-75964592D01*
X84331903Y-75736337D01*
X84232035Y-75522171D01*
X84226731Y-75514595D01*
X84096494Y-75328597D01*
X83929402Y-75161506D01*
X83929395Y-75161501D01*
X83735834Y-75025967D01*
X83735830Y-75025965D01*
X83726328Y-75021534D01*
X83521663Y-74926097D01*
X83521659Y-74926096D01*
X83521655Y-74926094D01*
X83293413Y-74864938D01*
X83293403Y-74864936D01*
X83058001Y-74844341D01*
X83057999Y-74844341D01*
X82822596Y-74864936D01*
X82822586Y-74864938D01*
X82594344Y-74926094D01*
X82594335Y-74926098D01*
X82380171Y-75025964D01*
X82380169Y-75025965D01*
X82186597Y-75161505D01*
X82019505Y-75328597D01*
X81889575Y-75514158D01*
X81834998Y-75557783D01*
X81765500Y-75564977D01*
X81703145Y-75533454D01*
X81686425Y-75514158D01*
X81556494Y-75328597D01*
X81389402Y-75161506D01*
X81389395Y-75161501D01*
X81195834Y-75025967D01*
X81195830Y-75025965D01*
X81186328Y-75021534D01*
X80981663Y-74926097D01*
X80981659Y-74926096D01*
X80981655Y-74926094D01*
X80753413Y-74864938D01*
X80753403Y-74864936D01*
X80518001Y-74844341D01*
X80517999Y-74844341D01*
X80282596Y-74864936D01*
X80282586Y-74864938D01*
X80054344Y-74926094D01*
X80054335Y-74926098D01*
X79840171Y-75025964D01*
X79840169Y-75025965D01*
X79646597Y-75161505D01*
X79479505Y-75328597D01*
X79349575Y-75514158D01*
X79294998Y-75557783D01*
X79225500Y-75564977D01*
X79163145Y-75533454D01*
X79146425Y-75514158D01*
X79016494Y-75328597D01*
X78849402Y-75161506D01*
X78849395Y-75161501D01*
X78655834Y-75025967D01*
X78655830Y-75025965D01*
X78646328Y-75021534D01*
X78441663Y-74926097D01*
X78441659Y-74926096D01*
X78441655Y-74926094D01*
X78213413Y-74864938D01*
X78213403Y-74864936D01*
X77978001Y-74844341D01*
X77977999Y-74844341D01*
X77742596Y-74864936D01*
X77742586Y-74864938D01*
X77514344Y-74926094D01*
X77514335Y-74926098D01*
X77300171Y-75025964D01*
X77300169Y-75025965D01*
X77106597Y-75161505D01*
X76939505Y-75328597D01*
X76809575Y-75514158D01*
X76754998Y-75557783D01*
X76685500Y-75564977D01*
X76623145Y-75533454D01*
X76606425Y-75514158D01*
X76476494Y-75328597D01*
X76309402Y-75161506D01*
X76309395Y-75161501D01*
X76115834Y-75025967D01*
X76115830Y-75025965D01*
X76106328Y-75021534D01*
X75901663Y-74926097D01*
X75901659Y-74926096D01*
X75901655Y-74926094D01*
X75673413Y-74864938D01*
X75673403Y-74864936D01*
X75438001Y-74844341D01*
X75437999Y-74844341D01*
X75202596Y-74864936D01*
X75202586Y-74864938D01*
X74974344Y-74926094D01*
X74974335Y-74926098D01*
X74760171Y-75025964D01*
X74760169Y-75025965D01*
X74566597Y-75161505D01*
X74399505Y-75328597D01*
X74269575Y-75514158D01*
X74214998Y-75557783D01*
X74145500Y-75564977D01*
X74083145Y-75533454D01*
X74066425Y-75514158D01*
X73936494Y-75328597D01*
X73769402Y-75161506D01*
X73769395Y-75161501D01*
X73575834Y-75025967D01*
X73575830Y-75025965D01*
X73566328Y-75021534D01*
X73361663Y-74926097D01*
X73361659Y-74926096D01*
X73361655Y-74926094D01*
X73133413Y-74864938D01*
X73133403Y-74864936D01*
X72898001Y-74844341D01*
X72897999Y-74844341D01*
X72662596Y-74864936D01*
X72662586Y-74864938D01*
X72434344Y-74926094D01*
X72434335Y-74926098D01*
X72220171Y-75025964D01*
X72220169Y-75025965D01*
X72026597Y-75161505D01*
X71859505Y-75328597D01*
X71729575Y-75514158D01*
X71674998Y-75557783D01*
X71605500Y-75564977D01*
X71543145Y-75533454D01*
X71526425Y-75514158D01*
X71396494Y-75328597D01*
X71229402Y-75161506D01*
X71229395Y-75161501D01*
X71035834Y-75025967D01*
X71035830Y-75025965D01*
X71026328Y-75021534D01*
X70821663Y-74926097D01*
X70821659Y-74926096D01*
X70821655Y-74926094D01*
X70593413Y-74864938D01*
X70593403Y-74864936D01*
X70358001Y-74844341D01*
X70357999Y-74844341D01*
X70122596Y-74864936D01*
X70122586Y-74864938D01*
X69894344Y-74926094D01*
X69894335Y-74926098D01*
X69680171Y-75025964D01*
X69680169Y-75025965D01*
X69486597Y-75161505D01*
X69319505Y-75328597D01*
X69189575Y-75514158D01*
X69134998Y-75557783D01*
X69065500Y-75564977D01*
X69003145Y-75533454D01*
X68986425Y-75514158D01*
X68856494Y-75328597D01*
X68689402Y-75161506D01*
X68689395Y-75161501D01*
X68495834Y-75025967D01*
X68495830Y-75025965D01*
X68486328Y-75021534D01*
X68281663Y-74926097D01*
X68281659Y-74926096D01*
X68281655Y-74926094D01*
X68053413Y-74864938D01*
X68053403Y-74864936D01*
X67818001Y-74844341D01*
X67817999Y-74844341D01*
X67582596Y-74864936D01*
X67582586Y-74864938D01*
X67354344Y-74926094D01*
X67354335Y-74926098D01*
X67140171Y-75025964D01*
X67140169Y-75025965D01*
X66946597Y-75161505D01*
X66779505Y-75328597D01*
X66649575Y-75514158D01*
X66594998Y-75557783D01*
X66525500Y-75564977D01*
X66463145Y-75533454D01*
X66446425Y-75514158D01*
X66316494Y-75328597D01*
X66149402Y-75161506D01*
X66149395Y-75161501D01*
X65955834Y-75025967D01*
X65955830Y-75025965D01*
X65946328Y-75021534D01*
X65741663Y-74926097D01*
X65741659Y-74926096D01*
X65741655Y-74926094D01*
X65513413Y-74864938D01*
X65513403Y-74864936D01*
X65278001Y-74844341D01*
X65277999Y-74844341D01*
X65042596Y-74864936D01*
X65042586Y-74864938D01*
X64814344Y-74926094D01*
X64814335Y-74926098D01*
X64600171Y-75025964D01*
X64600169Y-75025965D01*
X64406597Y-75161505D01*
X64239508Y-75328594D01*
X64109574Y-75514159D01*
X64054997Y-75557784D01*
X63985498Y-75564976D01*
X63923144Y-75533454D01*
X63906424Y-75514158D01*
X63776494Y-75328597D01*
X63609402Y-75161506D01*
X63609395Y-75161501D01*
X63411396Y-75022860D01*
X63412324Y-75021534D01*
X63369214Y-74976325D01*
X63355988Y-74907718D01*
X63381953Y-74842852D01*
X63438866Y-74802322D01*
X63479427Y-74795500D01*
X64179033Y-74795500D01*
X64194681Y-74797227D01*
X64194708Y-74796946D01*
X64202475Y-74797680D01*
X64202476Y-74797679D01*
X64202477Y-74797680D01*
X64271860Y-74795500D01*
X64301476Y-74795500D01*
X64308378Y-74794627D01*
X64314190Y-74794169D01*
X64360943Y-74792701D01*
X64380272Y-74787084D01*
X64399328Y-74783137D01*
X64419293Y-74780616D01*
X64462770Y-74763401D01*
X64468276Y-74761516D01*
X64513191Y-74748468D01*
X64530515Y-74738221D01*
X64547983Y-74729663D01*
X64566703Y-74722253D01*
X64604542Y-74694759D01*
X64609391Y-74691574D01*
X64649656Y-74667763D01*
X64663897Y-74653520D01*
X64678678Y-74640897D01*
X64694967Y-74629063D01*
X64714491Y-74605461D01*
X64772391Y-74566353D01*
X64810037Y-74560500D01*
X64864644Y-74560500D01*
X64864646Y-74560500D01*
X65049803Y-74521144D01*
X65222730Y-74444151D01*
X65375871Y-74332888D01*
X65502533Y-74192216D01*
X65597179Y-74028284D01*
X65655674Y-73848256D01*
X65675460Y-73660000D01*
X65675460Y-73659997D01*
X65675460Y-73653502D01*
X65677359Y-73653502D01*
X65688282Y-73593742D01*
X65736010Y-73542714D01*
X65799039Y-73525500D01*
X100526718Y-73525500D01*
X100593757Y-73545185D01*
X100614399Y-73561818D01*
X100678781Y-73626199D01*
X100712266Y-73687522D01*
X100715100Y-73713881D01*
X100715100Y-74136173D01*
X100695415Y-74203212D01*
X100662224Y-74237748D01*
X100471194Y-74371508D01*
X100304105Y-74538597D01*
X100174175Y-74724158D01*
X100119598Y-74767783D01*
X100050100Y-74774977D01*
X99987745Y-74743454D01*
X99971025Y-74724158D01*
X99841094Y-74538597D01*
X99674002Y-74371506D01*
X99673995Y-74371501D01*
X99649055Y-74354038D01*
X99597118Y-74317671D01*
X99480434Y-74235967D01*
X99480430Y-74235965D01*
X99480428Y-74235964D01*
X99266263Y-74136097D01*
X99266259Y-74136096D01*
X99266255Y-74136094D01*
X99038013Y-74074938D01*
X99038003Y-74074936D01*
X98802601Y-74054341D01*
X98802599Y-74054341D01*
X98567196Y-74074936D01*
X98567186Y-74074938D01*
X98338944Y-74136094D01*
X98338935Y-74136098D01*
X98124771Y-74235964D01*
X98124769Y-74235965D01*
X97931200Y-74371503D01*
X97809273Y-74493430D01*
X97747950Y-74526914D01*
X97678258Y-74521930D01*
X97622325Y-74480058D01*
X97605410Y-74449081D01*
X97556397Y-74317671D01*
X97556393Y-74317664D01*
X97470147Y-74202455D01*
X97470144Y-74202452D01*
X97354935Y-74116206D01*
X97354928Y-74116202D01*
X97220082Y-74065908D01*
X97220083Y-74065908D01*
X97160483Y-74059501D01*
X97160481Y-74059500D01*
X97160473Y-74059500D01*
X97160464Y-74059500D01*
X95364729Y-74059500D01*
X95364723Y-74059501D01*
X95305116Y-74065908D01*
X95170271Y-74116202D01*
X95170264Y-74116206D01*
X95055055Y-74202452D01*
X95055052Y-74202455D01*
X94968806Y-74317664D01*
X94968802Y-74317671D01*
X94918508Y-74452517D01*
X94912101Y-74512116D01*
X94912100Y-74512135D01*
X94912100Y-76307870D01*
X94912101Y-76307876D01*
X94918508Y-76367483D01*
X94968802Y-76502328D01*
X94968806Y-76502335D01*
X95055052Y-76617544D01*
X95055055Y-76617547D01*
X95170264Y-76703793D01*
X95170271Y-76703797D01*
X95305117Y-76754091D01*
X95305116Y-76754091D01*
X95312044Y-76754835D01*
X95364727Y-76760500D01*
X97160472Y-76760499D01*
X97220083Y-76754091D01*
X97354931Y-76703796D01*
X97470146Y-76617546D01*
X97556396Y-76502331D01*
X97605410Y-76370916D01*
X97647281Y-76314984D01*
X97712745Y-76290566D01*
X97781018Y-76305417D01*
X97809273Y-76326569D01*
X97931199Y-76448495D01*
X98027984Y-76516264D01*
X98124765Y-76584032D01*
X98124767Y-76584033D01*
X98124770Y-76584035D01*
X98338937Y-76683903D01*
X98338943Y-76683904D01*
X98338944Y-76683905D01*
X98393885Y-76698626D01*
X98567192Y-76745063D01*
X98743634Y-76760500D01*
X98802599Y-76765659D01*
X98802600Y-76765659D01*
X98802601Y-76765659D01*
X98861566Y-76760500D01*
X99038008Y-76745063D01*
X99266263Y-76683903D01*
X99480430Y-76584035D01*
X99674001Y-76448495D01*
X99841095Y-76281401D01*
X99971024Y-76095842D01*
X100025602Y-76052217D01*
X100095100Y-76045023D01*
X100157455Y-76076546D01*
X100174175Y-76095842D01*
X100304100Y-76281395D01*
X100304105Y-76281401D01*
X100471199Y-76448495D01*
X100567984Y-76516264D01*
X100664765Y-76584032D01*
X100664767Y-76584033D01*
X100664770Y-76584035D01*
X100878937Y-76683903D01*
X100878943Y-76683904D01*
X100878944Y-76683905D01*
X100933885Y-76698626D01*
X101107192Y-76745063D01*
X101283634Y-76760500D01*
X101342599Y-76765659D01*
X101342600Y-76765659D01*
X101342601Y-76765659D01*
X101401566Y-76760500D01*
X101578008Y-76745063D01*
X101806263Y-76683903D01*
X102020430Y-76584035D01*
X102214001Y-76448495D01*
X102381095Y-76281401D01*
X102511024Y-76095842D01*
X102565602Y-76052217D01*
X102635100Y-76045023D01*
X102697455Y-76076546D01*
X102714175Y-76095842D01*
X102844100Y-76281395D01*
X102844105Y-76281401D01*
X103011199Y-76448495D01*
X103107984Y-76516265D01*
X103204765Y-76584032D01*
X103204767Y-76584033D01*
X103204770Y-76584035D01*
X103418937Y-76683903D01*
X103418943Y-76683904D01*
X103418944Y-76683905D01*
X103473885Y-76698626D01*
X103647192Y-76745063D01*
X103823634Y-76760500D01*
X103882599Y-76765659D01*
X103882600Y-76765659D01*
X103882601Y-76765659D01*
X103941566Y-76760500D01*
X104118008Y-76745063D01*
X104346263Y-76683903D01*
X104560430Y-76584035D01*
X104754001Y-76448495D01*
X104921095Y-76281401D01*
X105056635Y-76087830D01*
X105156503Y-75873663D01*
X105217663Y-75645408D01*
X105238259Y-75410000D01*
X105217663Y-75174592D01*
X105156503Y-74946337D01*
X105056635Y-74732171D01*
X105052394Y-74726113D01*
X104921094Y-74538597D01*
X104754002Y-74371506D01*
X104753995Y-74371501D01*
X104729055Y-74354038D01*
X104677118Y-74317671D01*
X104560434Y-74235967D01*
X104560430Y-74235965D01*
X104560429Y-74235964D01*
X104346263Y-74136097D01*
X104346259Y-74136096D01*
X104346255Y-74136094D01*
X104118013Y-74074938D01*
X104118003Y-74074936D01*
X103882601Y-74054341D01*
X103882599Y-74054341D01*
X103647196Y-74074936D01*
X103647186Y-74074938D01*
X103418944Y-74136094D01*
X103418935Y-74136098D01*
X103204771Y-74235964D01*
X103204769Y-74235965D01*
X103011197Y-74371505D01*
X102844108Y-74538594D01*
X102714174Y-74724160D01*
X102659597Y-74767784D01*
X102590098Y-74774977D01*
X102527744Y-74743455D01*
X102511029Y-74724164D01*
X102381095Y-74538599D01*
X102381093Y-74538596D01*
X102214002Y-74371506D01*
X102214001Y-74371505D01*
X102066202Y-74268015D01*
X102022975Y-74237747D01*
X101979352Y-74183171D01*
X101970100Y-74136173D01*
X101970100Y-73485564D01*
X101971828Y-73469914D01*
X101971546Y-73469888D01*
X101972280Y-73462125D01*
X101970100Y-73392754D01*
X101970100Y-73363128D01*
X101970100Y-73363124D01*
X101969227Y-73356214D01*
X101968768Y-73350385D01*
X101967300Y-73303657D01*
X101967300Y-73303656D01*
X101961682Y-73284320D01*
X101957738Y-73265274D01*
X101955216Y-73245307D01*
X101938002Y-73201831D01*
X101936113Y-73196310D01*
X101923068Y-73151408D01*
X101912825Y-73134089D01*
X101904262Y-73116611D01*
X101896853Y-73097897D01*
X101896853Y-73097896D01*
X101869371Y-73060072D01*
X101866167Y-73055196D01*
X101842363Y-73014944D01*
X101842361Y-73014942D01*
X101842359Y-73014939D01*
X101828131Y-73000712D01*
X101815496Y-72985920D01*
X101803663Y-72969633D01*
X101803660Y-72969631D01*
X101803660Y-72969630D01*
X101803659Y-72969629D01*
X101767635Y-72939828D01*
X101763313Y-72935894D01*
X101340376Y-72512957D01*
X101330531Y-72500668D01*
X101330313Y-72500849D01*
X101325340Y-72494838D01*
X101274741Y-72447322D01*
X101264268Y-72436849D01*
X101253797Y-72426377D01*
X101248296Y-72422111D01*
X101243848Y-72418312D01*
X101209768Y-72386308D01*
X101209763Y-72386304D01*
X101192122Y-72376606D01*
X101175857Y-72365922D01*
X101159963Y-72353593D01*
X101159962Y-72353592D01*
X101144804Y-72347032D01*
X101117054Y-72335023D01*
X101111807Y-72332453D01*
X101070837Y-72309929D01*
X101070828Y-72309926D01*
X101051334Y-72304920D01*
X101032933Y-72298620D01*
X101014459Y-72290626D01*
X101014452Y-72290624D01*
X100968287Y-72283313D01*
X100962563Y-72282128D01*
X100917279Y-72270500D01*
X100917272Y-72270500D01*
X100897142Y-72270500D01*
X100877743Y-72268973D01*
X100857868Y-72265825D01*
X100857867Y-72265825D01*
X100811321Y-72270225D01*
X100805483Y-72270500D01*
X64783039Y-72270500D01*
X64716000Y-72250815D01*
X64670245Y-72198011D01*
X64661183Y-72142498D01*
X64659460Y-72142498D01*
X64659460Y-72136002D01*
X64657744Y-72119674D01*
X64639674Y-71947744D01*
X64581179Y-71767716D01*
X64486533Y-71603784D01*
X64359871Y-71463112D01*
X64359870Y-71463111D01*
X64206734Y-71351851D01*
X64206729Y-71351848D01*
X64033807Y-71274857D01*
X64033802Y-71274855D01*
X63888001Y-71243865D01*
X63848646Y-71235500D01*
X63848645Y-71235500D01*
X63792281Y-71235500D01*
X63725242Y-71215815D01*
X63704600Y-71199181D01*
X62986376Y-70480957D01*
X62976531Y-70468668D01*
X62976313Y-70468849D01*
X62971340Y-70462838D01*
X62920741Y-70415322D01*
X62910268Y-70404849D01*
X62899797Y-70394377D01*
X62894296Y-70390111D01*
X62889848Y-70386312D01*
X62855768Y-70354308D01*
X62855763Y-70354304D01*
X62838122Y-70344606D01*
X62821857Y-70333922D01*
X62821680Y-70333785D01*
X62805962Y-70321592D01*
X62790804Y-70315032D01*
X62763054Y-70303023D01*
X62757807Y-70300453D01*
X62716837Y-70277929D01*
X62716828Y-70277926D01*
X62697334Y-70272920D01*
X62678933Y-70266620D01*
X62660459Y-70258626D01*
X62660452Y-70258624D01*
X62614287Y-70251313D01*
X62608563Y-70250128D01*
X62563279Y-70238500D01*
X62563272Y-70238500D01*
X62543142Y-70238500D01*
X62523743Y-70236973D01*
X62503868Y-70233825D01*
X62503867Y-70233825D01*
X62457321Y-70238225D01*
X62451483Y-70238500D01*
X33721947Y-70238500D01*
X33654908Y-70218815D01*
X33629800Y-70197476D01*
X33625871Y-70193112D01*
X33625869Y-70193111D01*
X33625867Y-70193108D01*
X33625864Y-70193106D01*
X33472734Y-70081851D01*
X33472729Y-70081848D01*
X33299807Y-70004857D01*
X33299802Y-70004855D01*
X33154000Y-69973865D01*
X33114646Y-69965500D01*
X32925354Y-69965500D01*
X32892897Y-69972398D01*
X32740197Y-70004855D01*
X32740192Y-70004857D01*
X32567270Y-70081848D01*
X32567265Y-70081851D01*
X32414129Y-70193111D01*
X32287466Y-70333785D01*
X32192821Y-70497715D01*
X32192818Y-70497722D01*
X32134327Y-70677740D01*
X32134326Y-70677744D01*
X32114540Y-70866000D01*
X32134326Y-71054256D01*
X32134327Y-71054259D01*
X32148730Y-71098587D01*
X32150725Y-71168428D01*
X32114645Y-71228261D01*
X32056580Y-71258195D01*
X31978197Y-71274855D01*
X31978192Y-71274857D01*
X31805270Y-71351848D01*
X31805265Y-71351851D01*
X31652129Y-71463111D01*
X31525466Y-71603785D01*
X31430821Y-71767715D01*
X31430818Y-71767722D01*
X31372327Y-71947740D01*
X31372326Y-71947744D01*
X31352540Y-72136000D01*
X31372326Y-72324256D01*
X31372327Y-72324259D01*
X31430818Y-72504277D01*
X31430821Y-72504284D01*
X31525467Y-72668216D01*
X31652128Y-72808887D01*
X31652129Y-72808888D01*
X31717443Y-72856341D01*
X31760109Y-72911670D01*
X31766088Y-72981284D01*
X31733483Y-73043079D01*
X31732239Y-73044340D01*
X30602953Y-74173626D01*
X30590669Y-74183469D01*
X30590849Y-74183687D01*
X30584838Y-74188659D01*
X30537322Y-74239258D01*
X30516375Y-74260205D01*
X30512106Y-74265709D01*
X30508315Y-74270147D01*
X30476308Y-74304230D01*
X30476305Y-74304234D01*
X30466606Y-74321877D01*
X30455928Y-74338133D01*
X30443594Y-74354034D01*
X30443589Y-74354042D01*
X30425025Y-74396943D01*
X30422454Y-74402191D01*
X30399927Y-74443167D01*
X30394920Y-74462668D01*
X30388621Y-74481064D01*
X30383345Y-74493258D01*
X30380625Y-74499544D01*
X30380624Y-74499546D01*
X30373312Y-74545716D01*
X30372128Y-74551437D01*
X30360499Y-74596729D01*
X30360499Y-74616861D01*
X30358973Y-74636249D01*
X30355825Y-74656129D01*
X30355825Y-74656135D01*
X30360224Y-74702678D01*
X30360499Y-74708515D01*
X30360499Y-76879040D01*
X30358772Y-76894687D01*
X30359053Y-76894714D01*
X30358319Y-76902473D01*
X30360500Y-76971859D01*
X30360500Y-77001477D01*
X30361371Y-77008380D01*
X30361829Y-77014199D01*
X30363298Y-77060942D01*
X30368916Y-77080275D01*
X30372862Y-77099329D01*
X30375383Y-77119287D01*
X30375386Y-77119299D01*
X30392595Y-77162765D01*
X30394487Y-77168293D01*
X30407530Y-77213187D01*
X30407530Y-77213188D01*
X30417777Y-77230515D01*
X30426335Y-77247985D01*
X30433745Y-77266701D01*
X30461229Y-77304529D01*
X30464437Y-77309413D01*
X30488234Y-77349652D01*
X30488240Y-77349660D01*
X30502469Y-77363888D01*
X30515109Y-77378687D01*
X30526934Y-77394964D01*
X30526936Y-77394965D01*
X30526937Y-77394967D01*
X30530004Y-77397504D01*
X30562957Y-77424765D01*
X30567268Y-77428687D01*
X34558296Y-81419715D01*
X38359624Y-85221043D01*
X38369471Y-85233333D01*
X38369689Y-85233154D01*
X38374657Y-85239160D01*
X38425257Y-85286677D01*
X38446205Y-85307624D01*
X38451706Y-85311891D01*
X38456145Y-85315682D01*
X38490233Y-85347693D01*
X38490236Y-85347694D01*
X38495645Y-85351625D01*
X38538312Y-85406954D01*
X38544293Y-85476567D01*
X38540693Y-85490263D01*
X38496649Y-85625818D01*
X38484326Y-85663744D01*
X38468203Y-85817143D01*
X38467011Y-85828489D01*
X38440426Y-85893103D01*
X38431371Y-85903208D01*
X35844400Y-88490181D01*
X35783077Y-88523666D01*
X35756719Y-88526500D01*
X33564281Y-88526500D01*
X33497242Y-88506815D01*
X33451487Y-88454011D01*
X33441543Y-88384853D01*
X33470568Y-88321297D01*
X33476600Y-88314819D01*
X33732600Y-88058819D01*
X33793923Y-88025334D01*
X33820281Y-88022500D01*
X33876644Y-88022500D01*
X33876646Y-88022500D01*
X34061803Y-87983144D01*
X34234730Y-87906151D01*
X34387871Y-87794888D01*
X34514533Y-87654216D01*
X34609179Y-87490284D01*
X34667674Y-87310256D01*
X34687460Y-87122000D01*
X34667674Y-86933744D01*
X34609179Y-86753716D01*
X34514533Y-86589784D01*
X34387871Y-86449112D01*
X34387870Y-86449111D01*
X34234734Y-86337851D01*
X34234729Y-86337848D01*
X34061807Y-86260857D01*
X34061802Y-86260855D01*
X33916001Y-86229865D01*
X33876646Y-86221500D01*
X33687354Y-86221500D01*
X33654897Y-86228398D01*
X33502197Y-86260855D01*
X33502192Y-86260857D01*
X33329270Y-86337848D01*
X33329265Y-86337851D01*
X33176129Y-86449111D01*
X33049466Y-86589785D01*
X32954821Y-86753715D01*
X32954818Y-86753722D01*
X32899062Y-86925322D01*
X32896326Y-86933744D01*
X32890313Y-86990957D01*
X32879011Y-87098489D01*
X32852426Y-87163103D01*
X32843371Y-87173208D01*
X30348953Y-89667626D01*
X30336669Y-89677469D01*
X30336849Y-89677687D01*
X30330838Y-89682659D01*
X30283322Y-89733258D01*
X30262375Y-89754205D01*
X30258106Y-89759709D01*
X30254315Y-89764147D01*
X30222308Y-89798230D01*
X30222305Y-89798234D01*
X30212606Y-89815877D01*
X30201927Y-89832135D01*
X30194480Y-89841736D01*
X30137838Y-89882643D01*
X30068071Y-89886434D01*
X30007330Y-89851905D01*
X29974899Y-89790017D01*
X29972499Y-89765737D01*
X29972499Y-41072000D01*
X101048341Y-41072000D01*
X101068936Y-41307403D01*
X101068938Y-41307413D01*
X101130094Y-41535655D01*
X101130096Y-41535659D01*
X101130097Y-41535663D01*
X101213155Y-41713781D01*
X101229965Y-41749830D01*
X101229967Y-41749834D01*
X101338281Y-41904521D01*
X101365505Y-41943401D01*
X101532599Y-42110495D01*
X101629384Y-42178265D01*
X101726165Y-42246032D01*
X101726167Y-42246033D01*
X101726170Y-42246035D01*
X101940337Y-42345903D01*
X102168592Y-42407063D01*
X102356918Y-42423539D01*
X102403999Y-42427659D01*
X102404000Y-42427659D01*
X102404001Y-42427659D01*
X102443234Y-42424226D01*
X102639408Y-42407063D01*
X102867663Y-42345903D01*
X103081830Y-42246035D01*
X103275401Y-42110495D01*
X103442495Y-41943401D01*
X103572730Y-41757405D01*
X103627307Y-41713781D01*
X103696805Y-41706587D01*
X103759160Y-41738110D01*
X103775879Y-41757405D01*
X103905890Y-41943078D01*
X104072917Y-42110105D01*
X104266421Y-42245600D01*
X104480507Y-42345429D01*
X104480516Y-42345433D01*
X104694000Y-42402634D01*
X104694000Y-41684301D01*
X104713685Y-41617262D01*
X104766489Y-41571507D01*
X104835647Y-41561563D01*
X104908237Y-41572000D01*
X104908238Y-41572000D01*
X104979762Y-41572000D01*
X104979763Y-41572000D01*
X105052353Y-41561563D01*
X105121512Y-41571507D01*
X105174315Y-41617262D01*
X105194000Y-41684301D01*
X105194000Y-42402633D01*
X105407483Y-42345433D01*
X105407492Y-42345429D01*
X105621578Y-42245600D01*
X105815082Y-42110105D01*
X105982105Y-41943082D01*
X106117600Y-41749578D01*
X106217429Y-41535492D01*
X106217432Y-41535486D01*
X106274636Y-41322000D01*
X105557347Y-41322000D01*
X105490308Y-41302315D01*
X105444553Y-41249511D01*
X105434609Y-41180353D01*
X105438369Y-41163067D01*
X105444000Y-41143888D01*
X105444000Y-41000111D01*
X105438369Y-40980933D01*
X105438370Y-40911064D01*
X105476145Y-40852286D01*
X105539701Y-40823262D01*
X105557347Y-40822000D01*
X106274636Y-40822000D01*
X106274635Y-40821999D01*
X106217432Y-40608513D01*
X106217429Y-40608507D01*
X106117600Y-40394422D01*
X106117599Y-40394420D01*
X105982113Y-40200926D01*
X105982108Y-40200920D01*
X105815082Y-40033894D01*
X105621578Y-39898399D01*
X105407492Y-39798570D01*
X105407486Y-39798567D01*
X105194000Y-39741364D01*
X105194000Y-40459698D01*
X105174315Y-40526737D01*
X105121511Y-40572492D01*
X105052355Y-40582436D01*
X104979766Y-40572000D01*
X104979763Y-40572000D01*
X104908237Y-40572000D01*
X104908233Y-40572000D01*
X104835645Y-40582436D01*
X104766487Y-40572492D01*
X104713684Y-40526736D01*
X104694000Y-40459698D01*
X104694000Y-39741364D01*
X104693999Y-39741364D01*
X104480513Y-39798567D01*
X104480507Y-39798570D01*
X104266422Y-39898399D01*
X104266420Y-39898400D01*
X104072926Y-40033886D01*
X104072920Y-40033891D01*
X103905891Y-40200920D01*
X103905890Y-40200922D01*
X103775880Y-40386595D01*
X103721303Y-40430219D01*
X103651804Y-40437412D01*
X103589450Y-40405890D01*
X103572730Y-40386594D01*
X103442494Y-40200597D01*
X103275402Y-40033506D01*
X103275395Y-40033501D01*
X103081834Y-39897967D01*
X103081830Y-39897965D01*
X103081829Y-39897964D01*
X102867663Y-39798097D01*
X102867659Y-39798096D01*
X102867655Y-39798094D01*
X102639413Y-39736938D01*
X102639403Y-39736936D01*
X102404001Y-39716341D01*
X102403999Y-39716341D01*
X102168596Y-39736936D01*
X102168586Y-39736938D01*
X101940344Y-39798094D01*
X101940335Y-39798098D01*
X101726171Y-39897964D01*
X101726169Y-39897965D01*
X101532597Y-40033505D01*
X101365505Y-40200597D01*
X101229965Y-40394169D01*
X101229964Y-40394171D01*
X101130098Y-40608335D01*
X101130094Y-40608344D01*
X101068938Y-40836586D01*
X101068936Y-40836596D01*
X101048341Y-41071999D01*
X101048341Y-41072000D01*
X29972499Y-41072000D01*
X29972499Y-26797000D01*
X30779323Y-26797000D01*
X30798012Y-26998697D01*
X30853446Y-27193524D01*
X30853451Y-27193537D01*
X30943736Y-27374852D01*
X31065808Y-27536502D01*
X31168674Y-27630276D01*
X31215502Y-27672965D01*
X31387723Y-27779600D01*
X31419022Y-27791725D01*
X31422031Y-27792994D01*
X31424526Y-27793857D01*
X31576606Y-27852774D01*
X31609298Y-27858885D01*
X31612488Y-27859570D01*
X31618849Y-27861114D01*
X31629121Y-27862590D01*
X31775719Y-27889995D01*
X31775720Y-27889995D01*
X31810854Y-27889995D01*
X31818994Y-27890577D01*
X31819000Y-27890458D01*
X31824895Y-27890738D01*
X31824899Y-27890739D01*
X31824902Y-27890738D01*
X31824907Y-27890739D01*
X31832450Y-27890380D01*
X31832463Y-27890383D01*
X31839125Y-27890065D01*
X31842078Y-27889995D01*
X31978278Y-27889995D01*
X31978281Y-27889995D01*
X32021220Y-27881968D01*
X32029641Y-27880985D01*
X32032832Y-27880834D01*
X32032838Y-27880832D01*
X32035224Y-27880719D01*
X32035278Y-27880714D01*
X32068060Y-27879151D01*
X32098532Y-27867515D01*
X32177394Y-27852774D01*
X32221927Y-27835521D01*
X32229537Y-27833125D01*
X32233289Y-27832204D01*
X32235133Y-27831757D01*
X32235137Y-27831754D01*
X32240859Y-27830368D01*
X32240875Y-27830363D01*
X32267350Y-27823940D01*
X32293854Y-27807656D01*
X32353088Y-27784709D01*
X32366275Y-27779601D01*
X32366280Y-27779598D01*
X32410562Y-27752179D01*
X32417420Y-27748508D01*
X32424490Y-27745280D01*
X32424493Y-27745277D01*
X32430161Y-27742689D01*
X32431585Y-27742484D01*
X32435274Y-27740354D01*
X32452723Y-27732385D01*
X32474585Y-27712537D01*
X32538498Y-27672965D01*
X32580199Y-27634949D01*
X32585989Y-27630276D01*
X32593589Y-27624864D01*
X32596581Y-27623828D01*
X32603699Y-27617661D01*
X32617608Y-27607755D01*
X32634429Y-27585511D01*
X32688193Y-27536500D01*
X32724878Y-27487920D01*
X32729475Y-27482510D01*
X32732961Y-27478854D01*
X32737108Y-27476459D01*
X32745883Y-27465302D01*
X32756140Y-27454545D01*
X32767809Y-27431070D01*
X32810264Y-27374852D01*
X32836881Y-27321395D01*
X32844465Y-27313215D01*
X32845858Y-27309738D01*
X32856661Y-27288782D01*
X32863490Y-27278155D01*
X32870135Y-27254614D01*
X32900551Y-27193532D01*
X32900553Y-27193527D01*
X32901137Y-27191474D01*
X32917239Y-27134880D01*
X32924037Y-27124103D01*
X32925385Y-27117113D01*
X32932026Y-27094492D01*
X32935867Y-27084897D01*
X32937878Y-27062342D01*
X32955987Y-26998698D01*
X32962912Y-26923964D01*
X32963762Y-26917991D01*
X32967021Y-26901084D01*
X32967021Y-26901081D01*
X32967997Y-26896016D01*
X32967999Y-26896001D01*
X32970766Y-26881642D01*
X32968749Y-26860968D01*
X32974677Y-26797000D01*
X111043323Y-26797000D01*
X111062012Y-26998697D01*
X111117446Y-27193524D01*
X111117451Y-27193537D01*
X111207736Y-27374852D01*
X111329808Y-27536502D01*
X111432674Y-27630276D01*
X111479502Y-27672965D01*
X111651723Y-27779600D01*
X111683022Y-27791725D01*
X111686031Y-27792994D01*
X111688526Y-27793857D01*
X111840606Y-27852774D01*
X111873298Y-27858885D01*
X111876488Y-27859570D01*
X111882849Y-27861114D01*
X111893121Y-27862590D01*
X112039719Y-27889995D01*
X112039720Y-27889995D01*
X112074854Y-27889995D01*
X112082994Y-27890577D01*
X112083000Y-27890458D01*
X112088895Y-27890738D01*
X112088899Y-27890739D01*
X112088902Y-27890738D01*
X112088907Y-27890739D01*
X112096450Y-27890380D01*
X112096463Y-27890383D01*
X112103125Y-27890065D01*
X112106078Y-27889995D01*
X112242278Y-27889995D01*
X112242281Y-27889995D01*
X112285220Y-27881968D01*
X112293641Y-27880985D01*
X112296832Y-27880834D01*
X112296838Y-27880832D01*
X112299224Y-27880719D01*
X112299278Y-27880714D01*
X112332060Y-27879151D01*
X112362532Y-27867515D01*
X112441394Y-27852774D01*
X112485927Y-27835521D01*
X112493537Y-27833125D01*
X112497289Y-27832204D01*
X112499133Y-27831757D01*
X112499137Y-27831754D01*
X112504859Y-27830368D01*
X112504875Y-27830363D01*
X112531350Y-27823940D01*
X112557854Y-27807656D01*
X112617088Y-27784709D01*
X112630275Y-27779601D01*
X112630280Y-27779598D01*
X112674562Y-27752179D01*
X112681420Y-27748508D01*
X112688490Y-27745280D01*
X112688493Y-27745277D01*
X112694161Y-27742689D01*
X112695585Y-27742484D01*
X112699274Y-27740354D01*
X112716723Y-27732385D01*
X112738585Y-27712537D01*
X112802498Y-27672965D01*
X112844199Y-27634949D01*
X112849989Y-27630276D01*
X112857589Y-27624864D01*
X112860581Y-27623828D01*
X112867699Y-27617661D01*
X112881608Y-27607755D01*
X112898429Y-27585511D01*
X112952193Y-27536500D01*
X112988878Y-27487920D01*
X112993475Y-27482510D01*
X112996961Y-27478854D01*
X113001108Y-27476459D01*
X113009883Y-27465302D01*
X113020140Y-27454545D01*
X113031809Y-27431070D01*
X113074264Y-27374852D01*
X113100881Y-27321395D01*
X113108465Y-27313215D01*
X113109858Y-27309738D01*
X113120661Y-27288782D01*
X113127490Y-27278155D01*
X113134135Y-27254614D01*
X113164551Y-27193532D01*
X113164553Y-27193527D01*
X113165137Y-27191474D01*
X113181239Y-27134880D01*
X113188037Y-27124103D01*
X113189385Y-27117113D01*
X113196026Y-27094492D01*
X113199867Y-27084897D01*
X113201878Y-27062342D01*
X113219987Y-26998698D01*
X113226912Y-26923964D01*
X113227762Y-26917991D01*
X113231021Y-26901084D01*
X113231021Y-26901081D01*
X113231997Y-26896016D01*
X113231999Y-26896001D01*
X113234766Y-26881642D01*
X113232749Y-26860968D01*
X113238677Y-26797000D01*
X113232749Y-26733030D01*
X113235772Y-26717577D01*
X113231301Y-26694377D01*
X113231297Y-26694354D01*
X113231021Y-26692923D01*
X113231021Y-26692916D01*
X113227760Y-26676000D01*
X113226913Y-26670055D01*
X113219987Y-26595302D01*
X113201878Y-26531656D01*
X113202022Y-26514481D01*
X113196026Y-26499504D01*
X113189383Y-26476883D01*
X113188849Y-26474112D01*
X113181239Y-26459119D01*
X113169113Y-26416500D01*
X113164553Y-26400473D01*
X113134132Y-26339380D01*
X113130876Y-26321112D01*
X113120660Y-26305216D01*
X113109868Y-26284283D01*
X113100881Y-26272603D01*
X113074264Y-26219148D01*
X113031809Y-26162929D01*
X113024778Y-26144316D01*
X113009883Y-26128695D01*
X113002995Y-26119936D01*
X112996957Y-26115139D01*
X112993475Y-26111488D01*
X112988866Y-26106063D01*
X112952193Y-26057500D01*
X112952190Y-26057497D01*
X112898427Y-26008484D01*
X112887432Y-25990390D01*
X112867695Y-25976334D01*
X112862134Y-25971515D01*
X112857591Y-25969136D01*
X112852453Y-25965478D01*
X112849995Y-25963728D01*
X112844193Y-25959045D01*
X112802498Y-25921035D01*
X112738584Y-25881461D01*
X112723613Y-25864759D01*
X112699274Y-25853644D01*
X112696407Y-25851989D01*
X112694168Y-25851312D01*
X112681437Y-25845498D01*
X112674547Y-25841811D01*
X112630277Y-25814400D01*
X112630276Y-25814399D01*
X112557851Y-25786342D01*
X112539109Y-25771939D01*
X112493772Y-25760941D01*
X112485985Y-25758500D01*
X112461820Y-25749139D01*
X112441394Y-25741226D01*
X112441388Y-25741224D01*
X112441382Y-25741223D01*
X112362526Y-25726482D01*
X112340419Y-25715241D01*
X112293652Y-25713013D01*
X112285202Y-25712027D01*
X112242286Y-25704005D01*
X112242281Y-25704005D01*
X112106003Y-25704005D01*
X112103053Y-25703935D01*
X112088899Y-25703260D01*
X112083000Y-25703542D01*
X112082994Y-25703422D01*
X112074854Y-25704005D01*
X112039719Y-25704005D01*
X111919479Y-25726482D01*
X111893122Y-25731409D01*
X111882846Y-25732886D01*
X111876480Y-25734430D01*
X111873265Y-25735120D01*
X111840608Y-25741225D01*
X111840604Y-25741226D01*
X111688530Y-25800140D01*
X111686031Y-25801005D01*
X111683019Y-25802274D01*
X111651727Y-25814398D01*
X111651716Y-25814404D01*
X111479503Y-25921033D01*
X111479501Y-25921035D01*
X111329808Y-26057497D01*
X111207736Y-26219147D01*
X111117451Y-26400462D01*
X111117446Y-26400475D01*
X111062012Y-26595302D01*
X111043323Y-26796999D01*
X111043323Y-26797000D01*
X32974677Y-26797000D01*
X32968749Y-26733030D01*
X32971772Y-26717577D01*
X32967301Y-26694377D01*
X32967297Y-26694354D01*
X32967021Y-26692923D01*
X32967021Y-26692916D01*
X32963760Y-26676000D01*
X32962913Y-26670055D01*
X32955987Y-26595302D01*
X32937878Y-26531656D01*
X32938022Y-26514481D01*
X32932026Y-26499504D01*
X32925383Y-26476883D01*
X32924849Y-26474112D01*
X32917239Y-26459119D01*
X32905113Y-26416500D01*
X32900553Y-26400473D01*
X32870132Y-26339380D01*
X32866876Y-26321112D01*
X32856660Y-26305216D01*
X32845868Y-26284283D01*
X32836881Y-26272603D01*
X32810264Y-26219148D01*
X32767809Y-26162929D01*
X32760778Y-26144316D01*
X32745883Y-26128695D01*
X32738995Y-26119936D01*
X32732957Y-26115139D01*
X32729475Y-26111488D01*
X32724866Y-26106063D01*
X32688193Y-26057500D01*
X32688190Y-26057497D01*
X32634427Y-26008484D01*
X32623432Y-25990390D01*
X32603695Y-25976334D01*
X32598134Y-25971515D01*
X32593591Y-25969136D01*
X32588453Y-25965478D01*
X32585995Y-25963728D01*
X32580193Y-25959045D01*
X32538498Y-25921035D01*
X32474584Y-25881461D01*
X32459613Y-25864759D01*
X32435274Y-25853644D01*
X32432407Y-25851989D01*
X32430168Y-25851312D01*
X32417437Y-25845498D01*
X32410547Y-25841811D01*
X32366277Y-25814400D01*
X32366276Y-25814399D01*
X32293851Y-25786342D01*
X32275109Y-25771939D01*
X32229772Y-25760941D01*
X32221985Y-25758500D01*
X32197820Y-25749139D01*
X32177394Y-25741226D01*
X32177388Y-25741224D01*
X32177382Y-25741223D01*
X32098526Y-25726482D01*
X32076419Y-25715241D01*
X32029652Y-25713013D01*
X32021202Y-25712027D01*
X31978286Y-25704005D01*
X31978281Y-25704005D01*
X31842003Y-25704005D01*
X31839053Y-25703935D01*
X31824899Y-25703260D01*
X31819000Y-25703542D01*
X31818994Y-25703422D01*
X31810854Y-25704005D01*
X31775719Y-25704005D01*
X31655479Y-25726482D01*
X31629122Y-25731409D01*
X31618846Y-25732886D01*
X31612480Y-25734430D01*
X31609265Y-25735120D01*
X31576608Y-25741225D01*
X31576604Y-25741226D01*
X31424530Y-25800140D01*
X31422031Y-25801005D01*
X31419019Y-25802274D01*
X31387727Y-25814398D01*
X31387716Y-25814404D01*
X31215503Y-25921033D01*
X31215501Y-25921035D01*
X31065808Y-26057497D01*
X30943736Y-26219147D01*
X30853451Y-26400462D01*
X30853446Y-26400475D01*
X30798012Y-26595302D01*
X30779323Y-26796999D01*
X30779323Y-26797000D01*
X29972499Y-26797000D01*
X29972499Y-26418213D01*
X29972657Y-26413789D01*
X29977482Y-26346326D01*
X29989333Y-26195760D01*
X29990560Y-26187445D01*
X30003341Y-26128695D01*
X30011429Y-26091509D01*
X30023466Y-26041378D01*
X30039959Y-25972677D01*
X30042157Y-25965478D01*
X30044558Y-25959041D01*
X30078588Y-25867802D01*
X30123372Y-25759687D01*
X30126237Y-25753701D01*
X30130065Y-25746691D01*
X30176727Y-25661234D01*
X30178211Y-25658671D01*
X30237754Y-25561506D01*
X30240924Y-25556834D01*
X30304656Y-25471699D01*
X30307060Y-25468694D01*
X30380534Y-25382667D01*
X30383792Y-25379143D01*
X30459143Y-25303792D01*
X30462667Y-25300534D01*
X30548694Y-25227060D01*
X30551699Y-25224656D01*
X30636834Y-25160924D01*
X30641506Y-25157754D01*
X30738671Y-25098211D01*
X30741234Y-25096727D01*
X30833704Y-25046235D01*
X30839687Y-25043372D01*
X30947802Y-24998588D01*
X31045482Y-24962155D01*
X31052678Y-24959959D01*
X31171492Y-24931433D01*
X31267451Y-24910559D01*
X31275762Y-24909333D01*
X31426231Y-24897489D01*
X31493791Y-24892657D01*
X31498214Y-24892500D01*
X32257901Y-24892500D01*
X112519786Y-24892500D01*
X112524207Y-24892657D01*
G37*
%TD.AperFunction*%
%TA.AperFunction,Conductor*%
G36*
X57940655Y-73545185D02*
G01*
X57986410Y-73597989D01*
X57996354Y-73667147D01*
X57969156Y-73728545D01*
X57957226Y-73742964D01*
X57953295Y-73747285D01*
X57272953Y-74427626D01*
X57260669Y-74437469D01*
X57260849Y-74437687D01*
X57254838Y-74442659D01*
X57207322Y-74493258D01*
X57186375Y-74514205D01*
X57182106Y-74519709D01*
X57178315Y-74524147D01*
X57146308Y-74558230D01*
X57146305Y-74558234D01*
X57136606Y-74575877D01*
X57125928Y-74592133D01*
X57113594Y-74608034D01*
X57113589Y-74608042D01*
X57095025Y-74650943D01*
X57092454Y-74656191D01*
X57069927Y-74697167D01*
X57064920Y-74716668D01*
X57058621Y-74735064D01*
X57054991Y-74743455D01*
X57050625Y-74753544D01*
X57050624Y-74753546D01*
X57043312Y-74799716D01*
X57042127Y-74805438D01*
X57030500Y-74850723D01*
X57030500Y-74870858D01*
X57028973Y-74890257D01*
X57025825Y-74910131D01*
X57025824Y-74910139D01*
X57026468Y-74916948D01*
X57013177Y-74985542D01*
X56974142Y-75030186D01*
X56786594Y-75161508D01*
X56619505Y-75328597D01*
X56489575Y-75514158D01*
X56434998Y-75557783D01*
X56365500Y-75564977D01*
X56303145Y-75533454D01*
X56286425Y-75514158D01*
X56156494Y-75328597D01*
X55989402Y-75161506D01*
X55989395Y-75161501D01*
X55795834Y-75025967D01*
X55795830Y-75025965D01*
X55786328Y-75021534D01*
X55581663Y-74926097D01*
X55581659Y-74926096D01*
X55581655Y-74926094D01*
X55353413Y-74864938D01*
X55353403Y-74864936D01*
X55118001Y-74844341D01*
X55117999Y-74844341D01*
X54882596Y-74864936D01*
X54882586Y-74864938D01*
X54654344Y-74926094D01*
X54654335Y-74926098D01*
X54440171Y-75025964D01*
X54440169Y-75025965D01*
X54246597Y-75161505D01*
X54079505Y-75328597D01*
X53949575Y-75514158D01*
X53894998Y-75557783D01*
X53825500Y-75564977D01*
X53763145Y-75533454D01*
X53746425Y-75514158D01*
X53616494Y-75328597D01*
X53449402Y-75161506D01*
X53449395Y-75161501D01*
X53255834Y-75025967D01*
X53255830Y-75025965D01*
X53246328Y-75021534D01*
X53041663Y-74926097D01*
X53041659Y-74926096D01*
X53041655Y-74926094D01*
X52813413Y-74864938D01*
X52813403Y-74864936D01*
X52578001Y-74844341D01*
X52577999Y-74844341D01*
X52342596Y-74864936D01*
X52342586Y-74864938D01*
X52114344Y-74926094D01*
X52114335Y-74926098D01*
X51900171Y-75025964D01*
X51900169Y-75025965D01*
X51706597Y-75161505D01*
X51539505Y-75328597D01*
X51409575Y-75514158D01*
X51354998Y-75557783D01*
X51285500Y-75564977D01*
X51223145Y-75533454D01*
X51206425Y-75514158D01*
X51076494Y-75328597D01*
X50909402Y-75161506D01*
X50909395Y-75161501D01*
X50715834Y-75025967D01*
X50715830Y-75025965D01*
X50706328Y-75021534D01*
X50501663Y-74926097D01*
X50501659Y-74926096D01*
X50501655Y-74926094D01*
X50273413Y-74864938D01*
X50273403Y-74864936D01*
X50038001Y-74844341D01*
X50037999Y-74844341D01*
X49802596Y-74864936D01*
X49802586Y-74864938D01*
X49574344Y-74926094D01*
X49574335Y-74926098D01*
X49360171Y-75025964D01*
X49360169Y-75025965D01*
X49166597Y-75161505D01*
X48999505Y-75328597D01*
X48869575Y-75514158D01*
X48814998Y-75557783D01*
X48745500Y-75564977D01*
X48683145Y-75533454D01*
X48666425Y-75514158D01*
X48536494Y-75328597D01*
X48369402Y-75161506D01*
X48369395Y-75161501D01*
X48175834Y-75025967D01*
X48175830Y-75025965D01*
X48166328Y-75021534D01*
X47961663Y-74926097D01*
X47961659Y-74926096D01*
X47961655Y-74926094D01*
X47733413Y-74864938D01*
X47733403Y-74864936D01*
X47498001Y-74844341D01*
X47497999Y-74844341D01*
X47262596Y-74864936D01*
X47262586Y-74864938D01*
X47034344Y-74926094D01*
X47034335Y-74926098D01*
X46820171Y-75025964D01*
X46820169Y-75025965D01*
X46626597Y-75161505D01*
X46459505Y-75328597D01*
X46329575Y-75514158D01*
X46274998Y-75557783D01*
X46205500Y-75564977D01*
X46143145Y-75533454D01*
X46126425Y-75514158D01*
X45996494Y-75328597D01*
X45829402Y-75161506D01*
X45829395Y-75161501D01*
X45635834Y-75025967D01*
X45635830Y-75025965D01*
X45626328Y-75021534D01*
X45421663Y-74926097D01*
X45421659Y-74926096D01*
X45421655Y-74926094D01*
X45193413Y-74864938D01*
X45193403Y-74864936D01*
X44958001Y-74844341D01*
X44957999Y-74844341D01*
X44722596Y-74864936D01*
X44722586Y-74864938D01*
X44494344Y-74926094D01*
X44494335Y-74926098D01*
X44280171Y-75025964D01*
X44280169Y-75025965D01*
X44086597Y-75161505D01*
X43919508Y-75328594D01*
X43789574Y-75514159D01*
X43734997Y-75557784D01*
X43665498Y-75564976D01*
X43603144Y-75533454D01*
X43586424Y-75514158D01*
X43456494Y-75328597D01*
X43289402Y-75161506D01*
X43289395Y-75161501D01*
X43095834Y-75025967D01*
X43095830Y-75025965D01*
X43086328Y-75021534D01*
X42881663Y-74926097D01*
X42881659Y-74926096D01*
X42881655Y-74926094D01*
X42653413Y-74864938D01*
X42653403Y-74864936D01*
X42418001Y-74844341D01*
X42417999Y-74844341D01*
X42182596Y-74864936D01*
X42182586Y-74864938D01*
X41954344Y-74926094D01*
X41954335Y-74926098D01*
X41740171Y-75025964D01*
X41740169Y-75025965D01*
X41546597Y-75161505D01*
X41379505Y-75328597D01*
X41249575Y-75514158D01*
X41194998Y-75557783D01*
X41125500Y-75564977D01*
X41063145Y-75533454D01*
X41046425Y-75514158D01*
X40916494Y-75328597D01*
X40749402Y-75161506D01*
X40749395Y-75161501D01*
X40555834Y-75025967D01*
X40555830Y-75025965D01*
X40546328Y-75021534D01*
X40341663Y-74926097D01*
X40341659Y-74926096D01*
X40341655Y-74926094D01*
X40113413Y-74864938D01*
X40113403Y-74864936D01*
X39878001Y-74844341D01*
X39877999Y-74844341D01*
X39642596Y-74864936D01*
X39642586Y-74864938D01*
X39414344Y-74926094D01*
X39414335Y-74926098D01*
X39200171Y-75025964D01*
X39200169Y-75025965D01*
X39006597Y-75161505D01*
X38839505Y-75328597D01*
X38709575Y-75514158D01*
X38654998Y-75557783D01*
X38585500Y-75564977D01*
X38523145Y-75533454D01*
X38506425Y-75514158D01*
X38376494Y-75328597D01*
X38209402Y-75161506D01*
X38209395Y-75161501D01*
X38015834Y-75025967D01*
X38015830Y-75025965D01*
X38006328Y-75021534D01*
X37801663Y-74926097D01*
X37801659Y-74926096D01*
X37801655Y-74926094D01*
X37573413Y-74864938D01*
X37573403Y-74864936D01*
X37338001Y-74844341D01*
X37337999Y-74844341D01*
X37102596Y-74864936D01*
X37102586Y-74864938D01*
X36874344Y-74926094D01*
X36874335Y-74926098D01*
X36660171Y-75025964D01*
X36660169Y-75025965D01*
X36466597Y-75161505D01*
X36299508Y-75328594D01*
X36169269Y-75514595D01*
X36114692Y-75558219D01*
X36045193Y-75565412D01*
X35982839Y-75533890D01*
X35966119Y-75514594D01*
X35836113Y-75328926D01*
X35836108Y-75328920D01*
X35669082Y-75161894D01*
X35475578Y-75026399D01*
X35261492Y-74926570D01*
X35261486Y-74926567D01*
X35048000Y-74869364D01*
X35048000Y-75587698D01*
X35028315Y-75654737D01*
X34975511Y-75700492D01*
X34906355Y-75710436D01*
X34833766Y-75700000D01*
X34833763Y-75700000D01*
X34762237Y-75700000D01*
X34762233Y-75700000D01*
X34689645Y-75710436D01*
X34620487Y-75700492D01*
X34567684Y-75654736D01*
X34548000Y-75587698D01*
X34548000Y-74869364D01*
X34547999Y-74869364D01*
X34334513Y-74926567D01*
X34334507Y-74926570D01*
X34120422Y-75026399D01*
X34120420Y-75026400D01*
X33926926Y-75161886D01*
X33926920Y-75161891D01*
X33759891Y-75328920D01*
X33759886Y-75328926D01*
X33624400Y-75522420D01*
X33624399Y-75522422D01*
X33524570Y-75736507D01*
X33524567Y-75736513D01*
X33467364Y-75949999D01*
X33467364Y-75950000D01*
X34184653Y-75950000D01*
X34251692Y-75969685D01*
X34297447Y-76022489D01*
X34307391Y-76091647D01*
X34303631Y-76108933D01*
X34298000Y-76128111D01*
X34298000Y-76271889D01*
X34300793Y-76281401D01*
X34303631Y-76291067D01*
X34303630Y-76360936D01*
X34265855Y-76419714D01*
X34202299Y-76448738D01*
X34184653Y-76450000D01*
X33467364Y-76450000D01*
X33524567Y-76663486D01*
X33524570Y-76663492D01*
X33624399Y-76877578D01*
X33759894Y-77071082D01*
X33926917Y-77238105D01*
X34120421Y-77373600D01*
X34334507Y-77473429D01*
X34334516Y-77473433D01*
X34548000Y-77530634D01*
X34548000Y-76812301D01*
X34567685Y-76745262D01*
X34620489Y-76699507D01*
X34689647Y-76689563D01*
X34762237Y-76700000D01*
X34762238Y-76700000D01*
X34833762Y-76700000D01*
X34833763Y-76700000D01*
X34906353Y-76689563D01*
X34975512Y-76699507D01*
X35028315Y-76745262D01*
X35048000Y-76812301D01*
X35048000Y-77530633D01*
X35261483Y-77473433D01*
X35261492Y-77473429D01*
X35475578Y-77373600D01*
X35669082Y-77238105D01*
X35836105Y-77071082D01*
X35966119Y-76885405D01*
X36020696Y-76841781D01*
X36090195Y-76834588D01*
X36152549Y-76866110D01*
X36169269Y-76885405D01*
X36299505Y-77071401D01*
X36466599Y-77238495D01*
X36560905Y-77304529D01*
X36660165Y-77374032D01*
X36660167Y-77374033D01*
X36660170Y-77374035D01*
X36874337Y-77473903D01*
X36874343Y-77473904D01*
X36874344Y-77473905D01*
X36929285Y-77488626D01*
X37102592Y-77535063D01*
X37290918Y-77551539D01*
X37337999Y-77555659D01*
X37338000Y-77555659D01*
X37338001Y-77555659D01*
X37377234Y-77552226D01*
X37573408Y-77535063D01*
X37801663Y-77473903D01*
X38015830Y-77374035D01*
X38209401Y-77238495D01*
X38376495Y-77071401D01*
X38506424Y-76885842D01*
X38561002Y-76842217D01*
X38630500Y-76835023D01*
X38692855Y-76866546D01*
X38709575Y-76885842D01*
X38839500Y-77071395D01*
X38839505Y-77071401D01*
X39006599Y-77238495D01*
X39100905Y-77304529D01*
X39200165Y-77374032D01*
X39200167Y-77374033D01*
X39200170Y-77374035D01*
X39414337Y-77473903D01*
X39414343Y-77473904D01*
X39414344Y-77473905D01*
X39469285Y-77488626D01*
X39642592Y-77535063D01*
X39830918Y-77551539D01*
X39877999Y-77555659D01*
X39878000Y-77555659D01*
X39878001Y-77555659D01*
X39917234Y-77552226D01*
X40113408Y-77535063D01*
X40341663Y-77473903D01*
X40555830Y-77374035D01*
X40749401Y-77238495D01*
X40916495Y-77071401D01*
X41046424Y-76885842D01*
X41101002Y-76842217D01*
X41170500Y-76835023D01*
X41232855Y-76866546D01*
X41249575Y-76885842D01*
X41379500Y-77071395D01*
X41379505Y-77071401D01*
X41546599Y-77238495D01*
X41737624Y-77372252D01*
X41781248Y-77426828D01*
X41790500Y-77473826D01*
X41790500Y-78174719D01*
X41770815Y-78241758D01*
X41754181Y-78262400D01*
X39165400Y-80851181D01*
X39104077Y-80884666D01*
X39077719Y-80887500D01*
X39021354Y-80887500D01*
X38988897Y-80894398D01*
X38836197Y-80926855D01*
X38836192Y-80926857D01*
X38663270Y-81003848D01*
X38663265Y-81003851D01*
X38510129Y-81115111D01*
X38383466Y-81255785D01*
X38288821Y-81419715D01*
X38288818Y-81419722D01*
X38230327Y-81599740D01*
X38230326Y-81599744D01*
X38210540Y-81788000D01*
X38230326Y-81976256D01*
X38230327Y-81976259D01*
X38288818Y-82156277D01*
X38288821Y-82156284D01*
X38383467Y-82320216D01*
X38391408Y-82329035D01*
X38510129Y-82460888D01*
X38663265Y-82572148D01*
X38663270Y-82572151D01*
X38836192Y-82649142D01*
X38836197Y-82649144D01*
X39021354Y-82688500D01*
X39021355Y-82688500D01*
X39210644Y-82688500D01*
X39210646Y-82688500D01*
X39395803Y-82649144D01*
X39568730Y-82572151D01*
X39634154Y-82524617D01*
X39699960Y-82501138D01*
X39768014Y-82516963D01*
X39816709Y-82567069D01*
X39830584Y-82635547D01*
X39815422Y-82683768D01*
X39815462Y-82683786D01*
X39815310Y-82684126D01*
X39814428Y-82686933D01*
X39812821Y-82689715D01*
X39812818Y-82689722D01*
X39754327Y-82869740D01*
X39754326Y-82869744D01*
X39734540Y-83058000D01*
X39754326Y-83246256D01*
X39754327Y-83246259D01*
X39812818Y-83426277D01*
X39812821Y-83426284D01*
X39907467Y-83590216D01*
X40034129Y-83730888D01*
X40187265Y-83842148D01*
X40187270Y-83842151D01*
X40360192Y-83919142D01*
X40360197Y-83919144D01*
X40545354Y-83958500D01*
X40545355Y-83958500D01*
X40734644Y-83958500D01*
X40734646Y-83958500D01*
X40919803Y-83919144D01*
X41092730Y-83842151D01*
X41245871Y-83730888D01*
X41372533Y-83590216D01*
X41467179Y-83426284D01*
X41525674Y-83246256D01*
X41542989Y-83081505D01*
X41569572Y-83016894D01*
X41578619Y-83006798D01*
X45181599Y-79403819D01*
X45242923Y-79370334D01*
X45269281Y-79367500D01*
X60115033Y-79367500D01*
X60130681Y-79369227D01*
X60130708Y-79368946D01*
X60138475Y-79369680D01*
X60138476Y-79369679D01*
X60138477Y-79369680D01*
X60207860Y-79367500D01*
X60237476Y-79367500D01*
X60244378Y-79366627D01*
X60250190Y-79366169D01*
X60296943Y-79364701D01*
X60316272Y-79359084D01*
X60335328Y-79355137D01*
X60355293Y-79352616D01*
X60398770Y-79335401D01*
X60404276Y-79333516D01*
X60449191Y-79320468D01*
X60466515Y-79310221D01*
X60483983Y-79301663D01*
X60502703Y-79294253D01*
X60540542Y-79266759D01*
X60545391Y-79263574D01*
X60585656Y-79239763D01*
X60599897Y-79225520D01*
X60614678Y-79212897D01*
X60630967Y-79201063D01*
X60630969Y-79201059D01*
X60630971Y-79201059D01*
X60642845Y-79186703D01*
X60660776Y-79165028D01*
X60664689Y-79160728D01*
X62284584Y-77540833D01*
X62345905Y-77507350D01*
X62404356Y-77508741D01*
X62446107Y-77519928D01*
X62502592Y-77535063D01*
X62690918Y-77551539D01*
X62737999Y-77555659D01*
X62738000Y-77555659D01*
X62738001Y-77555659D01*
X62777234Y-77552226D01*
X62973408Y-77535063D01*
X63201663Y-77473903D01*
X63415830Y-77374035D01*
X63609401Y-77238495D01*
X63776495Y-77071401D01*
X63906424Y-76885842D01*
X63961002Y-76842217D01*
X64030500Y-76835023D01*
X64092855Y-76866546D01*
X64109575Y-76885842D01*
X64239500Y-77071395D01*
X64239505Y-77071401D01*
X64406599Y-77238495D01*
X64500905Y-77304529D01*
X64600165Y-77374032D01*
X64600167Y-77374033D01*
X64600170Y-77374035D01*
X64814337Y-77473903D01*
X64814343Y-77473904D01*
X64814344Y-77473905D01*
X64869285Y-77488626D01*
X65042592Y-77535063D01*
X65230918Y-77551539D01*
X65277999Y-77555659D01*
X65278000Y-77555659D01*
X65278001Y-77555659D01*
X65317234Y-77552226D01*
X65513408Y-77535063D01*
X65741663Y-77473903D01*
X65955830Y-77374035D01*
X66149401Y-77238495D01*
X66316495Y-77071401D01*
X66446424Y-76885842D01*
X66501002Y-76842217D01*
X66570500Y-76835023D01*
X66632855Y-76866546D01*
X66649575Y-76885842D01*
X66779500Y-77071395D01*
X66779505Y-77071401D01*
X66946599Y-77238495D01*
X67040905Y-77304529D01*
X67140165Y-77374032D01*
X67140167Y-77374033D01*
X67140170Y-77374035D01*
X67354337Y-77473903D01*
X67354343Y-77473904D01*
X67354344Y-77473905D01*
X67409285Y-77488626D01*
X67582592Y-77535063D01*
X67770918Y-77551539D01*
X67817999Y-77555659D01*
X67818000Y-77555659D01*
X67818001Y-77555659D01*
X67857234Y-77552226D01*
X68053408Y-77535063D01*
X68281663Y-77473903D01*
X68495830Y-77374035D01*
X68689401Y-77238495D01*
X68856495Y-77071401D01*
X68986424Y-76885842D01*
X69041002Y-76842217D01*
X69110500Y-76835023D01*
X69172855Y-76866546D01*
X69189575Y-76885842D01*
X69319500Y-77071395D01*
X69319505Y-77071401D01*
X69486599Y-77238495D01*
X69580905Y-77304529D01*
X69680165Y-77374032D01*
X69680167Y-77374033D01*
X69680170Y-77374035D01*
X69893321Y-77473429D01*
X69899244Y-77476191D01*
X69898693Y-77477372D01*
X69949899Y-77515064D01*
X69974843Y-77580329D01*
X69960542Y-77648719D01*
X69911537Y-77698521D01*
X69907790Y-77700394D01*
X69905265Y-77701851D01*
X69752129Y-77813111D01*
X69625466Y-77953785D01*
X69530821Y-78117715D01*
X69530818Y-78117722D01*
X69472327Y-78297740D01*
X69472326Y-78297744D01*
X69452540Y-78486000D01*
X69472326Y-78674256D01*
X69472327Y-78674259D01*
X69530818Y-78854277D01*
X69530821Y-78854284D01*
X69625467Y-79018216D01*
X69715204Y-79117879D01*
X69752129Y-79158888D01*
X69905265Y-79270148D01*
X69905270Y-79270151D01*
X70078192Y-79347142D01*
X70078197Y-79347144D01*
X70263354Y-79386500D01*
X70263355Y-79386500D01*
X70452644Y-79386500D01*
X70452646Y-79386500D01*
X70637803Y-79347144D01*
X70810730Y-79270151D01*
X70963871Y-79158888D01*
X70967799Y-79154525D01*
X71027286Y-79117879D01*
X71059947Y-79113500D01*
X82746719Y-79113500D01*
X82813758Y-79133185D01*
X82834400Y-79149819D01*
X111604181Y-107919599D01*
X111637666Y-107980922D01*
X111640500Y-108007280D01*
X111640499Y-140658719D01*
X111620814Y-140725758D01*
X111604180Y-140746400D01*
X105948400Y-146402181D01*
X105887077Y-146435666D01*
X105860719Y-146438500D01*
X87687281Y-146438500D01*
X87620242Y-146418815D01*
X87599600Y-146402181D01*
X84737819Y-143540399D01*
X84704334Y-143479076D01*
X84701500Y-143452718D01*
X84701500Y-140265281D01*
X84721185Y-140198242D01*
X84737819Y-140177600D01*
X85821600Y-139093819D01*
X85882923Y-139060334D01*
X85909281Y-139057500D01*
X88334719Y-139057500D01*
X88401758Y-139077185D01*
X88422400Y-139093819D01*
X89252181Y-139923600D01*
X89285666Y-139984923D01*
X89288500Y-140011281D01*
X89288500Y-140458173D01*
X89268815Y-140525212D01*
X89235624Y-140559748D01*
X89044597Y-140693505D01*
X88922673Y-140815430D01*
X88861350Y-140848914D01*
X88791658Y-140843930D01*
X88735725Y-140802058D01*
X88718810Y-140771081D01*
X88669797Y-140639671D01*
X88669793Y-140639664D01*
X88583547Y-140524455D01*
X88583544Y-140524452D01*
X88468335Y-140438206D01*
X88468328Y-140438202D01*
X88333482Y-140387908D01*
X88333483Y-140387908D01*
X88273883Y-140381501D01*
X88273881Y-140381500D01*
X88273873Y-140381500D01*
X88273864Y-140381500D01*
X86478129Y-140381500D01*
X86478123Y-140381501D01*
X86418516Y-140387908D01*
X86283671Y-140438202D01*
X86283664Y-140438206D01*
X86168455Y-140524452D01*
X86168452Y-140524455D01*
X86082206Y-140639664D01*
X86082202Y-140639671D01*
X86031908Y-140774517D01*
X86025501Y-140834116D01*
X86025500Y-140834135D01*
X86025500Y-142629870D01*
X86025501Y-142629876D01*
X86031908Y-142689483D01*
X86082202Y-142824328D01*
X86082206Y-142824335D01*
X86168452Y-142939544D01*
X86168455Y-142939547D01*
X86283664Y-143025793D01*
X86283671Y-143025797D01*
X86418517Y-143076091D01*
X86418516Y-143076091D01*
X86425444Y-143076835D01*
X86478127Y-143082500D01*
X88273872Y-143082499D01*
X88333483Y-143076091D01*
X88468331Y-143025796D01*
X88583546Y-142939546D01*
X88669796Y-142824331D01*
X88718810Y-142692916D01*
X88760681Y-142636984D01*
X88826145Y-142612566D01*
X88894418Y-142627417D01*
X88922673Y-142648569D01*
X89044599Y-142770495D01*
X89141384Y-142838264D01*
X89238165Y-142906032D01*
X89238167Y-142906033D01*
X89238170Y-142906035D01*
X89452337Y-143005903D01*
X89680592Y-143067063D01*
X89857034Y-143082500D01*
X89915999Y-143087659D01*
X89916000Y-143087659D01*
X89916001Y-143087659D01*
X89974966Y-143082500D01*
X90151408Y-143067063D01*
X90379663Y-143005903D01*
X90593830Y-142906035D01*
X90787401Y-142770495D01*
X90954495Y-142603401D01*
X91084426Y-142417840D01*
X91139001Y-142374217D01*
X91208499Y-142367023D01*
X91270854Y-142398546D01*
X91287574Y-142417841D01*
X91332321Y-142481746D01*
X91417505Y-142603401D01*
X91584599Y-142770495D01*
X91681384Y-142838264D01*
X91778165Y-142906032D01*
X91778167Y-142906033D01*
X91778170Y-142906035D01*
X91992337Y-143005903D01*
X92220592Y-143067063D01*
X92397034Y-143082500D01*
X92455999Y-143087659D01*
X92456000Y-143087659D01*
X92456001Y-143087659D01*
X92514966Y-143082500D01*
X92691408Y-143067063D01*
X92919663Y-143005903D01*
X93133830Y-142906035D01*
X93327401Y-142770495D01*
X93494495Y-142603401D01*
X93624426Y-142417841D01*
X93679002Y-142374217D01*
X93748500Y-142367023D01*
X93810855Y-142398546D01*
X93827575Y-142417842D01*
X93957500Y-142603395D01*
X93957505Y-142603401D01*
X94124599Y-142770495D01*
X94221384Y-142838264D01*
X94318165Y-142906032D01*
X94318167Y-142906033D01*
X94318170Y-142906035D01*
X94532337Y-143005903D01*
X94760592Y-143067063D01*
X94937034Y-143082500D01*
X94995999Y-143087659D01*
X94996000Y-143087659D01*
X94996001Y-143087659D01*
X95054966Y-143082500D01*
X95231408Y-143067063D01*
X95459663Y-143005903D01*
X95673830Y-142906035D01*
X95867401Y-142770495D01*
X96034495Y-142603401D01*
X96164426Y-142417840D01*
X96219001Y-142374217D01*
X96288499Y-142367023D01*
X96350854Y-142398546D01*
X96367574Y-142417841D01*
X96412321Y-142481746D01*
X96497505Y-142603401D01*
X96664599Y-142770495D01*
X96761384Y-142838264D01*
X96858165Y-142906032D01*
X96858167Y-142906033D01*
X96858170Y-142906035D01*
X97072337Y-143005903D01*
X97300592Y-143067063D01*
X97477034Y-143082500D01*
X97535999Y-143087659D01*
X97536000Y-143087659D01*
X97536001Y-143087659D01*
X97594966Y-143082500D01*
X97771408Y-143067063D01*
X97999663Y-143005903D01*
X98213830Y-142906035D01*
X98407401Y-142770495D01*
X98574495Y-142603401D01*
X98704426Y-142417841D01*
X98759002Y-142374217D01*
X98828500Y-142367023D01*
X98890855Y-142398546D01*
X98907575Y-142417842D01*
X99037500Y-142603395D01*
X99037505Y-142603401D01*
X99204599Y-142770495D01*
X99301384Y-142838264D01*
X99398165Y-142906032D01*
X99398167Y-142906033D01*
X99398170Y-142906035D01*
X99612337Y-143005903D01*
X99840592Y-143067063D01*
X100017034Y-143082500D01*
X100075999Y-143087659D01*
X100076000Y-143087659D01*
X100076001Y-143087659D01*
X100134966Y-143082500D01*
X100311408Y-143067063D01*
X100539663Y-143005903D01*
X100753830Y-142906035D01*
X100947401Y-142770495D01*
X101114495Y-142603401D01*
X101244426Y-142417840D01*
X101299001Y-142374217D01*
X101368499Y-142367023D01*
X101430854Y-142398546D01*
X101447574Y-142417841D01*
X101492321Y-142481746D01*
X101577505Y-142603401D01*
X101744599Y-142770495D01*
X101841384Y-142838264D01*
X101938165Y-142906032D01*
X101938167Y-142906033D01*
X101938170Y-142906035D01*
X102152337Y-143005903D01*
X102380592Y-143067063D01*
X102557034Y-143082500D01*
X102615999Y-143087659D01*
X102616000Y-143087659D01*
X102616001Y-143087659D01*
X102674966Y-143082500D01*
X102851408Y-143067063D01*
X103079663Y-143005903D01*
X103293830Y-142906035D01*
X103487401Y-142770495D01*
X103654495Y-142603401D01*
X103784426Y-142417841D01*
X103839002Y-142374217D01*
X103908500Y-142367023D01*
X103970855Y-142398546D01*
X103987575Y-142417842D01*
X104117500Y-142603395D01*
X104117505Y-142603401D01*
X104284599Y-142770495D01*
X104381384Y-142838264D01*
X104478165Y-142906032D01*
X104478167Y-142906033D01*
X104478170Y-142906035D01*
X104692337Y-143005903D01*
X104920592Y-143067063D01*
X105097034Y-143082500D01*
X105155999Y-143087659D01*
X105156000Y-143087659D01*
X105156001Y-143087659D01*
X105214966Y-143082500D01*
X105391408Y-143067063D01*
X105619663Y-143005903D01*
X105833830Y-142906035D01*
X106027401Y-142770495D01*
X106194495Y-142603401D01*
X106330035Y-142409830D01*
X106429903Y-142195663D01*
X106491063Y-141967408D01*
X106511659Y-141732000D01*
X106491063Y-141496592D01*
X106429903Y-141268337D01*
X106330035Y-141054171D01*
X106324425Y-141046158D01*
X106194494Y-140860597D01*
X106027402Y-140693506D01*
X106027395Y-140693501D01*
X105833834Y-140557967D01*
X105833830Y-140557965D01*
X105833828Y-140557964D01*
X105619663Y-140458097D01*
X105619659Y-140458096D01*
X105619655Y-140458094D01*
X105391413Y-140396938D01*
X105391403Y-140396936D01*
X105156001Y-140376341D01*
X105155999Y-140376341D01*
X104920596Y-140396936D01*
X104920586Y-140396938D01*
X104692344Y-140458094D01*
X104692335Y-140458098D01*
X104478171Y-140557964D01*
X104478169Y-140557965D01*
X104284597Y-140693505D01*
X104117505Y-140860597D01*
X103987575Y-141046158D01*
X103932998Y-141089783D01*
X103863500Y-141096977D01*
X103801145Y-141065454D01*
X103784425Y-141046158D01*
X103654494Y-140860597D01*
X103487402Y-140693506D01*
X103487395Y-140693501D01*
X103293834Y-140557967D01*
X103293830Y-140557965D01*
X103293828Y-140557964D01*
X103079663Y-140458097D01*
X103079659Y-140458096D01*
X103079655Y-140458094D01*
X102851413Y-140396938D01*
X102851403Y-140396936D01*
X102616001Y-140376341D01*
X102615999Y-140376341D01*
X102380596Y-140396936D01*
X102380586Y-140396938D01*
X102152344Y-140458094D01*
X102152335Y-140458098D01*
X101938171Y-140557964D01*
X101938169Y-140557965D01*
X101744597Y-140693505D01*
X101577508Y-140860594D01*
X101447574Y-141046159D01*
X101392997Y-141089784D01*
X101323498Y-141096976D01*
X101261144Y-141065454D01*
X101244424Y-141046158D01*
X101218925Y-141009742D01*
X101114495Y-140860599D01*
X101114494Y-140860597D01*
X100947402Y-140693506D01*
X100947395Y-140693501D01*
X100753834Y-140557967D01*
X100753830Y-140557965D01*
X100753828Y-140557964D01*
X100539663Y-140458097D01*
X100539659Y-140458096D01*
X100539655Y-140458094D01*
X100311413Y-140396938D01*
X100311403Y-140396936D01*
X100076001Y-140376341D01*
X100075999Y-140376341D01*
X99840596Y-140396936D01*
X99840586Y-140396938D01*
X99612344Y-140458094D01*
X99612335Y-140458098D01*
X99398171Y-140557964D01*
X99398169Y-140557965D01*
X99204597Y-140693505D01*
X99037508Y-140860594D01*
X98907574Y-141046159D01*
X98852997Y-141089784D01*
X98783498Y-141096976D01*
X98721144Y-141065454D01*
X98704424Y-141046158D01*
X98678925Y-141009742D01*
X98574495Y-140860599D01*
X98574494Y-140860597D01*
X98407402Y-140693506D01*
X98407395Y-140693501D01*
X98213834Y-140557967D01*
X98213830Y-140557965D01*
X98213828Y-140557964D01*
X97999663Y-140458097D01*
X97999659Y-140458096D01*
X97999655Y-140458094D01*
X97771413Y-140396938D01*
X97771403Y-140396936D01*
X97536001Y-140376341D01*
X97535999Y-140376341D01*
X97300596Y-140396936D01*
X97300586Y-140396938D01*
X97072344Y-140458094D01*
X97072335Y-140458098D01*
X96858171Y-140557964D01*
X96858169Y-140557965D01*
X96664597Y-140693505D01*
X96497505Y-140860597D01*
X96367575Y-141046158D01*
X96312998Y-141089783D01*
X96243500Y-141096977D01*
X96181145Y-141065454D01*
X96164425Y-141046158D01*
X96034494Y-140860597D01*
X95867402Y-140693506D01*
X95867395Y-140693501D01*
X95673834Y-140557967D01*
X95673830Y-140557965D01*
X95673828Y-140557964D01*
X95459663Y-140458097D01*
X95459659Y-140458096D01*
X95459655Y-140458094D01*
X95231413Y-140396938D01*
X95231403Y-140396936D01*
X94996001Y-140376341D01*
X94995999Y-140376341D01*
X94760596Y-140396936D01*
X94760586Y-140396938D01*
X94532344Y-140458094D01*
X94532335Y-140458098D01*
X94318171Y-140557964D01*
X94318169Y-140557965D01*
X94124597Y-140693505D01*
X93957505Y-140860597D01*
X93827575Y-141046158D01*
X93772998Y-141089783D01*
X93703500Y-141096977D01*
X93641145Y-141065454D01*
X93624425Y-141046158D01*
X93494494Y-140860597D01*
X93327402Y-140693506D01*
X93327401Y-140693505D01*
X93136376Y-140559748D01*
X93092752Y-140505171D01*
X93083500Y-140458173D01*
X93083500Y-94570964D01*
X93085228Y-94555313D01*
X93084946Y-94555287D01*
X93085680Y-94547524D01*
X93083500Y-94478140D01*
X93083500Y-94448530D01*
X93083500Y-94448524D01*
X93082626Y-94441607D01*
X93082169Y-94435792D01*
X93080932Y-94396426D01*
X93080701Y-94389057D01*
X93075084Y-94369727D01*
X93071138Y-94350668D01*
X93068617Y-94330711D01*
X93068616Y-94330709D01*
X93068616Y-94330707D01*
X93051403Y-94287234D01*
X93049514Y-94281713D01*
X93036467Y-94236807D01*
X93026225Y-94219489D01*
X93017662Y-94202011D01*
X93010253Y-94183297D01*
X93010253Y-94183296D01*
X92982771Y-94145472D01*
X92979567Y-94140596D01*
X92955763Y-94100344D01*
X92955761Y-94100342D01*
X92955759Y-94100339D01*
X92941531Y-94086112D01*
X92928896Y-94071320D01*
X92917063Y-94055033D01*
X92917060Y-94055031D01*
X92917060Y-94055030D01*
X92917059Y-94055029D01*
X92881035Y-94025228D01*
X92876713Y-94021294D01*
X85846376Y-86990957D01*
X85836531Y-86978668D01*
X85836313Y-86978849D01*
X85831340Y-86972838D01*
X85810438Y-86953210D01*
X85780741Y-86925322D01*
X85770268Y-86914849D01*
X85759797Y-86904377D01*
X85754296Y-86900111D01*
X85749848Y-86896312D01*
X85715768Y-86864308D01*
X85715763Y-86864304D01*
X85698122Y-86854606D01*
X85681857Y-86843922D01*
X85665963Y-86831593D01*
X85665962Y-86831592D01*
X85643212Y-86821747D01*
X85623054Y-86813023D01*
X85617807Y-86810453D01*
X85576837Y-86787929D01*
X85576828Y-86787926D01*
X85557334Y-86782920D01*
X85538933Y-86776620D01*
X85520459Y-86768626D01*
X85520452Y-86768624D01*
X85474287Y-86761313D01*
X85468563Y-86760128D01*
X85423279Y-86748500D01*
X85423272Y-86748500D01*
X85403142Y-86748500D01*
X85383743Y-86746973D01*
X85363868Y-86743825D01*
X85363867Y-86743825D01*
X85317321Y-86748225D01*
X85311483Y-86748500D01*
X66122967Y-86748500D01*
X66107318Y-86746772D01*
X66107292Y-86747054D01*
X66099524Y-86746319D01*
X66030141Y-86748500D01*
X66000522Y-86748500D01*
X65993618Y-86749371D01*
X65987800Y-86749829D01*
X65941060Y-86751298D01*
X65941054Y-86751299D01*
X65921719Y-86756916D01*
X65902680Y-86760859D01*
X65882715Y-86763382D01*
X65882701Y-86763385D01*
X65839235Y-86780594D01*
X65833710Y-86782485D01*
X65788809Y-86795531D01*
X65788806Y-86795533D01*
X65771480Y-86805779D01*
X65754010Y-86814337D01*
X65735298Y-86821745D01*
X65697463Y-86849233D01*
X65692580Y-86852440D01*
X65652346Y-86876234D01*
X65638106Y-86890474D01*
X65623320Y-86903102D01*
X65607033Y-86914936D01*
X65607032Y-86914936D01*
X65577227Y-86950963D01*
X65573295Y-86955285D01*
X64892953Y-87635626D01*
X64880669Y-87645469D01*
X64880849Y-87645687D01*
X64874838Y-87650659D01*
X64827322Y-87701258D01*
X64806375Y-87722205D01*
X64802106Y-87727709D01*
X64798315Y-87732147D01*
X64766308Y-87766230D01*
X64766305Y-87766234D01*
X64756606Y-87783877D01*
X64745928Y-87800133D01*
X64733594Y-87816034D01*
X64733589Y-87816042D01*
X64715025Y-87858943D01*
X64712454Y-87864191D01*
X64689927Y-87905167D01*
X64684920Y-87924668D01*
X64678621Y-87943064D01*
X64671893Y-87958612D01*
X64670625Y-87961544D01*
X64670624Y-87961546D01*
X64663312Y-88007716D01*
X64662127Y-88013438D01*
X64650500Y-88058723D01*
X64650500Y-88078858D01*
X64648973Y-88098257D01*
X64645825Y-88118131D01*
X64645824Y-88118134D01*
X64650224Y-88164678D01*
X64650499Y-88170515D01*
X64650500Y-90166173D01*
X64630815Y-90233212D01*
X64597624Y-90267748D01*
X64406594Y-90401508D01*
X64239505Y-90568597D01*
X64109575Y-90754158D01*
X64054998Y-90797783D01*
X63985500Y-90804977D01*
X63923145Y-90773454D01*
X63906425Y-90754158D01*
X63776494Y-90568597D01*
X63609402Y-90401506D01*
X63609395Y-90401501D01*
X63598111Y-90393600D01*
X63570521Y-90374281D01*
X63415834Y-90265967D01*
X63415830Y-90265965D01*
X63415829Y-90265964D01*
X63201663Y-90166097D01*
X63201659Y-90166096D01*
X63201655Y-90166094D01*
X62973413Y-90104938D01*
X62973403Y-90104936D01*
X62738001Y-90084341D01*
X62737999Y-90084341D01*
X62502596Y-90104936D01*
X62502586Y-90104938D01*
X62274344Y-90166094D01*
X62274335Y-90166098D01*
X62060171Y-90265964D01*
X62060169Y-90265965D01*
X61866597Y-90401505D01*
X61699505Y-90568597D01*
X61569575Y-90754158D01*
X61514998Y-90797783D01*
X61445500Y-90804977D01*
X61383145Y-90773454D01*
X61366425Y-90754158D01*
X61236494Y-90568597D01*
X61069402Y-90401506D01*
X61069395Y-90401501D01*
X61058111Y-90393600D01*
X61030521Y-90374281D01*
X60875834Y-90265967D01*
X60875830Y-90265965D01*
X60875828Y-90265964D01*
X60661663Y-90166097D01*
X60661659Y-90166096D01*
X60661655Y-90166094D01*
X60433413Y-90104938D01*
X60433403Y-90104936D01*
X60198001Y-90084341D01*
X60197999Y-90084341D01*
X59962596Y-90104936D01*
X59962586Y-90104938D01*
X59734344Y-90166094D01*
X59734335Y-90166098D01*
X59520171Y-90265964D01*
X59520169Y-90265965D01*
X59326597Y-90401505D01*
X59159505Y-90568597D01*
X59029575Y-90754158D01*
X58974998Y-90797783D01*
X58905500Y-90804977D01*
X58843145Y-90773454D01*
X58826425Y-90754158D01*
X58696494Y-90568597D01*
X58529402Y-90401506D01*
X58529395Y-90401501D01*
X58518111Y-90393600D01*
X58490521Y-90374281D01*
X58335834Y-90265967D01*
X58335830Y-90265965D01*
X58335829Y-90265964D01*
X58121663Y-90166097D01*
X58121659Y-90166096D01*
X58121655Y-90166094D01*
X57893413Y-90104938D01*
X57893403Y-90104936D01*
X57658001Y-90084341D01*
X57657999Y-90084341D01*
X57422596Y-90104936D01*
X57422586Y-90104938D01*
X57194344Y-90166094D01*
X57194335Y-90166098D01*
X56980171Y-90265964D01*
X56980169Y-90265965D01*
X56786597Y-90401505D01*
X56619505Y-90568597D01*
X56489575Y-90754158D01*
X56434998Y-90797783D01*
X56365500Y-90804977D01*
X56303145Y-90773454D01*
X56286425Y-90754158D01*
X56156494Y-90568597D01*
X55989402Y-90401506D01*
X55989395Y-90401501D01*
X55978111Y-90393600D01*
X55950521Y-90374281D01*
X55795834Y-90265967D01*
X55795830Y-90265965D01*
X55795828Y-90265964D01*
X55581663Y-90166097D01*
X55581659Y-90166096D01*
X55581655Y-90166094D01*
X55353413Y-90104938D01*
X55353403Y-90104936D01*
X55118001Y-90084341D01*
X55117999Y-90084341D01*
X54882596Y-90104936D01*
X54882586Y-90104938D01*
X54654344Y-90166094D01*
X54654335Y-90166098D01*
X54440171Y-90265964D01*
X54440169Y-90265965D01*
X54246597Y-90401505D01*
X54079508Y-90568594D01*
X53949574Y-90754159D01*
X53894997Y-90797784D01*
X53825498Y-90804976D01*
X53763144Y-90773454D01*
X53746424Y-90754158D01*
X53616494Y-90568597D01*
X53449402Y-90401506D01*
X53449395Y-90401501D01*
X53438111Y-90393600D01*
X53410521Y-90374281D01*
X53255834Y-90265967D01*
X53255830Y-90265965D01*
X53255829Y-90265964D01*
X53041663Y-90166097D01*
X53041659Y-90166096D01*
X53041655Y-90166094D01*
X52813413Y-90104938D01*
X52813403Y-90104936D01*
X52578001Y-90084341D01*
X52577999Y-90084341D01*
X52342596Y-90104936D01*
X52342586Y-90104938D01*
X52114344Y-90166094D01*
X52114335Y-90166098D01*
X51900171Y-90265964D01*
X51900169Y-90265965D01*
X51706597Y-90401505D01*
X51539505Y-90568597D01*
X51409575Y-90754158D01*
X51354998Y-90797783D01*
X51285500Y-90804977D01*
X51223145Y-90773454D01*
X51206425Y-90754158D01*
X51076494Y-90568597D01*
X50909402Y-90401506D01*
X50909401Y-90401505D01*
X50909395Y-90401501D01*
X50718375Y-90267747D01*
X50674752Y-90213171D01*
X50665500Y-90166173D01*
X50665500Y-87966964D01*
X50667228Y-87951313D01*
X50666946Y-87951287D01*
X50667680Y-87943524D01*
X50665500Y-87874140D01*
X50665500Y-87844530D01*
X50665500Y-87844524D01*
X50664626Y-87837607D01*
X50664169Y-87831792D01*
X50663674Y-87816034D01*
X50662701Y-87785057D01*
X50657084Y-87765727D01*
X50653138Y-87746668D01*
X50650617Y-87726711D01*
X50650616Y-87726709D01*
X50650616Y-87726707D01*
X50633403Y-87683234D01*
X50631514Y-87677713D01*
X50618467Y-87632807D01*
X50608225Y-87615489D01*
X50599662Y-87598011D01*
X50592253Y-87579297D01*
X50592253Y-87579296D01*
X50564771Y-87541472D01*
X50561567Y-87536596D01*
X50537763Y-87496344D01*
X50537761Y-87496342D01*
X50537759Y-87496339D01*
X50523531Y-87482112D01*
X50510896Y-87467320D01*
X50499063Y-87451033D01*
X50499060Y-87451031D01*
X50499060Y-87451030D01*
X50499059Y-87451029D01*
X50463035Y-87421228D01*
X50458713Y-87417294D01*
X47492376Y-84450957D01*
X47482531Y-84438668D01*
X47482313Y-84438849D01*
X47477340Y-84432838D01*
X47477340Y-84432837D01*
X47426741Y-84385322D01*
X47416268Y-84374849D01*
X47405797Y-84364377D01*
X47400296Y-84360111D01*
X47395848Y-84356312D01*
X47361768Y-84324308D01*
X47361763Y-84324304D01*
X47344122Y-84314606D01*
X47327857Y-84303922D01*
X47311963Y-84291593D01*
X47311962Y-84291592D01*
X47296804Y-84285032D01*
X47269054Y-84273023D01*
X47263807Y-84270453D01*
X47222837Y-84247929D01*
X47222828Y-84247926D01*
X47203334Y-84242920D01*
X47184933Y-84236620D01*
X47166459Y-84228626D01*
X47166452Y-84228624D01*
X47120287Y-84221313D01*
X47114563Y-84220128D01*
X47069279Y-84208500D01*
X47069272Y-84208500D01*
X47049142Y-84208500D01*
X47029743Y-84206973D01*
X47009868Y-84203825D01*
X47009867Y-84203825D01*
X46963321Y-84208225D01*
X46957483Y-84208500D01*
X39173281Y-84208500D01*
X39106242Y-84188815D01*
X39085600Y-84172181D01*
X31651819Y-76738400D01*
X31618334Y-76677077D01*
X31615500Y-76650719D01*
X31615500Y-74987281D01*
X31635185Y-74920242D01*
X31651819Y-74899600D01*
X32989600Y-73561819D01*
X33050923Y-73528334D01*
X33077281Y-73525500D01*
X57873616Y-73525500D01*
X57940655Y-73545185D01*
G37*
%TD.AperFunction*%
%TD*%
M02*
