M48
; DRILL file {KiCad 7.0.7} date 2023 September 27, Wednesday 10:02:53
; FORMAT={-:-/ absolute / inch / decimal}
; #@! TF.CreationDate,2023-09-27T10:02:53+02:00
; #@! TF.GenerationSoftware,Kicad,Pcbnew,7.0.7
; #@! TF.FileFunction,Plated,1,2,PTH
FMAT,2
INCH
; #@! TA.AperFunction,Plated,PTH,ViaDrill
T1C0.0157
; #@! TA.AperFunction,Plated,PTH,ComponentDrill
T2C0.0394
%
G90
G05
T1
X1.27Y-2.84
X1.27Y-5.26
X1.3Y-2.79
X1.33Y-3.43
X1.42Y-3.92
X1.44Y-3.18
X1.54Y-3.22
X1.55Y-3.38
X1.6Y-3.27
X1.77Y-4.23
X1.9Y-4.65
X2.28Y-4.3
X2.29Y-2.84
X2.43Y-3.81
X2.51Y-2.84
X2.53Y-3.73
X2.53Y-5.24
X2.55Y-2.9
X2.62Y-4.3
X2.62Y-5.24
X2.77Y-3.09
T2
X1.3Y-5.36
X1.3Y-5.66
X1.37Y-3.0
X1.37Y-3.6
X1.4Y-5.36
X1.4Y-5.66
X1.44Y-4.86
X1.47Y-3.0
X1.47Y-3.6
X1.54Y-4.86
X1.57Y-3.0
X1.57Y-3.6
X1.64Y-4.86
X1.67Y-3.0
X1.67Y-3.6
X1.74Y-4.86
X1.77Y-3.0
X1.77Y-3.6
X1.78Y-5.36
X1.78Y-5.66
X1.87Y-3.0
X1.87Y-3.6
X1.88Y-5.36
X1.88Y-5.66
X1.9561Y-3.9896
X1.9561Y-4.0896
X1.9561Y-4.1896
X1.9561Y-4.2896
X1.97Y-3.0
X1.97Y-3.6
X2.07Y-3.0
X2.07Y-3.6
X2.17Y-3.0
X2.17Y-3.6
X2.27Y-3.0
X2.27Y-3.6
X2.37Y-3.0
X2.37Y-3.6
X2.43Y-3.91
X2.47Y-3.0
X2.47Y-3.6
X2.53Y-3.91
X2.57Y-3.0
X2.57Y-3.6
X2.63Y-3.91
X2.67Y-3.0
X2.67Y-3.6
X2.73Y-3.91
X2.77Y-3.0
X2.77Y-3.6
X2.83Y-3.91
X2.87Y-3.0
X2.87Y-3.6
X2.93Y-3.91
X2.97Y-3.0
X2.97Y-3.6
X3.07Y-3.0
X3.07Y-3.6
X3.17Y-3.0
X3.17Y-3.6
X3.27Y-3.0
X3.27Y-3.6
X3.44Y-5.58
X3.44Y-6.58
X3.54Y-5.58
X3.54Y-6.58
X3.64Y-5.58
X3.64Y-6.58
X3.74Y-5.58
X3.74Y-6.58
X3.7899Y-2.9689
X3.84Y-5.58
X3.84Y-6.58
X3.8899Y-2.9689
X3.94Y-5.58
X3.94Y-6.58
X3.9899Y-2.9689
X4.0317Y-1.617
X4.04Y-5.58
X4.04Y-6.58
X4.0899Y-2.9689
X4.1317Y-1.617
X4.14Y-5.58
X4.14Y-6.58
T0
M30
